G04*
G04 #@! TF.GenerationSoftware,Altium Limited,Altium Designer,20.2.7 (254)*
G04*
G04 Layer_Physical_Order=4*
G04 Layer_Color=16711680*
%FSLAX25Y25*%
%MOIN*%
G70*
G04*
G04 #@! TF.SameCoordinates,6A7C296C-3D1D-46A6-B2F7-2068CE29E54D*
G04*
G04*
G04 #@! TF.FilePolarity,Positive*
G04*
G01*
G75*
%ADD14C,0.01000*%
%ADD15C,0.00050*%
%ADD72C,0.06102*%
%ADD77R,0.06102X0.06102*%
%ADD86C,0.06791*%
%ADD87C,0.05118*%
%ADD88C,0.05906*%
%ADD89R,0.05906X0.05906*%
%ADD90R,0.06791X0.06791*%
%ADD91C,0.06496*%
%ADD92R,0.06496X0.06496*%
%ADD93R,0.06791X0.06791*%
%ADD94C,0.03937*%
%ADD95C,0.13780*%
G36*
X393701Y393701D02*
Y0D01*
X0D01*
Y393701D01*
X393701D01*
X393701Y393701D01*
D02*
G37*
%LPC*%
G36*
X366142Y385881D02*
X364595Y385728D01*
X363108Y385277D01*
X361737Y384545D01*
X360536Y383559D01*
X359550Y382357D01*
X358817Y380987D01*
X358366Y379499D01*
X358214Y377953D01*
X358366Y376406D01*
X358817Y374919D01*
X359550Y373548D01*
X360536Y372347D01*
X361737Y371361D01*
X363108Y370628D01*
X364595Y370177D01*
X366142Y370025D01*
X367688Y370177D01*
X369176Y370628D01*
X370546Y371361D01*
X371748Y372347D01*
X372734Y373548D01*
X373466Y374919D01*
X373917Y376406D01*
X374070Y377953D01*
X373917Y379499D01*
X373466Y380987D01*
X372734Y382357D01*
X371748Y383559D01*
X370546Y384545D01*
X369176Y385277D01*
X367688Y385728D01*
X366142Y385881D01*
D02*
G37*
G36*
X27559D02*
X26012Y385728D01*
X24525Y385277D01*
X23155Y384545D01*
X21953Y383559D01*
X20967Y382357D01*
X20235Y380987D01*
X19783Y379499D01*
X19631Y377953D01*
X19783Y376406D01*
X20235Y374919D01*
X20967Y373548D01*
X21953Y372347D01*
X23155Y371361D01*
X24525Y370628D01*
X26012Y370177D01*
X27559Y370025D01*
X29106Y370177D01*
X30593Y370628D01*
X31964Y371361D01*
X33165Y372347D01*
X34151Y373548D01*
X34883Y374919D01*
X35335Y376406D01*
X35487Y377953D01*
X35335Y379499D01*
X34883Y380987D01*
X34151Y382357D01*
X33165Y383559D01*
X31964Y384545D01*
X30593Y385277D01*
X29106Y385728D01*
X27559Y385881D01*
D02*
G37*
G36*
X235838Y358875D02*
Y356447D01*
X238266D01*
X238230Y356722D01*
X237931Y357444D01*
X237455Y358064D01*
X236835Y358540D01*
X236113Y358839D01*
X235838Y358875D01*
D02*
G37*
G36*
X234838D02*
X234563Y358839D01*
X233841Y358540D01*
X233221Y358064D01*
X232745Y357444D01*
X232446Y356722D01*
X232410Y356447D01*
X234838D01*
Y358875D01*
D02*
G37*
G36*
X262124Y358746D02*
Y356318D01*
X264552D01*
X264516Y356593D01*
X264217Y357315D01*
X263741Y357935D01*
X263121Y358411D01*
X262399Y358710D01*
X262124Y358746D01*
D02*
G37*
G36*
X261124D02*
X260849Y358710D01*
X260127Y358411D01*
X259507Y357935D01*
X259031Y357315D01*
X258732Y356593D01*
X258696Y356318D01*
X261124D01*
Y358746D01*
D02*
G37*
G36*
X238266Y355447D02*
X235838D01*
Y353018D01*
X236113Y353055D01*
X236835Y353354D01*
X237455Y353830D01*
X237931Y354450D01*
X238230Y355172D01*
X238266Y355447D01*
D02*
G37*
G36*
X234838D02*
X232410D01*
X232446Y355172D01*
X232745Y354450D01*
X233221Y353830D01*
X233841Y353354D01*
X234563Y353055D01*
X234838Y353018D01*
Y355447D01*
D02*
G37*
G36*
X264552Y355318D02*
X262124D01*
Y352889D01*
X262399Y352926D01*
X263121Y353225D01*
X263741Y353701D01*
X264217Y354321D01*
X264516Y355043D01*
X264552Y355318D01*
D02*
G37*
G36*
X261124D02*
X258696D01*
X258732Y355043D01*
X259031Y354321D01*
X259507Y353701D01*
X260127Y353225D01*
X260849Y352926D01*
X261124Y352889D01*
Y355318D01*
D02*
G37*
G36*
X141631Y346613D02*
Y344185D01*
X144059D01*
X144023Y344460D01*
X143724Y345182D01*
X143248Y345802D01*
X142628Y346278D01*
X141906Y346577D01*
X141631Y346613D01*
D02*
G37*
G36*
X140631D02*
X140356Y346577D01*
X139634Y346278D01*
X139014Y345802D01*
X138538Y345182D01*
X138239Y344460D01*
X138202Y344185D01*
X140631D01*
Y346613D01*
D02*
G37*
G36*
X144059Y343185D02*
X141631D01*
Y340756D01*
X141906Y340793D01*
X142628Y341092D01*
X143248Y341567D01*
X143724Y342188D01*
X144023Y342910D01*
X144059Y343185D01*
D02*
G37*
G36*
X140631D02*
X138202D01*
X138239Y342910D01*
X138538Y342188D01*
X139014Y341567D01*
X139634Y341092D01*
X140356Y340793D01*
X140631Y340756D01*
Y343185D01*
D02*
G37*
G36*
X169261Y339041D02*
Y336613D01*
X171689D01*
X171653Y336888D01*
X171353Y337610D01*
X170878Y338230D01*
X170258Y338706D01*
X169536Y339005D01*
X169261Y339041D01*
D02*
G37*
G36*
X168261D02*
X167986Y339005D01*
X167263Y338706D01*
X166643Y338230D01*
X166168Y337610D01*
X165868Y336888D01*
X165832Y336613D01*
X168261D01*
Y339041D01*
D02*
G37*
G36*
X158830Y336955D02*
Y334527D01*
X161259D01*
X161223Y334802D01*
X160924Y335524D01*
X160448Y336144D01*
X159828Y336620D01*
X159106Y336919D01*
X158830Y336955D01*
D02*
G37*
G36*
X157831D02*
X157556Y336919D01*
X156834Y336620D01*
X156213Y336144D01*
X155737Y335524D01*
X155438Y334802D01*
X155402Y334527D01*
X157831D01*
Y336955D01*
D02*
G37*
G36*
X171689Y335613D02*
X169261D01*
Y333184D01*
X169536Y333221D01*
X170258Y333520D01*
X170878Y333995D01*
X171353Y334615D01*
X171653Y335338D01*
X171689Y335613D01*
D02*
G37*
G36*
X168261D02*
X165832D01*
X165868Y335338D01*
X166168Y334615D01*
X166643Y333995D01*
X167263Y333520D01*
X167986Y333221D01*
X168261Y333184D01*
Y335613D01*
D02*
G37*
G36*
X29904Y335749D02*
Y332031D01*
X33623D01*
X33543Y332640D01*
X33115Y333673D01*
X32434Y334560D01*
X31547Y335241D01*
X30514Y335669D01*
X29904Y335749D01*
D02*
G37*
G36*
X28905Y335749D02*
X28295Y335669D01*
X27262Y335241D01*
X26375Y334560D01*
X25694Y333673D01*
X25266Y332640D01*
X25186Y332031D01*
X28905D01*
Y335749D01*
D02*
G37*
G36*
X161259Y333527D02*
X158830D01*
Y331098D01*
X159106Y331135D01*
X159828Y331434D01*
X160448Y331909D01*
X160924Y332529D01*
X161223Y333252D01*
X161259Y333527D01*
D02*
G37*
G36*
X157831D02*
X155402D01*
X155438Y333252D01*
X155737Y332529D01*
X156213Y331909D01*
X156834Y331434D01*
X157556Y331135D01*
X157831Y331098D01*
Y333527D01*
D02*
G37*
G36*
X33623Y331031D02*
X29904D01*
Y327312D01*
X30514Y327392D01*
X31547Y327820D01*
X32434Y328501D01*
X33115Y329388D01*
X33543Y330422D01*
X33623Y331031D01*
D02*
G37*
G36*
X28905D02*
X25186D01*
X25266Y330422D01*
X25694Y329388D01*
X26375Y328501D01*
X27262Y327820D01*
X28295Y327392D01*
X28905Y327312D01*
Y331031D01*
D02*
G37*
G36*
X235644Y321739D02*
Y319310D01*
X238072D01*
X238036Y319585D01*
X237737Y320308D01*
X237261Y320928D01*
X236641Y321404D01*
X235919Y321703D01*
X235644Y321739D01*
D02*
G37*
G36*
X234644D02*
X234369Y321703D01*
X233647Y321404D01*
X233027Y320928D01*
X232551Y320308D01*
X232252Y319585D01*
X232216Y319310D01*
X234644D01*
Y321739D01*
D02*
G37*
G36*
X238072Y318310D02*
X235644D01*
Y315882D01*
X235919Y315918D01*
X236641Y316217D01*
X237261Y316693D01*
X237737Y317314D01*
X238036Y318036D01*
X238072Y318310D01*
D02*
G37*
G36*
X234644D02*
X232216D01*
X232252Y318036D01*
X232551Y317314D01*
X233027Y316693D01*
X233647Y316217D01*
X234369Y315918D01*
X234644Y315882D01*
Y318310D01*
D02*
G37*
G36*
X197152Y317218D02*
Y314790D01*
X199580D01*
X199544Y315065D01*
X199245Y315787D01*
X198769Y316407D01*
X198149Y316883D01*
X197427Y317182D01*
X197152Y317218D01*
D02*
G37*
G36*
X196152D02*
X195877Y317182D01*
X195155Y316883D01*
X194535Y316407D01*
X194059Y315787D01*
X193760Y315065D01*
X193723Y314790D01*
X196152D01*
Y317218D01*
D02*
G37*
G36*
X217044Y316443D02*
Y314015D01*
X219472D01*
X219436Y314289D01*
X219137Y315012D01*
X218661Y315632D01*
X218041Y316108D01*
X217319Y316407D01*
X217044Y316443D01*
D02*
G37*
G36*
X216044D02*
X215769Y316407D01*
X215047Y316108D01*
X214426Y315632D01*
X213951Y315012D01*
X213652Y314289D01*
X213615Y314015D01*
X216044D01*
Y316443D01*
D02*
G37*
G36*
X199580Y313790D02*
X197152D01*
Y311361D01*
X197427Y311398D01*
X198149Y311697D01*
X198769Y312173D01*
X199245Y312793D01*
X199544Y313515D01*
X199580Y313790D01*
D02*
G37*
G36*
X196152D02*
X193723D01*
X193760Y313515D01*
X194059Y312793D01*
X194535Y312173D01*
X195155Y311697D01*
X195877Y311398D01*
X196152Y311361D01*
Y313790D01*
D02*
G37*
G36*
X219472Y313015D02*
X217044D01*
Y310586D01*
X217319Y310623D01*
X218041Y310922D01*
X218661Y311397D01*
X219137Y312017D01*
X219436Y312740D01*
X219472Y313015D01*
D02*
G37*
G36*
X216044D02*
X213615D01*
X213652Y312740D01*
X213951Y312017D01*
X214426Y311397D01*
X215047Y310922D01*
X215769Y310623D01*
X216044Y310586D01*
Y313015D01*
D02*
G37*
G36*
X29405Y316130D02*
X28295Y315984D01*
X27262Y315556D01*
X26375Y314875D01*
X25694Y313988D01*
X25266Y312954D01*
X25120Y311845D01*
X25266Y310736D01*
X25694Y309703D01*
X26375Y308816D01*
X27262Y308135D01*
X28295Y307707D01*
X29405Y307561D01*
X30514Y307707D01*
X31547Y308135D01*
X32434Y308816D01*
X33115Y309703D01*
X33543Y310736D01*
X33689Y311845D01*
X33543Y312954D01*
X33115Y313988D01*
X32434Y314875D01*
X31547Y315556D01*
X30514Y315984D01*
X29405Y316130D01*
D02*
G37*
G36*
X99595Y298160D02*
X98666Y298037D01*
X97801Y297679D01*
X97057Y297108D01*
X96487Y296365D01*
X96128Y295499D01*
X96006Y294570D01*
X96128Y293641D01*
X96487Y292775D01*
X97057Y292032D01*
X97801Y291461D01*
X98666Y291103D01*
X99595Y290980D01*
X100525Y291103D01*
X101390Y291461D01*
X102134Y292032D01*
X102704Y292775D01*
X103063Y293641D01*
X103185Y294570D01*
X103063Y295499D01*
X102704Y296365D01*
X102134Y297108D01*
X101390Y297679D01*
X100525Y298037D01*
X99595Y298160D01*
D02*
G37*
G36*
X249433Y288508D02*
Y286080D01*
X251861D01*
X251825Y286355D01*
X251526Y287077D01*
X251050Y287697D01*
X250430Y288173D01*
X249708Y288472D01*
X249433Y288508D01*
D02*
G37*
G36*
X248433D02*
X248158Y288472D01*
X247435Y288173D01*
X246815Y287697D01*
X246340Y287077D01*
X246041Y286355D01*
X246004Y286080D01*
X248433D01*
Y288508D01*
D02*
G37*
G36*
X251861Y285080D02*
X249433D01*
Y282651D01*
X249708Y282688D01*
X250430Y282987D01*
X251050Y283463D01*
X251526Y284083D01*
X251825Y284805D01*
X251861Y285080D01*
D02*
G37*
G36*
X248433D02*
X246004D01*
X246041Y284805D01*
X246340Y284083D01*
X246815Y283463D01*
X247435Y282987D01*
X248158Y282688D01*
X248433Y282651D01*
Y285080D01*
D02*
G37*
G36*
X99595Y268238D02*
X98666Y268116D01*
X97801Y267758D01*
X97057Y267187D01*
X96487Y266443D01*
X96128Y265578D01*
X96006Y264649D01*
X96128Y263720D01*
X96487Y262854D01*
X97057Y262110D01*
X97801Y261540D01*
X98666Y261181D01*
X99595Y261059D01*
X100525Y261181D01*
X101390Y261540D01*
X102134Y262110D01*
X102704Y262854D01*
X103063Y263720D01*
X103185Y264649D01*
X103063Y265578D01*
X102704Y266443D01*
X102134Y267187D01*
X101390Y267758D01*
X100525Y268116D01*
X99595Y268238D01*
D02*
G37*
G36*
X126097Y238710D02*
Y236282D01*
X128525D01*
X128489Y236557D01*
X128190Y237279D01*
X127714Y237899D01*
X127094Y238375D01*
X126372Y238674D01*
X126097Y238710D01*
D02*
G37*
G36*
X125097D02*
X124822Y238674D01*
X124100Y238375D01*
X123479Y237899D01*
X123004Y237279D01*
X122705Y236557D01*
X122668Y236282D01*
X125097D01*
Y238710D01*
D02*
G37*
G36*
X128525Y235282D02*
X126097D01*
Y232853D01*
X126372Y232890D01*
X127094Y233189D01*
X127714Y233664D01*
X128190Y234285D01*
X128489Y235007D01*
X128525Y235282D01*
D02*
G37*
G36*
X125097D02*
X122668D01*
X122705Y235007D01*
X123004Y234285D01*
X123479Y233664D01*
X124100Y233189D01*
X124822Y232890D01*
X125097Y232853D01*
Y235282D01*
D02*
G37*
G36*
X125058Y228425D02*
Y225997D01*
X127486D01*
X127450Y226272D01*
X127151Y226994D01*
X126675Y227614D01*
X126055Y228090D01*
X125333Y228389D01*
X125058Y228425D01*
D02*
G37*
G36*
X124058D02*
X123783Y228389D01*
X123061Y228090D01*
X122441Y227614D01*
X121965Y226994D01*
X121666Y226272D01*
X121630Y225997D01*
X124058D01*
Y228425D01*
D02*
G37*
G36*
X127486Y224997D02*
X125058D01*
Y222569D01*
X125333Y222605D01*
X126055Y222904D01*
X126675Y223380D01*
X127151Y224000D01*
X127450Y224722D01*
X127486Y224997D01*
D02*
G37*
G36*
X124058D02*
X121630D01*
X121666Y224722D01*
X121965Y224000D01*
X122441Y223380D01*
X123061Y222904D01*
X123783Y222605D01*
X124058Y222569D01*
Y224997D01*
D02*
G37*
G36*
X309251Y218513D02*
X308476Y218410D01*
X307753Y218111D01*
X307133Y217636D01*
X306658Y217016D01*
X306359Y216293D01*
X306256Y215518D01*
X306359Y214743D01*
X306658Y214021D01*
X307133Y213401D01*
X307753Y212926D01*
X308476Y212626D01*
X309251Y212524D01*
X310026Y212626D01*
X310748Y212926D01*
X311368Y213401D01*
X311843Y214021D01*
X312143Y214743D01*
X312245Y215518D01*
X312143Y216293D01*
X311843Y217016D01*
X311368Y217636D01*
X310748Y218111D01*
X310026Y218410D01*
X309251Y218513D01*
D02*
G37*
G36*
X298916Y216374D02*
X298141Y216272D01*
X297419Y215973D01*
X296799Y215497D01*
X296323Y214877D01*
X296024Y214155D01*
X295922Y213380D01*
X296024Y212605D01*
X296323Y211883D01*
X296799Y211263D01*
X297419Y210787D01*
X298141Y210488D01*
X298916Y210386D01*
X299691Y210488D01*
X300413Y210787D01*
X301033Y211263D01*
X301509Y211883D01*
X301808Y212605D01*
X301910Y213380D01*
X301808Y214155D01*
X301509Y214877D01*
X301033Y215497D01*
X300413Y215973D01*
X299691Y216272D01*
X298916Y216374D01*
D02*
G37*
G36*
X132287Y217496D02*
X131255Y217360D01*
X130293Y216962D01*
X129468Y216329D01*
X128834Y215503D01*
X128436Y214541D01*
X128300Y213509D01*
X128436Y212478D01*
X128834Y211516D01*
X129468Y210690D01*
X130293Y210057D01*
X131255Y209658D01*
X132287Y209523D01*
X133319Y209658D01*
X134280Y210057D01*
X135106Y210690D01*
X135740Y211516D01*
X136138Y212478D01*
X136274Y213509D01*
X136138Y214541D01*
X135740Y215503D01*
X135106Y216329D01*
X134280Y216962D01*
X133319Y217360D01*
X132287Y217496D01*
D02*
G37*
G36*
X102287D02*
X101255Y217360D01*
X100293Y216962D01*
X99468Y216329D01*
X98834Y215503D01*
X98436Y214541D01*
X98300Y213509D01*
X98436Y212478D01*
X98834Y211516D01*
X99468Y210690D01*
X100293Y210057D01*
X101255Y209658D01*
X102287Y209523D01*
X103319Y209658D01*
X104280Y210057D01*
X105106Y210690D01*
X105739Y211516D01*
X106138Y212478D01*
X106274Y213509D01*
X106138Y214541D01*
X105739Y215503D01*
X105106Y216329D01*
X104280Y216962D01*
X103319Y217360D01*
X102287Y217496D01*
D02*
G37*
G36*
X132287Y207496D02*
X131255Y207360D01*
X130293Y206962D01*
X129468Y206329D01*
X128834Y205503D01*
X128436Y204541D01*
X128300Y203509D01*
X128436Y202478D01*
X128834Y201516D01*
X129468Y200690D01*
X130293Y200057D01*
X131255Y199658D01*
X132287Y199523D01*
X133319Y199658D01*
X134280Y200057D01*
X135106Y200690D01*
X135740Y201516D01*
X136138Y202478D01*
X136274Y203509D01*
X136138Y204541D01*
X135740Y205503D01*
X135106Y206329D01*
X134280Y206962D01*
X133319Y207360D01*
X132287Y207496D01*
D02*
G37*
G36*
X102287D02*
X101255Y207360D01*
X100293Y206962D01*
X99468Y206329D01*
X98834Y205503D01*
X98436Y204541D01*
X98300Y203509D01*
X98436Y202478D01*
X98834Y201516D01*
X99468Y200690D01*
X100293Y200057D01*
X101255Y199658D01*
X102287Y199523D01*
X103319Y199658D01*
X104280Y200057D01*
X105106Y200690D01*
X105739Y201516D01*
X106138Y202478D01*
X106274Y203509D01*
X106138Y204541D01*
X105739Y205503D01*
X105106Y206329D01*
X104280Y206962D01*
X103319Y207360D01*
X102287Y207496D01*
D02*
G37*
G36*
X48881Y195505D02*
Y193077D01*
X51309D01*
X51273Y193352D01*
X50974Y194074D01*
X50498Y194694D01*
X49878Y195170D01*
X49156Y195469D01*
X48881Y195505D01*
D02*
G37*
G36*
X47881D02*
X47606Y195469D01*
X46883Y195170D01*
X46263Y194694D01*
X45788Y194074D01*
X45489Y193352D01*
X45452Y193077D01*
X47881D01*
Y195505D01*
D02*
G37*
G36*
X51309Y192077D02*
X48881D01*
Y189648D01*
X49156Y189685D01*
X49878Y189984D01*
X50498Y190460D01*
X50974Y191080D01*
X51273Y191802D01*
X51309Y192077D01*
D02*
G37*
G36*
X47881D02*
X45452D01*
X45489Y191802D01*
X45788Y191080D01*
X46263Y190460D01*
X46883Y189984D01*
X47606Y189685D01*
X47881Y189648D01*
Y192077D01*
D02*
G37*
G36*
X132287Y197496D02*
X131255Y197360D01*
X130293Y196962D01*
X129468Y196329D01*
X128834Y195503D01*
X128436Y194541D01*
X128300Y193509D01*
X128436Y192478D01*
X128834Y191516D01*
X129468Y190690D01*
X130293Y190057D01*
X131255Y189658D01*
X132287Y189523D01*
X133319Y189658D01*
X134280Y190057D01*
X135106Y190690D01*
X135740Y191516D01*
X136138Y192478D01*
X136274Y193509D01*
X136138Y194541D01*
X135740Y195503D01*
X135106Y196329D01*
X134280Y196962D01*
X133319Y197360D01*
X132287Y197496D01*
D02*
G37*
G36*
X102287D02*
X101255Y197360D01*
X100293Y196962D01*
X99468Y196329D01*
X98834Y195503D01*
X98436Y194541D01*
X98300Y193509D01*
X98436Y192478D01*
X98834Y191516D01*
X99468Y190690D01*
X100293Y190057D01*
X101255Y189658D01*
X102287Y189523D01*
X103319Y189658D01*
X104280Y190057D01*
X105106Y190690D01*
X105739Y191516D01*
X106138Y192478D01*
X106274Y193509D01*
X106138Y194541D01*
X105739Y195503D01*
X105106Y196329D01*
X104280Y196962D01*
X103319Y197360D01*
X102287Y197496D01*
D02*
G37*
G36*
X343293Y197309D02*
X334502D01*
Y188518D01*
X343293D01*
Y197309D01*
D02*
G37*
G36*
X328898Y197347D02*
X327750Y197196D01*
X326681Y196753D01*
X325763Y196048D01*
X325058Y195130D01*
X324615Y194061D01*
X324464Y192913D01*
X324615Y191766D01*
X325058Y190697D01*
X325763Y189778D01*
X326681Y189074D01*
X327750Y188631D01*
X328898Y188480D01*
X330045Y188631D01*
X331114Y189074D01*
X332033Y189778D01*
X332737Y190697D01*
X333180Y191766D01*
X333331Y192913D01*
X333180Y194061D01*
X332737Y195130D01*
X332033Y196048D01*
X331114Y196753D01*
X330045Y197196D01*
X328898Y197347D01*
D02*
G37*
G36*
X318898D02*
X317750Y197196D01*
X316681Y196753D01*
X315763Y196048D01*
X315058Y195130D01*
X314615Y194061D01*
X314464Y192913D01*
X314615Y191766D01*
X315058Y190697D01*
X315763Y189778D01*
X316681Y189074D01*
X317750Y188631D01*
X318898Y188480D01*
X320045Y188631D01*
X321114Y189074D01*
X322033Y189778D01*
X322737Y190697D01*
X323180Y191766D01*
X323331Y192913D01*
X323180Y194061D01*
X322737Y195130D01*
X322033Y196048D01*
X321114Y196753D01*
X320045Y197196D01*
X318898Y197347D01*
D02*
G37*
G36*
X308898D02*
X307750Y197196D01*
X306681Y196753D01*
X305763Y196048D01*
X305058Y195130D01*
X304615Y194061D01*
X304464Y192913D01*
X304615Y191766D01*
X305058Y190697D01*
X305763Y189778D01*
X306681Y189074D01*
X307750Y188631D01*
X308898Y188480D01*
X310045Y188631D01*
X311114Y189074D01*
X312033Y189778D01*
X312737Y190697D01*
X313180Y191766D01*
X313331Y192913D01*
X313180Y194061D01*
X312737Y195130D01*
X312033Y196048D01*
X311114Y196753D01*
X310045Y197196D01*
X308898Y197347D01*
D02*
G37*
G36*
X298898D02*
X297750Y197196D01*
X296681Y196753D01*
X295763Y196048D01*
X295058Y195130D01*
X294615Y194061D01*
X294464Y192913D01*
X294615Y191766D01*
X295058Y190697D01*
X295763Y189778D01*
X296681Y189074D01*
X297750Y188631D01*
X298898Y188480D01*
X300045Y188631D01*
X301114Y189074D01*
X302033Y189778D01*
X302737Y190697D01*
X303180Y191766D01*
X303331Y192913D01*
X303180Y194061D01*
X302737Y195130D01*
X302033Y196048D01*
X301114Y196753D01*
X300045Y197196D01*
X298898Y197347D01*
D02*
G37*
G36*
X257953D02*
X256805Y197196D01*
X255736Y196753D01*
X254818Y196048D01*
X254113Y195130D01*
X253670Y194061D01*
X253519Y192913D01*
X253670Y191766D01*
X254113Y190697D01*
X254818Y189778D01*
X255736Y189074D01*
X256805Y188631D01*
X257953Y188480D01*
X259100Y188631D01*
X260170Y189074D01*
X261088Y189778D01*
X261792Y190697D01*
X262235Y191766D01*
X262386Y192913D01*
X262235Y194061D01*
X261792Y195130D01*
X261088Y196048D01*
X260170Y196753D01*
X259100Y197196D01*
X257953Y197347D01*
D02*
G37*
G36*
X248346D02*
X247199Y197196D01*
X246130Y196753D01*
X245211Y196048D01*
X244507Y195130D01*
X244064Y194061D01*
X243913Y192913D01*
X244064Y191766D01*
X244507Y190697D01*
X245211Y189778D01*
X246130Y189074D01*
X247199Y188631D01*
X248346Y188480D01*
X249494Y188631D01*
X250563Y189074D01*
X251482Y189778D01*
X252186Y190697D01*
X252629Y191766D01*
X252780Y192913D01*
X252629Y194061D01*
X252186Y195130D01*
X251482Y196048D01*
X250563Y196753D01*
X249494Y197196D01*
X248346Y197347D01*
D02*
G37*
G36*
X238347D02*
X237199Y197196D01*
X236130Y196753D01*
X235211Y196048D01*
X234507Y195130D01*
X234064Y194061D01*
X233913Y192913D01*
X234064Y191766D01*
X234507Y190697D01*
X235211Y189778D01*
X236130Y189074D01*
X237199Y188631D01*
X238347Y188480D01*
X239494Y188631D01*
X240563Y189074D01*
X241481Y189778D01*
X242186Y190697D01*
X242629Y191766D01*
X242780Y192913D01*
X242629Y194061D01*
X242186Y195130D01*
X241481Y196048D01*
X240563Y196753D01*
X239494Y197196D01*
X238347Y197347D01*
D02*
G37*
G36*
X228346D02*
X227199Y197196D01*
X226130Y196753D01*
X225211Y196048D01*
X224507Y195130D01*
X224064Y194061D01*
X223913Y192913D01*
X224064Y191766D01*
X224507Y190697D01*
X225211Y189778D01*
X226130Y189074D01*
X227199Y188631D01*
X228346Y188480D01*
X229494Y188631D01*
X230563Y189074D01*
X231482Y189778D01*
X232186Y190697D01*
X232629Y191766D01*
X232780Y192913D01*
X232629Y194061D01*
X232186Y195130D01*
X231482Y196048D01*
X230563Y196753D01*
X229494Y197196D01*
X228346Y197347D01*
D02*
G37*
G36*
X87586Y191601D02*
X86811Y191499D01*
X86089Y191200D01*
X85469Y190724D01*
X84993Y190104D01*
X84694Y189382D01*
X84592Y188607D01*
X84694Y187832D01*
X84993Y187110D01*
X85469Y186490D01*
X86089Y186014D01*
X86811Y185715D01*
X87586Y185613D01*
X88361Y185715D01*
X89083Y186014D01*
X89704Y186490D01*
X90179Y187110D01*
X90478Y187832D01*
X90580Y188607D01*
X90478Y189382D01*
X90179Y190104D01*
X89704Y190724D01*
X89083Y191200D01*
X88361Y191499D01*
X87586Y191601D01*
D02*
G37*
G36*
X102787Y187431D02*
Y184009D01*
X106208D01*
X106138Y184541D01*
X105739Y185503D01*
X105106Y186329D01*
X104280Y186962D01*
X103319Y187360D01*
X102787Y187431D01*
D02*
G37*
G36*
X101787D02*
X101255Y187360D01*
X100293Y186962D01*
X99468Y186329D01*
X98834Y185503D01*
X98436Y184541D01*
X98366Y184009D01*
X101787D01*
Y187431D01*
D02*
G37*
G36*
X48761Y188055D02*
X47986Y187953D01*
X47264Y187654D01*
X46644Y187178D01*
X46168Y186558D01*
X45869Y185836D01*
X45767Y185061D01*
X45869Y184286D01*
X46168Y183564D01*
X46644Y182944D01*
X47264Y182468D01*
X47986Y182169D01*
X48761Y182067D01*
X49536Y182169D01*
X50258Y182468D01*
X50878Y182944D01*
X51354Y183564D01*
X51653Y184286D01*
X51755Y185061D01*
X51653Y185836D01*
X51354Y186558D01*
X50878Y187178D01*
X50258Y187654D01*
X49536Y187953D01*
X48761Y188055D01*
D02*
G37*
G36*
X31496Y189788D02*
X30349Y189637D01*
X29279Y189194D01*
X28361Y188489D01*
X27656Y187571D01*
X27213Y186502D01*
X27062Y185354D01*
X27213Y184207D01*
X27656Y183138D01*
X28361Y182219D01*
X29279Y181515D01*
X30349Y181072D01*
X31496Y180921D01*
X32644Y181072D01*
X33713Y181515D01*
X34631Y182219D01*
X35336Y183138D01*
X35779Y184207D01*
X35930Y185354D01*
X35779Y186502D01*
X35336Y187571D01*
X34631Y188489D01*
X33713Y189194D01*
X32644Y189637D01*
X31496Y189788D01*
D02*
G37*
G36*
X79447Y186737D02*
X78672Y186635D01*
X77950Y186336D01*
X77330Y185860D01*
X76854Y185240D01*
X76555Y184518D01*
X76453Y183743D01*
X76555Y182968D01*
X76854Y182246D01*
X77330Y181626D01*
X77950Y181150D01*
X78672Y180851D01*
X79447Y180749D01*
X80222Y180851D01*
X80944Y181150D01*
X81564Y181626D01*
X82040Y182246D01*
X82339Y182968D01*
X82441Y183743D01*
X82339Y184518D01*
X82040Y185240D01*
X81564Y185860D01*
X80944Y186336D01*
X80222Y186635D01*
X79447Y186737D01*
D02*
G37*
G36*
X106208Y183009D02*
X102787D01*
Y179588D01*
X103319Y179658D01*
X104280Y180057D01*
X105106Y180690D01*
X105739Y181516D01*
X106138Y182478D01*
X106208Y183009D01*
D02*
G37*
G36*
X101787D02*
X98366D01*
X98436Y182478D01*
X98834Y181516D01*
X99468Y180690D01*
X100293Y180057D01*
X101255Y179658D01*
X101787Y179588D01*
Y183009D01*
D02*
G37*
G36*
X136240Y187462D02*
X128334D01*
Y179557D01*
X136240D01*
Y187462D01*
D02*
G37*
G36*
X199523Y178330D02*
Y175902D01*
X201952D01*
X201915Y176177D01*
X201616Y176899D01*
X201140Y177519D01*
X200520Y177995D01*
X199798Y178294D01*
X199523Y178330D01*
D02*
G37*
G36*
X198523D02*
X198248Y178294D01*
X197526Y177995D01*
X196906Y177519D01*
X196430Y176899D01*
X196131Y176177D01*
X196095Y175902D01*
X198523D01*
Y178330D01*
D02*
G37*
G36*
X369968Y180820D02*
X369193Y180718D01*
X368471Y180419D01*
X367851Y179943D01*
X367375Y179323D01*
X367076Y178601D01*
X366974Y177826D01*
X367076Y177051D01*
X367375Y176329D01*
X367851Y175708D01*
X368471Y175233D01*
X369193Y174934D01*
X369968Y174831D01*
X370743Y174934D01*
X371465Y175233D01*
X372085Y175708D01*
X372561Y176329D01*
X372860Y177051D01*
X372962Y177826D01*
X372860Y178601D01*
X372561Y179323D01*
X372085Y179943D01*
X371465Y180419D01*
X370743Y180718D01*
X369968Y180820D01*
D02*
G37*
G36*
X201952Y174902D02*
X199523D01*
Y172474D01*
X199798Y172510D01*
X200520Y172809D01*
X201140Y173285D01*
X201616Y173905D01*
X201915Y174627D01*
X201952Y174902D01*
D02*
G37*
G36*
X198523D02*
X196095D01*
X196131Y174627D01*
X196430Y173905D01*
X196906Y173285D01*
X197526Y172809D01*
X198248Y172510D01*
X198523Y172474D01*
Y174902D01*
D02*
G37*
G36*
X31496Y179788D02*
X30349Y179637D01*
X29279Y179194D01*
X28361Y178489D01*
X27656Y177571D01*
X27213Y176502D01*
X27062Y175354D01*
X27213Y174207D01*
X27656Y173137D01*
X28361Y172219D01*
X29279Y171515D01*
X30349Y171072D01*
X31496Y170921D01*
X32644Y171072D01*
X33713Y171515D01*
X34631Y172219D01*
X35336Y173137D01*
X35779Y174207D01*
X35930Y175354D01*
X35779Y176502D01*
X35336Y177571D01*
X34631Y178489D01*
X33713Y179194D01*
X32644Y179637D01*
X31496Y179788D01*
D02*
G37*
G36*
X49033Y171352D02*
Y168924D01*
X51461D01*
X51425Y169199D01*
X51126Y169921D01*
X50650Y170541D01*
X50030Y171017D01*
X49308Y171316D01*
X49033Y171352D01*
D02*
G37*
G36*
X48033D02*
X47758Y171316D01*
X47036Y171017D01*
X46416Y170541D01*
X45940Y169921D01*
X45641Y169199D01*
X45605Y168924D01*
X48033D01*
Y171352D01*
D02*
G37*
G36*
X200098Y169646D02*
Y167217D01*
X202526D01*
X202490Y167492D01*
X202191Y168214D01*
X201715Y168835D01*
X201095Y169310D01*
X200373Y169609D01*
X200098Y169646D01*
D02*
G37*
G36*
X199098D02*
X198823Y169609D01*
X198101Y169310D01*
X197481Y168835D01*
X197005Y168214D01*
X196706Y167492D01*
X196670Y167217D01*
X199098D01*
Y169646D01*
D02*
G37*
G36*
X31996Y169722D02*
Y165854D01*
X35864D01*
X35779Y166502D01*
X35336Y167571D01*
X34631Y168489D01*
X33713Y169194D01*
X32644Y169637D01*
X31996Y169722D01*
D02*
G37*
G36*
X30996Y169722D02*
X30349Y169637D01*
X29279Y169194D01*
X28361Y168489D01*
X27656Y167571D01*
X27213Y166502D01*
X27128Y165854D01*
X30996D01*
Y169722D01*
D02*
G37*
G36*
X51461Y167924D02*
X49033D01*
Y165496D01*
X49308Y165532D01*
X50030Y165831D01*
X50650Y166307D01*
X51126Y166927D01*
X51425Y167649D01*
X51461Y167924D01*
D02*
G37*
G36*
X48033D02*
X45605D01*
X45641Y167649D01*
X45940Y166927D01*
X46416Y166307D01*
X47036Y165831D01*
X47758Y165532D01*
X48033Y165496D01*
Y167924D01*
D02*
G37*
G36*
X108252Y166557D02*
Y164129D01*
X110680D01*
X110644Y164404D01*
X110345Y165126D01*
X109869Y165746D01*
X109249Y166222D01*
X108527Y166521D01*
X108252Y166557D01*
D02*
G37*
G36*
X107252D02*
X106977Y166521D01*
X106255Y166222D01*
X105635Y165746D01*
X105159Y165126D01*
X104860Y164404D01*
X104824Y164129D01*
X107252D01*
Y166557D01*
D02*
G37*
G36*
X202526Y166217D02*
X200098D01*
Y163789D01*
X200373Y163825D01*
X201095Y164124D01*
X201715Y164600D01*
X202191Y165220D01*
X202490Y165943D01*
X202526Y166217D01*
D02*
G37*
G36*
X199098D02*
X196670D01*
X196706Y165943D01*
X197005Y165220D01*
X197481Y164600D01*
X198101Y164124D01*
X198823Y163825D01*
X199098Y163789D01*
Y166217D01*
D02*
G37*
G36*
X264437Y167016D02*
X263662Y166914D01*
X262940Y166615D01*
X262319Y166140D01*
X261843Y165519D01*
X261544Y164797D01*
X261442Y164022D01*
X261544Y163248D01*
X261843Y162525D01*
X262319Y161905D01*
X262940Y161429D01*
X263662Y161130D01*
X264437Y161028D01*
X265212Y161130D01*
X265934Y161429D01*
X266554Y161905D01*
X267030Y162525D01*
X267329Y163248D01*
X267431Y164022D01*
X267329Y164797D01*
X267030Y165519D01*
X266554Y166140D01*
X265934Y166615D01*
X265212Y166914D01*
X264437Y167016D01*
D02*
G37*
G36*
X30996Y164854D02*
X27128D01*
X27213Y164207D01*
X27656Y163137D01*
X28361Y162219D01*
X29279Y161515D01*
X30349Y161072D01*
X30996Y160987D01*
Y164854D01*
D02*
G37*
G36*
X35864D02*
X31996D01*
Y160987D01*
X32644Y161072D01*
X33713Y161515D01*
X34631Y162219D01*
X35336Y163137D01*
X35779Y164207D01*
X35864Y164854D01*
D02*
G37*
G36*
X110680Y163129D02*
X108252D01*
Y160701D01*
X108527Y160737D01*
X109249Y161036D01*
X109869Y161512D01*
X110345Y162132D01*
X110644Y162854D01*
X110680Y163129D01*
D02*
G37*
G36*
X107252D02*
X104824D01*
X104860Y162854D01*
X105159Y162132D01*
X105635Y161512D01*
X106255Y161036D01*
X106977Y160737D01*
X107252Y160701D01*
Y163129D01*
D02*
G37*
G36*
X339194Y165371D02*
X338419Y165269D01*
X337697Y164970D01*
X337077Y164494D01*
X336601Y163874D01*
X336302Y163152D01*
X336200Y162377D01*
X336302Y161602D01*
X336601Y160880D01*
X337077Y160259D01*
X337697Y159784D01*
X338419Y159485D01*
X339194Y159383D01*
X339969Y159485D01*
X340691Y159784D01*
X341311Y160259D01*
X341787Y160880D01*
X342086Y161602D01*
X342188Y162377D01*
X342086Y163152D01*
X341787Y163874D01*
X341311Y164494D01*
X340691Y164970D01*
X339969Y165269D01*
X339194Y165371D01*
D02*
G37*
G36*
X387592Y163674D02*
X386817Y163572D01*
X386095Y163273D01*
X385475Y162797D01*
X384999Y162177D01*
X384700Y161455D01*
X384598Y160680D01*
X384700Y159905D01*
X384999Y159183D01*
X385475Y158563D01*
X386095Y158087D01*
X386817Y157788D01*
X387592Y157686D01*
X388367Y157788D01*
X389089Y158087D01*
X389709Y158563D01*
X390185Y159183D01*
X390484Y159905D01*
X390586Y160680D01*
X390484Y161455D01*
X390185Y162177D01*
X389709Y162797D01*
X389089Y163273D01*
X388367Y163572D01*
X387592Y163674D01*
D02*
G37*
G36*
X31496Y159788D02*
X30349Y159637D01*
X29279Y159194D01*
X28361Y158489D01*
X27656Y157571D01*
X27213Y156502D01*
X27062Y155354D01*
X27213Y154207D01*
X27656Y153138D01*
X28361Y152219D01*
X29279Y151515D01*
X30349Y151072D01*
X31496Y150921D01*
X32644Y151072D01*
X33713Y151515D01*
X34631Y152219D01*
X35336Y153138D01*
X35779Y154207D01*
X35930Y155354D01*
X35779Y156502D01*
X35336Y157571D01*
X34631Y158489D01*
X33713Y159194D01*
X32644Y159637D01*
X31496Y159788D01*
D02*
G37*
G36*
X340341Y152626D02*
X339566Y152524D01*
X338844Y152224D01*
X338224Y151749D01*
X337748Y151128D01*
X337449Y150406D01*
X337347Y149631D01*
X337449Y148856D01*
X337748Y148134D01*
X338224Y147514D01*
X338844Y147038D01*
X339566Y146739D01*
X340341Y146637D01*
X341116Y146739D01*
X341838Y147038D01*
X342458Y147514D01*
X342934Y148134D01*
X343233Y148856D01*
X343335Y149631D01*
X343233Y150406D01*
X342934Y151128D01*
X342458Y151749D01*
X341838Y152224D01*
X341116Y152524D01*
X340341Y152626D01*
D02*
G37*
G36*
X332158Y154541D02*
X324056D01*
Y146439D01*
X332158D01*
Y154541D01*
D02*
G37*
G36*
X318107Y154576D02*
X317049Y154437D01*
X316064Y154029D01*
X315218Y153379D01*
X314568Y152533D01*
X314160Y151548D01*
X314021Y150490D01*
X314160Y149432D01*
X314568Y148447D01*
X315218Y147601D01*
X316064Y146951D01*
X317049Y146543D01*
X318107Y146404D01*
X319164Y146543D01*
X320150Y146951D01*
X320996Y147601D01*
X321646Y148447D01*
X322054Y149432D01*
X322193Y150490D01*
X322054Y151548D01*
X321646Y152533D01*
X320996Y153379D01*
X320150Y154029D01*
X319164Y154437D01*
X318107Y154576D01*
D02*
G37*
G36*
X308107D02*
X307049Y154437D01*
X306064Y154029D01*
X305218Y153379D01*
X304568Y152533D01*
X304160Y151548D01*
X304021Y150490D01*
X304160Y149432D01*
X304568Y148447D01*
X305218Y147601D01*
X306064Y146951D01*
X307049Y146543D01*
X308107Y146404D01*
X309165Y146543D01*
X310150Y146951D01*
X310996Y147601D01*
X311646Y148447D01*
X312054Y149432D01*
X312193Y150490D01*
X312054Y151548D01*
X311646Y152533D01*
X310996Y153379D01*
X310150Y154029D01*
X309165Y154437D01*
X308107Y154576D01*
D02*
G37*
G36*
X298107D02*
X297049Y154437D01*
X296064Y154029D01*
X295218Y153379D01*
X294568Y152533D01*
X294160Y151548D01*
X294021Y150490D01*
X294160Y149432D01*
X294568Y148447D01*
X295218Y147601D01*
X296064Y146951D01*
X297049Y146543D01*
X298107Y146404D01*
X299165Y146543D01*
X300150Y146951D01*
X300996Y147601D01*
X301646Y148447D01*
X302054Y149432D01*
X302193Y150490D01*
X302054Y151548D01*
X301646Y152533D01*
X300996Y153379D01*
X300150Y154029D01*
X299165Y154437D01*
X298107Y154576D01*
D02*
G37*
G36*
X275395Y149002D02*
X274620Y148900D01*
X273898Y148601D01*
X273278Y148125D01*
X272802Y147505D01*
X272503Y146783D01*
X272401Y146008D01*
X272503Y145233D01*
X272802Y144511D01*
X273278Y143891D01*
X273898Y143415D01*
X274620Y143116D01*
X275395Y143014D01*
X276170Y143116D01*
X276892Y143415D01*
X277512Y143891D01*
X277988Y144511D01*
X278287Y145233D01*
X278389Y146008D01*
X278287Y146783D01*
X277988Y147505D01*
X277512Y148125D01*
X276892Y148601D01*
X276170Y148900D01*
X275395Y149002D01*
D02*
G37*
G36*
X49076Y148416D02*
X48302Y148314D01*
X47579Y148015D01*
X46959Y147539D01*
X46483Y146919D01*
X46184Y146197D01*
X46082Y145422D01*
X46184Y144647D01*
X46483Y143925D01*
X46959Y143305D01*
X47579Y142829D01*
X48302Y142530D01*
X49076Y142428D01*
X49851Y142530D01*
X50573Y142829D01*
X51194Y143305D01*
X51669Y143925D01*
X51968Y144647D01*
X52071Y145422D01*
X51968Y146197D01*
X51669Y146919D01*
X51194Y147539D01*
X50573Y148015D01*
X49851Y148314D01*
X49076Y148416D01*
D02*
G37*
G36*
X118901Y143472D02*
Y141044D01*
X121329D01*
X121293Y141319D01*
X120993Y142041D01*
X120518Y142661D01*
X119897Y143137D01*
X119175Y143436D01*
X118901Y143472D01*
D02*
G37*
G36*
X117901D02*
X117625Y143436D01*
X116903Y143137D01*
X116283Y142661D01*
X115807Y142041D01*
X115508Y141319D01*
X115472Y141044D01*
X117901D01*
Y143472D01*
D02*
G37*
G36*
X35892Y149750D02*
X27100D01*
Y140959D01*
X35892D01*
Y149750D01*
D02*
G37*
G36*
X121329Y140044D02*
X118901D01*
Y137615D01*
X119175Y137652D01*
X119897Y137951D01*
X120518Y138426D01*
X120993Y139047D01*
X121293Y139769D01*
X121329Y140044D01*
D02*
G37*
G36*
X117901D02*
X115472D01*
X115508Y139769D01*
X115807Y139047D01*
X116283Y138426D01*
X116903Y137951D01*
X117625Y137652D01*
X117901Y137615D01*
Y140044D01*
D02*
G37*
G36*
X288853Y141338D02*
X288078Y141236D01*
X287356Y140937D01*
X286736Y140462D01*
X286261Y139841D01*
X285961Y139119D01*
X285921Y138815D01*
X228346D01*
X227956Y138737D01*
X227625Y138516D01*
X227404Y138186D01*
X227327Y137795D01*
Y99325D01*
X226951Y98996D01*
X226674Y99032D01*
X225899Y98930D01*
X225177Y98631D01*
X224556Y98155D01*
X224081Y97535D01*
X223781Y96813D01*
X223679Y96038D01*
X223781Y95263D01*
X224081Y94541D01*
X224556Y93921D01*
X225177Y93445D01*
X225899Y93146D01*
X226674Y93044D01*
X226951Y93081D01*
X227327Y92751D01*
Y86614D01*
X227404Y86224D01*
X227625Y85893D01*
X227956Y85672D01*
X228346Y85595D01*
X320281D01*
X320479Y85095D01*
X320211Y84449D01*
X320109Y83674D01*
X320211Y82899D01*
X320510Y82177D01*
X320986Y81557D01*
X321606Y81081D01*
X322328Y80782D01*
X323103Y80680D01*
X323878Y80782D01*
X324600Y81081D01*
X325220Y81557D01*
X325696Y82177D01*
X325995Y82899D01*
X326097Y83674D01*
X325995Y84449D01*
X325728Y85095D01*
X325926Y85595D01*
X370151D01*
X370372Y85146D01*
X370139Y84842D01*
X369711Y83809D01*
X369565Y82700D01*
X369711Y81591D01*
X370139Y80557D01*
X370820Y79670D01*
X371707Y78989D01*
X372741Y78561D01*
X373849Y78415D01*
X374958Y78561D01*
X375992Y78989D01*
X376879Y79670D01*
X377560Y80557D01*
X377988Y81591D01*
X378134Y82700D01*
X377988Y83809D01*
X377560Y84842D01*
X377327Y85146D01*
X377548Y85595D01*
X385827D01*
X386217Y85672D01*
X386548Y85893D01*
X386769Y86224D01*
X386846Y86614D01*
Y137795D01*
X386769Y138186D01*
X386548Y138516D01*
X386217Y138737D01*
X385827Y138815D01*
X380291D01*
X380258Y138808D01*
X380224Y138813D01*
X380064Y138770D01*
X379901Y138737D01*
X379872Y138718D01*
X379840Y138710D01*
X379708Y138609D01*
X379570Y138516D01*
X379551Y138488D01*
X379524Y138468D01*
X379441Y138324D01*
X379349Y138186D01*
X378927Y137957D01*
X378152Y138059D01*
X377377Y137957D01*
X376955Y138186D01*
X376863Y138324D01*
X376780Y138468D01*
X376753Y138488D01*
X376734Y138516D01*
X376596Y138609D01*
X376464Y138710D01*
X376431Y138718D01*
X376403Y138737D01*
X376240Y138770D01*
X376080Y138813D01*
X376046Y138808D01*
X376013Y138815D01*
X321892D01*
X321761Y138789D01*
X321701Y138785D01*
X321491Y139292D01*
X321015Y139912D01*
X320395Y140388D01*
X319673Y140687D01*
X318898Y140789D01*
X318123Y140687D01*
X317401Y140388D01*
X316780Y139912D01*
X316305Y139292D01*
X316094Y138785D01*
X316034Y138789D01*
X315903Y138815D01*
X291786D01*
X291745Y139119D01*
X291446Y139841D01*
X290971Y140462D01*
X290351Y140937D01*
X289628Y141236D01*
X288853Y141338D01*
D02*
G37*
G36*
X340594Y83181D02*
X339819Y83079D01*
X339097Y82780D01*
X338477Y82304D01*
X338001Y81684D01*
X337702Y80962D01*
X337600Y80187D01*
X337702Y79412D01*
X338001Y78690D01*
X338477Y78070D01*
X339097Y77594D01*
X339819Y77295D01*
X340594Y77193D01*
X341369Y77295D01*
X342091Y77594D01*
X342711Y78070D01*
X343187Y78690D01*
X343486Y79412D01*
X343588Y80187D01*
X343486Y80962D01*
X343187Y81684D01*
X342711Y82304D01*
X342091Y82780D01*
X341369Y83079D01*
X340594Y83181D01*
D02*
G37*
G36*
X277952Y79996D02*
X277177Y79894D01*
X276455Y79595D01*
X275835Y79119D01*
X275359Y78499D01*
X275060Y77777D01*
X274958Y77002D01*
X275060Y76227D01*
X275359Y75505D01*
X275835Y74885D01*
X276455Y74409D01*
X277177Y74110D01*
X277952Y74008D01*
X278727Y74110D01*
X279449Y74409D01*
X280069Y74885D01*
X280545Y75505D01*
X280844Y76227D01*
X280946Y77002D01*
X280844Y77777D01*
X280545Y78499D01*
X280069Y79119D01*
X279449Y79595D01*
X278727Y79894D01*
X277952Y79996D01*
D02*
G37*
G36*
X359043Y78773D02*
X358268Y78671D01*
X357546Y78371D01*
X356926Y77896D01*
X356450Y77276D01*
X356151Y76553D01*
X356049Y75779D01*
X356151Y75003D01*
X356450Y74281D01*
X356926Y73661D01*
X357546Y73185D01*
X358268Y72886D01*
X359043Y72784D01*
X359818Y72886D01*
X360540Y73185D01*
X361160Y73661D01*
X361636Y74281D01*
X361935Y75003D01*
X362037Y75779D01*
X361935Y76553D01*
X361636Y77276D01*
X361160Y77896D01*
X360540Y78371D01*
X359818Y78671D01*
X359043Y78773D01*
D02*
G37*
G36*
X349076Y77527D02*
X348301Y77425D01*
X347579Y77126D01*
X346959Y76650D01*
X346483Y76030D01*
X346184Y75308D01*
X346082Y74533D01*
X346184Y73758D01*
X346483Y73036D01*
X346959Y72415D01*
X347579Y71940D01*
X348301Y71640D01*
X349076Y71539D01*
X349851Y71640D01*
X350573Y71940D01*
X351193Y72415D01*
X351669Y73036D01*
X351968Y73758D01*
X352070Y74533D01*
X351968Y75308D01*
X351669Y76030D01*
X351193Y76650D01*
X350573Y77126D01*
X349851Y77425D01*
X349076Y77527D01*
D02*
G37*
G36*
X373849Y76985D02*
X372741Y76838D01*
X371707Y76411D01*
X370820Y75730D01*
X370139Y74842D01*
X369711Y73809D01*
X369565Y72700D01*
X369711Y71591D01*
X370139Y70557D01*
X370820Y69670D01*
X371707Y68989D01*
X372741Y68561D01*
X373849Y68415D01*
X374958Y68561D01*
X375992Y68989D01*
X376879Y69670D01*
X377560Y70557D01*
X377988Y71591D01*
X378134Y72700D01*
X377988Y73809D01*
X377560Y74842D01*
X376879Y75730D01*
X375992Y76411D01*
X374958Y76838D01*
X373849Y76985D01*
D02*
G37*
G36*
Y66984D02*
X372741Y66839D01*
X371707Y66410D01*
X370820Y65729D01*
X370139Y64842D01*
X369711Y63809D01*
X369565Y62700D01*
X369711Y61591D01*
X370139Y60557D01*
X370820Y59670D01*
X371707Y58989D01*
X372741Y58561D01*
X373849Y58415D01*
X374958Y58561D01*
X375992Y58989D01*
X376879Y59670D01*
X377560Y60557D01*
X377988Y61591D01*
X378134Y62700D01*
X377988Y63809D01*
X377560Y64842D01*
X376879Y65729D01*
X375992Y66410D01*
X374958Y66839D01*
X373849Y66984D01*
D02*
G37*
G36*
X293806Y56809D02*
X293031Y56707D01*
X292309Y56408D01*
X291688Y55932D01*
X291213Y55312D01*
X290914Y54590D01*
X290812Y53815D01*
X290914Y53040D01*
X291213Y52318D01*
X291688Y51697D01*
X292309Y51222D01*
X293031Y50923D01*
X293806Y50821D01*
X294581Y50923D01*
X295303Y51222D01*
X295923Y51697D01*
X296399Y52318D01*
X296698Y53040D01*
X296800Y53815D01*
X296698Y54590D01*
X296399Y55312D01*
X295923Y55932D01*
X295303Y56408D01*
X294581Y56707D01*
X293806Y56809D01*
D02*
G37*
G36*
X373849Y56985D02*
X372741Y56839D01*
X371707Y56410D01*
X370820Y55730D01*
X370139Y54842D01*
X369711Y53809D01*
X369565Y52700D01*
X369711Y51591D01*
X370139Y50558D01*
X370820Y49670D01*
X371707Y48989D01*
X372741Y48561D01*
X373849Y48415D01*
X374958Y48561D01*
X375992Y48989D01*
X376879Y49670D01*
X377560Y50558D01*
X377988Y51591D01*
X378134Y52700D01*
X377988Y53809D01*
X377560Y54842D01*
X376879Y55730D01*
X375992Y56410D01*
X374958Y56839D01*
X373849Y56985D01*
D02*
G37*
G36*
X264875Y51751D02*
X264100Y51649D01*
X263378Y51350D01*
X262758Y50874D01*
X262282Y50254D01*
X261983Y49532D01*
X261881Y48757D01*
X261983Y47982D01*
X262282Y47260D01*
X262758Y46639D01*
X263378Y46164D01*
X264100Y45865D01*
X264875Y45763D01*
X265650Y45865D01*
X266372Y46164D01*
X266992Y46639D01*
X267468Y47260D01*
X267767Y47982D01*
X267869Y48757D01*
X267767Y49532D01*
X267468Y50254D01*
X266992Y50874D01*
X266372Y51350D01*
X265650Y51649D01*
X264875Y51751D01*
D02*
G37*
G36*
X246535Y47741D02*
X245388Y47590D01*
X244319Y47147D01*
X243400Y46442D01*
X242696Y45524D01*
X242253Y44455D01*
X242102Y43307D01*
X242253Y42160D01*
X242696Y41090D01*
X243400Y40172D01*
X244319Y39467D01*
X245388Y39025D01*
X246535Y38873D01*
X247683Y39025D01*
X248752Y39467D01*
X249671Y40172D01*
X250375Y41090D01*
X250818Y42160D01*
X250969Y43307D01*
X250818Y44455D01*
X250375Y45524D01*
X249671Y46442D01*
X248752Y47147D01*
X247683Y47590D01*
X246535Y47741D01*
D02*
G37*
G36*
X236535D02*
X235388Y47590D01*
X234319Y47147D01*
X233400Y46442D01*
X232696Y45524D01*
X232253Y44455D01*
X232102Y43307D01*
X232253Y42160D01*
X232696Y41090D01*
X233400Y40172D01*
X234319Y39467D01*
X235388Y39025D01*
X236535Y38873D01*
X237683Y39025D01*
X238752Y39467D01*
X239670Y40172D01*
X240375Y41090D01*
X240818Y42160D01*
X240969Y43307D01*
X240818Y44455D01*
X240375Y45524D01*
X239670Y46442D01*
X238752Y47147D01*
X237683Y47590D01*
X236535Y47741D01*
D02*
G37*
G36*
X226535D02*
X225388Y47590D01*
X224319Y47147D01*
X223400Y46442D01*
X222696Y45524D01*
X222253Y44455D01*
X222102Y43307D01*
X222253Y42160D01*
X222696Y41090D01*
X223400Y40172D01*
X224319Y39467D01*
X225388Y39025D01*
X226535Y38873D01*
X227683Y39025D01*
X228752Y39467D01*
X229671Y40172D01*
X230375Y41090D01*
X230818Y42160D01*
X230969Y43307D01*
X230818Y44455D01*
X230375Y45524D01*
X229671Y46442D01*
X228752Y47147D01*
X227683Y47590D01*
X226535Y47741D01*
D02*
G37*
G36*
X216535D02*
X215388Y47590D01*
X214319Y47147D01*
X213400Y46442D01*
X212696Y45524D01*
X212253Y44455D01*
X212102Y43307D01*
X212253Y42160D01*
X212696Y41090D01*
X213400Y40172D01*
X214319Y39467D01*
X215388Y39025D01*
X216535Y38873D01*
X217683Y39025D01*
X218752Y39467D01*
X219671Y40172D01*
X220375Y41090D01*
X220818Y42160D01*
X220969Y43307D01*
X220818Y44455D01*
X220375Y45524D01*
X219671Y46442D01*
X218752Y47147D01*
X217683Y47590D01*
X216535Y47741D01*
D02*
G37*
G36*
X373849Y46984D02*
X372741Y46839D01*
X371707Y46410D01*
X370820Y45730D01*
X370139Y44842D01*
X369711Y43809D01*
X369565Y42700D01*
X369711Y41591D01*
X370139Y40558D01*
X370820Y39670D01*
X371707Y38989D01*
X372741Y38561D01*
X373849Y38415D01*
X374958Y38561D01*
X375992Y38989D01*
X376879Y39670D01*
X377560Y40558D01*
X377988Y41591D01*
X378134Y42700D01*
X377988Y43809D01*
X377560Y44842D01*
X376879Y45730D01*
X375992Y46410D01*
X374958Y46839D01*
X373849Y46984D01*
D02*
G37*
G36*
X348955Y42614D02*
X348180Y42512D01*
X347458Y42213D01*
X346838Y41737D01*
X346362Y41117D01*
X346063Y40395D01*
X345961Y39620D01*
X346063Y38845D01*
X346362Y38123D01*
X346838Y37503D01*
X347458Y37027D01*
X348180Y36728D01*
X348955Y36626D01*
X349730Y36728D01*
X350452Y37027D01*
X351072Y37503D01*
X351548Y38123D01*
X351847Y38845D01*
X351949Y39620D01*
X351847Y40395D01*
X351548Y41117D01*
X351072Y41737D01*
X350452Y42213D01*
X349730Y42512D01*
X348955Y42614D01*
D02*
G37*
G36*
X358962Y41601D02*
X358187Y41499D01*
X357465Y41199D01*
X356845Y40724D01*
X356369Y40104D01*
X356070Y39382D01*
X355968Y38607D01*
X356070Y37832D01*
X356369Y37110D01*
X356845Y36489D01*
X357465Y36013D01*
X358187Y35714D01*
X358962Y35612D01*
X359737Y35714D01*
X360459Y36013D01*
X361079Y36489D01*
X361555Y37110D01*
X361854Y37832D01*
X361956Y38607D01*
X361854Y39382D01*
X361555Y40104D01*
X361079Y40724D01*
X360459Y41199D01*
X359737Y41499D01*
X358962Y41601D01*
D02*
G37*
G36*
X340088Y37421D02*
X339313Y37319D01*
X338591Y37020D01*
X337971Y36544D01*
X337495Y35923D01*
X337196Y35201D01*
X337094Y34427D01*
X337196Y33652D01*
X337495Y32929D01*
X337971Y32309D01*
X338591Y31833D01*
X339313Y31534D01*
X340088Y31432D01*
X340863Y31534D01*
X341585Y31833D01*
X342205Y32309D01*
X342681Y32929D01*
X342980Y33652D01*
X343082Y34427D01*
X342980Y35201D01*
X342681Y35923D01*
X342205Y36544D01*
X341585Y37020D01*
X340863Y37319D01*
X340088Y37421D01*
D02*
G37*
G36*
X366142Y23676D02*
X364595Y23524D01*
X363108Y23073D01*
X361737Y22340D01*
X360536Y21354D01*
X359550Y20153D01*
X358817Y18782D01*
X358366Y17295D01*
X358214Y15748D01*
X358366Y14201D01*
X358817Y12714D01*
X359550Y11344D01*
X360536Y10142D01*
X361737Y9156D01*
X363108Y8424D01*
X364595Y7972D01*
X366142Y7820D01*
X367688Y7972D01*
X369176Y8424D01*
X370546Y9156D01*
X371748Y10142D01*
X372734Y11344D01*
X373466Y12714D01*
X373917Y14201D01*
X374070Y15748D01*
X373917Y17295D01*
X373466Y18782D01*
X372734Y20153D01*
X371748Y21354D01*
X370546Y22340D01*
X369176Y23073D01*
X367688Y23524D01*
X366142Y23676D01*
D02*
G37*
G36*
X27559D02*
X26012Y23524D01*
X24525Y23073D01*
X23155Y22340D01*
X21953Y21354D01*
X20967Y20153D01*
X20235Y18782D01*
X19783Y17295D01*
X19631Y15748D01*
X19783Y14201D01*
X20235Y12714D01*
X20967Y11344D01*
X21953Y10142D01*
X23155Y9156D01*
X24525Y8424D01*
X26012Y7972D01*
X27559Y7820D01*
X29106Y7972D01*
X30593Y8424D01*
X31964Y9156D01*
X33165Y10142D01*
X34151Y11344D01*
X34883Y12714D01*
X35335Y14201D01*
X35487Y15748D01*
X35335Y17295D01*
X34883Y18782D01*
X34151Y20153D01*
X33165Y21354D01*
X31964Y22340D01*
X30593Y23073D01*
X29106Y23524D01*
X27559Y23676D01*
D02*
G37*
%LPD*%
G36*
X385827Y86614D02*
X375500D01*
X374958Y86839D01*
X373849Y86984D01*
X372741Y86839D01*
X372199Y86614D01*
X323514D01*
X323103Y86668D01*
X322693Y86614D01*
X228346D01*
Y93580D01*
X228791Y93921D01*
X229267Y94541D01*
X229566Y95263D01*
X229668Y96038D01*
X229566Y96813D01*
X229267Y97535D01*
X228791Y98155D01*
X228346Y98496D01*
Y137795D01*
X285932D01*
X285961Y137569D01*
X286261Y136847D01*
X286736Y136227D01*
X287356Y135751D01*
X288078Y135452D01*
X288853Y135350D01*
X289628Y135452D01*
X290351Y135751D01*
X290971Y136227D01*
X291446Y136847D01*
X291745Y137569D01*
X291775Y137795D01*
X315903D01*
X316005Y137020D01*
X316305Y136298D01*
X316780Y135678D01*
X317401Y135202D01*
X318123Y134903D01*
X318898Y134801D01*
X319673Y134903D01*
X320395Y135202D01*
X321015Y135678D01*
X321491Y136298D01*
X321790Y137020D01*
X321892Y137795D01*
X376013D01*
X376183Y137295D01*
X376035Y137182D01*
X375559Y136562D01*
X375260Y135839D01*
X375158Y135065D01*
X375260Y134290D01*
X375559Y133568D01*
X376035Y132947D01*
X376655Y132472D01*
X377377Y132173D01*
X378152Y132071D01*
X378927Y132173D01*
X379649Y132472D01*
X380269Y132947D01*
X380745Y133568D01*
X381044Y134290D01*
X381146Y135065D01*
X381044Y135839D01*
X380745Y136562D01*
X380269Y137182D01*
X380121Y137295D01*
X380291Y137795D01*
X385827D01*
Y86614D01*
D02*
G37*
%LPC*%
G36*
X354831Y132850D02*
Y130421D01*
X357259D01*
X357223Y130696D01*
X356924Y131418D01*
X356448Y132038D01*
X355828Y132514D01*
X355106Y132813D01*
X354831Y132850D01*
D02*
G37*
G36*
X353831D02*
X353556Y132813D01*
X352834Y132514D01*
X352214Y132038D01*
X351738Y131418D01*
X351439Y130696D01*
X351403Y130421D01*
X353831D01*
Y132850D01*
D02*
G37*
G36*
X357259Y129421D02*
X354831D01*
Y126993D01*
X355106Y127029D01*
X355828Y127328D01*
X356448Y127804D01*
X356924Y128424D01*
X357223Y129146D01*
X357259Y129421D01*
D02*
G37*
G36*
X353831D02*
X351403D01*
X351439Y129146D01*
X351738Y128424D01*
X352214Y127804D01*
X352834Y127328D01*
X353556Y127029D01*
X353831Y126993D01*
Y129421D01*
D02*
G37*
G36*
X318898Y132915D02*
X318123Y132813D01*
X317401Y132514D01*
X316780Y132038D01*
X316305Y131418D01*
X316005Y130696D01*
X315903Y129921D01*
X316005Y129146D01*
X316305Y128424D01*
X316780Y127804D01*
X317401Y127328D01*
X318123Y127029D01*
X318898Y126927D01*
X319673Y127029D01*
X320395Y127328D01*
X321015Y127804D01*
X321491Y128424D01*
X321790Y129146D01*
X321892Y129921D01*
X321790Y130696D01*
X321491Y131418D01*
X321015Y132038D01*
X320395Y132514D01*
X319673Y132813D01*
X318898Y132915D01*
D02*
G37*
G36*
X291339D02*
X290564Y132813D01*
X289842Y132514D01*
X289221Y132038D01*
X288746Y131418D01*
X288446Y130696D01*
X288345Y129921D01*
X288446Y129146D01*
X288746Y128424D01*
X289221Y127804D01*
X289842Y127328D01*
X290564Y127029D01*
X291339Y126927D01*
X292113Y127029D01*
X292836Y127328D01*
X293456Y127804D01*
X293932Y128424D01*
X294231Y129146D01*
X294333Y129921D01*
X294231Y130696D01*
X293932Y131418D01*
X293456Y132038D01*
X292836Y132514D01*
X292113Y132813D01*
X291339Y132915D01*
D02*
G37*
G36*
X275302Y129147D02*
X274527Y129045D01*
X273805Y128746D01*
X273185Y128270D01*
X272709Y127650D01*
X272410Y126928D01*
X272308Y126153D01*
X272410Y125378D01*
X272709Y124656D01*
X273185Y124036D01*
X273805Y123560D01*
X274527Y123261D01*
X275302Y123159D01*
X276077Y123261D01*
X276799Y123560D01*
X277419Y124036D01*
X277895Y124656D01*
X278194Y125378D01*
X278296Y126153D01*
X278194Y126928D01*
X277895Y127650D01*
X277419Y128270D01*
X276799Y128746D01*
X276077Y129045D01*
X275302Y129147D01*
D02*
G37*
G36*
X357591Y125558D02*
Y123129D01*
X360019D01*
X359983Y123405D01*
X359684Y124127D01*
X359208Y124747D01*
X358588Y125223D01*
X357866Y125522D01*
X357591Y125558D01*
D02*
G37*
G36*
X356591D02*
X356316Y125522D01*
X355594Y125223D01*
X354974Y124747D01*
X354498Y124127D01*
X354199Y123405D01*
X354163Y123129D01*
X356591D01*
Y125558D01*
D02*
G37*
G36*
X245093Y125004D02*
Y122575D01*
X247521D01*
X247485Y122850D01*
X247186Y123573D01*
X246710Y124193D01*
X246090Y124669D01*
X245368Y124968D01*
X245093Y125004D01*
D02*
G37*
G36*
X244093D02*
X243818Y124968D01*
X243095Y124669D01*
X242475Y124193D01*
X242000Y123573D01*
X241701Y122850D01*
X241664Y122575D01*
X244093D01*
Y125004D01*
D02*
G37*
G36*
X382724Y123208D02*
Y120780D01*
X385152D01*
X385116Y121055D01*
X384817Y121777D01*
X384341Y122397D01*
X383721Y122873D01*
X382998Y123172D01*
X382724Y123208D01*
D02*
G37*
G36*
X381724D02*
X381449Y123172D01*
X380727Y122873D01*
X380106Y122397D01*
X379631Y121777D01*
X379331Y121055D01*
X379295Y120780D01*
X381724D01*
Y123208D01*
D02*
G37*
G36*
X360019Y122129D02*
X357591D01*
Y119701D01*
X357866Y119737D01*
X358588Y120037D01*
X359208Y120512D01*
X359684Y121133D01*
X359983Y121855D01*
X360019Y122129D01*
D02*
G37*
G36*
X356591D02*
X354163D01*
X354199Y121855D01*
X354498Y121133D01*
X354974Y120512D01*
X355594Y120037D01*
X356316Y119737D01*
X356591Y119701D01*
Y122129D01*
D02*
G37*
G36*
X247521Y121575D02*
X245093D01*
Y119147D01*
X245368Y119183D01*
X246090Y119483D01*
X246710Y119958D01*
X247186Y120578D01*
X247485Y121300D01*
X247521Y121575D01*
D02*
G37*
G36*
X244093D02*
X241664D01*
X241701Y121300D01*
X242000Y120578D01*
X242475Y119958D01*
X243095Y119483D01*
X243818Y119183D01*
X244093Y119147D01*
Y121575D01*
D02*
G37*
G36*
X385152Y119780D02*
X382724D01*
Y117352D01*
X382998Y117388D01*
X383721Y117687D01*
X384341Y118163D01*
X384817Y118783D01*
X385116Y119505D01*
X385152Y119780D01*
D02*
G37*
G36*
X381724D02*
X379295D01*
X379331Y119505D01*
X379631Y118783D01*
X380106Y118163D01*
X380727Y117687D01*
X381449Y117388D01*
X381724Y117352D01*
Y119780D01*
D02*
G37*
G36*
X287329Y122583D02*
X286554Y122481D01*
X285831Y122182D01*
X285211Y121706D01*
X284736Y121086D01*
X284436Y120364D01*
X284334Y119589D01*
X284436Y118814D01*
X284736Y118092D01*
X285211Y117472D01*
X285831Y116996D01*
X286554Y116697D01*
X287329Y116595D01*
X288104Y116697D01*
X288826Y116996D01*
X289446Y117472D01*
X289921Y118092D01*
X290221Y118814D01*
X290323Y119589D01*
X290221Y120364D01*
X289921Y121086D01*
X289446Y121706D01*
X288826Y122182D01*
X288104Y122481D01*
X287329Y122583D01*
D02*
G37*
G36*
X340124Y122406D02*
X339349Y122303D01*
X338627Y122004D01*
X338007Y121529D01*
X337531Y120908D01*
X337232Y120186D01*
X337130Y119411D01*
X337232Y118637D01*
X337531Y117914D01*
X338007Y117294D01*
X338627Y116818D01*
X339349Y116519D01*
X340124Y116417D01*
X340899Y116519D01*
X341621Y116818D01*
X342241Y117294D01*
X342717Y117914D01*
X343016Y118637D01*
X343118Y119411D01*
X343016Y120186D01*
X342717Y120908D01*
X342241Y121529D01*
X341621Y122004D01*
X340899Y122303D01*
X340124Y122406D01*
D02*
G37*
G36*
X328107Y124576D02*
X327049Y124437D01*
X326064Y124029D01*
X325218Y123379D01*
X324568Y122533D01*
X324160Y121548D01*
X324021Y120490D01*
X324160Y119432D01*
X324568Y118447D01*
X325218Y117601D01*
X326064Y116951D01*
X327049Y116543D01*
X328107Y116404D01*
X329165Y116543D01*
X330150Y116951D01*
X330996Y117601D01*
X331646Y118447D01*
X332054Y119432D01*
X332193Y120490D01*
X332054Y121548D01*
X331646Y122533D01*
X330996Y123379D01*
X330150Y124029D01*
X329165Y124437D01*
X328107Y124576D01*
D02*
G37*
G36*
X318107D02*
X317049Y124437D01*
X316064Y124029D01*
X315218Y123379D01*
X314568Y122533D01*
X314160Y121548D01*
X314021Y120490D01*
X314160Y119432D01*
X314568Y118447D01*
X315218Y117601D01*
X316064Y116951D01*
X317049Y116543D01*
X318107Y116404D01*
X319164Y116543D01*
X320150Y116951D01*
X320996Y117601D01*
X321646Y118447D01*
X322054Y119432D01*
X322193Y120490D01*
X322054Y121548D01*
X321646Y122533D01*
X320996Y123379D01*
X320150Y124029D01*
X319164Y124437D01*
X318107Y124576D01*
D02*
G37*
G36*
X308107D02*
X307049Y124437D01*
X306064Y124029D01*
X305218Y123379D01*
X304568Y122533D01*
X304160Y121548D01*
X304021Y120490D01*
X304160Y119432D01*
X304568Y118447D01*
X305218Y117601D01*
X306064Y116951D01*
X307049Y116543D01*
X308107Y116404D01*
X309165Y116543D01*
X310150Y116951D01*
X310996Y117601D01*
X311646Y118447D01*
X312054Y119432D01*
X312193Y120490D01*
X312054Y121548D01*
X311646Y122533D01*
X310996Y123379D01*
X310150Y124029D01*
X309165Y124437D01*
X308107Y124576D01*
D02*
G37*
G36*
X298107D02*
X297049Y124437D01*
X296064Y124029D01*
X295218Y123379D01*
X294568Y122533D01*
X294160Y121548D01*
X294021Y120490D01*
X294160Y119432D01*
X294568Y118447D01*
X295218Y117601D01*
X296064Y116951D01*
X297049Y116543D01*
X298107Y116404D01*
X299165Y116543D01*
X300150Y116951D01*
X300996Y117601D01*
X301646Y118447D01*
X302054Y119432D01*
X302193Y120490D01*
X302054Y121548D01*
X301646Y122533D01*
X300996Y123379D01*
X300150Y124029D01*
X299165Y124437D01*
X298107Y124576D01*
D02*
G37*
G36*
X360752Y116015D02*
Y113587D01*
X363180D01*
X363144Y113862D01*
X362845Y114584D01*
X362369Y115204D01*
X361749Y115680D01*
X361027Y115979D01*
X360752Y116015D01*
D02*
G37*
G36*
X359752D02*
X359477Y115979D01*
X358755Y115680D01*
X358135Y115204D01*
X357659Y114584D01*
X357360Y113862D01*
X357324Y113587D01*
X359752D01*
Y116015D01*
D02*
G37*
G36*
X378098Y116948D02*
X374349D01*
Y113200D01*
X378098D01*
Y116948D01*
D02*
G37*
G36*
X373349D02*
X369601D01*
Y113200D01*
X373349D01*
Y116948D01*
D02*
G37*
G36*
X343248Y115114D02*
X342973Y115077D01*
X342251Y114778D01*
X341631Y114303D01*
X341155Y113682D01*
X340856Y112960D01*
X340820Y112685D01*
X343248D01*
Y115114D01*
D02*
G37*
G36*
X350079Y113152D02*
Y110724D01*
X352507D01*
X352471Y110999D01*
X352171Y111721D01*
X351696Y112341D01*
X351076Y112817D01*
X350353Y113116D01*
X350079Y113152D01*
D02*
G37*
G36*
X363180Y112587D02*
X360752D01*
Y110159D01*
X361027Y110195D01*
X361749Y110494D01*
X362369Y110970D01*
X362845Y111590D01*
X363144Y112312D01*
X363180Y112587D01*
D02*
G37*
G36*
X359752D02*
X357324D01*
X357360Y112312D01*
X357659Y111590D01*
X358135Y110970D01*
X358755Y110494D01*
X359477Y110195D01*
X359752Y110159D01*
Y112587D01*
D02*
G37*
G36*
X343248Y111685D02*
X340820D01*
X340856Y111410D01*
X341155Y110688D01*
X341631Y110068D01*
X342251Y109592D01*
X342973Y109293D01*
X343248Y109257D01*
Y111685D01*
D02*
G37*
G36*
X378098Y112200D02*
X374349D01*
Y108452D01*
X378098D01*
Y112200D01*
D02*
G37*
G36*
X373349D02*
X369601D01*
Y108452D01*
X373349D01*
Y112200D01*
D02*
G37*
G36*
X352507Y109724D02*
X350079D01*
Y107295D01*
X350353Y107332D01*
X351076Y107631D01*
X351696Y108107D01*
X352171Y108727D01*
X352471Y109449D01*
X352507Y109724D01*
D02*
G37*
G36*
X344248Y115114D02*
Y112185D01*
Y109257D01*
X344523Y109293D01*
X345245Y109592D01*
X345865Y110068D01*
X346100Y110374D01*
X346498Y110251D01*
X346589Y110190D01*
X346686Y109449D01*
X346986Y108727D01*
X347461Y108107D01*
X348081Y107631D01*
X348803Y107332D01*
X349078Y107295D01*
Y110224D01*
Y113152D01*
X348803Y113116D01*
X348081Y112817D01*
X347461Y112341D01*
X347227Y112035D01*
X346829Y112159D01*
X346738Y112219D01*
X346640Y112960D01*
X346341Y113682D01*
X345865Y114303D01*
X345245Y114778D01*
X344523Y115077D01*
X344248Y115114D01*
D02*
G37*
G36*
X331093Y111549D02*
X330318Y111447D01*
X329596Y111148D01*
X328976Y110672D01*
X328500Y110052D01*
X328201Y109330D01*
X328099Y108555D01*
X328201Y107780D01*
X328500Y107058D01*
X328976Y106438D01*
X329596Y105962D01*
X330318Y105663D01*
X331093Y105561D01*
X331868Y105663D01*
X332591Y105962D01*
X333211Y106438D01*
X333686Y107058D01*
X333985Y107780D01*
X334087Y108555D01*
X333985Y109330D01*
X333686Y110052D01*
X333211Y110672D01*
X332591Y111148D01*
X331868Y111447D01*
X331093Y111549D01*
D02*
G37*
G36*
X290976Y110460D02*
X290201Y110358D01*
X289479Y110059D01*
X288859Y109583D01*
X288383Y108963D01*
X288084Y108241D01*
X287982Y107466D01*
X288084Y106691D01*
X288383Y105969D01*
X288859Y105349D01*
X289479Y104873D01*
X290201Y104574D01*
X290976Y104472D01*
X291751Y104574D01*
X292473Y104873D01*
X293093Y105349D01*
X293569Y105969D01*
X293868Y106691D01*
X293970Y107466D01*
X293868Y108241D01*
X293569Y108963D01*
X293093Y109583D01*
X292473Y110059D01*
X291751Y110358D01*
X290976Y110460D01*
D02*
G37*
G36*
X276860Y106549D02*
X276085Y106447D01*
X275363Y106148D01*
X274743Y105672D01*
X274268Y105052D01*
X273968Y104330D01*
X273866Y103555D01*
X273968Y102780D01*
X274268Y102058D01*
X274743Y101438D01*
X275363Y100962D01*
X276085Y100663D01*
X276860Y100561D01*
X277635Y100663D01*
X278358Y100962D01*
X278978Y101438D01*
X279453Y102058D01*
X279753Y102780D01*
X279855Y103555D01*
X279753Y104330D01*
X279453Y105052D01*
X278978Y105672D01*
X278358Y106148D01*
X277635Y106447D01*
X276860Y106549D01*
D02*
G37*
G36*
X267454Y104480D02*
X266679Y104378D01*
X265957Y104079D01*
X265337Y103603D01*
X264861Y102983D01*
X264562Y102261D01*
X264460Y101486D01*
X264562Y100711D01*
X264861Y99989D01*
X265337Y99369D01*
X265957Y98893D01*
X266679Y98594D01*
X267454Y98492D01*
X268229Y98594D01*
X268951Y98893D01*
X269571Y99369D01*
X270047Y99989D01*
X270346Y100711D01*
X270448Y101486D01*
X270346Y102261D01*
X270047Y102983D01*
X269571Y103603D01*
X268951Y104079D01*
X268229Y104378D01*
X267454Y104480D01*
D02*
G37*
G36*
X373849Y106984D02*
X372741Y106839D01*
X371707Y106410D01*
X370820Y105729D01*
X370139Y104842D01*
X369711Y103809D01*
X369565Y102700D01*
X369711Y101591D01*
X370139Y100557D01*
X370820Y99670D01*
X371707Y98989D01*
X372741Y98561D01*
X373849Y98415D01*
X374958Y98561D01*
X375992Y98989D01*
X376879Y99670D01*
X377560Y100557D01*
X377988Y101591D01*
X378134Y102700D01*
X377988Y103809D01*
X377560Y104842D01*
X376879Y105729D01*
X375992Y106410D01*
X374958Y106839D01*
X373849Y106984D01*
D02*
G37*
G36*
X236209Y100123D02*
X235434Y100021D01*
X234712Y99721D01*
X234092Y99246D01*
X233616Y98626D01*
X233317Y97904D01*
X233215Y97129D01*
X233317Y96354D01*
X233616Y95631D01*
X234092Y95011D01*
X234712Y94536D01*
X235434Y94236D01*
X236209Y94134D01*
X236984Y94236D01*
X237706Y94536D01*
X238326Y95011D01*
X238802Y95631D01*
X239101Y96354D01*
X239203Y97129D01*
X239101Y97904D01*
X238802Y98626D01*
X238326Y99246D01*
X237706Y99721D01*
X236984Y100021D01*
X236209Y100123D01*
D02*
G37*
G36*
X360455Y98319D02*
X359680Y98217D01*
X358958Y97918D01*
X358338Y97442D01*
X357862Y96822D01*
X357563Y96100D01*
X357461Y95325D01*
X357563Y94550D01*
X357862Y93828D01*
X358338Y93208D01*
X358958Y92732D01*
X359680Y92433D01*
X360455Y92331D01*
X361230Y92433D01*
X361952Y92732D01*
X362572Y93208D01*
X363048Y93828D01*
X363347Y94550D01*
X363449Y95325D01*
X363347Y96100D01*
X363048Y96822D01*
X362572Y97442D01*
X361952Y97918D01*
X361230Y98217D01*
X360455Y98319D01*
D02*
G37*
G36*
X352237Y96548D02*
X351462Y96446D01*
X350740Y96147D01*
X350119Y95671D01*
X349644Y95051D01*
X349345Y94329D01*
X349243Y93554D01*
X349345Y92779D01*
X349644Y92057D01*
X350119Y91436D01*
X350740Y90961D01*
X351462Y90662D01*
X352237Y90560D01*
X353012Y90662D01*
X353734Y90961D01*
X354354Y91436D01*
X354830Y92057D01*
X355129Y92779D01*
X355231Y93554D01*
X355129Y94329D01*
X354830Y95051D01*
X354354Y95671D01*
X353734Y96147D01*
X353012Y96446D01*
X352237Y96548D01*
D02*
G37*
G36*
X290935Y95949D02*
X290160Y95847D01*
X289438Y95548D01*
X288818Y95072D01*
X288342Y94452D01*
X288043Y93730D01*
X287941Y92955D01*
X288043Y92180D01*
X288342Y91458D01*
X288818Y90838D01*
X289438Y90362D01*
X290160Y90062D01*
X290935Y89960D01*
X291710Y90062D01*
X292432Y90362D01*
X293053Y90838D01*
X293529Y91458D01*
X293828Y92180D01*
X293930Y92955D01*
X293828Y93730D01*
X293529Y94452D01*
X293053Y95072D01*
X292432Y95548D01*
X291710Y95847D01*
X290935Y95949D01*
D02*
G37*
G36*
X345620Y95645D02*
X344845Y95543D01*
X344123Y95244D01*
X343503Y94769D01*
X343027Y94148D01*
X342728Y93426D01*
X342626Y92651D01*
X342728Y91876D01*
X343027Y91154D01*
X343503Y90534D01*
X344123Y90058D01*
X344845Y89759D01*
X345620Y89657D01*
X346395Y89759D01*
X347117Y90058D01*
X347737Y90534D01*
X348213Y91154D01*
X348512Y91876D01*
X348614Y92651D01*
X348512Y93426D01*
X348213Y94148D01*
X347737Y94769D01*
X347117Y95244D01*
X346395Y95543D01*
X345620Y95645D01*
D02*
G37*
G36*
X373849Y96984D02*
X372741Y96838D01*
X371707Y96411D01*
X370820Y95730D01*
X370139Y94842D01*
X369711Y93809D01*
X369565Y92700D01*
X369711Y91591D01*
X370139Y90557D01*
X370820Y89670D01*
X371707Y88989D01*
X372741Y88561D01*
X373849Y88415D01*
X374958Y88561D01*
X375992Y88989D01*
X376879Y89670D01*
X377560Y90557D01*
X377988Y91591D01*
X378134Y92700D01*
X377988Y93809D01*
X377560Y94842D01*
X376879Y95730D01*
X375992Y96411D01*
X374958Y96838D01*
X373849Y96984D01*
D02*
G37*
%LPD*%
D14*
X0Y0D02*
X393701D01*
Y393701D01*
X0D02*
X393701D01*
X0Y0D02*
Y393701D01*
D15*
X-36371Y-118085D02*
G03*
X-36045Y-109630I-19940810J772725D01*
G01*
D72*
X318107Y120490D02*
D03*
X298107Y150490D02*
D03*
X308107D02*
D03*
X318107D02*
D03*
X328107Y120490D02*
D03*
X308107D02*
D03*
X298107D02*
D03*
D77*
X328107Y150490D02*
D03*
D86*
X246535Y43307D02*
D03*
X236535D02*
D03*
X216535D02*
D03*
X226535D02*
D03*
X238347Y192913D02*
D03*
X248346D02*
D03*
X228346D02*
D03*
X257953D02*
D03*
X298898D02*
D03*
X308898D02*
D03*
X318898D02*
D03*
X328898D02*
D03*
X31496Y185354D02*
D03*
Y175354D02*
D03*
Y165354D02*
D03*
Y155354D02*
D03*
D87*
X99595Y264649D02*
D03*
Y294570D02*
D03*
D88*
X132287Y213509D02*
D03*
Y193509D02*
D03*
Y203509D02*
D03*
X102287Y183509D02*
D03*
Y193509D02*
D03*
Y203509D02*
D03*
Y213509D02*
D03*
D89*
X132287Y183509D02*
D03*
D90*
X338898Y192913D02*
D03*
D91*
X373849Y42700D02*
D03*
Y52700D02*
D03*
Y62700D02*
D03*
Y72700D02*
D03*
Y82700D02*
D03*
Y92700D02*
D03*
Y102700D02*
D03*
X29405Y311845D02*
D03*
Y331530D02*
D03*
D92*
X373849Y112700D02*
D03*
D93*
X31496Y145354D02*
D03*
D94*
X244593Y122075D02*
D03*
X287329Y119589D02*
D03*
X288853Y138344D02*
D03*
X291339Y129921D02*
D03*
X275302Y126153D02*
D03*
X323103Y83674D02*
D03*
X226674Y96038D02*
D03*
X118401Y140544D02*
D03*
X345620Y92651D02*
D03*
X352237Y93554D02*
D03*
X248933Y285580D02*
D03*
X87586Y188607D02*
D03*
X277952Y77002D02*
D03*
X125597Y235782D02*
D03*
X141131Y343685D02*
D03*
X199598Y166717D02*
D03*
X199023Y175402D02*
D03*
X107752Y163629D02*
D03*
X48381Y192577D02*
D03*
X48533Y168424D02*
D03*
X124558Y225497D02*
D03*
X168761Y336113D02*
D03*
X158331Y334027D02*
D03*
X196652Y314290D02*
D03*
X216544Y313515D02*
D03*
X235144Y318811D02*
D03*
X235338Y355947D02*
D03*
X261624Y355818D02*
D03*
X343748Y112185D02*
D03*
X349578Y110224D02*
D03*
X382224Y120280D02*
D03*
X354331Y129921D02*
D03*
X357091Y122629D02*
D03*
X360252Y113087D02*
D03*
X49076Y145422D02*
D03*
X79447Y183743D02*
D03*
X48761Y185061D02*
D03*
X387592Y160680D02*
D03*
X359043Y75779D02*
D03*
X349076Y74533D02*
D03*
X340594Y80187D02*
D03*
X358962Y38607D02*
D03*
X348955Y39620D02*
D03*
X340088Y34427D02*
D03*
X378152Y135065D02*
D03*
X340341Y149631D02*
D03*
X369968Y177826D02*
D03*
X309251Y215518D02*
D03*
X298916Y213380D02*
D03*
X264437Y164022D02*
D03*
X275395Y146008D02*
D03*
X339194Y162377D02*
D03*
X340124Y119411D02*
D03*
X331093Y108555D02*
D03*
X290976Y107466D02*
D03*
X276860Y103555D02*
D03*
X267454Y101486D02*
D03*
X360455Y95325D02*
D03*
X264875Y48757D02*
D03*
X236209Y97129D02*
D03*
X290935Y92955D02*
D03*
X293806Y53815D02*
D03*
X318898Y137795D02*
D03*
Y129921D02*
D03*
D95*
X27559Y377953D02*
D03*
X366142D02*
D03*
Y15748D02*
D03*
X27559D02*
D03*
M02*
