G04*
G04 #@! TF.GenerationSoftware,Altium Limited,Altium Designer,20.2.7 (254)*
G04*
G04 Layer_Physical_Order=1*
G04 Layer_Color=255*
%FSLAX25Y25*%
%MOIN*%
G70*
G04*
G04 #@! TF.SameCoordinates,6A7C296C-3D1D-46A6-B2F7-2068CE29E54D*
G04*
G04*
G04 #@! TF.FilePolarity,Positive*
G04*
G01*
G75*
%ADD14C,0.01000*%
%ADD15C,0.00050*%
%ADD16R,0.02756X0.02362*%
%ADD17R,0.03937X0.05709*%
%ADD18R,0.06299X0.08583*%
%ADD19R,0.06299X0.08661*%
%ADD20R,0.05118X0.05709*%
%ADD21R,0.07284X0.12598*%
%ADD22R,0.05709X0.03937*%
%ADD23R,0.05472X0.03583*%
%ADD24R,0.04724X0.04724*%
%ADD25R,0.07087X0.14567*%
%ADD26R,0.03740X0.06890*%
%ADD27R,0.12598X0.06890*%
%ADD28R,0.07087X0.10236*%
%ADD29R,0.04331X0.05512*%
%ADD30R,0.05512X0.04331*%
%ADD32R,0.02200X0.02900*%
%ADD33R,0.05118X0.07874*%
%ADD34R,0.07874X0.07874*%
%ADD35R,0.06102X0.05906*%
%ADD36R,0.03740X0.03543*%
%ADD37R,0.04803X0.03583*%
%ADD38R,0.05709X0.05118*%
%ADD39R,0.02900X0.02200*%
%ADD40R,0.02362X0.02756*%
G04:AMPARAMS|DCode=41|XSize=21.65mil|YSize=49.21mil|CornerRadius=1.95mil|HoleSize=0mil|Usage=FLASHONLY|Rotation=0.000|XOffset=0mil|YOffset=0mil|HoleType=Round|Shape=RoundedRectangle|*
%AMROUNDEDRECTD41*
21,1,0.02165,0.04532,0,0,0.0*
21,1,0.01776,0.04921,0,0,0.0*
1,1,0.00390,0.00888,-0.02266*
1,1,0.00390,-0.00888,-0.02266*
1,1,0.00390,-0.00888,0.02266*
1,1,0.00390,0.00888,0.02266*
%
%ADD41ROUNDEDRECTD41*%
%ADD42R,0.04724X0.04724*%
%ADD43R,0.08858X0.05906*%
%ADD44R,0.03583X0.05472*%
%ADD45R,0.09055X0.06102*%
%ADD72C,0.06102*%
%ADD77R,0.06102X0.06102*%
%ADD83R,0.02756X0.02362*%
%ADD84C,0.01968*%
%ADD85C,0.03937*%
%ADD86C,0.06791*%
%ADD87C,0.05118*%
%ADD88C,0.05906*%
%ADD89R,0.05906X0.05906*%
%ADD90R,0.06791X0.06791*%
%ADD91C,0.06496*%
%ADD92R,0.06496X0.06496*%
%ADD93R,0.06791X0.06791*%
%ADD94C,0.03937*%
%ADD95C,0.13780*%
G36*
X271654Y244094D02*
X181102D01*
Y180076D01*
X175770D01*
Y172367D01*
X181102D01*
Y160646D01*
X178168D01*
Y156283D01*
X181102D01*
Y110236D01*
X19685D01*
Y255906D01*
X23622D01*
X45715D01*
Y246232D01*
X45831Y245647D01*
X46163Y245151D01*
X77092Y214221D01*
Y208675D01*
X82139D01*
X82217Y208175D01*
X81826Y207785D01*
X78406D01*
Y200312D01*
X79668D01*
Y188970D01*
X79785Y188385D01*
X80116Y187889D01*
X81352Y186653D01*
X81021Y186276D01*
X80944Y186336D01*
X80222Y186635D01*
X79447Y186737D01*
X78672Y186635D01*
X77950Y186336D01*
X77330Y185860D01*
X76854Y185240D01*
X76555Y184518D01*
X76453Y183743D01*
X76542Y183065D01*
X74385Y180908D01*
X66673D01*
Y177391D01*
X47207D01*
Y178830D01*
X39498D01*
Y176884D01*
X35620D01*
X35336Y177571D01*
X34631Y178489D01*
X33713Y179194D01*
X32644Y179637D01*
X31496Y179788D01*
X30349Y179637D01*
X29279Y179194D01*
X28361Y178489D01*
X27656Y177571D01*
X27213Y176502D01*
X27062Y175354D01*
X27213Y174207D01*
X27656Y173137D01*
X28361Y172219D01*
X29279Y171515D01*
X30349Y171072D01*
X31496Y170921D01*
X32644Y171072D01*
X33713Y171515D01*
X34631Y172219D01*
X35336Y173137D01*
X35620Y173825D01*
X39498D01*
Y172893D01*
X47207D01*
Y174332D01*
X66673D01*
Y171034D01*
X76547D01*
Y178745D01*
X78659Y180856D01*
X78672Y180851D01*
X79447Y180749D01*
X80222Y180851D01*
X80944Y181150D01*
X81564Y181626D01*
X82040Y182246D01*
X82339Y182968D01*
X82441Y183743D01*
X82339Y184518D01*
X82040Y185240D01*
X81980Y185317D01*
X82357Y185648D01*
X87275Y180730D01*
X87771Y180398D01*
X88357Y180282D01*
X90752D01*
Y179020D01*
X94445D01*
Y162016D01*
X93596D01*
Y157653D01*
X94445D01*
Y134697D01*
X84999Y125251D01*
X84537Y125442D01*
Y126638D01*
X81182D01*
Y124169D01*
X83264D01*
X83455Y123707D01*
X82374Y122626D01*
X76828D01*
Y121187D01*
X75465D01*
Y122626D01*
X67756D01*
Y116689D01*
X75465D01*
Y118128D01*
X76828D01*
Y116689D01*
X84537D01*
Y120463D01*
X97056Y132982D01*
X97387Y133478D01*
X97504Y134064D01*
Y157653D01*
X98352D01*
Y162016D01*
X97504D01*
Y179020D01*
X98224D01*
Y181681D01*
X98724Y181781D01*
X98834Y181516D01*
X99468Y180690D01*
X100293Y180057D01*
X101255Y179658D01*
X102287Y179523D01*
X103319Y179658D01*
X104280Y180057D01*
X105106Y180690D01*
X105739Y181516D01*
X106138Y182478D01*
X106274Y183509D01*
X106138Y184541D01*
X105739Y185503D01*
X105106Y186329D01*
X104280Y186962D01*
X103319Y187360D01*
X102287Y187496D01*
X101255Y187360D01*
X100293Y186962D01*
X99468Y186329D01*
X98834Y185503D01*
X98593Y184920D01*
X98224Y184602D01*
X97939Y184602D01*
X90752D01*
Y183340D01*
X88990D01*
X87167Y185164D01*
X87400Y185637D01*
X87586Y185613D01*
X88361Y185715D01*
X89083Y186014D01*
X89704Y186490D01*
X90154Y187078D01*
X90752D01*
Y185476D01*
X98224D01*
Y188896D01*
X99779Y190451D01*
X100293Y190057D01*
X101255Y189658D01*
X102287Y189523D01*
X103319Y189658D01*
X104280Y190057D01*
X105106Y190690D01*
X105739Y191516D01*
X106138Y192478D01*
X106274Y193509D01*
X106138Y194541D01*
X105739Y195503D01*
X105106Y196329D01*
X104280Y196962D01*
X103319Y197360D01*
X102287Y197496D01*
X101255Y197360D01*
X100293Y196962D01*
X99468Y196329D01*
X98834Y195503D01*
X98436Y194541D01*
X98300Y193509D01*
X98325Y193322D01*
X96061Y191059D01*
X90752D01*
Y190136D01*
X90154D01*
X89704Y190724D01*
X89083Y191200D01*
X88361Y191499D01*
X87586Y191601D01*
X86811Y191499D01*
X86089Y191200D01*
X85469Y190724D01*
X84993Y190104D01*
X84694Y189382D01*
X84592Y188607D01*
X84617Y188421D01*
X84143Y188188D01*
X82727Y189604D01*
Y200312D01*
X83989D01*
Y205622D01*
X84401Y206034D01*
X84863Y205842D01*
Y200312D01*
X90446D01*
Y201980D01*
X98642D01*
X98834Y201516D01*
X99468Y200690D01*
X100293Y200057D01*
X101255Y199658D01*
X102287Y199523D01*
X103319Y199658D01*
X104280Y200057D01*
X105106Y200690D01*
X105739Y201516D01*
X106138Y202478D01*
X106274Y203509D01*
X106138Y204541D01*
X105739Y205503D01*
X105106Y206329D01*
X104280Y206962D01*
X103319Y207360D01*
X102287Y207496D01*
X101255Y207360D01*
X100293Y206962D01*
X99468Y206329D01*
X98834Y205503D01*
X98642Y205039D01*
X90446D01*
Y207785D01*
X89070D01*
Y208675D01*
X90509D01*
Y216384D01*
X89070D01*
Y217747D01*
X90509D01*
Y225456D01*
X84572D01*
Y219020D01*
X84110Y218829D01*
X83029Y219910D01*
Y225456D01*
X81590D01*
Y232277D01*
X81474Y232862D01*
X81142Y233358D01*
X64614Y249886D01*
X64806Y250348D01*
X69470D01*
Y255523D01*
X69499Y255671D01*
Y255906D01*
X128533Y255906D01*
Y254747D01*
X122637D01*
X122052Y254631D01*
X121556Y254299D01*
X114870Y247613D01*
X114538Y247117D01*
X114422Y246532D01*
Y246032D01*
X113770D01*
Y241276D01*
X118132D01*
Y246032D01*
X118132D01*
X117980Y246398D01*
X123270Y251689D01*
X128533D01*
Y250249D01*
X136242D01*
Y255906D01*
X232283D01*
X232283Y298600D01*
X235235D01*
Y302053D01*
X229806D01*
Y303053D01*
X235235D01*
Y306506D01*
X232283D01*
Y316841D01*
X232784Y317011D01*
X233027Y316693D01*
X233647Y316217D01*
X234369Y315918D01*
X235144Y315816D01*
X235919Y315918D01*
X236641Y316217D01*
X237261Y316693D01*
X237737Y317314D01*
X238036Y318036D01*
X238138Y318811D01*
X238036Y319585D01*
X237842Y320054D01*
X238144Y320554D01*
X238196D01*
Y329444D01*
X232456D01*
X232283Y329872D01*
Y338583D01*
X256980D01*
Y335556D01*
X261524D01*
X266067D01*
Y338583D01*
X271654D01*
Y244094D01*
D02*
G37*
G36*
X74803Y319642D02*
X70185D01*
Y315591D01*
Y311539D01*
X74803D01*
Y299213D01*
X11811D01*
Y342520D01*
X74803D01*
Y319642D01*
D02*
G37*
G36*
X192166Y350394D02*
Y346661D01*
X196710D01*
X201253D01*
Y350394D01*
X227058D01*
Y329444D01*
X226771D01*
Y324999D01*
Y320554D01*
X227058D01*
Y306506D01*
X224377D01*
Y298600D01*
X227058D01*
Y271654D01*
X70131Y271654D01*
Y280172D01*
X71051D01*
Y284372D01*
X68846D01*
X68655Y284834D01*
X69683Y285862D01*
X70014Y286358D01*
X70131Y286943D01*
Y287672D01*
X71051D01*
Y289272D01*
X68601D01*
Y289772D01*
X68101D01*
Y291872D01*
X66929D01*
Y295276D01*
X95719D01*
X95900Y295070D01*
X99595D01*
X103291D01*
X103472Y295276D01*
X110210D01*
Y308842D01*
X110589D01*
Y312598D01*
Y316354D01*
X110210D01*
Y350394D01*
X114173D01*
X192166Y350394D01*
D02*
G37*
G36*
X56053Y250348D02*
X59827D01*
X78531Y231643D01*
Y225456D01*
X77092D01*
Y219200D01*
X76630Y219009D01*
X48774Y246866D01*
Y255906D01*
X56053D01*
Y250348D01*
D02*
G37*
G36*
X389764Y176787D02*
X384068D01*
Y174955D01*
X382804D01*
Y175902D01*
X375292D01*
Y169571D01*
X382804D01*
Y171896D01*
X384068D01*
Y170063D01*
X389764D01*
Y168520D01*
X384068D01*
Y161795D01*
X384363D01*
X384679Y161295D01*
X384598Y160680D01*
X384700Y159905D01*
X384999Y159183D01*
X385475Y158563D01*
X386095Y158087D01*
X386817Y157788D01*
X387592Y157686D01*
X388367Y157788D01*
X389089Y158087D01*
X389264Y158221D01*
X389764Y157974D01*
X389764Y27559D01*
X298047Y27559D01*
Y32580D01*
X298877Y33410D01*
X299208Y33906D01*
X299325Y34491D01*
Y35634D01*
X300587D01*
Y37841D01*
X304315D01*
Y35516D01*
X310252D01*
Y43224D01*
X304315D01*
Y40900D01*
X300587D01*
Y43106D01*
X295501D01*
X295200Y43106D01*
X294875Y43532D01*
X294920Y43678D01*
X294959Y43737D01*
X295251Y44175D01*
X295368Y44760D01*
Y45446D01*
X295588Y45593D01*
X295852Y45989D01*
X295945Y46455D01*
Y50986D01*
X295852Y51452D01*
X295768Y51578D01*
X295923Y51697D01*
X296399Y52318D01*
X296698Y53040D01*
X296800Y53815D01*
X296698Y54590D01*
X296399Y55312D01*
X295923Y55932D01*
X295303Y56408D01*
X294581Y56707D01*
X293806Y56809D01*
X293031Y56707D01*
X292309Y56408D01*
X291688Y55932D01*
X291213Y55312D01*
X290914Y54590D01*
X290812Y53815D01*
X290914Y53040D01*
X291213Y52318D01*
X291688Y51697D01*
X291887Y51545D01*
X291825Y51452D01*
X291733Y50986D01*
Y50250D01*
X290945D01*
Y50986D01*
X290852Y51452D01*
X290588Y51848D01*
X290193Y52112D01*
X289726Y52205D01*
X287951D01*
X287485Y52112D01*
X287089Y51848D01*
X286825Y51452D01*
X286733Y50986D01*
Y46455D01*
X286825Y45989D01*
X287089Y45593D01*
X287485Y45329D01*
X287951Y45236D01*
X289726D01*
X290193Y45329D01*
X290588Y45593D01*
X290852Y45989D01*
X290945Y46455D01*
Y47191D01*
X291733D01*
Y46455D01*
X291825Y45989D01*
X292089Y45593D01*
X291981Y45065D01*
X291548Y44633D01*
X291217Y44137D01*
X291101Y43551D01*
Y43106D01*
X288547D01*
Y35634D01*
X294130D01*
Y40514D01*
X294159Y40661D01*
Y42918D01*
X294614Y43373D01*
X294936Y43111D01*
X295004Y42936D01*
X295004Y42628D01*
Y35634D01*
X296266D01*
Y35125D01*
X295884Y34743D01*
X292110D01*
Y27559D01*
X290567D01*
Y34743D01*
X286793D01*
X285368Y36168D01*
Y45446D01*
X285588Y45593D01*
X285852Y45989D01*
X285945Y46455D01*
Y50986D01*
X285852Y51452D01*
X285588Y51848D01*
X285193Y52112D01*
X284726Y52205D01*
X282951D01*
X282485Y52112D01*
X282089Y51848D01*
X281825Y51452D01*
X281733Y50986D01*
Y50250D01*
X278449D01*
Y52514D01*
X272866D01*
Y45042D01*
X278449D01*
Y47191D01*
X281733D01*
Y46455D01*
X281825Y45989D01*
X282089Y45593D01*
X282309Y45446D01*
Y35534D01*
X282426Y34949D01*
X282757Y34453D01*
X284630Y32580D01*
Y27559D01*
X212598D01*
Y40396D01*
X213098Y40566D01*
X213400Y40172D01*
X214319Y39467D01*
X215388Y39025D01*
X216535Y38873D01*
X217683Y39025D01*
X218752Y39467D01*
X219671Y40172D01*
X220375Y41090D01*
X220818Y42160D01*
X220969Y43307D01*
X220818Y44455D01*
X220375Y45524D01*
X219671Y46442D01*
X218752Y47147D01*
X217683Y47590D01*
X216535Y47741D01*
X215388Y47590D01*
X214319Y47147D01*
X213400Y46442D01*
X213098Y46049D01*
X212598Y46218D01*
Y196850D01*
X225435D01*
X225605Y196350D01*
X225211Y196048D01*
X224507Y195130D01*
X224064Y194061D01*
X223913Y192913D01*
X224064Y191766D01*
X224507Y190697D01*
X225211Y189778D01*
X226130Y189074D01*
X227199Y188631D01*
X228346Y188480D01*
X229494Y188631D01*
X230563Y189074D01*
X231482Y189778D01*
X232186Y190697D01*
X232629Y191766D01*
X232780Y192913D01*
X232629Y194061D01*
X232186Y195130D01*
X231482Y196048D01*
X231088Y196350D01*
X231258Y196850D01*
X235435D01*
X235605Y196350D01*
X235211Y196048D01*
X234507Y195130D01*
X234064Y194061D01*
X233913Y192913D01*
X234064Y191766D01*
X234507Y190697D01*
X235211Y189778D01*
X236130Y189074D01*
X237199Y188631D01*
X238347Y188480D01*
X239494Y188631D01*
X240563Y189074D01*
X241481Y189778D01*
X242186Y190697D01*
X242629Y191766D01*
X242780Y192913D01*
X242629Y194061D01*
X242186Y195130D01*
X241481Y196048D01*
X241088Y196350D01*
X241258Y196850D01*
X245435D01*
X245605Y196350D01*
X245211Y196048D01*
X244507Y195130D01*
X244064Y194061D01*
X243913Y192913D01*
X244064Y191766D01*
X244507Y190697D01*
X245211Y189778D01*
X246130Y189074D01*
X247199Y188631D01*
X248346Y188480D01*
X249494Y188631D01*
X250563Y189074D01*
X251482Y189778D01*
X252186Y190697D01*
X252629Y191766D01*
X252780Y192913D01*
X252629Y194061D01*
X252186Y195130D01*
X251482Y196048D01*
X251088Y196350D01*
X251258Y196850D01*
X255042D01*
X255211Y196350D01*
X254818Y196048D01*
X254113Y195130D01*
X253670Y194061D01*
X253519Y192913D01*
X253670Y191766D01*
X254113Y190697D01*
X254818Y189778D01*
X255736Y189074D01*
X256805Y188631D01*
X257953Y188480D01*
X259100Y188631D01*
X260170Y189074D01*
X261088Y189778D01*
X261792Y190697D01*
X262235Y191766D01*
X262386Y192913D01*
X262235Y194061D01*
X261792Y195130D01*
X261088Y196048D01*
X260694Y196350D01*
X260864Y196850D01*
X287402D01*
Y240158D01*
X389764D01*
X389764Y176787D01*
D02*
G37*
%LPC*%
G36*
X266067Y334556D02*
X262024D01*
Y328938D01*
X266067D01*
Y334556D01*
D02*
G37*
G36*
X261024D02*
X256980D01*
Y328938D01*
X261024D01*
Y334556D01*
D02*
G37*
G36*
X247251Y329444D02*
X244881D01*
Y325499D01*
X247251D01*
Y329444D01*
D02*
G37*
G36*
X243881D02*
X241511D01*
Y325499D01*
X243881D01*
Y329444D01*
D02*
G37*
G36*
X247251Y324499D02*
X244881D01*
Y320554D01*
X247251D01*
Y324499D01*
D02*
G37*
G36*
X243881D02*
X241511D01*
Y320554D01*
X243881D01*
Y324499D01*
D02*
G37*
G36*
X247295Y317443D02*
X244039D01*
Y314778D01*
X247295D01*
Y317443D01*
D02*
G37*
G36*
X243039D02*
X239783D01*
Y314778D01*
X243039D01*
Y317443D01*
D02*
G37*
G36*
X247295Y313778D02*
X244039D01*
Y311113D01*
X247295D01*
Y313778D01*
D02*
G37*
G36*
X243039D02*
X239783D01*
Y311113D01*
X243039D01*
Y313778D01*
D02*
G37*
G36*
X247295Y310554D02*
X239783D01*
Y304223D01*
X241714D01*
Y302952D01*
X239881D01*
Y296227D01*
X246606D01*
Y302952D01*
X244773D01*
Y304223D01*
X247295D01*
Y310554D01*
D02*
G37*
G36*
X246606Y294684D02*
X239881D01*
Y287960D01*
X243745D01*
X245960Y285744D01*
X245938Y285580D01*
X246041Y284805D01*
X246340Y284083D01*
X246815Y283463D01*
X247435Y282987D01*
X248158Y282688D01*
X248933Y282586D01*
X249708Y282688D01*
X250430Y282987D01*
X251050Y283463D01*
X251526Y284083D01*
X251825Y284805D01*
X251927Y285580D01*
X251825Y286355D01*
X251526Y287077D01*
X251050Y287697D01*
X250430Y288173D01*
X249708Y288472D01*
X248933Y288574D01*
X248862Y288564D01*
X246606Y290821D01*
Y294684D01*
D02*
G37*
G36*
X125597Y238776D02*
X124822Y238674D01*
X124100Y238375D01*
X123479Y237899D01*
X123407Y237805D01*
X121872D01*
Y238158D01*
X117510D01*
Y233402D01*
X121872D01*
Y233758D01*
X123407D01*
X123479Y233664D01*
X124100Y233189D01*
X124822Y232890D01*
X125597Y232787D01*
X126372Y232890D01*
X127094Y233189D01*
X127714Y233664D01*
X128190Y234285D01*
X128489Y235007D01*
X128591Y235782D01*
X128489Y236557D01*
X128190Y237279D01*
X127714Y237899D01*
X127094Y238375D01*
X126372Y238674D01*
X125597Y238776D01*
D02*
G37*
G36*
X114392Y238158D02*
X110030D01*
Y237309D01*
X105909D01*
X105324Y237193D01*
X104828Y236861D01*
X102663Y234696D01*
X97117D01*
Y228759D01*
X104825D01*
Y232533D01*
X106543Y234250D01*
X110030D01*
Y233402D01*
X114392D01*
Y238158D01*
D02*
G37*
G36*
X114485Y229086D02*
X108548D01*
Y225777D01*
X104825D01*
Y227216D01*
X97117D01*
Y223442D01*
X96121Y222446D01*
X95790Y221950D01*
X95673Y221365D01*
Y218594D01*
X95790Y218008D01*
X96121Y217512D01*
X98628Y215005D01*
X98436Y214541D01*
X98300Y213509D01*
X98436Y212478D01*
X98834Y211516D01*
X99468Y210690D01*
X100293Y210057D01*
X101255Y209658D01*
X102287Y209523D01*
X103319Y209658D01*
X104280Y210057D01*
X105106Y210690D01*
X105739Y211516D01*
X106138Y212478D01*
X106274Y213509D01*
X106138Y214541D01*
X105739Y215503D01*
X105106Y216329D01*
X104280Y216962D01*
X103319Y217360D01*
X102287Y217496D01*
X101255Y217360D01*
X100791Y217168D01*
X98732Y219227D01*
Y220731D01*
X99280Y221279D01*
X104825D01*
Y222718D01*
X108548D01*
Y221377D01*
X114485D01*
Y229086D01*
D02*
G37*
G36*
X121966D02*
X116029D01*
Y221377D01*
X121966D01*
Y223341D01*
X122491D01*
X123061Y222904D01*
X123783Y222605D01*
X124558Y222503D01*
X125333Y222605D01*
X126055Y222904D01*
X126675Y223380D01*
X127151Y224000D01*
X127450Y224722D01*
X127552Y225497D01*
X127450Y226272D01*
X127151Y226994D01*
X126675Y227614D01*
X126055Y228090D01*
X125333Y228389D01*
X124558Y228491D01*
X123783Y228389D01*
X123061Y228090D01*
X122466Y227633D01*
X122352Y227652D01*
X121966Y227817D01*
Y229086D01*
D02*
G37*
G36*
X132287Y217496D02*
X131255Y217360D01*
X130293Y216962D01*
X129468Y216329D01*
X128834Y215503D01*
X128436Y214541D01*
X128300Y213509D01*
X128436Y212478D01*
X128834Y211516D01*
X129468Y210690D01*
X130293Y210057D01*
X131255Y209658D01*
X132287Y209523D01*
X133319Y209658D01*
X134280Y210057D01*
X135106Y210690D01*
X135740Y211516D01*
X136138Y212478D01*
X136274Y213509D01*
X136138Y214541D01*
X135740Y215503D01*
X135106Y216329D01*
X134280Y216962D01*
X133319Y217360D01*
X132287Y217496D01*
D02*
G37*
G36*
Y207496D02*
X131255Y207360D01*
X130293Y206962D01*
X129468Y206329D01*
X128834Y205503D01*
X128436Y204541D01*
X128300Y203509D01*
X128436Y202478D01*
X128628Y202013D01*
X124903Y198288D01*
X124571Y197792D01*
X124455Y197207D01*
Y161335D01*
X123016D01*
Y153626D01*
X124455D01*
Y152263D01*
X123016D01*
Y144554D01*
X128953D01*
Y152263D01*
X127514D01*
Y153626D01*
X128953D01*
Y161335D01*
X127514D01*
Y196573D01*
X130791Y199851D01*
X131255Y199658D01*
X132287Y199523D01*
X133319Y199658D01*
X134280Y200057D01*
X135106Y200690D01*
X135740Y201516D01*
X136138Y202478D01*
X136274Y203509D01*
X136138Y204541D01*
X135740Y205503D01*
X135106Y206329D01*
X134280Y206962D01*
X133319Y207360D01*
X132287Y207496D01*
D02*
G37*
G36*
X48381Y195571D02*
X47661Y195476D01*
X47161Y195488D01*
X47161Y195488D01*
X47161Y195488D01*
X39453D01*
Y189551D01*
X47161D01*
Y189551D01*
X47614Y189666D01*
X47661Y189677D01*
X48381Y189583D01*
X49156Y189685D01*
X49878Y189984D01*
X50498Y190460D01*
X50974Y191080D01*
X51273Y191802D01*
X51375Y192577D01*
X51273Y193352D01*
X50974Y194074D01*
X50498Y194694D01*
X49878Y195170D01*
X49156Y195469D01*
X48381Y195571D01*
D02*
G37*
G36*
X131787Y187462D02*
X128334D01*
Y184009D01*
X131787D01*
Y187462D01*
D02*
G37*
G36*
X31496Y189788D02*
X30349Y189637D01*
X29279Y189194D01*
X28361Y188489D01*
X27656Y187571D01*
X27213Y186502D01*
X27062Y185354D01*
X27213Y184207D01*
X27656Y183138D01*
X28361Y182219D01*
X29279Y181515D01*
X30349Y181072D01*
X31496Y180921D01*
X32644Y181072D01*
X33713Y181515D01*
X34631Y182219D01*
X35336Y183138D01*
X35620Y183825D01*
X39453D01*
Y182071D01*
X47161D01*
Y182071D01*
X47661Y182303D01*
X47986Y182169D01*
X48761Y182067D01*
X49536Y182169D01*
X50258Y182468D01*
X50878Y182944D01*
X51354Y183564D01*
X51653Y184286D01*
X51755Y185061D01*
X51653Y185836D01*
X51354Y186558D01*
X50878Y187178D01*
X50258Y187654D01*
X49536Y187953D01*
X48761Y188055D01*
X47986Y187953D01*
X47661Y187819D01*
X47161Y188008D01*
Y188008D01*
X39453D01*
Y186884D01*
X35620D01*
X35336Y187571D01*
X34631Y188489D01*
X33713Y189194D01*
X32644Y189637D01*
X31496Y189788D01*
D02*
G37*
G36*
X136240Y183009D02*
X132787D01*
Y179557D01*
X136240D01*
Y183009D01*
D02*
G37*
G36*
X131787D02*
X128334D01*
Y179557D01*
X131787D01*
Y183009D01*
D02*
G37*
G36*
X48533Y171418D02*
X47758Y171316D01*
X47449Y171188D01*
X47207Y171350D01*
Y171350D01*
X39498D01*
Y165413D01*
X47207D01*
Y165413D01*
X47528Y165627D01*
X47758Y165532D01*
X48533Y165430D01*
X49308Y165532D01*
X50030Y165831D01*
X50650Y166307D01*
X51126Y166927D01*
X51425Y167649D01*
X51527Y168424D01*
X51425Y169199D01*
X51126Y169921D01*
X50650Y170541D01*
X50030Y171017D01*
X49308Y171316D01*
X48533Y171418D01*
D02*
G37*
G36*
X31496Y169788D02*
X30349Y169637D01*
X29279Y169194D01*
X28361Y168489D01*
X27656Y167571D01*
X27213Y166502D01*
X27062Y165354D01*
X27213Y164207D01*
X27656Y163137D01*
X28361Y162219D01*
X29279Y161515D01*
X30349Y161072D01*
X31496Y160921D01*
X32644Y161072D01*
X33713Y161515D01*
X34631Y162219D01*
X35336Y163137D01*
X35779Y164207D01*
X35930Y165354D01*
X35779Y166502D01*
X35336Y167571D01*
X34631Y168489D01*
X33713Y169194D01*
X32644Y169637D01*
X31496Y169788D01*
D02*
G37*
G36*
X107752Y166623D02*
X106977Y166521D01*
X106255Y166222D01*
X105647Y165756D01*
X101470D01*
Y161394D01*
X105789D01*
X106255Y161036D01*
X106977Y160737D01*
X107752Y160635D01*
X108527Y160737D01*
X109249Y161036D01*
X109869Y161512D01*
X110345Y162132D01*
X110644Y162854D01*
X110746Y163629D01*
X110644Y164404D01*
X110345Y165126D01*
X109869Y165746D01*
X109249Y166222D01*
X108527Y166521D01*
X107752Y166623D01*
D02*
G37*
G36*
X132287Y197496D02*
X131255Y197360D01*
X130293Y196962D01*
X129468Y196329D01*
X128834Y195503D01*
X128436Y194541D01*
X128300Y193509D01*
X128436Y192478D01*
X128834Y191516D01*
X129468Y190690D01*
X130293Y190057D01*
X131255Y189658D01*
X132287Y189523D01*
X133319Y189658D01*
X133783Y189851D01*
X135709Y187924D01*
X135518Y187462D01*
X132787D01*
Y184009D01*
X136240D01*
Y186741D01*
X136702Y186932D01*
X143167Y180466D01*
Y176698D01*
X143283Y176113D01*
X143615Y175617D01*
X154667Y164564D01*
Y159018D01*
X156107D01*
Y157655D01*
X154667D01*
Y149946D01*
X160605D01*
Y157655D01*
X159165D01*
Y159018D01*
X160605D01*
Y164564D01*
X161686Y165646D01*
X162148Y165454D01*
Y159018D01*
X168085D01*
Y160675D01*
X170294D01*
Y160024D01*
X175050D01*
Y164386D01*
X170294D01*
Y163734D01*
X168085D01*
Y166727D01*
X163421D01*
X163229Y167189D01*
X168378Y172338D01*
X169790D01*
X169938Y172367D01*
X174227D01*
Y180076D01*
X168290D01*
Y175396D01*
X167745D01*
X167159Y175280D01*
X166663Y174949D01*
X158442Y166727D01*
X156830D01*
X146226Y177331D01*
Y181100D01*
X146109Y181685D01*
X145778Y182181D01*
X135946Y192014D01*
X136138Y192478D01*
X136274Y193509D01*
X136138Y194541D01*
X135740Y195503D01*
X135106Y196329D01*
X134280Y196962D01*
X133319Y197360D01*
X132287Y197496D01*
D02*
G37*
G36*
X121472Y161335D02*
X115535D01*
Y157624D01*
X106226D01*
Y158275D01*
X101470D01*
Y153913D01*
X106226D01*
Y154565D01*
X115535D01*
Y153626D01*
X121472D01*
Y161335D01*
D02*
G37*
G36*
X80169Y167207D02*
X73051D01*
Y157333D01*
X80169D01*
Y167207D01*
D02*
G37*
G36*
X31996Y159722D02*
Y155854D01*
X35864D01*
X35779Y156502D01*
X35336Y157571D01*
X34631Y158489D01*
X33713Y159194D01*
X32644Y159637D01*
X31996Y159722D01*
D02*
G37*
G36*
X30996Y159722D02*
X30349Y159637D01*
X29279Y159194D01*
X28361Y158489D01*
X27656Y157571D01*
X27213Y156502D01*
X27128Y155854D01*
X30996D01*
Y159722D01*
D02*
G37*
G36*
X175050Y156905D02*
X173172D01*
Y155224D01*
X175050D01*
Y156905D01*
D02*
G37*
G36*
X172172D02*
X170294D01*
Y155224D01*
X172172D01*
Y156905D01*
D02*
G37*
G36*
X168085Y157655D02*
X165616D01*
Y154301D01*
X168085D01*
Y157655D01*
D02*
G37*
G36*
X164616D02*
X162148D01*
Y154301D01*
X164616D01*
Y157655D01*
D02*
G37*
G36*
X47337Y155891D02*
X43982D01*
Y153422D01*
X47337D01*
Y155891D01*
D02*
G37*
G36*
X42982D02*
X39628D01*
Y153422D01*
X42982D01*
Y155891D01*
D02*
G37*
G36*
X175050Y154224D02*
X173172D01*
Y152543D01*
X175050D01*
Y154224D01*
D02*
G37*
G36*
X172172D02*
X170294D01*
Y152543D01*
X172172D01*
Y154224D01*
D02*
G37*
G36*
X30996Y154854D02*
X27128D01*
X27213Y154207D01*
X27656Y153138D01*
X28361Y152219D01*
X29279Y151515D01*
X30349Y151072D01*
X30996Y150987D01*
Y154854D01*
D02*
G37*
G36*
X35864D02*
X31996D01*
Y150987D01*
X32644Y151072D01*
X33713Y151515D01*
X34631Y152219D01*
X35336Y153138D01*
X35779Y154207D01*
X35864Y154854D01*
D02*
G37*
G36*
X47337Y152422D02*
X43982D01*
Y149954D01*
X47337D01*
Y152422D01*
D02*
G37*
G36*
X42982D02*
X39628D01*
Y149954D01*
X42982D01*
Y152422D01*
D02*
G37*
G36*
X168085Y153301D02*
X165616D01*
Y149946D01*
X168085D01*
Y153301D01*
D02*
G37*
G36*
X164616D02*
X162148D01*
Y149946D01*
X164616D01*
Y153301D01*
D02*
G37*
G36*
X35892Y149750D02*
X27100D01*
Y140959D01*
X35892D01*
Y143825D01*
X39628D01*
Y142473D01*
X47337D01*
Y142473D01*
X47837Y142723D01*
X48302Y142530D01*
X49076Y142428D01*
X49851Y142530D01*
X50573Y142829D01*
X51194Y143305D01*
X51669Y143925D01*
X51968Y144647D01*
X52071Y145422D01*
X51968Y146197D01*
X51669Y146919D01*
X51194Y147539D01*
X50573Y148015D01*
X49851Y148314D01*
X49076Y148416D01*
X48302Y148314D01*
X47837Y148122D01*
X47337Y148410D01*
Y148410D01*
X39628D01*
Y146884D01*
X35892D01*
Y149750D01*
D02*
G37*
G36*
X70170Y167207D02*
X63051D01*
Y157333D01*
X67140D01*
Y148903D01*
X67256Y148318D01*
X67588Y147822D01*
X73811Y141599D01*
Y138862D01*
X78011D01*
Y143762D01*
X75974D01*
X70199Y149537D01*
Y160211D01*
X70170Y160359D01*
Y167207D01*
D02*
G37*
G36*
X121472Y152263D02*
X115535D01*
Y144554D01*
X116429D01*
Y142773D01*
X116283Y142661D01*
X115807Y142041D01*
X115508Y141319D01*
X115406Y140544D01*
X115508Y139769D01*
X115807Y139047D01*
X116283Y138426D01*
X116903Y137951D01*
X117625Y137652D01*
X118401Y137549D01*
X119175Y137652D01*
X119897Y137951D01*
X120518Y138426D01*
X120993Y139047D01*
X121293Y139769D01*
X121395Y140544D01*
X121293Y141319D01*
X120993Y142041D01*
X120518Y142661D01*
X120475Y142693D01*
Y144554D01*
X121472D01*
Y152263D01*
D02*
G37*
G36*
X81761Y135962D02*
X80161D01*
Y134012D01*
X81761D01*
Y135962D01*
D02*
G37*
G36*
X79161D02*
X77561D01*
Y134012D01*
X79161D01*
Y135962D01*
D02*
G37*
G36*
X81761Y133012D02*
X80161D01*
Y131062D01*
X81761D01*
Y133012D01*
D02*
G37*
G36*
X79161D02*
X77561D01*
Y131062D01*
X79161D01*
Y133012D01*
D02*
G37*
G36*
X84537Y130106D02*
X81182D01*
Y127638D01*
X84537D01*
Y130106D01*
D02*
G37*
G36*
X80182D02*
X76828D01*
Y127638D01*
X80182D01*
Y130106D01*
D02*
G37*
G36*
X74261Y135962D02*
X70061D01*
Y131062D01*
X70631D01*
Y130106D01*
X67756D01*
Y124169D01*
X75465D01*
Y130106D01*
X73690D01*
Y131062D01*
X74261D01*
Y135962D01*
D02*
G37*
G36*
X80182Y126638D02*
X76828D01*
Y124169D01*
X80182D01*
Y126638D01*
D02*
G37*
G36*
X29405Y335815D02*
X28295Y335669D01*
X27262Y335241D01*
X26375Y334560D01*
X25694Y333673D01*
X25266Y332640D01*
X25120Y331530D01*
X25266Y330422D01*
X25694Y329388D01*
X26375Y328501D01*
X27262Y327820D01*
X28295Y327392D01*
X29405Y327246D01*
X30514Y327392D01*
X31547Y327820D01*
X32434Y328501D01*
X33115Y329388D01*
X33543Y330422D01*
X33689Y331530D01*
X33543Y332640D01*
X33115Y333673D01*
X32434Y334560D01*
X31547Y335241D01*
X30514Y335669D01*
X29405Y335815D01*
D02*
G37*
G36*
X69185Y319642D02*
X64157D01*
Y316090D01*
X69185D01*
Y319642D01*
D02*
G37*
G36*
X29904Y316064D02*
Y312346D01*
X33623D01*
X33543Y312954D01*
X33115Y313988D01*
X32434Y314875D01*
X31547Y315556D01*
X30514Y315984D01*
X29904Y316064D01*
D02*
G37*
G36*
X28905Y316064D02*
X28295Y315984D01*
X27262Y315556D01*
X26375Y314875D01*
X25694Y313988D01*
X25266Y312954D01*
X25186Y312346D01*
X28905D01*
Y316064D01*
D02*
G37*
G36*
X69185Y315090D02*
X64157D01*
Y311539D01*
X69185D01*
Y315090D01*
D02*
G37*
G36*
X33623Y311346D02*
X29904D01*
Y307627D01*
X30514Y307707D01*
X31547Y308135D01*
X32434Y308816D01*
X33115Y309703D01*
X33543Y310736D01*
X33623Y311346D01*
D02*
G37*
G36*
X28905D02*
X25186D01*
X25266Y310736D01*
X25694Y309703D01*
X26375Y308816D01*
X27262Y308135D01*
X28295Y307707D01*
X28905Y307627D01*
Y311346D01*
D02*
G37*
G36*
X201253Y345661D02*
X197210D01*
Y337878D01*
X201253D01*
Y345661D01*
D02*
G37*
G36*
X196210D02*
X192166D01*
Y337878D01*
X196210D01*
Y345661D01*
D02*
G37*
G36*
X168761Y339107D02*
X167986Y339005D01*
X167263Y338706D01*
X166643Y338230D01*
X166168Y337610D01*
X165868Y336888D01*
X165766Y336113D01*
X165868Y335338D01*
X166168Y334615D01*
X166241Y334519D01*
X166020Y334071D01*
X165476D01*
Y327346D01*
X172201D01*
Y334071D01*
X171501D01*
X171280Y334519D01*
X171353Y334615D01*
X171653Y335338D01*
X171755Y336113D01*
X171653Y336888D01*
X171353Y337610D01*
X170878Y338230D01*
X170258Y338706D01*
X169536Y339005D01*
X168761Y339107D01*
D02*
G37*
G36*
X158331Y337021D02*
X157556Y336919D01*
X156834Y336620D01*
X156213Y336144D01*
X155737Y335524D01*
X155438Y334802D01*
X155336Y334027D01*
X155433Y333291D01*
X155415Y333144D01*
X155179Y332791D01*
X154850D01*
Y327209D01*
X162322D01*
Y332791D01*
X161482D01*
X161246Y333144D01*
X161228Y333291D01*
X161325Y334027D01*
X161223Y334802D01*
X160924Y335524D01*
X160448Y336144D01*
X159828Y336620D01*
X159106Y336919D01*
X158331Y337021D01*
D02*
G37*
G36*
X225771Y329444D02*
X223401D01*
Y325499D01*
X225771D01*
Y329444D01*
D02*
G37*
G36*
X220345Y327027D02*
X217108D01*
Y324735D01*
X220345D01*
Y327027D01*
D02*
G37*
G36*
X216108D02*
X212872D01*
Y324735D01*
X216108D01*
Y327027D01*
D02*
G37*
G36*
X141131Y346679D02*
X140356Y346577D01*
X139634Y346278D01*
X139014Y345802D01*
X138538Y345182D01*
X138239Y344460D01*
X138136Y343685D01*
X138239Y342910D01*
X138538Y342188D01*
X139014Y341567D01*
X139108Y341495D01*
Y339189D01*
X136604D01*
Y324591D01*
X145888D01*
Y339189D01*
X143154D01*
Y341495D01*
X143248Y341567D01*
X143724Y342188D01*
X144023Y342910D01*
X144125Y343685D01*
X144023Y344460D01*
X143724Y345182D01*
X143248Y345802D01*
X142628Y346278D01*
X141906Y346577D01*
X141131Y346679D01*
D02*
G37*
G36*
X162322Y326335D02*
X159086D01*
Y324043D01*
X162322D01*
Y326335D01*
D02*
G37*
G36*
X158086D02*
X154850D01*
Y324043D01*
X158086D01*
Y326335D01*
D02*
G37*
G36*
X172411Y325731D02*
X169746D01*
Y322475D01*
X172411D01*
Y325731D01*
D02*
G37*
G36*
X168746D02*
X166081D01*
Y322475D01*
X168746D01*
Y325731D01*
D02*
G37*
G36*
X220345Y323735D02*
X217108D01*
Y321444D01*
X220345D01*
Y323735D01*
D02*
G37*
G36*
X216108D02*
X212872D01*
Y321444D01*
X216108D01*
Y323735D01*
D02*
G37*
G36*
X162322Y323043D02*
X159086D01*
Y320752D01*
X162322D01*
Y323043D01*
D02*
G37*
G36*
X158086D02*
X154850D01*
Y320752D01*
X158086D01*
Y323043D01*
D02*
G37*
G36*
X225771Y324499D02*
X223401D01*
Y320554D01*
X225771D01*
Y324499D01*
D02*
G37*
G36*
X180469Y334071D02*
X173744D01*
Y327346D01*
X174606D01*
Y325731D01*
X172970D01*
Y318219D01*
X179301D01*
Y325731D01*
X177665D01*
Y327346D01*
X180469D01*
Y334071D01*
D02*
G37*
G36*
X172411Y321475D02*
X169746D01*
Y318219D01*
X172411D01*
Y321475D01*
D02*
G37*
G36*
X168746D02*
X166081D01*
Y318219D01*
X168746D01*
Y321475D01*
D02*
G37*
G36*
X145888Y322260D02*
X141746D01*
Y315461D01*
X145888D01*
Y322260D01*
D02*
G37*
G36*
X140746D02*
X136604D01*
Y315461D01*
X140746D01*
Y322260D01*
D02*
G37*
G36*
X114254Y316354D02*
X111589D01*
Y313098D01*
X114254D01*
Y316354D01*
D02*
G37*
G36*
X201253Y332004D02*
X192166D01*
Y315437D01*
X193441D01*
X193743Y314937D01*
X193658Y314290D01*
X193760Y313515D01*
X194059Y312793D01*
X194535Y312173D01*
X195155Y311697D01*
X195877Y311398D01*
X196652Y311296D01*
X197427Y311398D01*
X198149Y311697D01*
X198769Y312173D01*
X199245Y312793D01*
X199544Y313515D01*
X199646Y314290D01*
X199561Y314937D01*
X199862Y315437D01*
X201253D01*
Y332004D01*
D02*
G37*
G36*
X220345Y320570D02*
X212872D01*
Y314987D01*
X213491D01*
X213768Y314571D01*
X213652Y314289D01*
X213550Y313515D01*
X213652Y312740D01*
X213951Y312017D01*
X214426Y311397D01*
X215047Y310922D01*
X215769Y310623D01*
X216544Y310521D01*
X217319Y310623D01*
X218041Y310922D01*
X218661Y311397D01*
X219137Y312017D01*
X219436Y312740D01*
X219538Y313515D01*
X219436Y314289D01*
X219319Y314571D01*
X219597Y314987D01*
X220345D01*
Y320570D01*
D02*
G37*
G36*
X114254Y312098D02*
X111589D01*
Y308842D01*
X114254D01*
Y312098D01*
D02*
G37*
G36*
X145888Y314461D02*
X141746D01*
Y307661D01*
X145888D01*
Y314461D01*
D02*
G37*
G36*
X140746D02*
X136604D01*
Y307661D01*
X140746D01*
Y314461D01*
D02*
G37*
G36*
X219093Y306506D02*
X214164D01*
Y303053D01*
X219093D01*
Y306506D01*
D02*
G37*
G36*
X213164D02*
X208235D01*
Y303053D01*
X213164D01*
Y306506D01*
D02*
G37*
G36*
X219093Y302053D02*
X214164D01*
Y298600D01*
X219093D01*
Y302053D01*
D02*
G37*
G36*
X213164D02*
X208235D01*
Y298600D01*
X213164D01*
Y302053D01*
D02*
G37*
G36*
X99095Y294070D02*
X96072D01*
X96128Y293641D01*
X96487Y292775D01*
X97057Y292032D01*
X97801Y291461D01*
X98666Y291103D01*
X99095Y291046D01*
Y294070D01*
D02*
G37*
G36*
X103119D02*
X100095D01*
Y291046D01*
X100525Y291103D01*
X101390Y291461D01*
X102134Y292032D01*
X102704Y292775D01*
X103063Y293641D01*
X103119Y294070D01*
D02*
G37*
G36*
X71051Y291872D02*
X69101D01*
Y290272D01*
X71051D01*
Y291872D01*
D02*
G37*
G36*
X294499Y231273D02*
X292031D01*
Y227919D01*
X294499D01*
Y231273D01*
D02*
G37*
G36*
X291031D02*
X288562D01*
Y227919D01*
X291031D01*
Y231273D01*
D02*
G37*
G36*
X340651Y228847D02*
X332943D01*
Y227408D01*
X331580D01*
Y228847D01*
X323871D01*
Y225073D01*
X323441Y224643D01*
X319555D01*
Y225294D01*
X314799D01*
Y220932D01*
X319555D01*
Y221584D01*
X323461D01*
X323871Y221366D01*
X323871Y221084D01*
Y218898D01*
X327225D01*
Y221367D01*
X325060D01*
X324908Y221866D01*
X325156Y222032D01*
X326034Y222910D01*
X331580D01*
Y224349D01*
X332943D01*
Y222910D01*
X340651D01*
Y228847D01*
D02*
G37*
G36*
X301979Y231273D02*
X296042D01*
Y223565D01*
X301979D01*
Y225324D01*
X306925D01*
Y224673D01*
X311681D01*
Y229035D01*
X306925D01*
Y228383D01*
X301979D01*
Y231273D01*
D02*
G37*
G36*
X294499Y226919D02*
X292031D01*
Y223565D01*
X294499D01*
Y226919D01*
D02*
G37*
G36*
X291031D02*
X288562D01*
Y223565D01*
X291031D01*
Y226919D01*
D02*
G37*
G36*
X331580Y221367D02*
X328225D01*
Y218898D01*
X331580D01*
Y221367D01*
D02*
G37*
G36*
X294499Y222201D02*
X292031D01*
Y218847D01*
X294499D01*
Y222201D01*
D02*
G37*
G36*
X291031D02*
X288562D01*
Y218847D01*
X291031D01*
Y222201D01*
D02*
G37*
G36*
X331580Y217898D02*
X328225D01*
Y215429D01*
X331580D01*
Y217898D01*
D02*
G37*
G36*
X327225D02*
X323871D01*
Y215429D01*
X327225D01*
Y217898D01*
D02*
G37*
G36*
X294499Y217847D02*
X292031D01*
Y214493D01*
X294499D01*
Y217847D01*
D02*
G37*
G36*
X291031D02*
X288562D01*
Y214493D01*
X291031D01*
Y217847D01*
D02*
G37*
G36*
X311681Y221554D02*
X306925D01*
Y217364D01*
X306658Y217016D01*
X306359Y216293D01*
X306256Y215518D01*
X306359Y214743D01*
X306658Y214021D01*
X307133Y213401D01*
X307753Y212926D01*
X308476Y212626D01*
X309251Y212524D01*
X310026Y212626D01*
X310748Y212926D01*
X311368Y213401D01*
X311843Y214021D01*
X312143Y214743D01*
X312245Y215518D01*
X312143Y216293D01*
X311843Y217016D01*
X311681Y217227D01*
Y221554D01*
D02*
G37*
G36*
X329246Y214239D02*
X327646D01*
Y212289D01*
X329246D01*
Y214239D01*
D02*
G37*
G36*
X326646D02*
X325046D01*
Y212289D01*
X326646D01*
Y214239D01*
D02*
G37*
G36*
X301979Y222201D02*
X296042D01*
Y214493D01*
X296042Y214493D01*
X296042D01*
X296004Y214009D01*
X295922Y213380D01*
X296024Y212605D01*
X296323Y211883D01*
X296799Y211263D01*
X297419Y210787D01*
X298141Y210488D01*
X298916Y210386D01*
X299691Y210488D01*
X300413Y210787D01*
X301033Y211263D01*
X301509Y211883D01*
X301808Y212605D01*
X301910Y213380D01*
X301829Y213993D01*
X301979Y214493D01*
X301979D01*
Y222201D01*
D02*
G37*
G36*
X326646Y211289D02*
X325046D01*
Y209339D01*
X326646D01*
Y211289D01*
D02*
G37*
G36*
X340651Y221367D02*
X332943D01*
Y215429D01*
X333116D01*
Y214239D01*
X332546D01*
Y209454D01*
X332450Y209244D01*
X332192Y208987D01*
X329600D01*
X329342Y209244D01*
X329246Y209454D01*
Y211289D01*
X327646D01*
Y209339D01*
X328492D01*
X328553Y209256D01*
X328433Y208576D01*
X328378Y208539D01*
X322920Y203082D01*
X322589Y202586D01*
X322473Y202001D01*
Y196210D01*
X321973Y196095D01*
X321114Y196753D01*
X320045Y197196D01*
X318898Y197347D01*
X317750Y197196D01*
X316681Y196753D01*
X315763Y196048D01*
X315559Y195783D01*
X315059Y195799D01*
X314979Y195918D01*
X312007Y198890D01*
X311511Y199222D01*
X310926Y199338D01*
X296870D01*
X296285Y199222D01*
X295788Y198890D01*
X292920Y196023D01*
X292589Y195527D01*
X292473Y194941D01*
Y174992D01*
X292589Y174407D01*
X292920Y173911D01*
X296578Y170254D01*
Y154242D01*
X296064Y154029D01*
X295218Y153379D01*
X294568Y152533D01*
X294160Y151548D01*
X294021Y150490D01*
X294160Y149432D01*
X294373Y148919D01*
X292675Y147222D01*
X290272D01*
Y149524D01*
X276658D01*
Y149210D01*
X276263Y148894D01*
X276157Y148902D01*
X275395Y149002D01*
X274620Y148900D01*
X273898Y148601D01*
X273278Y148125D01*
X272802Y147505D01*
X272503Y146783D01*
X272401Y146008D01*
X272503Y145233D01*
X272802Y144511D01*
X273278Y143891D01*
X273898Y143415D01*
X274620Y143116D01*
X275395Y143014D01*
X276157Y143114D01*
X276263Y143122D01*
X276658Y142806D01*
Y141815D01*
X287324D01*
Y140912D01*
X286736Y140462D01*
X286261Y139841D01*
X285961Y139119D01*
X285859Y138344D01*
X285961Y137569D01*
X286261Y136847D01*
X286736Y136227D01*
X287356Y135751D01*
X288078Y135452D01*
X288853Y135350D01*
X289628Y135452D01*
X290351Y135751D01*
X290971Y136227D01*
X291446Y136847D01*
X291745Y137569D01*
X291848Y138344D01*
X291745Y139119D01*
X291446Y139841D01*
X290971Y140462D01*
X290383Y140912D01*
Y143528D01*
X290356Y143663D01*
X290737Y144154D01*
X290767Y144163D01*
X293309D01*
X293894Y144279D01*
X294391Y144611D01*
X296536Y146756D01*
X297049Y146543D01*
X298107Y146404D01*
X299165Y146543D01*
X300150Y146951D01*
X300996Y147601D01*
X301147Y147797D01*
X301620Y147636D01*
Y133858D01*
X301737Y133273D01*
X302068Y132777D01*
X306577Y128268D01*
Y124241D01*
X306064Y124029D01*
X305218Y123379D01*
X304568Y122533D01*
X304160Y121548D01*
X304021Y120490D01*
X304160Y119432D01*
X304568Y118447D01*
X305218Y117601D01*
X306064Y116951D01*
X307049Y116543D01*
X308107Y116404D01*
X309165Y116543D01*
X310150Y116951D01*
X310996Y117601D01*
X311646Y118447D01*
X312054Y119432D01*
X312193Y120490D01*
X312054Y121548D01*
X311646Y122533D01*
X310996Y123379D01*
X310150Y124029D01*
X309636Y124241D01*
Y128901D01*
X309520Y129486D01*
X309188Y129982D01*
X304679Y134492D01*
Y147525D01*
X305153Y147686D01*
X305218Y147601D01*
X306064Y146951D01*
X307049Y146543D01*
X308107Y146404D01*
X309165Y146543D01*
X310150Y146951D01*
X310996Y147601D01*
X311526Y148292D01*
X312026Y148122D01*
Y125041D01*
X312143Y124456D01*
X312474Y123960D01*
X314373Y122061D01*
X314160Y121548D01*
X314021Y120490D01*
X314160Y119432D01*
X314568Y118447D01*
X315218Y117601D01*
X316064Y116951D01*
X316578Y116738D01*
Y110583D01*
X316584Y110548D01*
Y105733D01*
X318525D01*
Y103623D01*
X317907D01*
Y99007D01*
X312601D01*
X305524Y106084D01*
Y111335D01*
X301435D01*
Y117310D01*
X301319Y117895D01*
X301274Y117963D01*
X301646Y118447D01*
X302054Y119432D01*
X302193Y120490D01*
X302054Y121548D01*
X301646Y122533D01*
X300996Y123379D01*
X300150Y124029D01*
X299165Y124437D01*
X298107Y124576D01*
X297049Y124437D01*
X296064Y124029D01*
X295218Y123379D01*
X294568Y122533D01*
X294160Y121548D01*
X294021Y120490D01*
X294160Y119432D01*
X294568Y118447D01*
X295218Y117601D01*
X296064Y116951D01*
X297049Y116543D01*
X298107Y116404D01*
X298377Y116167D01*
Y111335D01*
X291910D01*
Y110800D01*
X291410Y110403D01*
X290976Y110460D01*
X290201Y110358D01*
X289479Y110059D01*
X288859Y109583D01*
X288383Y108963D01*
X288084Y108241D01*
X287982Y107466D01*
X288079Y106731D01*
X288043Y106692D01*
X287537Y106566D01*
X286201Y107902D01*
Y108897D01*
X287049D01*
Y113259D01*
X282293D01*
Y108897D01*
X283142D01*
Y107269D01*
X283258Y106684D01*
X283590Y106187D01*
X310938Y78839D01*
X310747Y78377D01*
X306970D01*
Y79959D01*
X306854Y80544D01*
X306522Y81041D01*
X302606Y84957D01*
X302110Y85288D01*
X301525Y85404D01*
X301025D01*
Y86844D01*
X293316D01*
Y80906D01*
X301025D01*
Y81559D01*
X301487Y81750D01*
X303911Y79325D01*
Y76877D01*
X303941Y76729D01*
Y72794D01*
X309250D01*
X309663Y72382D01*
X309471Y71920D01*
X303941D01*
Y70919D01*
X300945D01*
Y71655D01*
X300852Y72122D01*
X300588Y72517D01*
X300193Y72781D01*
X299726Y72874D01*
X297951D01*
X297485Y72781D01*
X297089Y72517D01*
X296825Y72122D01*
X296732Y71655D01*
Y70919D01*
X295945D01*
Y71655D01*
X295852Y72122D01*
X295588Y72517D01*
X295193Y72781D01*
X294726Y72874D01*
X292951D01*
X292864Y72857D01*
X292445Y73283D01*
Y74865D01*
X293316D01*
Y73426D01*
X301025D01*
Y79363D01*
X293316D01*
Y77924D01*
X292445D01*
Y80525D01*
X286862D01*
Y73052D01*
X286990D01*
X287142Y72552D01*
X287089Y72517D01*
X286825Y72122D01*
X286733Y71655D01*
Y67124D01*
X286597Y66958D01*
X286081D01*
X285945Y67124D01*
Y71655D01*
X285852Y72122D01*
X285588Y72517D01*
X285535Y72552D01*
X285687Y73052D01*
X285988D01*
Y80525D01*
X280797Y80525D01*
X280796D01*
X280796D01*
X280669Y80525D01*
X280584Y80729D01*
X280462Y81025D01*
X281593Y82156D01*
X284330D01*
Y86356D01*
X279430D01*
Y85785D01*
X259760D01*
Y85843D01*
X252051D01*
Y79905D01*
X259760D01*
Y82727D01*
X275157D01*
X275364Y82227D01*
X272723Y79585D01*
X272392Y79089D01*
X272275Y78504D01*
Y68715D01*
X272392Y68130D01*
X272723Y67634D01*
X276009Y64348D01*
X276505Y64016D01*
X277091Y63900D01*
X291256D01*
X291841Y64016D01*
X292337Y64348D01*
X293895Y65906D01*
X294726D01*
X295193Y65999D01*
X295588Y66263D01*
X295852Y66658D01*
X295945Y67124D01*
Y67860D01*
X296732D01*
Y67124D01*
X296825Y66658D01*
X297089Y66263D01*
X297485Y65999D01*
X297951Y65906D01*
X299726D01*
X300193Y65999D01*
X300588Y66263D01*
X300852Y66658D01*
X300945Y67124D01*
Y67860D01*
X303941D01*
Y66338D01*
X311413D01*
Y70440D01*
X311800Y70757D01*
X311951Y70727D01*
X313841D01*
Y69288D01*
X321549D01*
Y75225D01*
X313841D01*
Y73786D01*
X312584D01*
X311413Y74957D01*
Y77734D01*
X311913Y78001D01*
X311995Y77947D01*
X312494Y77848D01*
Y76392D01*
X320203D01*
Y77831D01*
X325552D01*
Y76583D01*
X333260D01*
Y82520D01*
X326756D01*
X326604Y83020D01*
X326806Y83155D01*
X327715Y84063D01*
X333260D01*
Y90000D01*
X327715D01*
X325887Y91828D01*
Y92773D01*
X325857Y92920D01*
X325857Y95823D01*
X326305Y95949D01*
X331235D01*
X333385Y93798D01*
X333537Y93572D01*
X347490Y79618D01*
X347986Y79287D01*
X348002Y79284D01*
X348189Y79159D01*
X348775Y79042D01*
X357858D01*
X357958Y78542D01*
X357546Y78371D01*
X356926Y77896D01*
X356450Y77276D01*
X356151Y76553D01*
X356049Y75779D01*
X356148Y75024D01*
X356150Y74920D01*
X355842Y74524D01*
X355054D01*
Y66618D01*
Y65014D01*
X352805D01*
Y66650D01*
X345293D01*
Y65014D01*
X343969D01*
Y66202D01*
X337166D01*
Y64941D01*
X330674D01*
X329756Y65858D01*
X329260Y66189D01*
X328675Y66306D01*
X321549D01*
Y67745D01*
X313841D01*
Y61808D01*
X321549D01*
Y63247D01*
X328042D01*
X328959Y62330D01*
X329455Y61998D01*
X330040Y61882D01*
X337166D01*
Y60620D01*
X343969D01*
Y61955D01*
X345293D01*
Y60319D01*
X352805D01*
Y61955D01*
X355054D01*
Y59335D01*
X363156D01*
Y61170D01*
X369885D01*
X370139Y60557D01*
X370820Y59670D01*
X371707Y58989D01*
X372741Y58561D01*
X373849Y58415D01*
X374958Y58561D01*
X375992Y58989D01*
X376879Y59670D01*
X377560Y60557D01*
X377988Y61591D01*
X378134Y62700D01*
X377988Y63809D01*
X377560Y64842D01*
X376879Y65729D01*
X375992Y66410D01*
X374958Y66839D01*
X373849Y66984D01*
X372741Y66839D01*
X371707Y66410D01*
X370820Y65729D01*
X370139Y64842D01*
X369885Y64229D01*
X363156D01*
Y66618D01*
Y74524D01*
X362243D01*
X361936Y74920D01*
X361937Y75024D01*
X362037Y75779D01*
X361935Y76553D01*
X361636Y77276D01*
X361160Y77896D01*
X360540Y78371D01*
X360128Y78542D01*
X360227Y79042D01*
X365344D01*
X369965Y74422D01*
X369711Y73809D01*
X369565Y72700D01*
X369711Y71591D01*
X370139Y70557D01*
X370820Y69670D01*
X371707Y68989D01*
X372741Y68561D01*
X373849Y68415D01*
X374958Y68561D01*
X375992Y68989D01*
X376879Y69670D01*
X377560Y70557D01*
X377988Y71591D01*
X378134Y72700D01*
X377988Y73809D01*
X377560Y74842D01*
X376879Y75730D01*
X375992Y76411D01*
X374958Y76838D01*
X373849Y76985D01*
X372741Y76838D01*
X372128Y76585D01*
X368004Y80708D01*
X368195Y81170D01*
X369885D01*
X370139Y80557D01*
X370820Y79670D01*
X371707Y78989D01*
X372741Y78561D01*
X373849Y78415D01*
X374958Y78561D01*
X375992Y78989D01*
X376879Y79670D01*
X377560Y80557D01*
X377988Y81591D01*
X378134Y82700D01*
X377988Y83809D01*
X377560Y84842D01*
X376879Y85729D01*
X375992Y86410D01*
X374958Y86839D01*
X373849Y86984D01*
X372741Y86839D01*
X371707Y86410D01*
X370820Y85729D01*
X370139Y84842D01*
X369885Y84229D01*
X350033D01*
X345032Y89230D01*
X345265Y89704D01*
X345620Y89657D01*
X346395Y89759D01*
X347117Y90058D01*
X347737Y90534D01*
X348213Y91154D01*
X348512Y91876D01*
X348592Y92486D01*
X349077Y92708D01*
X349584Y92201D01*
X349644Y92057D01*
X350119Y91436D01*
X350740Y90961D01*
X351462Y90662D01*
X352237Y90560D01*
X353012Y90662D01*
X353734Y90961D01*
X354354Y91436D01*
X354830Y92057D01*
X355129Y92779D01*
X355149Y92929D01*
X355622Y93090D01*
X357937Y90775D01*
X358433Y90443D01*
X359018Y90327D01*
X370316D01*
X370820Y89670D01*
X371707Y88989D01*
X372741Y88561D01*
X373849Y88415D01*
X374958Y88561D01*
X375992Y88989D01*
X376879Y89670D01*
X377560Y90557D01*
X377988Y91591D01*
X378134Y92700D01*
X377988Y93809D01*
X377560Y94842D01*
X376879Y95730D01*
X375992Y96411D01*
X374958Y96838D01*
X373849Y96984D01*
X372741Y96838D01*
X371707Y96411D01*
X370820Y95730D01*
X370139Y94842D01*
X369711Y93809D01*
X369655Y93386D01*
X363266D01*
X363238Y93443D01*
X363072Y93886D01*
X363347Y94550D01*
X363449Y95325D01*
X363347Y96100D01*
X363228Y96387D01*
X363506Y96802D01*
X365600D01*
Y104086D01*
Y109296D01*
X366062Y109488D01*
X370386Y105164D01*
X370139Y104842D01*
X369711Y103809D01*
X369565Y102700D01*
X369711Y101591D01*
X370139Y100557D01*
X370820Y99670D01*
X371707Y98989D01*
X372741Y98561D01*
X373849Y98415D01*
X374958Y98561D01*
X375992Y98989D01*
X376879Y99670D01*
X377560Y100557D01*
X377988Y101591D01*
X378134Y102700D01*
X377988Y103809D01*
X377560Y104842D01*
X376879Y105729D01*
X375992Y106410D01*
X374958Y106839D01*
X373849Y106984D01*
X373003Y106873D01*
X371886Y107990D01*
X372077Y108452D01*
X378098D01*
Y116948D01*
X369601D01*
Y110928D01*
X369140Y110736D01*
X367418Y112458D01*
X367327Y112915D01*
X366996Y113411D01*
X360352Y120055D01*
X360559Y120555D01*
X362766D01*
Y124917D01*
X358986D01*
X358588Y125223D01*
X357866Y125522D01*
X357091Y125624D01*
X356316Y125522D01*
X355594Y125223D01*
X354974Y124747D01*
X354498Y124127D01*
X354223Y123462D01*
X353793Y123266D01*
X353732Y123246D01*
X351974Y125005D01*
Y127358D01*
X352473Y127605D01*
X352834Y127328D01*
X353556Y127029D01*
X354331Y126927D01*
X355106Y127029D01*
X355828Y127328D01*
X356448Y127804D01*
X356924Y128424D01*
X357223Y129146D01*
X357325Y129921D01*
X357318Y129975D01*
X357786Y130248D01*
X358010Y130080D01*
Y128035D01*
X362766D01*
Y132397D01*
X360173D01*
X358823Y133747D01*
Y146984D01*
X360675D01*
Y154496D01*
X354344D01*
Y146984D01*
X355765D01*
Y146075D01*
X355418Y145719D01*
X355264Y145719D01*
X352162D01*
Y142554D01*
Y139388D01*
X355027D01*
X355188Y139108D01*
X355027Y138829D01*
X347906D01*
Y134011D01*
X347444Y133819D01*
X344128Y137135D01*
Y141468D01*
Y148586D01*
X343611D01*
X343264Y149086D01*
X343335Y149631D01*
X343233Y150406D01*
X342934Y151128D01*
X342458Y151749D01*
X341838Y152224D01*
X341116Y152524D01*
X340341Y152626D01*
X339566Y152524D01*
X338844Y152224D01*
X338224Y151749D01*
X337748Y151128D01*
X337449Y150406D01*
X337347Y149631D01*
X337419Y149086D01*
X337072Y148586D01*
X336420D01*
Y141468D01*
Y140060D01*
X330699D01*
X324783Y145977D01*
X324974Y146439D01*
X332158D01*
Y154541D01*
X330881D01*
Y159271D01*
X337722D01*
Y159323D01*
X338138Y159601D01*
X338419Y159485D01*
X339194Y159383D01*
X339969Y159485D01*
X340691Y159784D01*
X341311Y160259D01*
X341787Y160880D01*
X342086Y161602D01*
X342188Y162377D01*
X342086Y163152D01*
X341787Y163874D01*
X341311Y164494D01*
X340691Y164970D01*
X339969Y165269D01*
X339194Y165371D01*
X338419Y165269D01*
X338138Y165152D01*
X337722Y165430D01*
Y166979D01*
X330661D01*
Y188886D01*
X331114Y189074D01*
X332033Y189778D01*
X332737Y190697D01*
X333180Y191766D01*
X333331Y192913D01*
X333180Y194061D01*
X332737Y195130D01*
X332033Y196048D01*
X331844Y196194D01*
Y197673D01*
X332326Y198156D01*
X332765Y198812D01*
X332919Y199586D01*
Y201539D01*
X332996D01*
Y203978D01*
X333458Y204170D01*
X334473Y203155D01*
Y195809D01*
X334502Y195661D01*
Y188518D01*
X343293D01*
Y197309D01*
X337531D01*
Y203788D01*
X337415Y204373D01*
X337083Y204870D01*
X333414Y208539D01*
X333358Y208576D01*
X333239Y209256D01*
X333299Y209339D01*
X336746D01*
Y214239D01*
X336175D01*
Y215429D01*
X340651D01*
Y221367D01*
D02*
G37*
G36*
X369968Y180820D02*
X369193Y180718D01*
X368471Y180419D01*
X367851Y179943D01*
X367375Y179323D01*
X367076Y178601D01*
X366974Y177826D01*
X367044Y177287D01*
X366694Y176787D01*
X366614D01*
Y170063D01*
X373338D01*
Y176787D01*
X373241D01*
X372891Y177287D01*
X372962Y177826D01*
X372860Y178601D01*
X372561Y179323D01*
X372085Y179943D01*
X371465Y180419D01*
X370743Y180718D01*
X369968Y180820D01*
D02*
G37*
G36*
X382804Y169012D02*
X379548D01*
Y166347D01*
X382804D01*
Y169012D01*
D02*
G37*
G36*
X378548D02*
X375292D01*
Y166347D01*
X378548D01*
Y169012D01*
D02*
G37*
G36*
X252422Y167681D02*
X249363D01*
Y164327D01*
X252422D01*
Y167681D01*
D02*
G37*
G36*
X244307Y169051D02*
X240657D01*
Y164260D01*
X244307D01*
Y169051D01*
D02*
G37*
G36*
X239657D02*
X236008D01*
Y164260D01*
X239657D01*
Y169051D01*
D02*
G37*
G36*
X382804Y165347D02*
X379548D01*
Y162681D01*
X382804D01*
Y165347D01*
D02*
G37*
G36*
X378548D02*
X375292D01*
Y162681D01*
X378548D01*
Y165347D01*
D02*
G37*
G36*
X262977Y167681D02*
X253422D01*
Y163827D01*
Y159972D01*
X262977D01*
Y160964D01*
X263393Y161242D01*
X263662Y161130D01*
X264437Y161028D01*
X265212Y161130D01*
X265934Y161429D01*
X266554Y161905D01*
X267030Y162525D01*
X267329Y163248D01*
X267431Y164022D01*
X267329Y164797D01*
X267030Y165519D01*
X266554Y166140D01*
X265934Y166615D01*
X265212Y166914D01*
X264437Y167016D01*
X263662Y166914D01*
X263393Y166803D01*
X262977Y167081D01*
Y167681D01*
D02*
G37*
G36*
X252422Y163327D02*
X249363D01*
Y159972D01*
X252422D01*
Y163327D01*
D02*
G37*
G36*
X244307Y163260D02*
X240657D01*
Y158468D01*
X244307D01*
Y163260D01*
D02*
G37*
G36*
X239657D02*
X236008D01*
Y158468D01*
X239657D01*
Y163260D01*
D02*
G37*
G36*
X353785Y154496D02*
X351119D01*
Y151240D01*
X353785D01*
Y154496D01*
D02*
G37*
G36*
X350119D02*
X347454D01*
Y151240D01*
X350119D01*
Y154496D01*
D02*
G37*
G36*
X353785Y150240D02*
X351119D01*
Y146984D01*
X353785D01*
Y150240D01*
D02*
G37*
G36*
X350119D02*
X347454D01*
Y146984D01*
X350119D01*
Y150240D01*
D02*
G37*
G36*
X373338Y168520D02*
X366614D01*
Y161795D01*
X369615D01*
Y148928D01*
X369644Y148780D01*
Y146355D01*
X369144Y146088D01*
X369085Y146127D01*
Y151018D01*
X362754D01*
Y143507D01*
X366732D01*
Y128657D01*
X365884D01*
Y124295D01*
X370640D01*
Y128657D01*
X369791D01*
Y143507D01*
X375975D01*
Y151018D01*
X372673D01*
Y161795D01*
X373338D01*
Y168520D01*
D02*
G37*
G36*
X351162Y145719D02*
X347906D01*
Y143054D01*
X351162D01*
Y145719D01*
D02*
G37*
G36*
Y142054D02*
X347906D01*
Y139388D01*
X351162D01*
Y142054D01*
D02*
G37*
G36*
X291339Y132915D02*
X290564Y132813D01*
X289842Y132514D01*
X289221Y132038D01*
X288746Y131418D01*
X288446Y130696D01*
X288368Y130097D01*
X288109Y129839D01*
X276658D01*
Y129255D01*
X276242Y128977D01*
X276077Y129045D01*
X275302Y129147D01*
X274527Y129045D01*
X273805Y128746D01*
X273185Y128270D01*
X272709Y127650D01*
X272410Y126928D01*
X272308Y126153D01*
X272410Y125378D01*
X272709Y124656D01*
X273185Y124036D01*
X273805Y123560D01*
X274527Y123261D01*
X275302Y123159D01*
X276077Y123261D01*
X276242Y123329D01*
X276658Y123052D01*
Y122130D01*
X285021D01*
X285153Y121630D01*
X284736Y121086D01*
X284436Y120364D01*
X284334Y119589D01*
X284436Y118814D01*
X284736Y118092D01*
X285211Y117472D01*
X285831Y116996D01*
X286554Y116697D01*
X287329Y116595D01*
X288104Y116697D01*
X288826Y116996D01*
X289446Y117472D01*
X289921Y118092D01*
X290221Y118814D01*
X290323Y119589D01*
X290221Y120364D01*
X289921Y121086D01*
X289504Y121630D01*
X289636Y122130D01*
X290272D01*
Y126664D01*
X290772Y127002D01*
X291339Y126927D01*
X292113Y127029D01*
X292836Y127328D01*
X293456Y127804D01*
X293932Y128424D01*
X294231Y129146D01*
X294333Y129921D01*
X294231Y130696D01*
X293932Y131418D01*
X293456Y132038D01*
X292836Y132514D01*
X292113Y132813D01*
X291339Y132915D01*
D02*
G37*
G36*
X244307Y132909D02*
X236008D01*
Y122248D01*
X241157D01*
X241599Y122075D01*
X241701Y121300D01*
X242000Y120578D01*
X242475Y119958D01*
X243095Y119483D01*
X243818Y119183D01*
X244593Y119081D01*
X245368Y119183D01*
X246090Y119483D01*
X246710Y119958D01*
X247186Y120578D01*
X247485Y121300D01*
X247587Y122075D01*
X247485Y122850D01*
X247186Y123573D01*
X246710Y124193D01*
X246090Y124669D01*
X245368Y124968D01*
X244593Y125070D01*
X244307Y125535D01*
Y132909D01*
D02*
G37*
G36*
X378152Y138059D02*
X377377Y137957D01*
X376655Y137658D01*
X376035Y137182D01*
X375559Y136562D01*
X375260Y135839D01*
X375158Y135065D01*
X375229Y134527D01*
X374878Y134027D01*
X374082D01*
Y126909D01*
Y120413D01*
X378930D01*
X379255Y120088D01*
X379331Y119505D01*
X379631Y118783D01*
X380106Y118163D01*
X380727Y117687D01*
X381449Y117388D01*
X382224Y117286D01*
X382998Y117388D01*
X383721Y117687D01*
X384341Y118163D01*
X384817Y118783D01*
X385116Y119505D01*
X385218Y120280D01*
X385116Y121055D01*
X384817Y121777D01*
X384341Y122397D01*
X383721Y122873D01*
X382998Y123172D01*
X382224Y123274D01*
X381791Y123721D01*
Y126909D01*
Y134027D01*
X381426D01*
X381075Y134527D01*
X381146Y135065D01*
X381044Y135839D01*
X380745Y136562D01*
X380269Y137182D01*
X379649Y137658D01*
X378927Y137957D01*
X378152Y138059D01*
D02*
G37*
G36*
X262721Y119235D02*
X260253D01*
Y115880D01*
X262721D01*
Y119235D01*
D02*
G37*
G36*
X259253D02*
X256784D01*
Y115880D01*
X259253D01*
Y119235D01*
D02*
G37*
G36*
X270202D02*
X264265D01*
Y111526D01*
X270202D01*
Y113289D01*
X274419D01*
Y112637D01*
X279175D01*
Y116999D01*
X274419D01*
Y116348D01*
X270202D01*
Y119235D01*
D02*
G37*
G36*
X222104Y115775D02*
X219635D01*
Y112420D01*
X222104D01*
Y115775D01*
D02*
G37*
G36*
X218635D02*
X216167D01*
Y112420D01*
X218635D01*
Y115775D01*
D02*
G37*
G36*
X262721Y114880D02*
X260253D01*
Y111526D01*
X262721D01*
Y114880D01*
D02*
G37*
G36*
X259253D02*
X256784D01*
Y111526D01*
X259253D01*
Y114880D01*
D02*
G37*
G36*
X222104Y111420D02*
X219635D01*
Y108066D01*
X222104D01*
Y111420D01*
D02*
G37*
G36*
X218635D02*
X216167D01*
Y108066D01*
X218635D01*
Y111420D01*
D02*
G37*
G36*
X229584Y115775D02*
X223647D01*
Y108066D01*
X229584D01*
Y110391D01*
X233313D01*
X233842Y109861D01*
Y107661D01*
X238598D01*
Y112024D01*
X236005D01*
X235027Y113002D01*
X234531Y113333D01*
X233946Y113450D01*
X229584D01*
Y115775D01*
D02*
G37*
G36*
X262721Y110163D02*
X260253D01*
Y106808D01*
X262721D01*
Y110163D01*
D02*
G37*
G36*
X259253D02*
X256784D01*
Y106808D01*
X259253D01*
Y110163D01*
D02*
G37*
G36*
X222104Y106680D02*
X219635D01*
Y103326D01*
X222104D01*
Y106680D01*
D02*
G37*
G36*
X218635D02*
X216167D01*
Y103326D01*
X218635D01*
Y106680D01*
D02*
G37*
G36*
X262721Y105808D02*
X260253D01*
Y102454D01*
X262721D01*
Y105808D01*
D02*
G37*
G36*
X259253D02*
X256784D01*
Y102454D01*
X259253D01*
Y105808D01*
D02*
G37*
G36*
X279175Y109519D02*
X274419D01*
Y105250D01*
X274268Y105052D01*
X273968Y104330D01*
X273866Y103555D01*
X273968Y102780D01*
X274268Y102058D01*
X274743Y101438D01*
X275363Y100962D01*
X276085Y100663D01*
X276860Y100561D01*
X277635Y100663D01*
X278358Y100962D01*
X278978Y101438D01*
X279453Y102058D01*
X279753Y102780D01*
X279855Y103555D01*
X279753Y104330D01*
X279453Y105052D01*
X279175Y105415D01*
Y109519D01*
D02*
G37*
G36*
X222104Y102326D02*
X219635D01*
Y98972D01*
X222104D01*
Y102326D01*
D02*
G37*
G36*
X218635D02*
X216167D01*
Y98972D01*
X218635D01*
Y102326D01*
D02*
G37*
G36*
X270202Y110163D02*
X264265D01*
Y102454D01*
X264265D01*
X264521Y101954D01*
X264460Y101486D01*
X264562Y100711D01*
X264861Y99989D01*
X265337Y99369D01*
X265957Y98893D01*
X266679Y98594D01*
X267454Y98492D01*
X268229Y98594D01*
X268951Y98893D01*
X269571Y99369D01*
X270047Y99989D01*
X270346Y100711D01*
X270448Y101486D01*
X270346Y102261D01*
X270202Y102609D01*
Y110163D01*
D02*
G37*
G36*
X238598Y104543D02*
X233842D01*
Y100181D01*
X234192D01*
Y99322D01*
X234092Y99246D01*
X233616Y98626D01*
X233317Y97904D01*
X233215Y97129D01*
X233317Y96354D01*
X233616Y95631D01*
X234092Y95011D01*
X234712Y94536D01*
X235434Y94236D01*
X236209Y94134D01*
X236984Y94236D01*
X237706Y94536D01*
X238326Y95011D01*
X238802Y95631D01*
X239101Y96354D01*
X239203Y97129D01*
X239101Y97904D01*
X238802Y98626D01*
X238326Y99246D01*
X238238Y99313D01*
Y100181D01*
X238598D01*
Y104543D01*
D02*
G37*
G36*
X229584Y106680D02*
X223647D01*
Y98972D01*
X224622D01*
Y98205D01*
X224556Y98155D01*
X224081Y97535D01*
X223781Y96813D01*
X223679Y96038D01*
X223781Y95263D01*
X224081Y94541D01*
X224556Y93921D01*
X225177Y93445D01*
X225899Y93146D01*
X226674Y93044D01*
X227449Y93146D01*
X228171Y93445D01*
X228791Y93921D01*
X229267Y94541D01*
X229566Y95263D01*
X229668Y96038D01*
X229566Y96813D01*
X229267Y97535D01*
X228791Y98155D01*
X228668Y98250D01*
Y98972D01*
X229584D01*
Y106680D01*
D02*
G37*
G36*
X278559Y97223D02*
X272622D01*
Y89514D01*
X278559D01*
Y91839D01*
X279284D01*
X279430Y91693D01*
Y89656D01*
X284330D01*
Y93856D01*
X281593D01*
X280999Y94450D01*
X280503Y94782D01*
X279917Y94898D01*
X278559D01*
Y97223D01*
D02*
G37*
G36*
X246472Y108283D02*
X241717D01*
Y103921D01*
X244310D01*
X254376Y93855D01*
Y93323D01*
X252051D01*
Y87386D01*
X259760D01*
Y88825D01*
X265096D01*
X265681Y88941D01*
X266177Y89273D01*
X266389Y89485D01*
X266642D01*
X266790Y89514D01*
X271079D01*
Y97223D01*
X265142D01*
Y92408D01*
X264674Y92096D01*
X264462Y91884D01*
X259760D01*
Y93323D01*
X257435D01*
Y94488D01*
X257318Y95073D01*
X256987Y95570D01*
X246472Y106084D01*
Y108283D01*
D02*
G37*
G36*
X290935Y95949D02*
X290160Y95847D01*
X289438Y95548D01*
X288818Y95072D01*
X288342Y94452D01*
X288043Y93730D01*
X287941Y92955D01*
X288043Y92180D01*
X288305Y91547D01*
X288267Y91490D01*
X288151Y90905D01*
Y90106D01*
X287230D01*
Y85906D01*
X292130D01*
Y90106D01*
X292502Y90415D01*
X293053Y90838D01*
X293529Y91458D01*
X293828Y92180D01*
X293930Y92955D01*
X293828Y93730D01*
X293529Y94452D01*
X293053Y95072D01*
X292432Y95548D01*
X291710Y95847D01*
X290935Y95949D01*
D02*
G37*
G36*
X340594Y83181D02*
X339819Y83079D01*
X339097Y82780D01*
X338477Y82304D01*
X338001Y81684D01*
X337702Y80962D01*
X337600Y80187D01*
X337680Y79576D01*
X337362Y79076D01*
X337166D01*
Y73494D01*
X343969D01*
Y79076D01*
X343826D01*
X343508Y79576D01*
X343588Y80187D01*
X343486Y80962D01*
X343187Y81684D01*
X342711Y82304D01*
X342091Y82780D01*
X341369Y83079D01*
X340594Y83181D01*
D02*
G37*
G36*
X349076Y77527D02*
X348301Y77425D01*
X347579Y77126D01*
X346959Y76650D01*
X346483Y76030D01*
X346184Y75308D01*
X346082Y74533D01*
X346146Y74039D01*
X345776Y73539D01*
X345293D01*
Y67209D01*
X352805D01*
Y73539D01*
X352375D01*
X352005Y74039D01*
X352070Y74533D01*
X351968Y75308D01*
X351669Y76030D01*
X351193Y76650D01*
X350573Y77126D01*
X349851Y77425D01*
X349076Y77527D01*
D02*
G37*
G36*
X373849Y56985D02*
X372741Y56839D01*
X371707Y56410D01*
X370820Y55730D01*
X370139Y54842D01*
X369711Y53809D01*
X369565Y52700D01*
X369315Y52415D01*
X363156D01*
Y54839D01*
X355054D01*
Y52218D01*
X352805D01*
Y53854D01*
X345293D01*
Y52218D01*
X342945D01*
Y53658D01*
X337205D01*
Y52415D01*
X326279D01*
X325694Y52299D01*
X325198Y51967D01*
X316485Y43254D01*
X316232D01*
X316085Y43224D01*
X311795D01*
Y35516D01*
X316085D01*
X316232Y35486D01*
X316380Y35516D01*
X317732D01*
Y36868D01*
X317762Y37016D01*
Y37902D01*
X317732Y38049D01*
Y40331D01*
X318199Y40643D01*
X326913Y49356D01*
X337205D01*
Y48114D01*
X342945D01*
Y49160D01*
X345293D01*
Y47524D01*
X352805D01*
Y49160D01*
X355054D01*
Y46933D01*
Y39650D01*
X355691D01*
X356039Y39150D01*
X355968Y38607D01*
X356070Y37832D01*
X356369Y37110D01*
X356845Y36489D01*
X357465Y36013D01*
X358187Y35714D01*
X358962Y35612D01*
X359737Y35714D01*
X360459Y36013D01*
X361079Y36489D01*
X361555Y37110D01*
X361854Y37832D01*
X361956Y38607D01*
X361884Y39150D01*
X362232Y39650D01*
X363156D01*
Y46933D01*
Y49356D01*
X370548D01*
X371088Y49464D01*
X371707Y48989D01*
X372741Y48561D01*
X373849Y48415D01*
X374958Y48561D01*
X375992Y48989D01*
X376879Y49670D01*
X377560Y50558D01*
X377988Y51591D01*
X378134Y52700D01*
X377988Y53809D01*
X377560Y54842D01*
X376879Y55730D01*
X375992Y56410D01*
X374958Y56839D01*
X373849Y56985D01*
D02*
G37*
G36*
X271992Y52514D02*
X266410D01*
Y51875D01*
X265910Y51541D01*
X265650Y51649D01*
X264875Y51751D01*
X264100Y51649D01*
X263378Y51350D01*
X262758Y50874D01*
X262282Y50254D01*
X261983Y49532D01*
X261881Y48757D01*
X261983Y47982D01*
X262282Y47260D01*
X262758Y46639D01*
X263378Y46164D01*
X264100Y45865D01*
X264875Y45763D01*
X265650Y45865D01*
X265910Y45972D01*
X266410Y45638D01*
Y45042D01*
X271992D01*
Y52514D01*
D02*
G37*
G36*
X299726Y52205D02*
X299339D01*
Y49220D01*
X300945D01*
Y50986D01*
X300852Y51452D01*
X300588Y51848D01*
X300193Y52112D01*
X299726Y52205D01*
D02*
G37*
G36*
X298339D02*
X297951D01*
X297485Y52112D01*
X297089Y51848D01*
X296825Y51452D01*
X296732Y50986D01*
Y49220D01*
X298339D01*
Y52205D01*
D02*
G37*
G36*
X300945Y48221D02*
X299339D01*
Y45236D01*
X299726D01*
X300193Y45329D01*
X300588Y45593D01*
X300852Y45989D01*
X300945Y46455D01*
Y48221D01*
D02*
G37*
G36*
X298339D02*
X296732D01*
Y46455D01*
X296825Y45989D01*
X297089Y45593D01*
X297485Y45329D01*
X297951Y45236D01*
X298339D01*
Y48221D01*
D02*
G37*
G36*
X246535Y47741D02*
X245388Y47590D01*
X244319Y47147D01*
X243400Y46442D01*
X242696Y45524D01*
X242253Y44455D01*
X242102Y43307D01*
X242253Y42160D01*
X242696Y41090D01*
X243400Y40172D01*
X244319Y39467D01*
X245388Y39025D01*
X246535Y38873D01*
X247683Y39025D01*
X248752Y39467D01*
X249671Y40172D01*
X250375Y41090D01*
X250818Y42160D01*
X250969Y43307D01*
X250818Y44455D01*
X250375Y45524D01*
X249671Y46442D01*
X248752Y47147D01*
X247683Y47590D01*
X246535Y47741D01*
D02*
G37*
G36*
X236535D02*
X235388Y47590D01*
X234319Y47147D01*
X233400Y46442D01*
X232696Y45524D01*
X232253Y44455D01*
X232102Y43307D01*
X232253Y42160D01*
X232696Y41090D01*
X233400Y40172D01*
X234319Y39467D01*
X235388Y39025D01*
X236535Y38873D01*
X237683Y39025D01*
X238752Y39467D01*
X239670Y40172D01*
X240375Y41090D01*
X240818Y42160D01*
X240969Y43307D01*
X240818Y44455D01*
X240375Y45524D01*
X239670Y46442D01*
X238752Y47147D01*
X237683Y47590D01*
X236535Y47741D01*
D02*
G37*
G36*
X226535D02*
X225388Y47590D01*
X224319Y47147D01*
X223400Y46442D01*
X222696Y45524D01*
X222253Y44455D01*
X222102Y43307D01*
X222253Y42160D01*
X222696Y41090D01*
X223400Y40172D01*
X224319Y39467D01*
X225388Y39025D01*
X226535Y38873D01*
X227683Y39025D01*
X228752Y39467D01*
X229671Y40172D01*
X230375Y41090D01*
X230818Y42160D01*
X230969Y43307D01*
X230818Y44455D01*
X230375Y45524D01*
X229671Y46442D01*
X228752Y47147D01*
X227683Y47590D01*
X226535Y47741D01*
D02*
G37*
G36*
X373849Y46984D02*
X372741Y46839D01*
X371707Y46410D01*
X370820Y45730D01*
X370139Y44842D01*
X369711Y43809D01*
X369565Y42700D01*
X369711Y41591D01*
X370139Y40558D01*
X370820Y39670D01*
X371707Y38989D01*
X372741Y38561D01*
X373849Y38415D01*
X374958Y38561D01*
X375992Y38989D01*
X376879Y39670D01*
X377560Y40558D01*
X377988Y41591D01*
X378134Y42700D01*
X377988Y43809D01*
X377560Y44842D01*
X376879Y45730D01*
X375992Y46410D01*
X374958Y46839D01*
X373849Y46984D01*
D02*
G37*
G36*
X352805Y46965D02*
X345293D01*
Y40634D01*
X345667D01*
X346028Y40134D01*
X345961Y39620D01*
X346063Y38845D01*
X346362Y38123D01*
X346838Y37503D01*
X347458Y37027D01*
X348180Y36728D01*
X348955Y36626D01*
X349730Y36728D01*
X350452Y37027D01*
X351072Y37503D01*
X351548Y38123D01*
X351847Y38845D01*
X351949Y39620D01*
X351881Y40134D01*
X352242Y40634D01*
X352805D01*
Y46965D01*
D02*
G37*
G36*
X342945Y41256D02*
X337205D01*
Y35713D01*
X337205D01*
X337330Y35526D01*
X337196Y35201D01*
X337094Y34427D01*
X337196Y33652D01*
X337495Y32929D01*
X337971Y32309D01*
X338591Y31833D01*
X339313Y31534D01*
X340088Y31432D01*
X340863Y31534D01*
X341585Y31833D01*
X342205Y32309D01*
X342681Y32929D01*
X342980Y33652D01*
X343082Y34427D01*
X342980Y35201D01*
X342836Y35549D01*
X342945Y35713D01*
X342945D01*
Y41256D01*
D02*
G37*
%LPD*%
G36*
X324673Y188949D02*
Y166979D01*
X324108D01*
Y159271D01*
X324893D01*
Y154541D01*
X324056D01*
Y147357D01*
X323594Y147166D01*
X321841Y148919D01*
X322054Y149432D01*
X322193Y150490D01*
X322054Y151548D01*
X321646Y152533D01*
X320996Y153379D01*
X320150Y154029D01*
X319164Y154437D01*
X318107Y154576D01*
X317049Y154437D01*
X316064Y154029D01*
X315585Y153661D01*
X315085Y153908D01*
Y186986D01*
X315547Y187178D01*
X315788Y186936D01*
X316284Y186605D01*
X316870Y186488D01*
X320925D01*
X321511Y186605D01*
X322007Y186936D01*
X324211Y189141D01*
X324673Y188949D01*
D02*
G37*
G36*
X296681Y189074D02*
X297750Y188631D01*
X298898Y188480D01*
X300045Y188631D01*
X300732Y188916D01*
X301620Y188028D01*
Y153344D01*
X301147Y153183D01*
X300996Y153379D01*
X300150Y154029D01*
X299636Y154242D01*
Y170887D01*
X299520Y171473D01*
X299188Y171969D01*
X295531Y175626D01*
Y189326D01*
X296031Y189572D01*
X296681Y189074D01*
D02*
G37*
G36*
X305556Y195780D02*
X305058Y195130D01*
X304615Y194061D01*
X304464Y192913D01*
X304615Y191766D01*
X305058Y190697D01*
X305763Y189778D01*
X306681Y189074D01*
X307750Y188631D01*
X308898Y188480D01*
X310045Y188631D01*
X310733Y188916D01*
X312026Y187622D01*
Y152858D01*
X311526Y152689D01*
X310996Y153379D01*
X310150Y154029D01*
X309165Y154437D01*
X308107Y154576D01*
X307049Y154437D01*
X306064Y154029D01*
X305218Y153379D01*
X305153Y153295D01*
X304679Y153455D01*
Y188661D01*
X304563Y189247D01*
X304231Y189743D01*
X302895Y191078D01*
X303180Y191766D01*
X303331Y192913D01*
X303180Y194061D01*
X302737Y195130D01*
X302239Y195780D01*
X302485Y196280D01*
X305310D01*
X305556Y195780D01*
D02*
G37*
G36*
X316064Y146951D02*
X317049Y146543D01*
X318107Y146404D01*
X319164Y146543D01*
X319678Y146756D01*
X328984Y137450D01*
X329481Y137118D01*
X330066Y137002D01*
X336420D01*
Y134972D01*
X341965D01*
X342473Y134465D01*
X342282Y134002D01*
X336319D01*
Y131973D01*
X330820D01*
X323916Y138877D01*
X323420Y139208D01*
X322835Y139325D01*
X321466D01*
X321015Y139912D01*
X320395Y140388D01*
X319673Y140687D01*
X318898Y140789D01*
X318123Y140687D01*
X317401Y140388D01*
X316780Y139912D01*
X316305Y139292D01*
X316005Y138570D01*
X315903Y137795D01*
X316005Y137020D01*
X316305Y136298D01*
X316780Y135678D01*
X317401Y135202D01*
X318123Y134903D01*
X318898Y134801D01*
X319673Y134903D01*
X320395Y135202D01*
X321015Y135678D01*
X321466Y136266D01*
X322201D01*
X329105Y129362D01*
X329601Y129031D01*
X330187Y128914D01*
X336319D01*
Y126884D01*
Y121530D01*
X335858Y121339D01*
X326193Y131003D01*
X325697Y131334D01*
X325112Y131451D01*
X321466D01*
X321015Y132038D01*
X320395Y132514D01*
X319673Y132813D01*
X318898Y132915D01*
X318123Y132813D01*
X317401Y132514D01*
X316780Y132038D01*
X316305Y131418D01*
X316005Y130696D01*
X315903Y129921D01*
X316005Y129146D01*
X316305Y128424D01*
X316780Y127804D01*
X317401Y127328D01*
X318123Y127029D01*
X318898Y126927D01*
X319673Y127029D01*
X320395Y127328D01*
X321015Y127804D01*
X321466Y128392D01*
X324479D01*
X327827Y125044D01*
X327648Y124516D01*
X327049Y124437D01*
X326064Y124029D01*
X325218Y123379D01*
X324568Y122533D01*
X324160Y121548D01*
X324021Y120490D01*
X324160Y119432D01*
X324568Y118447D01*
X325218Y117601D01*
X326064Y116951D01*
X327049Y116543D01*
X328107Y116404D01*
X329165Y116543D01*
X330150Y116951D01*
X330996Y117601D01*
X331646Y118447D01*
X332054Y119432D01*
X332133Y120031D01*
X332661Y120210D01*
X335089Y117782D01*
Y97074D01*
X334627Y96882D01*
X332949Y98560D01*
X332453Y98891D01*
X331868Y99007D01*
X322107D01*
Y103623D01*
X321584D01*
Y105733D01*
X330150D01*
X330318Y105663D01*
X331093Y105561D01*
X331868Y105663D01*
X332591Y105962D01*
X333211Y106438D01*
X333686Y107058D01*
X333985Y107780D01*
X334087Y108555D01*
X333985Y109330D01*
X333686Y110052D01*
X333211Y110672D01*
X332591Y111148D01*
X331868Y111447D01*
X331093Y111549D01*
X330699Y111497D01*
X330199Y111912D01*
Y113442D01*
X319636D01*
Y116738D01*
X320150Y116951D01*
X320996Y117601D01*
X321646Y118447D01*
X322054Y119432D01*
X322193Y120490D01*
X322054Y121548D01*
X321646Y122533D01*
X320996Y123379D01*
X320150Y124029D01*
X319164Y124437D01*
X318107Y124576D01*
X317049Y124437D01*
X316536Y124224D01*
X315085Y125675D01*
Y147072D01*
X315585Y147319D01*
X316064Y146951D01*
D02*
G37*
G36*
X353745Y116080D02*
X354220Y115762D01*
Y96339D01*
X353771Y96118D01*
X353734Y96147D01*
X353177Y96377D01*
Y102346D01*
X345665D01*
Y98195D01*
X345626Y97999D01*
X345665Y97804D01*
Y96136D01*
X345652Y95994D01*
X345598Y95908D01*
X344984Y95838D01*
X342858Y97964D01*
Y100646D01*
X338147D01*
Y107504D01*
X342858D01*
Y108842D01*
X343336Y109246D01*
X343748Y109191D01*
X344523Y109293D01*
X345245Y109592D01*
X345865Y110068D01*
X346100Y110374D01*
X346498Y110251D01*
X346551Y110215D01*
X346631Y109711D01*
X346276Y109235D01*
X345665D01*
Y102905D01*
X353177D01*
Y109235D01*
X352881D01*
X352508Y109735D01*
X352573Y110224D01*
X352471Y110999D01*
X352171Y111721D01*
X351696Y112341D01*
X351076Y112817D01*
X350353Y113116D01*
X349578Y113218D01*
X348803Y113116D01*
X348081Y112817D01*
X347461Y112341D01*
X347227Y112035D01*
X346829Y112159D01*
X346738Y112219D01*
X346640Y112960D01*
X346341Y113682D01*
X345865Y114303D01*
X345245Y114778D01*
X344523Y115077D01*
X343748Y115180D01*
X342973Y115077D01*
X342251Y114778D01*
X341631Y114303D01*
X341155Y113682D01*
X340908Y113086D01*
X340775D01*
X340580Y113048D01*
X338147D01*
Y116621D01*
X338596Y116842D01*
X338627Y116818D01*
X339349Y116519D01*
X340124Y116417D01*
X340899Y116519D01*
X341621Y116818D01*
X342241Y117294D01*
X342717Y117914D01*
X343016Y118637D01*
X343118Y119411D01*
X343055Y119888D01*
X343433Y120388D01*
X344028D01*
Y125143D01*
X344490Y125334D01*
X353745Y116080D01*
D02*
G37*
G36*
X321657Y95823D02*
X321657Y95449D01*
Y90923D01*
X322882D01*
X322944Y90609D01*
X323276Y90113D01*
X325552Y87837D01*
Y86226D01*
X325162Y85836D01*
X324600Y86267D01*
X323878Y86566D01*
X323103Y86668D01*
X322328Y86566D01*
X321606Y86267D01*
X320986Y85791D01*
X320703Y85422D01*
X320203Y85592D01*
Y89809D01*
X317878D01*
Y90344D01*
X317862Y90423D01*
X318150Y90923D01*
X318357D01*
X318357Y95823D01*
X318805Y95949D01*
X321210D01*
X321657Y95823D01*
D02*
G37*
G36*
X290976Y104472D02*
X291410Y104529D01*
X291910Y104132D01*
Y103626D01*
X303657D01*
X310886Y96397D01*
X311382Y96065D01*
X311967Y95949D01*
X313710D01*
X314157Y95823D01*
X314157Y95449D01*
Y90923D01*
X314775D01*
Y90388D01*
X314791Y90309D01*
X314503Y89809D01*
X312494D01*
Y83872D01*
X319936D01*
X320109Y83674D01*
X320211Y82899D01*
X320248Y82810D01*
X319906Y82329D01*
X312494D01*
Y82262D01*
X312032Y82071D01*
X290076Y104027D01*
X290202Y104532D01*
X290242Y104569D01*
X290976Y104472D01*
D02*
G37*
G36*
X275835Y74885D02*
X276455Y74409D01*
X277177Y74110D01*
X277952Y74008D01*
X278727Y74110D01*
X279449Y74409D01*
X279906Y74760D01*
X280406Y74560D01*
Y73052D01*
X281990D01*
X282142Y72552D01*
X282089Y72517D01*
X281825Y72122D01*
X281733Y71655D01*
Y67124D01*
X281597Y66958D01*
X277724D01*
X275334Y69349D01*
Y74717D01*
X275834Y74886D01*
X275835Y74885D01*
D02*
G37*
D14*
X244291Y106102D02*
X255906Y94488D01*
Y90354D02*
Y94488D01*
X226616Y111920D02*
X233946D01*
X236024Y109843D01*
X236221D01*
X244094Y106102D02*
X244291D01*
X318107Y110583D02*
X319623Y109067D01*
X286713Y125984D02*
X287329Y125368D01*
Y119589D02*
Y125368D01*
X286713Y145669D02*
X288853Y143528D01*
Y138344D02*
Y143528D01*
X320055Y101220D02*
Y109499D01*
X308107Y120490D02*
Y128901D01*
X303150Y133858D02*
Y188661D01*
Y133858D02*
X308107Y128901D01*
X286713Y125984D02*
Y126279D01*
X290354Y129921D01*
X291339D01*
X284671Y107269D02*
X312580Y79360D01*
X316348D02*
X328023D01*
X312580D02*
X316348D01*
X266642Y91014D02*
X268110Y92483D01*
X255906Y90354D02*
X265096D01*
X265756Y91014D01*
X266642D01*
X275590Y93369D02*
X279917D01*
X267233Y115380D02*
X267795Y114818D01*
X276797D01*
X284671Y107269D02*
Y111078D01*
X268110Y92483D02*
Y93369D01*
X281530Y91756D02*
X281880D01*
X279917Y93369D02*
X281530Y91756D01*
X298898Y192913D02*
X303150Y188661D01*
X348775Y80572D02*
X365978D01*
X348646Y80700D02*
X348775Y80572D01*
X348571Y80700D02*
X348646D01*
X334618Y94653D02*
Y94728D01*
X331868Y97478D02*
X334618Y94728D01*
X311967Y97478D02*
X331868D01*
X334618Y94653D02*
X348571Y80700D01*
X304320Y105126D02*
X311967Y97478D01*
X316257Y93373D02*
X316305Y93325D01*
Y90388D02*
Y93325D01*
Y90388D02*
X316348Y90344D01*
Y86840D02*
Y90344D01*
X323757Y93373D02*
X324357Y92773D01*
Y91195D02*
Y92773D01*
Y91195D02*
X328520Y87032D01*
X320007Y101173D02*
X320055Y101220D01*
X328520Y87032D02*
X329406D01*
X329108Y79849D02*
X329406Y79551D01*
X328512Y79849D02*
X329108D01*
X328023Y79360D02*
X328512Y79849D01*
X323103Y83674D02*
X323665Y84236D01*
X325725D01*
X328520Y87032D01*
X320055Y109499D02*
X320144Y109587D01*
X301965Y107185D02*
X304024Y105126D01*
X304320D01*
X301965Y107185D02*
Y107480D01*
X299906Y109539D02*
X301965Y107480D01*
X318107Y110583D02*
Y120490D01*
X313556Y125041D02*
X318107Y120490D01*
X313556Y125041D02*
Y188255D01*
X308898Y192913D02*
X313556Y188255D01*
X286713Y145669D02*
X286735Y145692D01*
X293309D01*
X298107Y150490D01*
X336002Y195809D02*
X338898Y192913D01*
X336002Y195809D02*
Y203788D01*
X332332Y207458D02*
X336002Y203788D01*
X329459Y207458D02*
X332332D01*
X324002Y202001D02*
X329459Y207458D01*
X324002Y191094D02*
Y202001D01*
X320925Y188018D02*
X324002Y191094D01*
X316870Y188018D02*
X320925D01*
X313898Y190990D02*
X316870Y188018D01*
X313898Y190990D02*
Y194837D01*
X310926Y197809D02*
X313898Y194837D01*
X296870Y197809D02*
X310926D01*
X294002Y194941D02*
X296870Y197809D01*
X294002Y174992D02*
Y194941D01*
Y174992D02*
X298107Y170887D01*
Y150490D02*
Y170887D01*
X318107Y150490D02*
X330066Y138531D01*
X340569D01*
X340274D02*
X340569D01*
X298107Y119109D02*
Y120490D01*
Y119109D02*
X299906Y117310D01*
Y109539D02*
Y117310D01*
X318898Y129921D02*
X325112D01*
X336618Y118415D01*
Y95481D02*
Y118415D01*
Y95481D02*
X349399Y82700D01*
X373849D01*
X87586Y188607D02*
X94029D01*
X94428Y188208D01*
X273804Y68715D02*
X277091Y65429D01*
X273804Y78504D02*
X276706Y81405D01*
X273804Y68715D02*
Y78504D01*
X277091Y65429D02*
X291256D01*
X276706Y81405D02*
X278679D01*
X354826Y117161D02*
X355163D01*
X355749Y116575D01*
Y95126D02*
Y116575D01*
X343602Y128384D02*
X354826Y117161D01*
X342233Y128384D02*
X343602D01*
X243244Y299590D02*
Y307093D01*
X243539Y307388D01*
X122637Y253218D02*
X132388D01*
X176136Y321975D02*
Y329738D01*
X103546Y260698D02*
X132388D01*
X99595Y264649D02*
X103546Y260698D01*
X176136Y329738D02*
X177106Y330709D01*
X115951Y246532D02*
X122637Y253218D01*
X115951Y243654D02*
Y246532D01*
X365978Y80572D02*
X373849Y72700D01*
X88357Y181811D02*
X94488D01*
X81197Y204048D02*
Y204993D01*
Y188970D02*
X88357Y181811D01*
X81197Y188970D02*
Y204048D01*
X94488Y181811D02*
X94683D01*
X125984Y197207D02*
X132287Y203509D01*
X125984Y148408D02*
Y197207D01*
X117118Y156094D02*
X118504Y157480D01*
X103848Y156094D02*
X117118D01*
X71610Y119658D02*
X80682D01*
X80682Y119658D01*
X373849Y102700D02*
Y103864D01*
X365914Y111799D02*
X373849Y103864D01*
X365914Y111799D02*
Y112330D01*
X359083Y119161D02*
X365914Y112330D01*
X355654Y119161D02*
X359083D01*
X350444Y124371D02*
X355654Y119161D01*
X350444Y124371D02*
Y128656D01*
X340569Y138531D02*
X350444Y128656D01*
X372362Y52700D02*
X373849D01*
X370548Y50886D02*
X372362Y52700D01*
X359105Y50886D02*
X370548D01*
X373006Y91856D02*
X373849Y92700D01*
X359018Y91856D02*
X373006D01*
X355749Y95126D02*
X359018Y91856D01*
X340174Y130444D02*
X342233Y128384D01*
X358908Y63484D02*
X359693Y62700D01*
X373849D01*
X340272Y50689D02*
X349049D01*
X358908D01*
X357294Y133113D02*
Y150525D01*
Y133113D02*
X360191Y130216D01*
X357294Y150525D02*
X357509Y150740D01*
X360191Y130216D02*
X360388D01*
X365919Y146672D02*
Y147263D01*
Y146672D02*
X368262Y144330D01*
Y126476D02*
Y144330D01*
X369976Y165157D02*
X371144Y163989D01*
Y148928D02*
Y163989D01*
Y148928D02*
X372809Y147263D01*
X43279Y145354D02*
X43424Y145500D01*
X43482Y145442D02*
X43502Y145422D01*
X49076D01*
X31496Y145354D02*
X43279D01*
X94488Y188268D02*
X95433D01*
X99736Y192571D01*
X101348D01*
X102287Y193509D01*
X94428Y188208D02*
X94488Y188268D01*
X71610Y175971D02*
X79383Y183743D01*
X79447D01*
X43353Y175862D02*
X71502D01*
X71610Y175971D01*
X31496Y175354D02*
X42845D01*
X43353Y175862D01*
X66610Y162270D02*
X68669Y160211D01*
Y148903D02*
Y160211D01*
Y148903D02*
X75911Y141662D01*
Y141312D02*
Y141662D01*
X95974Y159835D02*
Y180520D01*
X94683Y181811D02*
X95974Y180520D01*
Y134064D02*
Y159835D01*
X132287Y193509D02*
X144696Y181100D01*
Y176698D02*
Y181100D01*
Y176698D02*
X157636Y163759D01*
X88193Y203509D02*
X102287D01*
X87541Y204162D02*
X88193Y203509D01*
X97203Y218594D02*
Y221365D01*
Y218594D02*
X102287Y213509D01*
X97203Y221365D02*
X100085Y224247D01*
X72161Y127688D02*
Y133512D01*
X71610Y127138D02*
X72161Y127688D01*
X100085Y224247D02*
X110533D01*
X42992Y185354D02*
X43307Y185039D01*
X31496Y185354D02*
X42992D01*
X43307Y185039D02*
X43329Y185061D01*
X48761D01*
X87541Y212530D02*
Y221602D01*
X87541Y221602D02*
X87541Y221602D01*
Y204162D02*
Y212530D01*
X47244Y246232D02*
X80061Y213415D01*
X47244Y246232D02*
Y272465D01*
X59851Y285072D01*
Y285422D01*
X60451Y286022D02*
X60801D01*
X59851Y285422D02*
X60451Y286022D01*
X80061Y212530D02*
Y213415D01*
X68601Y286943D02*
Y289772D01*
X60005Y278348D02*
X68601Y286943D01*
X60005Y273613D02*
Y278348D01*
Y255187D02*
Y266133D01*
X59021Y253316D02*
X80061Y232277D01*
Y221602D02*
Y232277D01*
Y220716D02*
X83801Y216975D01*
Y207596D02*
Y216975D01*
X81197Y204993D02*
X83801Y207596D01*
X80682Y119658D02*
X81568D01*
X95974Y134064D01*
X178739Y176221D02*
X185269D01*
X186075Y175415D01*
X193949Y158059D02*
Y158944D01*
X188619Y164275D02*
X193949Y158944D01*
X188619Y164275D02*
Y164776D01*
X186756Y166638D02*
X188619Y164776D01*
X180546Y158465D02*
X186063D01*
X186469Y158059D01*
X165116Y162873D02*
X165784Y162205D01*
X172672D01*
X157636Y153801D02*
Y162873D01*
Y163759D01*
X167745Y173867D01*
X169790D01*
X171259Y175336D01*
Y176221D01*
X80061Y220716D02*
Y221602D01*
X59021Y253316D02*
Y254202D01*
X66501D02*
X67970Y255671D01*
Y268799D01*
X68601Y269430D01*
Y282272D01*
X59021Y254202D02*
X60005Y255187D01*
X100971Y231728D02*
X101857D01*
X105909Y235780D01*
X112211D01*
X110533Y224247D02*
X111517Y225232D01*
X43424Y145500D02*
X43482Y145442D01*
X327725Y225878D02*
X336797D01*
X298839Y69390D02*
X307416D01*
X307677Y69129D01*
X257287Y84256D02*
X281530D01*
X278679Y81405D02*
X281530Y84256D01*
X281880D01*
X283839Y69390D02*
Y76147D01*
X283197Y76788D02*
X283839Y76147D01*
X289680Y88006D02*
Y90905D01*
X290935Y92160D01*
Y92955D01*
X293839Y48720D02*
Y48720D01*
X293822Y48737D02*
X293839Y48720D01*
X293822Y48737D02*
Y53798D01*
X293806Y53815D02*
X293822Y53798D01*
X317695Y64776D02*
X328675D01*
X330040Y63411D01*
X340567D01*
X311951Y72257D02*
X317695D01*
X308622Y75586D02*
X311951Y72257D01*
X307517Y75586D02*
X308622D01*
X306732D02*
X307677D01*
X305441Y76877D02*
X306732Y75586D01*
X305441Y76877D02*
Y79959D01*
X301525Y83875D02*
X305441Y79959D01*
X297171Y83875D02*
X301525D01*
X340640Y63484D02*
X349049D01*
X358908D01*
X379737Y173425D02*
X387431D01*
X379048Y172736D02*
X379737Y173425D01*
X330187Y130444D02*
X340174D01*
X318898Y137795D02*
X322835D01*
X330187Y130444D01*
X340075Y50886D02*
X340272Y50689D01*
X314764Y38484D02*
Y39370D01*
Y38484D02*
X316232Y37016D01*
X358908Y50689D02*
X359105Y50886D01*
X340567Y63411D02*
X340640Y63484D01*
X326279Y50886D02*
X340075D01*
X317118Y41724D02*
X326279Y50886D01*
X316232Y41724D02*
X317118D01*
X314764Y40256D02*
X316232Y41724D01*
X314764Y39370D02*
Y40256D01*
X291339Y39370D02*
Y40315D01*
X255906Y82874D02*
X257287Y84256D01*
X291256Y65429D02*
X293839Y68012D01*
Y69390D01*
X298839D01*
X293839Y44760D02*
Y48720D01*
X288839D02*
X293839D01*
X293839Y48720D01*
X299011Y227419D02*
X299576Y226854D01*
X309303D01*
X334646Y211789D02*
Y216929D01*
X336114Y218398D01*
X336797D01*
X317177Y223113D02*
X324075D01*
X326839Y225878D01*
X327725D01*
X276485Y48778D02*
X276543Y48720D01*
X282801D01*
X290345Y76316D02*
Y76788D01*
X290818Y76316D02*
X290896Y76395D01*
X290345Y72274D02*
Y76316D01*
X288839Y70768D02*
X290345Y72274D01*
X288839Y69390D02*
Y70768D01*
X290896Y76395D02*
X299035D01*
X287598Y30889D02*
X288110Y30377D01*
X283839Y35534D02*
X287598Y31775D01*
X283839Y35534D02*
Y48720D01*
X287598Y30889D02*
Y31775D01*
X291339Y39370D02*
X292630Y40661D01*
Y43551D01*
X293839Y44760D01*
X297795Y34491D02*
Y39370D01*
X295079Y31775D02*
X297795Y34491D01*
X295079Y30889D02*
Y31775D01*
X297795Y39370D02*
X307283D01*
X314764D02*
X316232Y37902D01*
Y37016D02*
Y37902D01*
X0Y0D02*
X393701D01*
Y393701D01*
X0D02*
X393701D01*
X0Y0D02*
Y393701D01*
D15*
X-36371Y-118085D02*
G03*
X-36045Y-109630I-19940810J772725D01*
G01*
D16*
X236221Y109843D02*
D03*
Y102362D02*
D03*
X244094Y106102D02*
D03*
X276797Y114818D02*
D03*
Y107338D02*
D03*
X284671Y111078D02*
D03*
X95974Y159835D02*
D03*
X103848Y163575D02*
D03*
Y156094D02*
D03*
X309303Y226854D02*
D03*
Y219373D02*
D03*
X317177Y223113D02*
D03*
D17*
X219135Y111920D02*
D03*
X226616D02*
D03*
X275590Y93369D02*
D03*
X268110D02*
D03*
X87541Y221602D02*
D03*
X80061D02*
D03*
X87541Y212530D02*
D03*
X80061D02*
D03*
X178739Y176221D02*
D03*
X171259D02*
D03*
X267233Y115380D02*
D03*
X259753D02*
D03*
X267233Y106308D02*
D03*
X259753D02*
D03*
X219135Y102826D02*
D03*
X226616D02*
D03*
X59021Y254202D02*
D03*
X66501D02*
D03*
X125984Y157480D02*
D03*
X118504D02*
D03*
X165116Y162873D02*
D03*
X157636D02*
D03*
X291531Y218347D02*
D03*
X299011D02*
D03*
X295079Y30889D02*
D03*
X287598D02*
D03*
X291531Y227419D02*
D03*
X299011D02*
D03*
X307283Y39370D02*
D03*
X314764D02*
D03*
X125984Y148408D02*
D03*
X118504D02*
D03*
X165116Y153801D02*
D03*
X157636D02*
D03*
X193949Y158059D02*
D03*
X186469D02*
D03*
X118997Y225232D02*
D03*
X111517D02*
D03*
D18*
X240158Y163760D02*
D03*
D19*
Y127579D02*
D03*
D20*
X280217Y125984D02*
D03*
X286713D02*
D03*
X320144Y109587D02*
D03*
X326640D02*
D03*
X280217Y145669D02*
D03*
X286713D02*
D03*
X301965Y107480D02*
D03*
X295469D02*
D03*
X334163Y163125D02*
D03*
X327667D02*
D03*
X259418Y163827D02*
D03*
X252922D02*
D03*
D21*
X141246Y331890D02*
D03*
Y314961D02*
D03*
D22*
X132388Y253218D02*
D03*
Y260698D02*
D03*
X100971Y224247D02*
D03*
Y231728D02*
D03*
X43307Y185039D02*
D03*
Y192520D02*
D03*
X329406Y87032D02*
D03*
Y79551D02*
D03*
X60005Y273613D02*
D03*
Y266133D02*
D03*
X71610Y119658D02*
D03*
Y127138D02*
D03*
X80682Y127138D02*
D03*
Y119658D02*
D03*
X336797Y225878D02*
D03*
Y218398D02*
D03*
X327725D02*
D03*
Y225878D02*
D03*
X316348Y86840D02*
D03*
Y79360D02*
D03*
X317695Y72257D02*
D03*
Y64776D02*
D03*
X255906Y82874D02*
D03*
Y90354D02*
D03*
X297171Y76395D02*
D03*
Y83875D02*
D03*
X43482Y145442D02*
D03*
Y152922D02*
D03*
X43353Y175862D02*
D03*
Y168381D02*
D03*
D23*
X158586Y323543D02*
D03*
Y330000D02*
D03*
X216608Y324235D02*
D03*
Y317778D02*
D03*
X94488Y188268D02*
D03*
Y181811D02*
D03*
X307677Y69129D02*
D03*
Y75586D02*
D03*
D24*
X168839Y330709D02*
D03*
X177106D02*
D03*
X186075Y175415D02*
D03*
X194343D02*
D03*
X195024Y166638D02*
D03*
X186756D02*
D03*
D25*
X196710Y346161D02*
D03*
Y323720D02*
D03*
D26*
X226271Y324999D02*
D03*
X235326D02*
D03*
X244381D02*
D03*
D27*
X235326Y349802D02*
D03*
D28*
X261524Y335056D02*
D03*
Y348048D02*
D03*
D29*
X169246Y321975D02*
D03*
X176136D02*
D03*
X357509Y150740D02*
D03*
X350619D02*
D03*
X372809Y147263D02*
D03*
X365919D02*
D03*
X104199Y312598D02*
D03*
X111089D02*
D03*
D30*
X243539Y314278D02*
D03*
Y307388D02*
D03*
X349049Y50689D02*
D03*
Y43799D02*
D03*
X349049Y63484D02*
D03*
Y70374D02*
D03*
X349421Y106070D02*
D03*
Y99180D02*
D03*
X351662Y142554D02*
D03*
Y135664D02*
D03*
X379048Y172736D02*
D03*
Y165847D02*
D03*
D32*
X72161Y133512D02*
D03*
X79661D02*
D03*
X75911Y141312D02*
D03*
X320007Y101173D02*
D03*
X323757Y93373D02*
D03*
X316257D02*
D03*
X330896Y203989D02*
D03*
X327146Y211789D02*
D03*
X334646D02*
D03*
D33*
X66610Y162270D02*
D03*
X76610D02*
D03*
D34*
X71610Y175971D02*
D03*
D35*
X359105Y70571D02*
D03*
Y63287D02*
D03*
Y43602D02*
D03*
Y50886D02*
D03*
X361549Y100755D02*
D03*
Y108038D02*
D03*
D36*
X340075Y50886D02*
D03*
Y38484D02*
D03*
X339988Y110276D02*
D03*
Y97874D02*
D03*
D37*
X340567Y63411D02*
D03*
Y76285D02*
D03*
D38*
X340174Y123947D02*
D03*
Y130444D02*
D03*
X340274Y138531D02*
D03*
Y145027D02*
D03*
X377937Y123972D02*
D03*
Y130468D02*
D03*
D39*
X60801Y286022D02*
D03*
X68601Y289772D02*
D03*
Y282272D02*
D03*
X289680Y88006D02*
D03*
X281880Y84256D02*
D03*
Y91756D02*
D03*
D40*
X112211Y235780D02*
D03*
X119691D02*
D03*
X115951Y243654D02*
D03*
D41*
X298839Y48720D02*
D03*
X283839D02*
D03*
X288839D02*
D03*
X293839D02*
D03*
X283839Y69390D02*
D03*
X288839D02*
D03*
X293839D02*
D03*
X298839D02*
D03*
D42*
X369976Y165157D02*
D03*
Y173425D02*
D03*
X387431D02*
D03*
Y165157D02*
D03*
X243244Y291322D02*
D03*
Y299590D02*
D03*
D43*
X229806Y302553D02*
D03*
X213664D02*
D03*
D44*
X275658Y48778D02*
D03*
X269201D02*
D03*
X291339Y39370D02*
D03*
X297795D02*
D03*
X289654Y76788D02*
D03*
X283197D02*
D03*
X87654Y204048D02*
D03*
X81197D02*
D03*
D45*
X86614Y315591D02*
D03*
X69685D02*
D03*
D72*
X318107Y120490D02*
D03*
X298107Y150490D02*
D03*
X308107D02*
D03*
X318107D02*
D03*
X328107Y120490D02*
D03*
X308107D02*
D03*
X298107D02*
D03*
D77*
X328107Y150490D02*
D03*
D83*
X172672Y162205D02*
D03*
X180546Y158465D02*
D03*
X172672Y154724D02*
D03*
X368262Y126476D02*
D03*
X360388Y130216D02*
D03*
Y122736D02*
D03*
D84*
X236215Y102357D02*
X236221Y102362D01*
X236215Y97134D02*
Y102357D01*
X236209Y97129D02*
X236215Y97134D01*
X244480Y122075D02*
X244593D01*
X240158Y126398D02*
X244480Y122075D01*
X240158Y126398D02*
Y127579D01*
X275302Y126153D02*
X275387Y126069D01*
X280132D01*
X280217Y125984D01*
X276797Y107338D02*
X276829Y107307D01*
Y103587D02*
Y107307D01*
Y103587D02*
X276860Y103555D01*
X338820Y162751D02*
X339194Y162377D01*
X334537Y162751D02*
X338820D01*
X334163Y163125D02*
X334537Y162751D01*
X330717Y108932D02*
X331093Y108555D01*
X327295Y108932D02*
X330717D01*
X326640Y109587D02*
X327295Y108932D01*
X118401Y140544D02*
X118452Y140595D01*
Y148357D01*
X118504Y148408D01*
X277952Y77002D02*
X278059Y76895D01*
X283090D01*
X283197Y76788D01*
X226645Y96067D02*
X226674Y96038D01*
X226645Y96067D02*
Y102797D01*
X226616Y102826D02*
X226645Y102797D01*
X340087Y97874D02*
X345309Y92651D01*
X345620D01*
X351092Y93554D02*
X352237D01*
X349739Y94907D02*
X351092Y93554D01*
X349739Y94907D02*
Y98862D01*
X243244Y291322D02*
X248933Y285633D01*
Y285580D02*
Y285633D01*
X119693Y235782D02*
X125597D01*
X119691Y235780D02*
X119693Y235782D01*
X141131Y332005D02*
X141246Y331890D01*
X141131Y332005D02*
Y343685D01*
X261624Y348149D02*
Y355818D01*
X158458Y330128D02*
Y333899D01*
X158331Y334027D02*
X158458Y333899D01*
X196652Y323662D02*
X196710Y323720D01*
X196652Y314290D02*
Y323662D01*
X235235Y318901D02*
Y324908D01*
X235144Y318811D02*
X235235Y318901D01*
X168484Y330354D02*
X168839Y330709D01*
X235338Y349814D02*
Y355947D01*
X168800Y330748D02*
Y336073D01*
X261524Y348048D02*
Y349623D01*
Y348048D02*
X261624Y348149D01*
X158458Y330128D02*
X158586Y330000D01*
X235235Y324908D02*
X235326Y324999D01*
Y349802D02*
X235338Y349814D01*
X232471Y349802D02*
X235326D01*
X216576Y317746D02*
X216608Y317778D01*
X216576Y313547D02*
Y317746D01*
X216544Y313515D02*
X216576Y313547D01*
X168800Y330748D02*
X168839Y330709D01*
X168761Y336113D02*
X168800Y336073D01*
X349421Y99180D02*
X349739Y98862D01*
X339988Y97874D02*
X340087D01*
X195024Y166638D02*
X195064Y166678D01*
X199558D01*
X199598Y166717D01*
X194343Y175415D02*
X194349Y175408D01*
X199017D01*
X199023Y175402D01*
X103848Y163575D02*
X103875Y163602D01*
X107725D01*
X107752Y163629D01*
X43307Y192520D02*
X43336Y192548D01*
X48352D01*
X48381Y192577D01*
X43353Y168381D02*
X43374Y168403D01*
X48512D01*
X48533Y168424D01*
X118997Y225232D02*
X119130Y225364D01*
X124425D01*
X124558Y225497D01*
X339988Y110276D02*
X340775Y111063D01*
X342093D01*
X343215Y112185D01*
X343748D01*
X349421Y106070D02*
X349500Y106149D01*
Y110145D01*
X349578Y110224D01*
X377937Y123972D02*
X378232D01*
X381924Y120280D01*
X382224D01*
X360252Y109336D02*
Y113087D01*
Y109336D02*
X361549Y108038D01*
X360455Y95325D02*
Y99661D01*
X361549Y100755D01*
X347649Y97999D02*
X348830Y99180D01*
X349421D01*
X357091Y122629D02*
X357144Y122683D01*
X360335D01*
X360388Y122736D01*
X354331Y129921D02*
Y130454D01*
X353433Y131351D02*
X354331Y130454D01*
X353433Y131351D02*
Y134483D01*
X352252Y135664D02*
X353433Y134483D01*
X351662Y135664D02*
X352252D01*
X378044Y134957D02*
X378152Y135065D01*
X378044Y130576D02*
Y134957D01*
X377937Y130468D02*
X378044Y130576D01*
X369968Y177826D02*
X369972Y177822D01*
Y173429D02*
Y177822D01*
Y173429D02*
X369976Y173425D01*
X387511Y160761D02*
X387592Y160680D01*
X387511Y160761D02*
Y165077D01*
X387431Y165157D02*
X387511Y165077D01*
X349062Y74519D02*
X349076Y74533D01*
X349062Y70388D02*
Y74519D01*
X349049Y70374D02*
X349062Y70388D01*
X348955Y39620D02*
X349002Y39667D01*
Y43752D01*
X349049Y43799D01*
X340581Y80174D02*
X340594Y80187D01*
X340581Y76299D02*
Y80174D01*
X340567Y76285D02*
X340581Y76299D01*
X340308Y149598D02*
X340341Y149631D01*
X340308Y145061D02*
Y149598D01*
X340274Y145027D02*
X340308Y145061D01*
X340082Y34433D02*
X340088Y34427D01*
X340082Y34433D02*
Y38478D01*
X340075Y38484D02*
X340082Y38478D01*
X309251Y215518D02*
X309277Y215545D01*
Y219347D01*
X309303Y219373D01*
X298916Y213380D02*
X298963Y213428D01*
Y218300D01*
X299011Y218347D01*
X275395Y146008D02*
X275565Y145839D01*
X280047D01*
X280217Y145669D01*
X264339Y163925D02*
X264437Y164022D01*
X259516Y163925D02*
X264339D01*
X259418Y163827D02*
X259516Y163925D01*
X359043Y70642D02*
Y75779D01*
Y70642D02*
X359109Y70575D01*
X359105Y70571D02*
X359109Y70575D01*
X358962Y38607D02*
Y43390D01*
X359139Y43568D01*
X359105Y43602D02*
X359139Y43568D01*
X340149Y123923D02*
X340174Y123947D01*
X340149Y119436D02*
Y123923D01*
X340124Y119411D02*
X340149Y119436D01*
X295462Y107473D02*
X295469Y107480D01*
X290984Y107473D02*
X295462D01*
X290976Y107466D02*
X290984Y107473D01*
X267233Y106308D02*
X267343Y106198D01*
Y101596D02*
Y106198D01*
Y101596D02*
X267454Y101486D01*
X269190Y48767D02*
X269201Y48778D01*
X264886Y48767D02*
X269190D01*
X264875Y48757D02*
X264886Y48767D01*
X328898Y192913D02*
X329820Y193836D01*
Y198511D01*
X330896Y199586D01*
Y203989D01*
D85*
X327667Y163125D02*
X327887Y162905D01*
Y150710D02*
Y162905D01*
Y150710D02*
X328107Y150490D01*
X328636Y192652D02*
X328898Y192913D01*
X328636Y191879D02*
Y192652D01*
X327667Y190911D02*
X328636Y191879D01*
X327667Y163125D02*
Y190911D01*
X86614Y315591D02*
X88090D01*
X91083Y312598D01*
X104199D01*
D86*
X246535Y43307D02*
D03*
X236535D02*
D03*
X216535D02*
D03*
X226535D02*
D03*
X238347Y192913D02*
D03*
X248346D02*
D03*
X228346D02*
D03*
X257953D02*
D03*
X298898D02*
D03*
X308898D02*
D03*
X318898D02*
D03*
X328898D02*
D03*
X31496Y185354D02*
D03*
Y175354D02*
D03*
Y165354D02*
D03*
Y155354D02*
D03*
D87*
X99595Y264649D02*
D03*
Y294570D02*
D03*
D88*
X132287Y213509D02*
D03*
Y193509D02*
D03*
Y203509D02*
D03*
X102287Y183509D02*
D03*
Y193509D02*
D03*
Y203509D02*
D03*
Y213509D02*
D03*
D89*
X132287Y183509D02*
D03*
D90*
X338898Y192913D02*
D03*
D91*
X373849Y42700D02*
D03*
Y52700D02*
D03*
Y62700D02*
D03*
Y72700D02*
D03*
Y82700D02*
D03*
Y92700D02*
D03*
Y102700D02*
D03*
X29405Y311845D02*
D03*
Y331530D02*
D03*
D92*
X373849Y112700D02*
D03*
D93*
X31496Y145354D02*
D03*
D94*
X244593Y122075D02*
D03*
X287329Y119589D02*
D03*
X288853Y138344D02*
D03*
X291339Y129921D02*
D03*
X275302Y126153D02*
D03*
X323103Y83674D02*
D03*
X226674Y96038D02*
D03*
X118401Y140544D02*
D03*
X345620Y92651D02*
D03*
X352237Y93554D02*
D03*
X248933Y285580D02*
D03*
X87586Y188607D02*
D03*
X277952Y77002D02*
D03*
X125597Y235782D02*
D03*
X141131Y343685D02*
D03*
X199598Y166717D02*
D03*
X199023Y175402D02*
D03*
X107752Y163629D02*
D03*
X48381Y192577D02*
D03*
X48533Y168424D02*
D03*
X124558Y225497D02*
D03*
X168761Y336113D02*
D03*
X158331Y334027D02*
D03*
X196652Y314290D02*
D03*
X216544Y313515D02*
D03*
X235144Y318811D02*
D03*
X235338Y355947D02*
D03*
X261624Y355818D02*
D03*
X343748Y112185D02*
D03*
X349578Y110224D02*
D03*
X382224Y120280D02*
D03*
X354331Y129921D02*
D03*
X357091Y122629D02*
D03*
X360252Y113087D02*
D03*
X49076Y145422D02*
D03*
X79447Y183743D02*
D03*
X48761Y185061D02*
D03*
X387592Y160680D02*
D03*
X359043Y75779D02*
D03*
X349076Y74533D02*
D03*
X340594Y80187D02*
D03*
X358962Y38607D02*
D03*
X348955Y39620D02*
D03*
X340088Y34427D02*
D03*
X378152Y135065D02*
D03*
X340341Y149631D02*
D03*
X369968Y177826D02*
D03*
X309251Y215518D02*
D03*
X298916Y213380D02*
D03*
X264437Y164022D02*
D03*
X275395Y146008D02*
D03*
X339194Y162377D02*
D03*
X340124Y119411D02*
D03*
X331093Y108555D02*
D03*
X290976Y107466D02*
D03*
X276860Y103555D02*
D03*
X267454Y101486D02*
D03*
X360455Y95325D02*
D03*
X264875Y48757D02*
D03*
X236209Y97129D02*
D03*
X290935Y92955D02*
D03*
X293806Y53815D02*
D03*
X318898Y137795D02*
D03*
Y129921D02*
D03*
D95*
X27559Y377953D02*
D03*
X366142D02*
D03*
Y15748D02*
D03*
X27559D02*
D03*
M02*
