G04*
G04 #@! TF.GenerationSoftware,Altium Limited,Altium Designer,20.2.7 (254)*
G04*
G04 Layer_Color=16711935*
%FSLAX25Y25*%
%MOIN*%
G70*
G04*
G04 #@! TF.SameCoordinates,6A7C296C-3D1D-46A6-B2F7-2068CE29E54D*
G04*
G04*
G04 #@! TF.FilePolarity,Negative*
G04*
G01*
G75*
%ADD14C,0.01000*%
%ADD15C,0.00050*%
%ADD71C,0.07591*%
%ADD72C,0.06102*%
%ADD73C,0.05918*%
%ADD74C,0.06706*%
%ADD75R,0.06706X0.06706*%
%ADD76R,0.07591X0.07591*%
%ADD77R,0.06102X0.06102*%
%ADD78C,0.07296*%
%ADD79R,0.07296X0.07296*%
%ADD80R,0.07591X0.07591*%
%ADD81C,0.04737*%
%ADD82C,0.14580*%
D14*
X0Y0D02*
X393701D01*
Y393701D01*
X0D02*
X393701D01*
X0Y0D02*
Y393701D01*
D15*
X-36371Y-118085D02*
G03*
X-36045Y-109630I-19940810J772725D01*
G01*
D71*
X246535Y43307D02*
D03*
X236535D02*
D03*
X216535D02*
D03*
X226535D02*
D03*
X238347Y192913D02*
D03*
X248346D02*
D03*
X228346D02*
D03*
X257953D02*
D03*
X298898D02*
D03*
X308898D02*
D03*
X318898D02*
D03*
X328898D02*
D03*
X31496Y185354D02*
D03*
Y175354D02*
D03*
Y165354D02*
D03*
Y155354D02*
D03*
D72*
X318107Y120490D02*
D03*
X298107Y150490D02*
D03*
X308107D02*
D03*
X318107D02*
D03*
X328107Y120490D02*
D03*
X308107D02*
D03*
X298107D02*
D03*
D73*
X99595Y264649D02*
D03*
Y294570D02*
D03*
D74*
X132287Y213509D02*
D03*
Y193509D02*
D03*
Y203509D02*
D03*
X102287Y183509D02*
D03*
Y193509D02*
D03*
Y203509D02*
D03*
Y213509D02*
D03*
D75*
X132287Y183509D02*
D03*
D76*
X338898Y192913D02*
D03*
D77*
X328107Y150490D02*
D03*
D78*
X373849Y42700D02*
D03*
Y52700D02*
D03*
Y62700D02*
D03*
Y72700D02*
D03*
Y82700D02*
D03*
Y92700D02*
D03*
Y102700D02*
D03*
X29405Y311845D02*
D03*
Y331530D02*
D03*
D79*
X373849Y112700D02*
D03*
D80*
X31496Y145354D02*
D03*
D81*
X244593Y122075D02*
D03*
X287329Y119589D02*
D03*
X288853Y138344D02*
D03*
X291339Y129921D02*
D03*
X275302Y126153D02*
D03*
X323103Y83674D02*
D03*
X226674Y96038D02*
D03*
X118401Y140544D02*
D03*
X345620Y92651D02*
D03*
X352237Y93554D02*
D03*
X248933Y285580D02*
D03*
X87586Y188607D02*
D03*
X277952Y77002D02*
D03*
X125597Y235782D02*
D03*
X141131Y343685D02*
D03*
X199598Y166717D02*
D03*
X199023Y175402D02*
D03*
X107752Y163629D02*
D03*
X48381Y192577D02*
D03*
X48533Y168424D02*
D03*
X124558Y225497D02*
D03*
X168761Y336113D02*
D03*
X158331Y334027D02*
D03*
X196652Y314290D02*
D03*
X216544Y313515D02*
D03*
X235144Y318811D02*
D03*
X235338Y355947D02*
D03*
X261624Y355818D02*
D03*
X343748Y112185D02*
D03*
X349578Y110224D02*
D03*
X382224Y120280D02*
D03*
X354331Y129921D02*
D03*
X357091Y122629D02*
D03*
X360252Y113087D02*
D03*
X49076Y145422D02*
D03*
X79447Y183743D02*
D03*
X48761Y185061D02*
D03*
X387592Y160680D02*
D03*
X359043Y75779D02*
D03*
X349076Y74533D02*
D03*
X340594Y80187D02*
D03*
X358962Y38607D02*
D03*
X348955Y39620D02*
D03*
X340088Y34427D02*
D03*
X378152Y135065D02*
D03*
X340341Y149631D02*
D03*
X369968Y177826D02*
D03*
X309251Y215518D02*
D03*
X298916Y213380D02*
D03*
X264437Y164022D02*
D03*
X275395Y146008D02*
D03*
X339194Y162377D02*
D03*
X340124Y119411D02*
D03*
X331093Y108555D02*
D03*
X290976Y107466D02*
D03*
X276860Y103555D02*
D03*
X267454Y101486D02*
D03*
X360455Y95325D02*
D03*
X264875Y48757D02*
D03*
X236209Y97129D02*
D03*
X290935Y92955D02*
D03*
X293806Y53815D02*
D03*
X318898Y137795D02*
D03*
Y129921D02*
D03*
D82*
X27559Y377953D02*
D03*
X366142D02*
D03*
Y15748D02*
D03*
X27559D02*
D03*
M02*
