G04*
G04 #@! TF.GenerationSoftware,Altium Limited,Altium Designer,20.2.7 (254)*
G04*
G04 Layer_Color=16711935*
%FSLAX25Y25*%
%MOIN*%
G70*
G04*
G04 #@! TF.SameCoordinates,6A7C296C-3D1D-46A6-B2F7-2068CE29E54D*
G04*
G04*
G04 #@! TF.FilePolarity,Positive*
G04*
G01*
G75*
%ADD10C,0.00394*%
%ADD12C,0.00787*%
%ADD14C,0.01000*%
%ADD15C,0.00050*%
D10*
X129688Y182761D02*
G03*
X129688Y182761I-1969J0D01*
G01*
X299606Y63386D02*
G03*
X299606Y63386I-1969J0D01*
G01*
X242717Y100394D02*
Y111811D01*
X237598Y100394D02*
X242717D01*
X237598D02*
Y111811D01*
X242717D01*
X218938Y114381D02*
X226813D01*
Y109459D02*
Y114381D01*
X218938Y109459D02*
X226813D01*
X218938D02*
Y114381D01*
X247047Y133858D02*
Y157480D01*
X233268Y133858D02*
Y157480D01*
X247047D01*
X233268Y133858D02*
X247047D01*
X267913Y90908D02*
Y95829D01*
Y90908D02*
X275787D01*
Y95829D01*
X267913D02*
X275787D01*
X283293Y105370D02*
Y116787D01*
X278175Y105370D02*
X283293D01*
X278175D02*
Y116787D01*
X283293D01*
X279134Y123130D02*
Y128839D01*
X287795Y123130D02*
Y128839D01*
X279134D02*
X287795D01*
X279134Y123130D02*
X287795D01*
X130813Y333858D02*
X151679D01*
Y318209D02*
Y333858D01*
X146463Y312992D02*
X151679Y318209D01*
X136030Y312992D02*
X146463D01*
X130813Y318209D02*
X136030Y312992D01*
X130813Y318209D02*
Y333858D01*
X129927Y260895D02*
X134848D01*
X129927Y253021D02*
Y260895D01*
Y253021D02*
X134848D01*
Y260895D01*
X156125Y322835D02*
Y330709D01*
X161046D01*
Y322835D02*
Y330709D01*
X156125Y322835D02*
X161046D01*
X209702Y321949D02*
Y341437D01*
X203206Y347933D02*
X209702Y341437D01*
X190214Y347933D02*
X203206D01*
X183718Y341437D02*
X190214Y347933D01*
X183718Y321949D02*
Y341437D01*
Y321949D02*
X209702D01*
X219069Y317070D02*
Y324944D01*
X214148Y317070D02*
X219069D01*
X214148D02*
Y324944D01*
X219069D01*
X222531Y330511D02*
Y344290D01*
X248121D01*
Y330511D02*
Y344290D01*
X222531Y330511D02*
X248121D01*
X222531Y339566D02*
X231586Y330511D01*
X253059Y337320D02*
Y350017D01*
Y337320D02*
X257291Y333088D01*
X265756D01*
X269988Y337320D01*
Y350017D01*
X253059D02*
X269988D01*
X168458Y324731D02*
X176923D01*
X168458Y319219D02*
X176923D01*
X168458D02*
Y324731D01*
X176923Y319219D02*
Y324731D01*
X246295Y306601D02*
Y315065D01*
X240783Y306601D02*
Y315065D01*
X246295D01*
X240783Y306601D02*
X246295D01*
X79864Y219141D02*
Y224062D01*
Y219141D02*
X87738D01*
Y224062D01*
X79864D02*
X87738D01*
X79864Y210069D02*
Y214990D01*
Y210069D02*
X87738D01*
Y214990D01*
X79864D02*
X87738D01*
X98511Y231925D02*
X103432D01*
X98511Y224051D02*
Y231925D01*
Y224051D02*
X103432D01*
Y231925D01*
X131263Y179218D02*
Y217801D01*
X103310Y179218D02*
Y217801D01*
Y179218D02*
X131263D01*
X103310Y217801D02*
X131263D01*
X179168Y152756D02*
Y164173D01*
X174050Y152756D02*
X179168D01*
X174050Y164173D02*
X179168D01*
X174050Y152756D02*
Y164173D01*
X171062Y173761D02*
Y178682D01*
Y173761D02*
X178936D01*
Y178682D01*
X171062D02*
X178936D01*
X40846Y192717D02*
X45768D01*
X40846Y184843D02*
Y192717D01*
Y184843D02*
X45768D01*
Y192717D01*
X293701Y198524D02*
X344094D01*
X293701Y187303D02*
Y198524D01*
Y187303D02*
X344094D01*
Y198524D01*
X319061Y112442D02*
X327722D01*
X319061Y106733D02*
X327722D01*
X319061D02*
Y112442D01*
X327722Y106733D02*
Y112442D01*
X61768Y177979D02*
X81453D01*
Y160262D02*
Y177979D01*
X61768Y160262D02*
X81453D01*
X61768D02*
Y177979D01*
X97352Y154126D02*
X102470D01*
Y165543D01*
X97352D02*
X102470D01*
X97352Y154126D02*
Y165543D01*
X356251Y71260D02*
X361959D01*
X356251Y62598D02*
X361959D01*
Y71260D01*
X356251Y62598D02*
Y71260D01*
Y42913D02*
X361959D01*
X356251Y51575D02*
X361959D01*
X356251Y42913D02*
Y51575D01*
X361959Y42913D02*
Y51575D01*
X358695Y100066D02*
X364404D01*
X358695Y108728D02*
X364404D01*
X358695Y100066D02*
Y108728D01*
X364404Y100066D02*
Y108728D01*
X351805Y43012D02*
Y51476D01*
X346293Y43012D02*
Y51476D01*
X351805D01*
X346293Y43012D02*
X351805D01*
X346293Y62697D02*
Y71161D01*
X351805Y62697D02*
Y71161D01*
X346293Y62697D02*
X351805D01*
X346293Y71161D02*
X351805D01*
X352177Y98393D02*
Y106857D01*
X346665Y98393D02*
Y106857D01*
X352177D01*
X346665Y98393D02*
X352177D01*
X354418Y134877D02*
Y143341D01*
X348906Y134877D02*
Y143341D01*
X354418D01*
X348906Y134877D02*
X354418D01*
X337418Y64553D02*
Y75143D01*
X343717D01*
X337418Y64553D02*
X343717D01*
Y75143D01*
X337319Y122865D02*
Y131526D01*
X343028Y122865D02*
Y131526D01*
X337319Y122865D02*
X343028D01*
X337319Y131526D02*
X343028D01*
X279134Y148524D02*
X287795D01*
X279134Y142815D02*
X287795D01*
X279134D02*
Y148524D01*
X287795Y142815D02*
Y148524D01*
X331867Y79355D02*
Y87229D01*
X326945Y79355D02*
X331867D01*
X326945D02*
Y87229D01*
X331867D01*
X259556Y112920D02*
Y117841D01*
Y112920D02*
X267430D01*
Y117841D01*
X259556D02*
X267430D01*
X259556Y103848D02*
Y108769D01*
Y103848D02*
X267430D01*
Y108769D01*
X259556D02*
X267430D01*
X368849Y37700D02*
Y117700D01*
Y37700D02*
X378849D01*
Y117700D01*
X368849D02*
X378849D01*
X218938Y105287D02*
X226813D01*
Y100365D02*
Y105287D01*
X218938Y100365D02*
X226813D01*
X218938D02*
Y105287D01*
X337420Y137448D02*
X343128D01*
X337420Y146110D02*
X343128D01*
X337420Y137448D02*
Y146110D01*
X343128Y137448D02*
Y146110D01*
X303048Y104626D02*
Y110335D01*
X294387Y104626D02*
Y110335D01*
Y104626D02*
X303048D01*
X294387Y110335D02*
X303048D01*
X110242Y242276D02*
X121660D01*
Y237158D02*
Y242276D01*
X110242Y237158D02*
X121660D01*
X110242D02*
Y242276D01*
X62466Y265936D02*
Y273810D01*
X57545Y265936D02*
X62466D01*
X57545D02*
Y273810D01*
X62466D01*
X58824Y256663D02*
X66698D01*
Y251742D02*
Y256663D01*
X58824Y251742D02*
X66698D01*
X58824D02*
Y256663D01*
X69150Y119461D02*
Y127335D01*
X74071D01*
Y119461D02*
Y127335D01*
X69150Y119461D02*
X74071D01*
X83143Y119461D02*
Y127335D01*
X78222Y119461D02*
X83143D01*
X78222D02*
Y127335D01*
X83143D01*
X118307Y155020D02*
X126181D01*
X118307D02*
Y159941D01*
X126181D01*
Y155020D02*
Y159941D01*
X157439Y160412D02*
Y165333D01*
Y160412D02*
X165313D01*
Y165333D01*
X157439D02*
X165313D01*
X326585Y160271D02*
X335246D01*
X326585Y165979D02*
X335246D01*
Y160271D02*
Y165979D01*
X326585Y160271D02*
Y165979D01*
X251839Y160972D02*
X260501D01*
X251839Y166681D02*
X260501D01*
Y160972D02*
Y166681D01*
X251839Y160972D02*
Y166681D01*
X375082Y122889D02*
Y131551D01*
X380791Y122889D02*
Y131551D01*
X375082Y122889D02*
X380791D01*
X375082Y131551D02*
X380791D01*
X358296Y147984D02*
Y153496D01*
X349832Y147984D02*
Y153496D01*
Y147984D02*
X358296D01*
X349832Y153496D02*
X358296D01*
X361766Y120767D02*
Y132185D01*
X366884D01*
X361766Y120767D02*
X366884D01*
Y132185D01*
X376292Y173524D02*
X381804D01*
X376292Y165059D02*
X381804D01*
Y173524D01*
X376292Y165059D02*
Y173524D01*
X373597Y144507D02*
Y150018D01*
X365132Y144507D02*
Y150018D01*
Y144507D02*
X373597D01*
X365132Y150018D02*
X373597D01*
X291334Y220808D02*
X299208D01*
Y215886D02*
Y220808D01*
X291334Y215886D02*
X299208D01*
X291334D02*
Y220808D01*
X103411Y309842D02*
Y315354D01*
X111876Y309842D02*
Y315354D01*
X103411D02*
X111876D01*
X103411Y309842D02*
X111876D01*
X287402Y28428D02*
Y33349D01*
Y28428D02*
X295276D01*
Y33349D01*
X287402D02*
X295276D01*
X96949Y181102D02*
Y188976D01*
X92028Y181102D02*
X96949D01*
X92028D02*
Y188976D01*
X96949D01*
X315799Y217405D02*
Y228822D01*
X310681Y217405D02*
X315799D01*
X310681D02*
Y228822D01*
X315799D01*
X291334Y229880D02*
X299208D01*
Y224958D02*
Y229880D01*
X291334Y224958D02*
X299208D01*
X291334D02*
Y229880D01*
X339258Y218201D02*
Y226075D01*
X334337Y218201D02*
X339258D01*
X334337D02*
Y226075D01*
X339258D01*
X325265Y218201D02*
Y226075D01*
X330186D01*
Y218201D02*
Y226075D01*
X325265Y218201D02*
X330186D01*
X313888Y79163D02*
X318809D01*
Y87037D01*
X313888D02*
X318809D01*
X313888Y79163D02*
Y87037D01*
X320156Y64580D02*
Y72454D01*
X315234Y64580D02*
X320156D01*
X315234D02*
Y72454D01*
X320156D01*
X305217Y68420D02*
Y76294D01*
X310138D01*
Y68420D02*
Y76294D01*
X305217Y68420D02*
X310138D01*
X211838Y304900D02*
X214790Y307852D01*
X211838Y297254D02*
Y307852D01*
Y297254D02*
X231633D01*
Y307852D01*
X211838D02*
X231633D01*
X281496Y51181D02*
Y66929D01*
X301181Y51181D02*
Y66929D01*
X281496Y51181D02*
X301181D01*
X281496Y66929D02*
X301181D01*
X307087Y41831D02*
X314961D01*
Y36909D02*
Y41831D01*
X307087Y36909D02*
X314961D01*
X307087D02*
Y41831D01*
X253445Y82677D02*
Y90551D01*
X258366D01*
Y82677D02*
Y90551D01*
X253445Y82677D02*
X258366D01*
X299631Y76198D02*
Y84072D01*
X294710D02*
X299631D01*
X294710Y76198D02*
Y84072D01*
Y76198D02*
X299631D01*
X268492Y46317D02*
X276366D01*
X268492D02*
Y51239D01*
X276366D01*
Y46317D02*
Y51239D01*
X290630Y41831D02*
X298504D01*
Y36909D02*
Y41831D01*
X290630Y36909D02*
X298504D01*
X290630D02*
Y41831D01*
X282488Y74328D02*
X290363D01*
X282488D02*
Y79249D01*
X290363D01*
Y74328D02*
Y79249D01*
X118307Y145948D02*
X126181D01*
X118307D02*
Y150869D01*
X126181D01*
Y145948D02*
Y150869D01*
X80489Y201588D02*
X88363D01*
X80489D02*
Y206509D01*
X88363D01*
Y201588D02*
Y206509D01*
X37106Y140157D02*
Y190551D01*
X25886D02*
X37106D01*
X25886Y140157D02*
Y190551D01*
Y140157D02*
X37106D01*
X157439Y151340D02*
Y156262D01*
Y151340D02*
X165313D01*
Y156262D01*
X157439D02*
X165313D01*
X186272Y155598D02*
Y160519D01*
Y155598D02*
X194146D01*
Y160519D01*
X186272D02*
X194146D01*
X41022Y145245D02*
Y153119D01*
X45943D01*
Y145245D02*
Y153119D01*
X41022Y145245D02*
X45943D01*
X45813Y168185D02*
Y176059D01*
X40892Y168185D02*
X45813D01*
X40892D02*
Y176059D01*
X45813D01*
X111320Y222771D02*
X119194D01*
X111320D02*
Y227692D01*
X119194D01*
Y222771D02*
Y227692D01*
X67894Y310465D02*
X88406D01*
X67894D02*
Y320717D01*
X88406D01*
Y310465D02*
Y320717D01*
X85354Y310465D02*
X88406Y313512D01*
D12*
X75973Y279609D02*
G03*
X123217Y279609I23622J0D01*
G01*
D02*
G03*
X75973Y279609I-23622J0D01*
G01*
X12475Y302593D02*
Y338420D01*
X51846D01*
Y302593D02*
Y338420D01*
X12475Y302593D02*
X51846D01*
D14*
X0Y0D02*
X393701D01*
Y393701D01*
X0D02*
X393701D01*
X0Y0D02*
Y393701D01*
D15*
X-36371Y-118085D02*
G03*
X-36045Y-109630I-19940810J772725D01*
G01*
M02*
