G04*
G04 #@! TF.GenerationSoftware,Altium Limited,Altium Designer,20.2.7 (254)*
G04*
G04 Layer_Color=8421504*
%FSAX25Y25*%
%MOIN*%
G70*
G04*
G04 #@! TF.SameCoordinates,1B070C9D-936C-4A0F-866C-AF898DE0267E*
G04*
G04*
G04 #@! TF.FilePolarity,Positive*
G04*
G01*
G75*
%ADD16R,0.02362X0.02756*%
%ADD17R,0.03937X0.05709*%
%ADD18R,0.02756X0.01968*%
%ADD19R,0.04134X0.01968*%
%ADD20R,0.05118X0.07874*%
%ADD21R,0.07874X0.07874*%
%ADD22R,0.03583X0.05472*%
%ADD23R,0.05709X0.03937*%
%ADD24R,0.05118X0.05118*%
%ADD25R,0.05472X0.03583*%
%ADD26R,0.04724X0.07677*%
%ADD27R,0.06890X0.03740*%
%ADD28R,0.06890X0.12598*%
%ADD29R,0.05906X0.08858*%
%ADD30R,0.01968X0.02756*%
%ADD31R,0.01968X0.04134*%
%ADD32R,0.10236X0.07087*%
%ADD33R,0.14567X0.07087*%
%ADD34R,0.09055X0.06102*%
%ADD35R,0.12598X0.07284*%
%ADD36C,0.06000*%
D16*
X0013352Y0068701D02*
D03*
X0009612Y0076575D02*
D03*
X0017093D02*
D03*
D17*
X0035141Y0143307D02*
D03*
X0042621D02*
D03*
X0034843Y0076378D02*
D03*
X0027362D02*
D03*
X0034727Y0067306D02*
D03*
X0027247D02*
D03*
X0043077Y0110039D02*
D03*
X0050557D02*
D03*
X0117818Y0173228D02*
D03*
X0110338D02*
D03*
X0116912Y0192717D02*
D03*
X0124393D02*
D03*
D18*
X0052185Y0141732D02*
D03*
X0127382Y0180905D02*
D03*
D19*
X0056575Y0141732D02*
D03*
X0131772Y0180905D02*
D03*
D20*
X0102362Y0051690D02*
D03*
X0092362D02*
D03*
X0161973Y0068701D02*
D03*
D21*
X0097362Y0065391D02*
D03*
D22*
X0109272Y0183186D02*
D03*
X0115728D02*
D03*
X0130394Y0085925D02*
D03*
X0123937D02*
D03*
D23*
X0123917Y0069882D02*
D03*
Y0077362D02*
D03*
X0050295Y0098425D02*
D03*
Y0090945D02*
D03*
X0120768Y0102362D02*
D03*
Y0109843D02*
D03*
X0105118Y0103051D02*
D03*
Y0110531D02*
D03*
D24*
X0140320Y0073228D02*
D03*
Y0064173D02*
D03*
D25*
X0083858Y0184151D02*
D03*
Y0177694D02*
D03*
X0078740Y0057795D02*
D03*
Y0064252D02*
D03*
D26*
X0133366Y0047343D02*
D03*
X0143209D02*
D03*
X0153051D02*
D03*
X0133366Y0025098D02*
D03*
X0143209D02*
D03*
X0153051D02*
D03*
D27*
X0054921Y0180315D02*
D03*
Y0189370D02*
D03*
Y0198425D02*
D03*
D28*
X0030118Y0189370D02*
D03*
D29*
X0070472Y0197441D02*
D03*
Y0181299D02*
D03*
D30*
X0033316Y0110610D02*
D03*
D31*
Y0106220D02*
D03*
D32*
X0045768Y0162008D02*
D03*
X0058760D02*
D03*
D33*
X0081890Y0150869D02*
D03*
X0104331D02*
D03*
D34*
X0151738Y0194446D02*
D03*
X0134809D02*
D03*
D35*
X0104494Y0200526D02*
D03*
X0087565D02*
D03*
D36*
X0024412Y0128743D02*
D03*
X0088967Y0073265D02*
D03*
X0112519Y0080985D02*
D03*
X0120669Y0016043D02*
D03*
M02*
