G04*
G04 #@! TF.GenerationSoftware,Altium Limited,Altium Designer,20.2.7 (254)*
G04*
G04 Layer_Color=8388736*
%FSLAX43Y43*%
%MOMM*%
G71*
G04*
G04 #@! TF.SameCoordinates,D7959DAF-34B1-44DD-8309-E4C0A0F03333*
G04*
G04*
G04 #@! TF.FilePolarity,Negative*
G04*
G01*
G75*
%ADD16C,0.254*%
%ADD20R,1.200X1.200*%
%ADD29R,0.737X0.559*%
%ADD30R,0.559X0.737*%
%ADD35R,1.200X1.200*%
%ADD38R,1.113X1.593*%
%ADD39R,2.203X1.503*%
%ADD40R,2.203X2.203*%
%ADD41R,1.303X1.603*%
%ADD42R,2.453X1.703*%
%ADD43R,3.403X1.953*%
%ADD44R,1.153X1.953*%
%ADD45R,0.803X0.903*%
%ADD46R,1.203X1.653*%
%ADD47R,1.653X1.203*%
%ADD48R,0.903X0.803*%
%ADD49R,2.003X3.903*%
%ADD50R,1.593X1.113*%
%ADD51R,2.003X2.803*%
%ADD52R,2.053X3.403*%
%ADD53R,1.603X1.303*%
%ADD54R,2.503X1.753*%
%ADD55C,1.703*%
%ADD56R,1.703X1.703*%
%ADD57C,1.503*%
%ADD58C,1.853*%
%ADD59R,1.928X1.928*%
%ADD60C,1.928*%
%ADD61C,1.473*%
D16*
X60000Y0D02*
Y38000D01*
X0D02*
X60000D01*
X0Y0D02*
X60000D01*
X0D02*
Y38000D01*
D20*
X54637Y22303D02*
D03*
X52537D02*
D03*
X9368Y14754D02*
D03*
X7268D02*
D03*
X9343Y8437D02*
D03*
X7243D02*
D03*
D29*
X28991Y19308D02*
D03*
X27009Y18356D02*
D03*
Y20261D02*
D03*
D30*
X16821Y22667D02*
D03*
X15869Y24649D02*
D03*
X17774D02*
D03*
D35*
X31000Y29950D02*
D03*
Y32050D02*
D03*
D38*
X31180Y21525D02*
D03*
X32820D02*
D03*
X31820Y26000D02*
D03*
X30180D02*
D03*
X31130Y6851D02*
D03*
X32770D02*
D03*
D39*
X32443Y15575D02*
D03*
Y18115D02*
D03*
D40*
X35923Y16845D02*
D03*
D41*
X54462Y24712D02*
D03*
X52712D02*
D03*
X16871Y31340D02*
D03*
X18621D02*
D03*
D42*
X49875Y22958D02*
D03*
X45775D02*
D03*
D43*
X48000Y34150D02*
D03*
D44*
X50300Y27850D02*
D03*
X48000D02*
D03*
X45700D02*
D03*
D45*
X32934Y2322D02*
D03*
X34834D02*
D03*
X33884Y4322D02*
D03*
X41364Y8828D02*
D03*
X43264D02*
D03*
X42314Y10828D02*
D03*
D46*
X15094Y3745D02*
D03*
X16994D02*
D03*
X13332Y14754D02*
D03*
X11432D02*
D03*
X15259Y8487D02*
D03*
X17159D02*
D03*
X26532Y1812D02*
D03*
X28432D02*
D03*
X42284Y13709D02*
D03*
X44184D02*
D03*
X33629Y11309D02*
D03*
X31729D02*
D03*
X16994Y1441D02*
D03*
X15094D02*
D03*
X13332Y8487D02*
D03*
X11432D02*
D03*
X17159Y10827D02*
D03*
X15259D02*
D03*
X26532Y4267D02*
D03*
X28432D02*
D03*
X38698Y11538D02*
D03*
X36798D02*
D03*
X24900Y18613D02*
D03*
X23000D02*
D03*
Y20917D02*
D03*
X24900D02*
D03*
X38698Y9173D02*
D03*
X36798D02*
D03*
X33068Y9005D02*
D03*
X31168D02*
D03*
D47*
X20013Y22708D02*
D03*
Y24608D02*
D03*
X19317Y6983D02*
D03*
Y8883D02*
D03*
X22317Y24872D02*
D03*
Y22972D02*
D03*
D48*
X15044Y13850D02*
D03*
X17044Y12900D02*
D03*
Y14800D02*
D03*
D49*
X36946Y28150D02*
D03*
Y33850D02*
D03*
D50*
X42000Y30180D02*
D03*
Y31820D02*
D03*
D51*
X55000Y33650D02*
D03*
Y30350D02*
D03*
D52*
X23000Y28850D02*
D03*
Y33150D02*
D03*
D53*
X28000Y29875D02*
D03*
Y28125D02*
D03*
D54*
X17697Y28375D02*
D03*
X13397D02*
D03*
D55*
X29271Y8164D02*
D03*
Y10704D02*
D03*
Y13244D02*
D03*
Y15784D02*
D03*
X21651Y8164D02*
D03*
Y10704D02*
D03*
Y13244D02*
D03*
D56*
Y15784D02*
D03*
D57*
X52318Y17568D02*
D03*
Y9968D02*
D03*
D58*
X4238Y28375D02*
D03*
Y33375D02*
D03*
D59*
X2278Y2651D02*
D03*
D60*
X4818D02*
D03*
X7358D02*
D03*
X9898D02*
D03*
X12438D02*
D03*
D61*
X43292Y7239D02*
D03*
X54951Y27589D02*
D03*
X34394Y13162D02*
D03*
X31451Y13282D02*
D03*
X39582Y13282D02*
D03*
X16759Y21259D02*
D03*
X35280Y8400D02*
D03*
X34887Y1286D02*
D03*
X30110Y1919D02*
D03*
X26453Y6017D02*
D03*
X18726Y1483D02*
D03*
X18702Y3767D02*
D03*
X56419Y23556D02*
D03*
X5739Y6978D02*
D03*
X5806Y13305D02*
D03*
X47991Y25700D02*
D03*
X48003Y36201D02*
D03*
X42013Y33354D02*
D03*
X28662Y26064D02*
D03*
X36979Y36782D02*
D03*
X30000Y34000D02*
D03*
X22989Y36063D02*
D03*
M02*
