G04*
G04 #@! TF.GenerationSoftware,Altium Limited,Altium Designer,20.2.7 (254)*
G04*
G04 Layer_Physical_Order=2*
G04 Layer_Color=16711680*
%FSLAX43Y43*%
%MOMM*%
G71*
G04*
G04 #@! TF.SameCoordinates,D7959DAF-34B1-44DD-8309-E4C0A0F03333*
G04*
G04*
G04 #@! TF.FilePolarity,Positive*
G04*
G01*
G75*
%ADD16C,0.254*%
%ADD64C,1.500*%
%ADD65R,1.500X1.500*%
%ADD66C,1.300*%
%ADD67C,1.650*%
%ADD68R,1.725X1.725*%
%ADD69C,1.725*%
%ADD70C,1.270*%
G36*
X60000Y0D02*
X0D01*
Y38000D01*
X60000D01*
Y0D01*
D02*
G37*
%LPC*%
G36*
X37106Y37662D02*
Y36909D01*
X37859D01*
X37845Y37014D01*
X37756Y37231D01*
X37613Y37416D01*
X37427Y37559D01*
X37211Y37648D01*
X37106Y37662D01*
D02*
G37*
G36*
X36852D02*
X36747Y37648D01*
X36531Y37559D01*
X36345Y37416D01*
X36202Y37231D01*
X36113Y37014D01*
X36099Y36909D01*
X36852D01*
Y37662D01*
D02*
G37*
G36*
X48130Y37081D02*
Y36328D01*
X48883D01*
X48869Y36433D01*
X48779Y36649D01*
X48637Y36835D01*
X48451Y36978D01*
X48235Y37067D01*
X48130Y37081D01*
D02*
G37*
G36*
X47876D02*
X47771Y37067D01*
X47554Y36978D01*
X47369Y36835D01*
X47226Y36649D01*
X47136Y36433D01*
X47123Y36328D01*
X47876D01*
Y37081D01*
D02*
G37*
G36*
X23116Y36943D02*
Y36190D01*
X23869D01*
X23855Y36295D01*
X23765Y36511D01*
X23623Y36697D01*
X23437Y36839D01*
X23221Y36929D01*
X23116Y36943D01*
D02*
G37*
G36*
X22862D02*
X22757Y36929D01*
X22540Y36839D01*
X22355Y36697D01*
X22212Y36511D01*
X22123Y36295D01*
X22109Y36190D01*
X22862D01*
Y36943D01*
D02*
G37*
G36*
X37859Y36655D02*
X37106D01*
Y35902D01*
X37211Y35916D01*
X37427Y36006D01*
X37613Y36148D01*
X37756Y36334D01*
X37845Y36550D01*
X37859Y36655D01*
D02*
G37*
G36*
X36852D02*
X36099D01*
X36113Y36550D01*
X36202Y36334D01*
X36345Y36148D01*
X36531Y36006D01*
X36747Y35916D01*
X36852Y35902D01*
Y36655D01*
D02*
G37*
G36*
X48883Y36074D02*
X48130D01*
Y35321D01*
X48235Y35335D01*
X48451Y35424D01*
X48637Y35567D01*
X48779Y35753D01*
X48869Y35969D01*
X48883Y36074D01*
D02*
G37*
G36*
X47876D02*
X47123D01*
X47136Y35969D01*
X47226Y35753D01*
X47369Y35567D01*
X47554Y35424D01*
X47771Y35335D01*
X47876Y35321D01*
Y36074D01*
D02*
G37*
G36*
X23869Y35936D02*
X23116D01*
Y35183D01*
X23221Y35196D01*
X23437Y35286D01*
X23623Y35429D01*
X23765Y35614D01*
X23855Y35831D01*
X23869Y35936D01*
D02*
G37*
G36*
X22862D02*
X22109D01*
X22123Y35831D01*
X22212Y35614D01*
X22355Y35429D01*
X22540Y35286D01*
X22757Y35196D01*
X22862Y35183D01*
Y35936D01*
D02*
G37*
G36*
X30127Y34880D02*
Y34127D01*
X30880D01*
X30866Y34232D01*
X30777Y34448D01*
X30634Y34634D01*
X30448Y34777D01*
X30232Y34866D01*
X30127Y34880D01*
D02*
G37*
G36*
X29873D02*
X29768Y34866D01*
X29552Y34777D01*
X29366Y34634D01*
X29223Y34448D01*
X29134Y34232D01*
X29120Y34127D01*
X29873D01*
Y34880D01*
D02*
G37*
G36*
X4365Y34447D02*
Y33502D01*
X5309D01*
X5289Y33657D01*
X5180Y33920D01*
X5007Y34145D01*
X4782Y34318D01*
X4519Y34427D01*
X4365Y34447D01*
D02*
G37*
G36*
X4111D02*
X3956Y34427D01*
X3693Y34318D01*
X3468Y34145D01*
X3295Y33920D01*
X3186Y33657D01*
X3166Y33502D01*
X4111D01*
Y34447D01*
D02*
G37*
G36*
X42140Y34234D02*
Y33481D01*
X42893D01*
X42879Y33586D01*
X42790Y33803D01*
X42647Y33988D01*
X42461Y34131D01*
X42245Y34220D01*
X42140Y34234D01*
D02*
G37*
G36*
X41886D02*
X41781Y34220D01*
X41565Y34131D01*
X41379Y33988D01*
X41236Y33803D01*
X41147Y33586D01*
X41133Y33481D01*
X41886D01*
Y34234D01*
D02*
G37*
G36*
X30880Y33873D02*
X30127D01*
Y33120D01*
X30232Y33134D01*
X30448Y33223D01*
X30634Y33366D01*
X30777Y33552D01*
X30866Y33768D01*
X30880Y33873D01*
D02*
G37*
G36*
X29873D02*
X29120D01*
X29134Y33768D01*
X29223Y33552D01*
X29366Y33366D01*
X29552Y33223D01*
X29768Y33134D01*
X29873Y33120D01*
Y33873D01*
D02*
G37*
G36*
X42893Y33227D02*
X42140D01*
Y32474D01*
X42245Y32488D01*
X42461Y32578D01*
X42647Y32720D01*
X42790Y32906D01*
X42879Y33122D01*
X42893Y33227D01*
D02*
G37*
G36*
X41886D02*
X41133D01*
X41147Y33122D01*
X41236Y32906D01*
X41379Y32720D01*
X41565Y32578D01*
X41781Y32488D01*
X41886Y32474D01*
Y33227D01*
D02*
G37*
G36*
X5309Y33248D02*
X4365D01*
Y32304D01*
X4519Y32324D01*
X4782Y32433D01*
X5007Y32606D01*
X5180Y32831D01*
X5289Y33094D01*
X5309Y33248D01*
D02*
G37*
G36*
X4111D02*
X3166D01*
X3186Y33094D01*
X3295Y32831D01*
X3468Y32606D01*
X3693Y32433D01*
X3956Y32324D01*
X4111Y32304D01*
Y33248D01*
D02*
G37*
G36*
X55078Y28469D02*
Y27716D01*
X55831D01*
X55817Y27821D01*
X55728Y28038D01*
X55585Y28223D01*
X55400Y28366D01*
X55183Y28455D01*
X55078Y28469D01*
D02*
G37*
G36*
X54824D02*
X54719Y28455D01*
X54503Y28366D01*
X54317Y28223D01*
X54175Y28038D01*
X54085Y27821D01*
X54071Y27716D01*
X54824D01*
Y28469D01*
D02*
G37*
G36*
X4238Y29464D02*
X3956Y29427D01*
X3693Y29318D01*
X3468Y29145D01*
X3295Y28920D01*
X3186Y28657D01*
X3149Y28375D01*
X3186Y28094D01*
X3295Y27831D01*
X3468Y27606D01*
X3693Y27433D01*
X3956Y27324D01*
X4238Y27287D01*
X4519Y27324D01*
X4782Y27433D01*
X5007Y27606D01*
X5180Y27831D01*
X5289Y28094D01*
X5326Y28375D01*
X5289Y28657D01*
X5180Y28920D01*
X5007Y29145D01*
X4782Y29318D01*
X4519Y29427D01*
X4238Y29464D01*
D02*
G37*
G36*
X55831Y27462D02*
X55078D01*
Y26709D01*
X55183Y26723D01*
X55400Y26813D01*
X55585Y26955D01*
X55728Y27141D01*
X55817Y27357D01*
X55831Y27462D01*
D02*
G37*
G36*
X54824D02*
X54071D01*
X54085Y27357D01*
X54175Y27141D01*
X54317Y26955D01*
X54503Y26813D01*
X54719Y26723D01*
X54824Y26709D01*
Y27462D01*
D02*
G37*
G36*
X28789Y26944D02*
Y26191D01*
X29542D01*
X29528Y26296D01*
X29438Y26512D01*
X29296Y26698D01*
X29110Y26840D01*
X28894Y26930D01*
X28789Y26944D01*
D02*
G37*
G36*
X28535D02*
X28430Y26930D01*
X28213Y26840D01*
X28028Y26698D01*
X27885Y26512D01*
X27796Y26296D01*
X27782Y26191D01*
X28535D01*
Y26944D01*
D02*
G37*
G36*
X48118Y26580D02*
Y25827D01*
X48871D01*
X48857Y25932D01*
X48767Y26148D01*
X48625Y26334D01*
X48439Y26477D01*
X48223Y26566D01*
X48118Y26580D01*
D02*
G37*
G36*
X47864D02*
X47759Y26566D01*
X47543Y26477D01*
X47357Y26334D01*
X47214Y26148D01*
X47125Y25932D01*
X47111Y25827D01*
X47864D01*
Y26580D01*
D02*
G37*
G36*
X29542Y25937D02*
X28789D01*
Y25184D01*
X28894Y25198D01*
X29110Y25287D01*
X29296Y25430D01*
X29438Y25615D01*
X29528Y25832D01*
X29542Y25937D01*
D02*
G37*
G36*
X28535D02*
X27782D01*
X27796Y25832D01*
X27885Y25615D01*
X28028Y25430D01*
X28213Y25287D01*
X28430Y25198D01*
X28535Y25184D01*
Y25937D01*
D02*
G37*
G36*
X48871Y25573D02*
X48118D01*
Y24820D01*
X48223Y24834D01*
X48439Y24923D01*
X48625Y25066D01*
X48767Y25252D01*
X48857Y25468D01*
X48871Y25573D01*
D02*
G37*
G36*
X47864D02*
X47111D01*
X47125Y25468D01*
X47214Y25252D01*
X47357Y25066D01*
X47543Y24923D01*
X47759Y24834D01*
X47864Y24820D01*
Y25573D01*
D02*
G37*
G36*
X56546Y24436D02*
Y23683D01*
X57299D01*
X57285Y23788D01*
X57196Y24004D01*
X57053Y24190D01*
X56867Y24332D01*
X56651Y24422D01*
X56546Y24436D01*
D02*
G37*
G36*
X56292D02*
X56187Y24422D01*
X55971Y24332D01*
X55785Y24190D01*
X55643Y24004D01*
X55553Y23788D01*
X55539Y23683D01*
X56292D01*
Y24436D01*
D02*
G37*
G36*
X57299Y23429D02*
X56546D01*
Y22676D01*
X56651Y22690D01*
X56867Y22779D01*
X57053Y22922D01*
X57196Y23108D01*
X57285Y23324D01*
X57299Y23429D01*
D02*
G37*
G36*
X56292D02*
X55539D01*
X55553Y23324D01*
X55643Y23108D01*
X55785Y22922D01*
X55971Y22779D01*
X56187Y22690D01*
X56292Y22676D01*
Y23429D01*
D02*
G37*
G36*
X52318Y18479D02*
X52082Y18448D01*
X51862Y18357D01*
X51673Y18212D01*
X51528Y18024D01*
X51437Y17804D01*
X51406Y17568D01*
X51437Y17332D01*
X51528Y17112D01*
X51673Y16923D01*
X51862Y16778D01*
X52082Y16687D01*
X52318Y16656D01*
X52554Y16687D01*
X52774Y16778D01*
X52963Y16923D01*
X53108Y17112D01*
X53199Y17332D01*
X53230Y17568D01*
X53199Y17804D01*
X53108Y18024D01*
X52963Y18212D01*
X52774Y18357D01*
X52554Y18448D01*
X52318Y18479D01*
D02*
G37*
G36*
X29398Y16780D02*
Y15911D01*
X30267D01*
X30250Y16046D01*
X30148Y16290D01*
X29987Y16500D01*
X29778Y16661D01*
X29533Y16762D01*
X29398Y16780D01*
D02*
G37*
G36*
X22655Y16788D02*
X20647D01*
Y14780D01*
X22655D01*
Y16788D01*
D02*
G37*
G36*
X5933Y14185D02*
Y13432D01*
X6685D01*
X6672Y13537D01*
X6582Y13753D01*
X6440Y13939D01*
X6254Y14082D01*
X6038Y14171D01*
X5933Y14185D01*
D02*
G37*
G36*
X5679D02*
X5573Y14171D01*
X5357Y14082D01*
X5172Y13939D01*
X5029Y13753D01*
X4939Y13537D01*
X4926Y13432D01*
X5679D01*
Y14185D01*
D02*
G37*
G36*
X39709Y14162D02*
Y13409D01*
X40462D01*
X40448Y13514D01*
X40359Y13730D01*
X40216Y13916D01*
X40030Y14058D01*
X39814Y14148D01*
X39709Y14162D01*
D02*
G37*
G36*
X39455D02*
X39350Y14148D01*
X39134Y14058D01*
X38948Y13916D01*
X38805Y13730D01*
X38716Y13514D01*
X38702Y13409D01*
X39455D01*
Y14162D01*
D02*
G37*
G36*
X6685Y13178D02*
X5933D01*
Y12425D01*
X6038Y12439D01*
X6254Y12528D01*
X6440Y12671D01*
X6582Y12857D01*
X6672Y13073D01*
X6685Y13178D01*
D02*
G37*
G36*
X5679D02*
X4926D01*
X4939Y13073D01*
X5029Y12857D01*
X5172Y12671D01*
X5357Y12528D01*
X5573Y12439D01*
X5679Y12425D01*
Y13178D01*
D02*
G37*
G36*
X40462Y13155D02*
X39709D01*
Y12402D01*
X39814Y12415D01*
X40030Y12505D01*
X40216Y12648D01*
X40359Y12833D01*
X40448Y13050D01*
X40462Y13155D01*
D02*
G37*
G36*
X39455D02*
X38702D01*
X38716Y13050D01*
X38805Y12833D01*
X38948Y12648D01*
X39134Y12505D01*
X39350Y12415D01*
X39455Y12402D01*
Y13155D01*
D02*
G37*
G36*
X16759Y22155D02*
X16527Y22125D01*
X16311Y22035D01*
X16125Y21893D01*
X15983Y21707D01*
X15893Y21491D01*
X15863Y21259D01*
X15893Y21027D01*
X15983Y20810D01*
X16125Y20625D01*
X16311Y20482D01*
X16527Y20393D01*
X16759Y20362D01*
X16991Y20393D01*
X17208Y20482D01*
X17393Y20625D01*
X17536Y20810D01*
X17561Y20870D01*
X22052D01*
X25202Y17720D01*
X25233Y17673D01*
X28528Y14378D01*
X28654Y14294D01*
X28675Y14290D01*
X28770Y14144D01*
X28765Y14121D01*
X28555Y13960D01*
X28394Y13750D01*
X28293Y13506D01*
X28259Y13244D01*
X28293Y12982D01*
X28394Y12737D01*
X28555Y12528D01*
X28765Y12367D01*
X29009Y12266D01*
X29271Y12231D01*
X29533Y12266D01*
X29651Y12314D01*
X29975Y11991D01*
X30101Y11907D01*
X30250Y11877D01*
X33498D01*
X33646Y11907D01*
X33772Y11991D01*
X34102Y12320D01*
X34162Y12296D01*
X34394Y12265D01*
X34626Y12296D01*
X34842Y12385D01*
X35028Y12528D01*
X35170Y12713D01*
X35260Y12930D01*
X35290Y13162D01*
X35260Y13394D01*
X35170Y13610D01*
X35028Y13796D01*
X34842Y13938D01*
X34626Y14028D01*
X34394Y14058D01*
X34162Y14028D01*
X33945Y13938D01*
X33760Y13796D01*
X33617Y13610D01*
X33528Y13394D01*
X33497Y13162D01*
X33528Y12930D01*
X33552Y12870D01*
X33337Y12654D01*
X32234D01*
X32178Y12768D01*
X32228Y12833D01*
X32317Y13050D01*
X32348Y13282D01*
X32317Y13514D01*
X32228Y13730D01*
X32085Y13916D01*
X31900Y14058D01*
X31683Y14148D01*
X31451Y14178D01*
X31219Y14148D01*
X31084Y14092D01*
X30248Y14928D01*
X30122Y15012D01*
X30107Y15015D01*
X30054Y15155D01*
X30148Y15277D01*
X30250Y15522D01*
X30267Y15657D01*
X29271D01*
Y15784D01*
X29144D01*
Y16780D01*
X29009Y16762D01*
X28765Y16661D01*
X28555Y16500D01*
X28394Y16290D01*
X28293Y16046D01*
X28275Y15909D01*
X28141Y15864D01*
X25814Y18191D01*
X25782Y18238D01*
X22487Y21533D01*
X22361Y21618D01*
X22213Y21647D01*
X17561D01*
X17536Y21707D01*
X17393Y21893D01*
X17208Y22035D01*
X16991Y22125D01*
X16759Y22155D01*
D02*
G37*
G36*
X21651Y14256D02*
X21389Y14222D01*
X21145Y14121D01*
X20935Y13960D01*
X20774Y13750D01*
X20673Y13506D01*
X20639Y13244D01*
X20673Y12982D01*
X20774Y12737D01*
X20935Y12528D01*
X21145Y12367D01*
X21389Y12266D01*
X21651Y12231D01*
X21913Y12266D01*
X22158Y12367D01*
X22367Y12528D01*
X22528Y12737D01*
X22630Y12982D01*
X22664Y13244D01*
X22630Y13506D01*
X22528Y13750D01*
X22367Y13960D01*
X22158Y14121D01*
X21913Y14222D01*
X21651Y14256D01*
D02*
G37*
G36*
X29271Y11716D02*
X29009Y11682D01*
X28765Y11581D01*
X28555Y11420D01*
X28394Y11210D01*
X28293Y10966D01*
X28259Y10704D01*
X28293Y10442D01*
X28394Y10197D01*
X28555Y9988D01*
X28765Y9827D01*
X29009Y9726D01*
X29271Y9691D01*
X29533Y9726D01*
X29778Y9827D01*
X29987Y9988D01*
X30148Y10197D01*
X30250Y10442D01*
X30284Y10704D01*
X30250Y10966D01*
X30148Y11210D01*
X29987Y11420D01*
X29778Y11581D01*
X29533Y11682D01*
X29271Y11716D01*
D02*
G37*
G36*
X52318Y10879D02*
X52082Y10848D01*
X51862Y10757D01*
X51673Y10612D01*
X51528Y10424D01*
X51437Y10204D01*
X51406Y9968D01*
X51437Y9732D01*
X51528Y9512D01*
X51673Y9323D01*
X51862Y9178D01*
X52082Y9087D01*
X52318Y9056D01*
X52554Y9087D01*
X52774Y9178D01*
X52963Y9323D01*
X53108Y9512D01*
X53199Y9732D01*
X53230Y9968D01*
X53199Y10204D01*
X53108Y10424D01*
X52963Y10612D01*
X52774Y10757D01*
X52554Y10848D01*
X52318Y10879D01*
D02*
G37*
G36*
X35280Y9296D02*
X35048Y9266D01*
X34832Y9176D01*
X34646Y9034D01*
X34504Y8848D01*
X34430Y8670D01*
X30148D01*
X30148Y8670D01*
X29987Y8880D01*
X29778Y9041D01*
X29533Y9142D01*
X29271Y9176D01*
X29009Y9142D01*
X28765Y9041D01*
X28555Y8880D01*
X28394Y8670D01*
X28293Y8426D01*
X28259Y8164D01*
X28293Y7902D01*
X28394Y7657D01*
X28555Y7448D01*
X28765Y7287D01*
X29009Y7186D01*
X29271Y7151D01*
X29533Y7186D01*
X29778Y7287D01*
X29987Y7448D01*
X30148Y7657D01*
X30246Y7893D01*
X34548D01*
X34646Y7765D01*
X34832Y7623D01*
X35048Y7533D01*
X35280Y7503D01*
X35512Y7533D01*
X35729Y7623D01*
X35914Y7765D01*
X36057Y7951D01*
X36146Y8167D01*
X36177Y8400D01*
X36146Y8632D01*
X36057Y8848D01*
X35914Y9034D01*
X35729Y9176D01*
X35512Y9266D01*
X35280Y9296D01*
D02*
G37*
G36*
X43419Y8119D02*
Y7366D01*
X44172D01*
X44158Y7471D01*
X44068Y7687D01*
X43926Y7873D01*
X43740Y8016D01*
X43524Y8105D01*
X43419Y8119D01*
D02*
G37*
G36*
X43165D02*
X43060Y8105D01*
X42843Y8016D01*
X42658Y7873D01*
X42515Y7687D01*
X42425Y7471D01*
X42412Y7366D01*
X43165D01*
Y8119D01*
D02*
G37*
G36*
X21651Y9176D02*
X21389Y9142D01*
X21145Y9041D01*
X20935Y8880D01*
X20774Y8670D01*
X20673Y8426D01*
X20639Y8164D01*
X20673Y7902D01*
X20774Y7657D01*
X20935Y7448D01*
X21145Y7287D01*
X21389Y7186D01*
X21651Y7151D01*
X21913Y7186D01*
X22158Y7287D01*
X22367Y7448D01*
X22528Y7657D01*
X22630Y7902D01*
X22664Y8164D01*
X22630Y8426D01*
X22528Y8670D01*
X22367Y8880D01*
X22158Y9041D01*
X21913Y9142D01*
X21651Y9176D01*
D02*
G37*
G36*
X5866Y7858D02*
Y7105D01*
X6619D01*
X6605Y7210D01*
X6515Y7427D01*
X6373Y7612D01*
X6187Y7755D01*
X5971Y7844D01*
X5866Y7858D01*
D02*
G37*
G36*
X5612D02*
X5507Y7844D01*
X5291Y7755D01*
X5105Y7612D01*
X4962Y7427D01*
X4873Y7210D01*
X4859Y7105D01*
X5612D01*
Y7858D01*
D02*
G37*
G36*
X44172Y7112D02*
X43419D01*
Y6359D01*
X43524Y6373D01*
X43740Y6463D01*
X43926Y6605D01*
X44068Y6791D01*
X44158Y7007D01*
X44172Y7112D01*
D02*
G37*
G36*
X43165D02*
X42412D01*
X42425Y7007D01*
X42515Y6791D01*
X42658Y6605D01*
X42843Y6463D01*
X43060Y6373D01*
X43165Y6359D01*
Y7112D01*
D02*
G37*
G36*
X6619Y6851D02*
X5866D01*
Y6098D01*
X5971Y6112D01*
X6187Y6202D01*
X6373Y6344D01*
X6515Y6530D01*
X6605Y6746D01*
X6619Y6851D01*
D02*
G37*
G36*
X5612D02*
X4859D01*
X4873Y6746D01*
X4962Y6530D01*
X5105Y6344D01*
X5291Y6202D01*
X5507Y6112D01*
X5612Y6098D01*
Y6851D01*
D02*
G37*
G36*
X21651Y11716D02*
X21389Y11682D01*
X21145Y11581D01*
X20935Y11420D01*
X20774Y11210D01*
X20673Y10966D01*
X20639Y10704D01*
X20673Y10442D01*
X20774Y10197D01*
X20935Y9988D01*
X21145Y9827D01*
X21389Y9726D01*
X21651Y9691D01*
X21913Y9726D01*
X22072Y9791D01*
X25595Y6269D01*
X25587Y6249D01*
X25556Y6017D01*
X25587Y5785D01*
X25676Y5569D01*
X25819Y5383D01*
X26005Y5241D01*
X26221Y5151D01*
X26453Y5121D01*
X26685Y5151D01*
X26901Y5241D01*
X27087Y5383D01*
X27229Y5569D01*
X27319Y5785D01*
X27350Y6017D01*
X27319Y6249D01*
X27229Y6466D01*
X27087Y6651D01*
X26901Y6794D01*
X26685Y6883D01*
X26453Y6914D01*
X26221Y6883D01*
X26120Y6842D01*
X22598Y10365D01*
X22630Y10442D01*
X22664Y10704D01*
X22630Y10966D01*
X22528Y11210D01*
X22367Y11420D01*
X22158Y11581D01*
X21913Y11682D01*
X21651Y11716D01*
D02*
G37*
G36*
X18829Y4647D02*
Y3894D01*
X19582D01*
X19568Y3999D01*
X19479Y4215D01*
X19336Y4401D01*
X19150Y4543D01*
X18934Y4633D01*
X18829Y4647D01*
D02*
G37*
G36*
X18575D02*
X18470Y4633D01*
X18254Y4543D01*
X18068Y4401D01*
X17926Y4215D01*
X17836Y3999D01*
X17822Y3894D01*
X18575D01*
Y4647D01*
D02*
G37*
G36*
X19582Y3640D02*
X18829D01*
Y2887D01*
X18934Y2901D01*
X19150Y2990D01*
X19336Y3133D01*
X19479Y3318D01*
X19568Y3535D01*
X19582Y3640D01*
D02*
G37*
G36*
X18575D02*
X17822D01*
X17836Y3535D01*
X17926Y3318D01*
X18068Y3133D01*
X18254Y2990D01*
X18470Y2901D01*
X18575Y2887D01*
Y3640D01*
D02*
G37*
G36*
X7485Y3761D02*
Y2778D01*
X8468D01*
X8446Y2943D01*
X8333Y3214D01*
X8154Y3448D01*
X7921Y3626D01*
X7650Y3739D01*
X7485Y3761D01*
D02*
G37*
G36*
X7231D02*
X7067Y3739D01*
X6795Y3626D01*
X6562Y3448D01*
X6383Y3214D01*
X6270Y2943D01*
X6249Y2778D01*
X7231D01*
Y3761D01*
D02*
G37*
G36*
X30237Y2799D02*
Y2046D01*
X30990D01*
X30976Y2151D01*
X30886Y2367D01*
X30744Y2553D01*
X30558Y2696D01*
X30342Y2785D01*
X30237Y2799D01*
D02*
G37*
G36*
X29983D02*
X29878Y2785D01*
X29661Y2696D01*
X29476Y2553D01*
X29333Y2367D01*
X29244Y2151D01*
X29230Y2046D01*
X29983D01*
Y2799D01*
D02*
G37*
G36*
X18853Y2363D02*
Y1610D01*
X19606D01*
X19592Y1715D01*
X19502Y1931D01*
X19360Y2117D01*
X19174Y2259D01*
X18958Y2349D01*
X18853Y2363D01*
D02*
G37*
G36*
X18599D02*
X18494Y2349D01*
X18277Y2259D01*
X18092Y2117D01*
X17949Y1931D01*
X17860Y1715D01*
X17846Y1610D01*
X18599D01*
Y2363D01*
D02*
G37*
G36*
X8468Y2524D02*
X7485D01*
Y1542D01*
X7650Y1563D01*
X7921Y1676D01*
X8154Y1855D01*
X8333Y2088D01*
X8446Y2360D01*
X8468Y2524D01*
D02*
G37*
G36*
X7231D02*
X6249D01*
X6270Y2360D01*
X6383Y2088D01*
X6562Y1855D01*
X6795Y1676D01*
X7067Y1563D01*
X7231Y1542D01*
Y2524D01*
D02*
G37*
G36*
X3395Y3768D02*
X1162D01*
Y1535D01*
X3395D01*
Y3768D01*
D02*
G37*
G36*
X12438Y3777D02*
X12147Y3739D01*
X11875Y3626D01*
X11642Y3448D01*
X11463Y3214D01*
X11350Y2943D01*
X11312Y2651D01*
X11350Y2360D01*
X11463Y2088D01*
X11642Y1855D01*
X11875Y1676D01*
X12147Y1563D01*
X12438Y1525D01*
X12730Y1563D01*
X13001Y1676D01*
X13234Y1855D01*
X13413Y2088D01*
X13526Y2360D01*
X13564Y2651D01*
X13526Y2943D01*
X13413Y3214D01*
X13234Y3448D01*
X13001Y3626D01*
X12730Y3739D01*
X12438Y3777D01*
D02*
G37*
G36*
X9898D02*
X9607Y3739D01*
X9335Y3626D01*
X9102Y3448D01*
X8923Y3214D01*
X8810Y2943D01*
X8772Y2651D01*
X8810Y2360D01*
X8923Y2088D01*
X9102Y1855D01*
X9335Y1676D01*
X9607Y1563D01*
X9898Y1525D01*
X10190Y1563D01*
X10461Y1676D01*
X10694Y1855D01*
X10873Y2088D01*
X10986Y2360D01*
X11024Y2651D01*
X10986Y2943D01*
X10873Y3214D01*
X10694Y3448D01*
X10461Y3626D01*
X10190Y3739D01*
X9898Y3777D01*
D02*
G37*
G36*
X4818D02*
X4527Y3739D01*
X4255Y3626D01*
X4022Y3448D01*
X3843Y3214D01*
X3730Y2943D01*
X3692Y2651D01*
X3730Y2360D01*
X3843Y2088D01*
X4022Y1855D01*
X4255Y1676D01*
X4527Y1563D01*
X4818Y1525D01*
X5110Y1563D01*
X5381Y1676D01*
X5614Y1855D01*
X5793Y2088D01*
X5906Y2360D01*
X5944Y2651D01*
X5906Y2943D01*
X5793Y3214D01*
X5614Y3448D01*
X5381Y3626D01*
X5110Y3739D01*
X4818Y3777D01*
D02*
G37*
G36*
X35014Y2166D02*
Y1413D01*
X35767D01*
X35753Y1518D01*
X35663Y1734D01*
X35521Y1920D01*
X35335Y2062D01*
X35119Y2152D01*
X35014Y2166D01*
D02*
G37*
G36*
X34760D02*
X34655Y2152D01*
X34439Y2062D01*
X34253Y1920D01*
X34110Y1734D01*
X34021Y1518D01*
X34007Y1413D01*
X34760D01*
Y2166D01*
D02*
G37*
G36*
X30990Y1792D02*
X30237D01*
Y1039D01*
X30342Y1053D01*
X30558Y1143D01*
X30744Y1285D01*
X30886Y1471D01*
X30976Y1687D01*
X30990Y1792D01*
D02*
G37*
G36*
X29983D02*
X29230D01*
X29244Y1687D01*
X29333Y1471D01*
X29476Y1285D01*
X29661Y1143D01*
X29878Y1053D01*
X29983Y1039D01*
Y1792D01*
D02*
G37*
G36*
X19606Y1356D02*
X18853D01*
Y603D01*
X18958Y617D01*
X19174Y706D01*
X19360Y849D01*
X19502Y1035D01*
X19592Y1251D01*
X19606Y1356D01*
D02*
G37*
G36*
X18599D02*
X17846D01*
X17860Y1251D01*
X17949Y1035D01*
X18092Y849D01*
X18277Y706D01*
X18494Y617D01*
X18599Y603D01*
Y1356D01*
D02*
G37*
G36*
X35767Y1159D02*
X35014D01*
Y406D01*
X35119Y420D01*
X35335Y509D01*
X35521Y652D01*
X35663Y837D01*
X35753Y1054D01*
X35767Y1159D01*
D02*
G37*
G36*
X34760D02*
X34007D01*
X34021Y1054D01*
X34110Y837D01*
X34253Y652D01*
X34439Y509D01*
X34655Y420D01*
X34760Y406D01*
Y1159D01*
D02*
G37*
%LPD*%
D16*
X30250Y12266D02*
X33498D01*
X34394Y13162D01*
X29271Y13244D02*
X30250Y12266D01*
X26395Y6017D02*
X26453D01*
X21709Y10704D02*
X26395Y6017D01*
X21651Y10704D02*
X21709D01*
X29389Y8282D02*
X35162D01*
X29271Y8164D02*
X29389Y8282D01*
X35162D02*
X35280Y8400D01*
X28803Y14653D02*
X29974D01*
X25508Y17948D02*
X28803Y14653D01*
X25508Y17948D02*
Y17964D01*
X22213Y21259D02*
X25508Y17964D01*
X29974Y14653D02*
X31345Y13282D01*
X31451D01*
X16759Y21259D02*
X22213D01*
X60000Y0D02*
Y38000D01*
X0D02*
X60000D01*
X0Y0D02*
X60000D01*
X0D02*
Y38000D01*
D64*
X29271Y8164D02*
D03*
Y10704D02*
D03*
Y13244D02*
D03*
Y15784D02*
D03*
X21651Y8164D02*
D03*
Y10704D02*
D03*
Y13244D02*
D03*
D65*
Y15784D02*
D03*
D66*
X52318Y17568D02*
D03*
Y9968D02*
D03*
D67*
X4238Y28375D02*
D03*
Y33375D02*
D03*
D68*
X2278Y2651D02*
D03*
D69*
X4818D02*
D03*
X7358D02*
D03*
X9898D02*
D03*
X12438D02*
D03*
D70*
X43292Y7239D02*
D03*
X54951Y27589D02*
D03*
X34394Y13162D02*
D03*
X31451Y13282D02*
D03*
X39582Y13282D02*
D03*
X16759Y21259D02*
D03*
X35280Y8400D02*
D03*
X34887Y1286D02*
D03*
X30110Y1919D02*
D03*
X26453Y6017D02*
D03*
X18726Y1483D02*
D03*
X18702Y3767D02*
D03*
X56419Y23556D02*
D03*
X5739Y6978D02*
D03*
X5806Y13305D02*
D03*
X47991Y25700D02*
D03*
X48003Y36201D02*
D03*
X42013Y33354D02*
D03*
X28662Y26064D02*
D03*
X36979Y36782D02*
D03*
X30000Y34000D02*
D03*
X22989Y36063D02*
D03*
M02*
