G04*
G04 #@! TF.GenerationSoftware,Altium Limited,Altium Designer,20.2.7 (254)*
G04*
G04 Layer_Color=16711935*
%FSLAX43Y43*%
%MOMM*%
G71*
G04*
G04 #@! TF.SameCoordinates,D7959DAF-34B1-44DD-8309-E4C0A0F03333*
G04*
G04*
G04 #@! TF.FilePolarity,Negative*
G04*
G01*
G75*
%ADD16C,0.254*%
%ADD55C,1.703*%
%ADD56R,1.703X1.703*%
%ADD57C,1.503*%
%ADD58C,1.853*%
%ADD59R,1.928X1.928*%
%ADD60C,1.928*%
%ADD61C,1.473*%
D16*
X60000Y0D02*
Y38000D01*
X0D02*
X60000D01*
X0Y0D02*
X60000D01*
X0D02*
Y38000D01*
D55*
X29271Y8164D02*
D03*
Y10704D02*
D03*
Y13244D02*
D03*
Y15784D02*
D03*
X21651Y8164D02*
D03*
Y10704D02*
D03*
Y13244D02*
D03*
D56*
Y15784D02*
D03*
D57*
X52318Y17568D02*
D03*
Y9968D02*
D03*
D58*
X4238Y28375D02*
D03*
Y33375D02*
D03*
D59*
X2278Y2651D02*
D03*
D60*
X4818D02*
D03*
X7358D02*
D03*
X9898D02*
D03*
X12438D02*
D03*
D61*
X43292Y7239D02*
D03*
X54951Y27589D02*
D03*
X34394Y13162D02*
D03*
X31451Y13282D02*
D03*
X39582Y13282D02*
D03*
X16759Y21259D02*
D03*
X35280Y8400D02*
D03*
X34887Y1286D02*
D03*
X30110Y1919D02*
D03*
X26453Y6017D02*
D03*
X18726Y1483D02*
D03*
X18702Y3767D02*
D03*
X56419Y23556D02*
D03*
X5739Y6978D02*
D03*
X5806Y13305D02*
D03*
X47991Y25700D02*
D03*
X48003Y36201D02*
D03*
X42013Y33354D02*
D03*
X28662Y26064D02*
D03*
X36979Y36782D02*
D03*
X30000Y34000D02*
D03*
X22989Y36063D02*
D03*
M02*
