G04*
G04 #@! TF.GenerationSoftware,Altium Limited,Altium Designer,20.2.7 (254)*
G04*
G04 Layer_Color=255*
%FSLAX43Y43*%
%MOMM*%
G71*
G04*
G04 #@! TF.SameCoordinates,D7959DAF-34B1-44DD-8309-E4C0A0F03333*
G04*
G04*
G04 #@! TF.FilePolarity,Positive*
G04*
G01*
G75*
%ADD16C,0.254*%
%ADD17R,0.910X1.390*%
%ADD18R,2.000X1.300*%
%ADD19R,2.000X2.000*%
%ADD20R,1.200X1.200*%
%ADD21R,1.100X1.400*%
%ADD22R,2.250X1.500*%
%ADD23R,3.200X1.750*%
%ADD24R,0.950X1.750*%
%ADD25R,0.600X0.700*%
%ADD26R,1.000X1.450*%
%ADD27R,1.450X1.000*%
%ADD29R,0.737X0.559*%
%ADD30R,0.559X0.737*%
%ADD31R,1.800X3.700*%
%ADD32R,1.390X0.910*%
%ADD33R,1.800X2.600*%
%ADD34R,1.850X3.200*%
%ADD35R,1.200X1.200*%
%ADD36R,1.400X1.100*%
%ADD37R,2.300X1.550*%
%ADD62R,0.700X0.600*%
%ADD64C,1.500*%
%ADD65R,1.500X1.500*%
%ADD66C,1.300*%
%ADD67C,1.650*%
%ADD68R,1.725X1.725*%
%ADD69C,1.725*%
D16*
X60000Y0D02*
Y38000D01*
X0D02*
X60000D01*
X0Y0D02*
X60000D01*
X0D02*
Y38000D01*
D17*
X31180Y21525D02*
D03*
X32820D02*
D03*
X31820Y26000D02*
D03*
X30180D02*
D03*
X31130Y6851D02*
D03*
X32770D02*
D03*
D18*
X32443Y15575D02*
D03*
Y18115D02*
D03*
D19*
X35923Y16845D02*
D03*
D20*
X54637Y22303D02*
D03*
X52537D02*
D03*
X9368Y14754D02*
D03*
X7268D02*
D03*
X9343Y8437D02*
D03*
X7243D02*
D03*
D21*
X54462Y24712D02*
D03*
X52712D02*
D03*
X16871Y31340D02*
D03*
X18621D02*
D03*
D22*
X49875Y22958D02*
D03*
X45775D02*
D03*
D23*
X48000Y34150D02*
D03*
D24*
X50300Y27850D02*
D03*
X48000D02*
D03*
X45700D02*
D03*
D25*
X32934Y2322D02*
D03*
X34834D02*
D03*
X33884Y4322D02*
D03*
X41364Y8828D02*
D03*
X43264D02*
D03*
X42314Y10828D02*
D03*
D26*
X15094Y3745D02*
D03*
X16994D02*
D03*
X13332Y14754D02*
D03*
X11432D02*
D03*
X15259Y8487D02*
D03*
X17159D02*
D03*
X26532Y1812D02*
D03*
X28432D02*
D03*
X42284Y13709D02*
D03*
X44184D02*
D03*
X33629Y11309D02*
D03*
X31729D02*
D03*
X16994Y1441D02*
D03*
X15094D02*
D03*
X13332Y8487D02*
D03*
X11432D02*
D03*
X17159Y10827D02*
D03*
X15259D02*
D03*
X26532Y4267D02*
D03*
X28432D02*
D03*
X38698Y11538D02*
D03*
X36798D02*
D03*
X24900Y18613D02*
D03*
X23000D02*
D03*
Y20917D02*
D03*
X24900D02*
D03*
X38698Y9173D02*
D03*
X36798D02*
D03*
X33068Y9005D02*
D03*
X31168D02*
D03*
D27*
X20013Y22708D02*
D03*
Y24608D02*
D03*
X19317Y6983D02*
D03*
Y8883D02*
D03*
X22317Y24872D02*
D03*
Y22972D02*
D03*
D29*
X28991Y19308D02*
D03*
X27009Y18356D02*
D03*
Y20261D02*
D03*
D30*
X16821Y22667D02*
D03*
X15869Y24649D02*
D03*
X17774D02*
D03*
D31*
X36946Y28150D02*
D03*
Y33850D02*
D03*
D32*
X42000Y30180D02*
D03*
Y31820D02*
D03*
D33*
X55000Y33650D02*
D03*
Y30350D02*
D03*
D34*
X23000Y28850D02*
D03*
Y33150D02*
D03*
D35*
X31000Y29950D02*
D03*
Y32050D02*
D03*
D36*
X28000Y29875D02*
D03*
Y28125D02*
D03*
D37*
X17697Y28375D02*
D03*
X13397D02*
D03*
D62*
X15044Y13850D02*
D03*
X17044Y12900D02*
D03*
Y14800D02*
D03*
D64*
X29271Y8164D02*
D03*
Y10704D02*
D03*
Y13244D02*
D03*
Y15784D02*
D03*
X21651Y8164D02*
D03*
Y10704D02*
D03*
Y13244D02*
D03*
D65*
Y15784D02*
D03*
D66*
X52318Y17568D02*
D03*
Y9968D02*
D03*
D67*
X4238Y28375D02*
D03*
Y33375D02*
D03*
D68*
X2278Y2651D02*
D03*
D69*
X4818D02*
D03*
X7358D02*
D03*
X9898D02*
D03*
X12438D02*
D03*
M02*
