M48
;Layer_Color=9474304
;FILE_FORMAT=4:3
METRIC
;TYPE=PLATED
T1F00S00C0.711
T2F00S00C0.800
T3F00S00C0.900
T4F00S00C1.100
T5F00S00C1.150
%
T01
X0081824Y0072988
X0080356Y0077022
X0073396Y0075132
X0054067Y0075496
X0056856Y0062714
X0059799Y0062594
X0064987Y0062714
X0060685Y0057832
X0060292Y0050718
X0055515Y0051351
X0051858Y0055450
X0044107Y0053199
X0044131Y0050915
X0042164Y0070691
X0068697Y0056671
X0031144Y0056411
X0031211Y0062737
X0048394Y0085495
X0055405Y0083432
X0062384Y0086215
X0067418Y0082787
X0073408Y0085633
T02
X0077723Y0059400
Y0067000
T03
X0047056Y0057596
Y0060136
Y0062676
Y0065216
X0054676
Y0062676
Y0060136
Y0057596
T04
X0029643Y0077808
Y0082808
T05
X0027683Y0052084
X0030223
X0032763
X0035303
X0037843
M30
