G04*
G04 #@! TF.GenerationSoftware,Altium Limited,Altium Designer,20.2.7 (254)*
G04*
G04 Layer_Color=128*
%FSLAX43Y43*%
%MOMM*%
G71*
G04*
G04 #@! TF.SameCoordinates,D7959DAF-34B1-44DD-8309-E4C0A0F03333*
G04*
G04*
G04 #@! TF.FilePolarity,Positive*
G04*
G01*
G75*
%ADD16C,0.254*%
%ADD71C,0.051*%
D16*
X60000Y0D02*
Y38000D01*
X0D02*
X60000D01*
X0Y0D02*
X60000D01*
X0D02*
Y38000D01*
D71*
X28821Y8164D02*
X29721D01*
X29271Y7714D02*
Y8614D01*
X28821Y10704D02*
X29721D01*
X29271Y10254D02*
Y11154D01*
X28821Y13244D02*
X29721D01*
X29271Y12794D02*
Y13694D01*
X28821Y15784D02*
X29721D01*
X29271Y15334D02*
Y16234D01*
X21201Y8164D02*
X22101D01*
X21651Y7714D02*
Y8614D01*
X21201Y10704D02*
X22101D01*
X21651Y10254D02*
Y11154D01*
X21201Y13244D02*
X22101D01*
X21651Y12794D02*
Y13694D01*
X21201Y15784D02*
X22101D01*
X21651Y15334D02*
Y16234D01*
X51918Y17568D02*
X52718D01*
X52318Y17168D02*
Y17968D01*
X51918Y9968D02*
X52718D01*
X52318Y9568D02*
Y10368D01*
X3688Y28375D02*
X4788D01*
X4238Y27825D02*
Y28925D01*
X3688Y33375D02*
X4788D01*
X4238Y32825D02*
Y33925D01*
X1703Y2651D02*
X2853D01*
X2278Y2076D02*
Y3226D01*
X4243Y2651D02*
X5393D01*
X4818Y2076D02*
Y3226D01*
X6783Y2651D02*
X7933D01*
X7358Y2076D02*
Y3226D01*
X9323Y2651D02*
X10473D01*
X9898Y2076D02*
Y3226D01*
X11863Y2651D02*
X13013D01*
X12438Y2076D02*
Y3226D01*
X42936Y7239D02*
X43647D01*
X43292Y6883D02*
Y7595D01*
X54596Y27589D02*
X55307D01*
X54951Y27234D02*
Y27945D01*
X34038Y13162D02*
X34749D01*
X34394Y12806D02*
Y13517D01*
X31096Y13282D02*
X31807D01*
X31451Y12926D02*
Y13637D01*
X39226Y13282D02*
X39938D01*
X39582Y12926D02*
Y13637D01*
X16404Y21259D02*
X17115D01*
X16759Y20903D02*
Y21614D01*
X34925Y8400D02*
X35636D01*
X35280Y8044D02*
Y8755D01*
X34531Y1286D02*
X35242D01*
X34887Y930D02*
Y1641D01*
X29754Y1919D02*
X30465D01*
X30110Y1563D02*
Y2275D01*
X26097Y6017D02*
X26808D01*
X26453Y5662D02*
Y6373D01*
X18370Y1483D02*
X19081D01*
X18726Y1127D02*
Y1839D01*
X18347Y3767D02*
X19058D01*
X18702Y3411D02*
Y4122D01*
X56064Y23556D02*
X56775D01*
X56419Y23200D02*
Y23911D01*
X5383Y6978D02*
X6095D01*
X5739Y6623D02*
Y7334D01*
X5450Y13305D02*
X6161D01*
X5806Y12949D02*
Y13661D01*
X47635Y25700D02*
X48346D01*
X47991Y25344D02*
Y26056D01*
X47647Y36201D02*
X48358D01*
X48003Y35845D02*
Y36557D01*
X41657Y33354D02*
X42369D01*
X42013Y32999D02*
Y33710D01*
X28306Y26064D02*
X29017D01*
X28662Y25708D02*
Y26419D01*
X36623Y36782D02*
X37335D01*
X36979Y36427D02*
Y37138D01*
X29644Y34000D02*
X30356D01*
X30000Y33644D02*
Y34356D01*
X22633Y36063D02*
X23344D01*
X22989Y35707D02*
Y36418D01*
M02*
