M48
;Layer_Color=9474304
;FILE_FORMAT=4:3
METRIC,TZ
;TYPE=PLATED
T1F00S00C0.711
T2F00S00C0.800
T3F00S00C0.900
T4F00S00C1.100
T5F00S00C1.150
%
T01
X56419Y23556
X54951Y27589
X47991Y25700
X28662Y26064
X31451Y13282
X34394Y13162
X39582Y13282
X35280Y8400
X34887Y1286
X30110Y1919
X26453Y6017
X18702Y3767
X18726Y1483
X16759Y21259
X43292Y7239
X5739Y6978
X5806Y13305
X22989Y36063
X30000Y34000
X36979Y36782
X42013Y33354
X48003Y36201
T02
X52318Y9968
Y17568
T03
X21651Y8164
Y10704
Y13244
Y15784
X29271
Y13244
Y10704
Y8164
T04
X4238Y28375
Y33375
T05
X2278Y2651
X4818
X7358
X9898
X12438
M30
