G04*
G04 #@! TF.GenerationSoftware,Altium Limited,Altium Designer,20.2.7 (254)*
G04*
G04 Layer_Color=65535*
%FSLAX43Y43*%
%MOMM*%
G71*
G04*
G04 #@! TF.SameCoordinates,D7959DAF-34B1-44DD-8309-E4C0A0F03333*
G04*
G04*
G04 #@! TF.FilePolarity,Positive*
G04*
G01*
G75*
%ADD10C,0.100*%
%ADD11C,0.250*%
%ADD12C,0.600*%
%ADD13C,0.200*%
%ADD14C,0.200*%
%ADD15C,0.500*%
%ADD16C,0.254*%
D10*
X30883Y18245D02*
X30983D01*
X30883D01*
X58318Y13768D02*
X58313Y14022D01*
X58296Y14277D01*
X58269Y14530D01*
X58232Y14782D01*
X58183Y15032D01*
X58124Y15280D01*
X58055Y15525D01*
X57975Y15767D01*
X57885Y16005D01*
X57785Y16239D01*
X57676Y16469D01*
X57556Y16694D01*
X57427Y16914D01*
X57289Y17128D01*
X57142Y17335D01*
X56986Y17537D01*
X56822Y17732D01*
X56650Y17919D01*
X56470Y18099D01*
X56282Y18272D01*
X56087Y18436D01*
X55886Y18592D01*
X55678Y18739D01*
X55464Y18877D01*
X55244Y19006D01*
X55019Y19125D01*
X54789Y19235D01*
X54555Y19335D01*
X54317Y19425D01*
X54075Y19505D01*
X53830Y19574D01*
X53582Y19633D01*
X53332Y19681D01*
X53080Y19719D01*
X52827Y19746D01*
X52573Y19762D01*
X52318Y19768D01*
X52063Y19762D01*
X51809Y19746D01*
X51556Y19719D01*
X51304Y19681D01*
X51054Y19633D01*
X50806Y19574D01*
X50561Y19505D01*
X50319Y19425D01*
X50081Y19335D01*
X49847Y19235D01*
X49617Y19125D01*
X49392Y19006D01*
X49172Y18877D01*
X48958Y18739D01*
X48750Y18592D01*
X48549Y18436D01*
X48354Y18272D01*
X48166Y18099D01*
X47986Y17919D01*
X47814Y17732D01*
X47650Y17537D01*
X47494Y17335D01*
X47347Y17128D01*
X47209Y16914D01*
X47080Y16694D01*
X46960Y16469D01*
X46851Y16239D01*
X46751Y16005D01*
X46661Y15767D01*
X46581Y15525D01*
X46512Y15280D01*
X46453Y15032D01*
X46404Y14782D01*
X46367Y14530D01*
X46340Y14276D01*
X46323Y14022D01*
X46318Y13768D01*
X46323Y13513D01*
X46340Y13259D01*
X46367Y13006D01*
X46404Y12754D01*
X46453Y12504D01*
X46512Y12256D01*
X46581Y12011D01*
X46661Y11769D01*
X46751Y11531D01*
X46851Y11296D01*
X46960Y11066D01*
X47080Y10842D01*
X47209Y10622D01*
X47347Y10408D01*
X47494Y10200D01*
X47650Y9998D01*
X47814Y9804D01*
X47986Y9616D01*
X48166Y9436D01*
X48354Y9264D01*
X48549Y9099D01*
X48750Y8944D01*
X48958Y8797D01*
X49172Y8658D01*
X49392Y8530D01*
X49617Y8410D01*
X49847Y8300D01*
X50081Y8200D01*
X50319Y8110D01*
X50561Y8031D01*
X50806Y7961D01*
X51054Y7902D01*
X51304Y7854D01*
X51556Y7816D01*
X51809Y7789D01*
X52063Y7773D01*
X52318Y7768D01*
X52573Y7773D01*
X52827Y7789D01*
X53080Y7816D01*
X53332Y7854D01*
X53582Y7902D01*
X53830Y7961D01*
X54075Y8031D01*
X54317Y8110D01*
X54555Y8200D01*
X54789Y8300D01*
X55019Y8410D01*
X55244Y8530D01*
X55464Y8658D01*
X55678Y8797D01*
X55886Y8944D01*
X56087Y9099D01*
X56282Y9264D01*
X56470Y9436D01*
X56650Y9616D01*
X56822Y9804D01*
X56986Y9998D01*
X57142Y10200D01*
X57289Y10408D01*
X57427Y10622D01*
X57556Y10842D01*
X57676Y11066D01*
X57785Y11296D01*
X57885Y11531D01*
X57975Y11769D01*
X58055Y12011D01*
X58124Y12256D01*
X58183Y12504D01*
X58232Y12754D01*
X58269Y13006D01*
X58296Y13259D01*
X58313Y13513D01*
X58318Y13768D01*
X4238Y24875D02*
Y24775D01*
Y24875D01*
X32884Y1522D02*
Y1622D01*
Y1522D01*
X41314Y8028D02*
Y8128D01*
Y8028D01*
X-62Y26025D02*
Y35125D01*
X9938D01*
Y26025D02*
Y35125D01*
X-62Y26025D02*
X9938D01*
D11*
X55987Y22303D02*
X55799Y22411D01*
Y22195D01*
X55987Y22303D01*
X21776Y17084D02*
X21589Y17192D01*
Y16976D01*
X21776Y17084D01*
X6168Y14754D02*
X5980Y14862D01*
Y14646D01*
X6168Y14754D01*
X6168Y8437D02*
X5980Y8545D01*
Y8329D01*
X6168Y8437D01*
X31125Y33275D02*
X30938Y33383D01*
Y33167D01*
X31125Y33275D01*
D12*
X24111Y15874D02*
X23998Y16108D01*
X23745Y16166D01*
X23541Y16004D01*
Y15744D01*
X23745Y15581D01*
X23998Y15639D01*
X24111Y15874D01*
D13*
X24826Y16874D02*
X24875Y16631D01*
X25012Y16425D01*
X25218Y16287D01*
X25461Y16239D01*
X25704Y16287D01*
X25910Y16425D01*
X26048Y16631D01*
X26096Y16874D01*
X32000Y21000D02*
Y22050D01*
X31933Y14345D02*
X36433D01*
Y15445D01*
X31933Y19345D02*
X36433D01*
Y18245D02*
Y19345D01*
X53512Y21603D02*
X53662D01*
X53512Y23003D02*
X53662D01*
X45311Y21612D02*
X50339D01*
X45025Y24304D02*
X50339D01*
X44875Y26975D02*
Y28725D01*
X44750Y29250D02*
X51250D01*
Y32750D01*
X44750D02*
X51250D01*
X44750Y29250D02*
Y32750D01*
X22811Y7074D02*
X28111D01*
X26096Y16874D02*
X28111D01*
X22811D02*
X24826D01*
X28111Y7074D02*
Y16874D01*
X22811Y7074D02*
Y16874D01*
X958Y1226D02*
Y2651D01*
Y1226D02*
X13758D01*
Y4076D01*
X2278D02*
X13758D01*
X32434Y3972D02*
X33284D01*
X32434Y2922D02*
Y3972D01*
X34484D02*
X35334D01*
Y2922D02*
Y3972D01*
X40864Y10478D02*
X41714D01*
X40864Y9428D02*
Y10478D01*
X42914D02*
X43764D01*
Y9428D02*
Y10478D01*
X8243Y14054D02*
X8393D01*
X8243Y15454D02*
X8393D01*
X16044Y3220D02*
Y4270D01*
X12382Y14229D02*
Y15279D01*
X31000Y25475D02*
Y26525D01*
X16209Y7962D02*
Y9012D01*
X27482Y1287D02*
Y2337D01*
X19488Y23658D02*
X20538D01*
X31950Y6326D02*
Y7376D01*
X43234Y13184D02*
Y14234D01*
X32679Y10784D02*
Y11834D01*
X15394Y14550D02*
Y15300D01*
X16694Y13600D02*
Y14100D01*
X15394Y15300D02*
X16348D01*
X15394Y12400D02*
X16348D01*
X15394D02*
Y13150D01*
X27300Y19010D02*
Y19606D01*
X27753Y17788D02*
X28700D01*
Y19962D02*
Y20828D01*
Y17788D02*
Y18654D01*
X27753Y20828D02*
X28700D01*
X16523Y24358D02*
X17119D01*
X15301Y22958D02*
Y23905D01*
X17476Y22958D02*
X18341D01*
X15301D02*
X16167D01*
X18341D02*
Y23905D01*
X33646Y26300D02*
Y34300D01*
X40246Y29350D02*
Y34300D01*
X7293Y7462D02*
X9293D01*
X7293Y9412D02*
X9293D01*
X41475Y31000D02*
X42525D01*
X57150Y29850D02*
Y34950D01*
X52850Y29850D02*
Y33075D01*
X16044Y916D02*
Y1966D01*
X12382Y7962D02*
Y9012D01*
X20350Y27250D02*
Y33650D01*
X25650Y29675D02*
Y33650D01*
X16209Y10302D02*
Y11352D01*
X18792Y7933D02*
X19842D01*
X30300Y30925D02*
Y31075D01*
X31700Y30925D02*
Y31075D01*
X27482Y3742D02*
Y4792D01*
X12942Y27073D02*
X18472D01*
X12942Y29677D02*
X18152D01*
X37748Y11013D02*
Y12063D01*
X23950Y18088D02*
Y19138D01*
Y20392D02*
Y21442D01*
X21792Y23922D02*
X22842D01*
X37748Y8648D02*
Y9698D01*
X32118Y8480D02*
Y9530D01*
D14*
X17834Y12900D02*
D03*
D15*
X5759Y24368D02*
X6759D01*
X6259Y24868D02*
Y23868D01*
X6202Y35989D02*
Y36989D01*
D16*
X37762Y17395D02*
Y16729D01*
X38096Y16395D01*
X38429Y16729D01*
Y17395D01*
X38762Y16395D02*
Y17395D01*
X39262D01*
X39429Y17228D01*
Y16895D01*
X39262Y16729D01*
X38762D01*
X39095D02*
X39429Y16395D01*
X39762D02*
X40095D01*
X39928D01*
Y17395D01*
X39762Y17228D01*
X18795Y16647D02*
Y15814D01*
X18962Y15647D01*
X19295D01*
X19461Y15814D01*
Y16647D01*
X19795Y15647D02*
X20128D01*
X19961D01*
Y16647D01*
X19795Y16480D01*
X19822Y948D02*
Y1947D01*
X20322D01*
X20488Y1781D01*
Y1448D01*
X20322Y1281D01*
X19822D01*
X20155D02*
X20488Y948D01*
X21488D02*
X20822D01*
X21488Y1614D01*
Y1781D01*
X21321Y1947D01*
X20988D01*
X20822Y1781D01*
X21821Y948D02*
X22154D01*
X21988D01*
Y1947D01*
X21821Y1781D01*
X19805Y3165D02*
Y4165D01*
X20305D01*
X20472Y3998D01*
Y3665D01*
X20305Y3498D01*
X19805D01*
X20139D02*
X20472Y3165D01*
X21472D02*
X20805D01*
X21472Y3832D01*
Y3998D01*
X21305Y4165D01*
X20972D01*
X20805Y3998D01*
X21805D02*
X21971Y4165D01*
X22305D01*
X22471Y3998D01*
Y3332D01*
X22305Y3165D01*
X21971D01*
X21805Y3332D01*
Y3998D01*
X11169Y16345D02*
Y17345D01*
X11669D01*
X11835Y17178D01*
Y16845D01*
X11669Y16678D01*
X11169D01*
X11502D02*
X11835Y16345D01*
X12169D02*
X12502D01*
X12335D01*
Y17345D01*
X12169Y17178D01*
X13002Y16512D02*
X13168Y16345D01*
X13501D01*
X13668Y16512D01*
Y17178D01*
X13501Y17345D01*
X13168D01*
X13002Y17178D01*
Y17012D01*
X13168Y16845D01*
X13668D01*
X11147Y6127D02*
Y7127D01*
X11647D01*
X11814Y6960D01*
Y6627D01*
X11647Y6461D01*
X11147D01*
X11481D02*
X11814Y6127D01*
X12147D02*
X12480D01*
X12314D01*
Y7127D01*
X12147Y6960D01*
X12980D02*
X13147Y7127D01*
X13480D01*
X13647Y6960D01*
Y6794D01*
X13480Y6627D01*
X13647Y6461D01*
Y6294D01*
X13480Y6127D01*
X13147D01*
X12980Y6294D01*
Y6461D01*
X13147Y6627D01*
X12980Y6794D01*
Y6960D01*
X13147Y6627D02*
X13480D01*
X18136Y10283D02*
Y11283D01*
X18636D01*
X18803Y11116D01*
Y10783D01*
X18636Y10616D01*
X18136D01*
X18470D02*
X18803Y10283D01*
X19136D02*
X19469D01*
X19303D01*
Y11283D01*
X19136Y11116D01*
X19969Y11283D02*
X20636D01*
Y11116D01*
X19969Y10450D01*
Y10283D01*
X11119Y9780D02*
Y10780D01*
X11619D01*
X11785Y10613D01*
Y10280D01*
X11619Y10114D01*
X11119D01*
X11452D02*
X11785Y9780D01*
X12118D02*
X12452D01*
X12285D01*
Y10780D01*
X12118Y10613D01*
X13618Y10780D02*
X13285Y10613D01*
X12951Y10280D01*
Y9947D01*
X13118Y9780D01*
X13451D01*
X13618Y9947D01*
Y10114D01*
X13451Y10280D01*
X12951D01*
X15001Y6127D02*
Y7127D01*
X15501D01*
X15667Y6960D01*
Y6627D01*
X15501Y6461D01*
X15001D01*
X15334D02*
X15667Y6127D01*
X16000D02*
X16334D01*
X16167D01*
Y7127D01*
X16000Y6960D01*
X17500Y7127D02*
X16834D01*
Y6627D01*
X17167Y6794D01*
X17333D01*
X17500Y6627D01*
Y6294D01*
X17333Y6127D01*
X17000D01*
X16834Y6294D01*
X23192Y1377D02*
Y2377D01*
X23692D01*
X23859Y2210D01*
Y1877D01*
X23692Y1710D01*
X23192D01*
X23526D02*
X23859Y1377D01*
X24192D02*
X24525D01*
X24359D01*
Y2377D01*
X24192Y2210D01*
X25525Y1377D02*
Y2377D01*
X25025Y1877D01*
X25691D01*
X23044Y3611D02*
Y4611D01*
X23543D01*
X23710Y4444D01*
Y4111D01*
X23543Y3944D01*
X23044D01*
X23377D02*
X23710Y3611D01*
X24043D02*
X24376D01*
X24210D01*
Y4611D01*
X24043Y4444D01*
X24876D02*
X25043Y4611D01*
X25376D01*
X25543Y4444D01*
Y4278D01*
X25376Y4111D01*
X25210D01*
X25376D01*
X25543Y3944D01*
Y3778D01*
X25376Y3611D01*
X25043D01*
X24876Y3778D01*
X36137Y12823D02*
Y13823D01*
X36637D01*
X36804Y13656D01*
Y13323D01*
X36637Y13156D01*
X36137D01*
X36471D02*
X36804Y12823D01*
X37137D02*
X37470D01*
X37304D01*
Y13823D01*
X37137Y13656D01*
X38637Y12823D02*
X37970D01*
X38637Y13490D01*
Y13656D01*
X38470Y13823D01*
X38137D01*
X37970Y13656D01*
X24081Y23974D02*
Y24973D01*
X24581D01*
X24748Y24807D01*
Y24473D01*
X24581Y24307D01*
X24081D01*
X24415D02*
X24748Y23974D01*
X25081D02*
X25414D01*
X25248D01*
Y24973D01*
X25081Y24807D01*
X25914Y23974D02*
X26247D01*
X26081D01*
Y24973D01*
X25914Y24807D01*
X18454Y25519D02*
Y26518D01*
X18954D01*
X19121Y26352D01*
Y26019D01*
X18954Y25852D01*
X18454D01*
X18787D02*
X19121Y25519D01*
X19454D02*
X19787D01*
X19621D01*
Y26518D01*
X19454Y26352D01*
X20287D02*
X20454Y26518D01*
X20787D01*
X20953Y26352D01*
Y25685D01*
X20787Y25519D01*
X20454D01*
X20287Y25685D01*
Y26352D01*
X20067Y20417D02*
Y21417D01*
X20567D01*
X20733Y21251D01*
Y20917D01*
X20567Y20751D01*
X20067D01*
X20400D02*
X20733Y20417D01*
X21067Y20584D02*
X21233Y20417D01*
X21566D01*
X21733Y20584D01*
Y21251D01*
X21566Y21417D01*
X21233D01*
X21067Y21251D01*
Y21084D01*
X21233Y20917D01*
X21733D01*
X20167Y18438D02*
Y19437D01*
X20667D01*
X20833Y19271D01*
Y18937D01*
X20667Y18771D01*
X20167D01*
X20500D02*
X20833Y18438D01*
X21167Y19271D02*
X21333Y19437D01*
X21666D01*
X21833Y19271D01*
Y19104D01*
X21666Y18937D01*
X21833Y18771D01*
Y18604D01*
X21666Y18438D01*
X21333D01*
X21167Y18604D01*
Y18771D01*
X21333Y18937D01*
X21167Y19104D01*
Y19271D01*
X21333Y18937D02*
X21666D01*
X33774Y5487D02*
Y6486D01*
X34274D01*
X34441Y6320D01*
Y5986D01*
X34274Y5820D01*
X33774D01*
X34107D02*
X34441Y5487D01*
X34774Y6486D02*
X35440D01*
Y6320D01*
X34774Y5653D01*
Y5487D01*
X37965Y6977D02*
Y7977D01*
X38465D01*
X38632Y7811D01*
Y7477D01*
X38465Y7311D01*
X37965D01*
X38298D02*
X38632Y6977D01*
X39631Y7977D02*
X39298Y7811D01*
X38965Y7477D01*
Y7144D01*
X39131Y6977D01*
X39465D01*
X39631Y7144D01*
Y7311D01*
X39465Y7477D01*
X38965D01*
X41998Y15058D02*
Y16058D01*
X42497D01*
X42664Y15891D01*
Y15558D01*
X42497Y15391D01*
X41998D01*
X42331D02*
X42664Y15058D01*
X43497D02*
Y16058D01*
X42997Y15558D01*
X43664D01*
X55855Y24670D02*
Y25670D01*
X56355D01*
X56521Y25503D01*
Y25170D01*
X56355Y25003D01*
X55855D01*
X56188D02*
X56521Y24670D01*
X56855Y25503D02*
X57021Y25670D01*
X57354D01*
X57521Y25503D01*
Y25337D01*
X57354Y25170D01*
X57188D01*
X57354D01*
X57521Y25003D01*
Y24837D01*
X57354Y24670D01*
X57021D01*
X56855Y24837D01*
X27071Y31279D02*
Y32279D01*
X27570D01*
X27737Y32112D01*
Y31779D01*
X27570Y31612D01*
X27071D01*
X27404D02*
X27737Y31279D01*
X28737D02*
X28070D01*
X28737Y31946D01*
Y32112D01*
X28570Y32279D01*
X28237D01*
X28070Y32112D01*
X16334Y32500D02*
Y33500D01*
X16833D01*
X17000Y33333D01*
Y33000D01*
X16833Y32833D01*
X16334D01*
X16667D02*
X17000Y32500D01*
X17333D02*
X17666D01*
X17500D01*
Y33500D01*
X17333Y33333D01*
X15798Y16388D02*
Y17055D01*
X15631Y17221D01*
X15298D01*
X15132Y17055D01*
Y16388D01*
X15298Y16222D01*
X15631D01*
X15465Y16555D02*
X15798Y16222D01*
X15631D02*
X15798Y16388D01*
X16798Y17221D02*
X16131D01*
Y16722D01*
X16464Y16888D01*
X16631D01*
X16798Y16722D01*
Y16388D01*
X16631Y16222D01*
X16298D01*
X16131Y16388D01*
X36611Y3261D02*
Y3928D01*
X36445Y4094D01*
X36112D01*
X35945Y3928D01*
Y3261D01*
X36112Y3095D01*
X36445D01*
X36278Y3428D02*
X36611Y3095D01*
X36445D02*
X36611Y3261D01*
X37444Y3095D02*
Y4094D01*
X36945Y3595D01*
X37611D01*
X44937Y10241D02*
Y10908D01*
X44770Y11074D01*
X44437D01*
X44270Y10908D01*
Y10241D01*
X44437Y10075D01*
X44770D01*
X44604Y10408D02*
X44937Y10075D01*
X44770D02*
X44937Y10241D01*
X45270Y10908D02*
X45437Y11074D01*
X45770D01*
X45936Y10908D01*
Y10741D01*
X45770Y10575D01*
X45603D01*
X45770D01*
X45936Y10408D01*
Y10241D01*
X45770Y10075D01*
X45437D01*
X45270Y10241D01*
X13655Y23227D02*
Y23894D01*
X13488Y24060D01*
X13155D01*
X12989Y23894D01*
Y23227D01*
X13155Y23061D01*
X13488D01*
X13322Y23394D02*
X13655Y23061D01*
X13488D02*
X13655Y23227D01*
X14655Y23061D02*
X13988D01*
X14655Y23727D01*
Y23894D01*
X14488Y24060D01*
X14155D01*
X13988Y23894D01*
X27403Y21674D02*
Y22340D01*
X27236Y22507D01*
X26903D01*
X26736Y22340D01*
Y21674D01*
X26903Y21507D01*
X27236D01*
X27069Y21840D02*
X27403Y21507D01*
X27236D02*
X27403Y21674D01*
X27736Y21507D02*
X28069D01*
X27902D01*
Y22507D01*
X27736Y22340D01*
X51350Y6583D02*
Y5583D01*
X52017D01*
X53017Y6416D02*
X52850Y6583D01*
X52517D01*
X52350Y6416D01*
Y6249D01*
X52517Y6083D01*
X52850D01*
X53017Y5916D01*
Y5750D01*
X52850Y5583D01*
X52517D01*
X52350Y5750D01*
X53350Y5583D02*
X53683D01*
X53516D01*
Y6583D01*
X53350Y6416D01*
X2301Y5948D02*
X1968D01*
X2134D01*
Y5114D01*
X1968Y4948D01*
X1801D01*
X1634Y5114D01*
X3300Y4948D02*
X2634D01*
X3300Y5614D01*
Y5781D01*
X3134Y5948D01*
X2801D01*
X2634Y5781D01*
X11897Y36267D02*
X11564D01*
X11730D01*
Y35434D01*
X11564Y35268D01*
X11397D01*
X11230Y35434D01*
X12230Y35268D02*
X12563D01*
X12397D01*
Y36267D01*
X12230Y36101D01*
X50163Y36795D02*
X50496D01*
X50329D01*
Y35795D01*
X50163D01*
X50496D01*
X51662Y36629D02*
X51496Y36795D01*
X51162D01*
X50996Y36629D01*
Y35962D01*
X51162Y35795D01*
X51496D01*
X51662Y35962D01*
X51996Y35795D02*
X52329D01*
X52162D01*
Y36795D01*
X51996Y36629D01*
X6574Y17044D02*
Y16045D01*
X7074D01*
X7240Y16211D01*
Y16878D01*
X7074Y17044D01*
X6574D01*
X8240D02*
X7907Y16878D01*
X7574Y16544D01*
Y16211D01*
X7740Y16045D01*
X8073D01*
X8240Y16211D01*
Y16378D01*
X8073Y16544D01*
X7574D01*
X6674Y11081D02*
Y10081D01*
X7174D01*
X7341Y10248D01*
Y10914D01*
X7174Y11081D01*
X6674D01*
X8340D02*
X7674D01*
Y10581D01*
X8007Y10747D01*
X8174D01*
X8340Y10581D01*
Y10248D01*
X8174Y10081D01*
X7840D01*
X7674Y10248D01*
X56580Y22545D02*
Y21546D01*
X57080D01*
X57247Y21712D01*
Y22379D01*
X57080Y22545D01*
X56580D01*
X58080Y21546D02*
Y22545D01*
X57580Y22046D01*
X58246D01*
X43007Y25484D02*
Y24484D01*
X43507D01*
X43673Y24651D01*
Y25317D01*
X43507Y25484D01*
X43007D01*
X44007Y25317D02*
X44173Y25484D01*
X44507D01*
X44673Y25317D01*
Y25151D01*
X44507Y24984D01*
X44340D01*
X44507D01*
X44673Y24817D01*
Y24651D01*
X44507Y24484D01*
X44173D01*
X44007Y24651D01*
X30167Y28500D02*
Y27500D01*
X30667D01*
X30833Y27667D01*
Y28333D01*
X30667Y28500D01*
X30167D01*
X31833Y27500D02*
X31167D01*
X31833Y28167D01*
Y28333D01*
X31666Y28500D01*
X31333D01*
X31167Y28333D01*
X13334Y31500D02*
Y30500D01*
X13833D01*
X14000Y30667D01*
Y31333D01*
X13833Y31500D01*
X13334D01*
X14333Y30500D02*
X14666D01*
X14500D01*
Y31500D01*
X14333Y31333D01*
X31233Y5557D02*
X31066Y5723D01*
X30733D01*
X30567Y5557D01*
Y4890D01*
X30733Y4724D01*
X31066D01*
X31233Y4890D01*
X31566Y5723D02*
X32233D01*
Y5557D01*
X31566Y4890D01*
Y4724D01*
X34803Y22290D02*
X34637Y22457D01*
X34303D01*
X34137Y22290D01*
Y21624D01*
X34303Y21457D01*
X34637D01*
X34803Y21624D01*
X35803Y22457D02*
X35470Y22290D01*
X35136Y21957D01*
Y21624D01*
X35303Y21457D01*
X35636D01*
X35803Y21624D01*
Y21790D01*
X35636Y21957D01*
X35136D01*
X41833Y28333D02*
X41667Y28500D01*
X41334D01*
X41167Y28333D01*
Y27667D01*
X41334Y27500D01*
X41667D01*
X41833Y27667D01*
X42833Y28500D02*
X42167D01*
Y28000D01*
X42500Y28167D01*
X42666D01*
X42833Y28000D01*
Y27667D01*
X42666Y27500D01*
X42333D01*
X42167Y27667D01*
X33954Y36502D02*
X33788Y36668D01*
X33454D01*
X33288Y36502D01*
Y35835D01*
X33454Y35668D01*
X33788D01*
X33954Y35835D01*
X34787Y35668D02*
Y36668D01*
X34287Y36168D01*
X34954D01*
X55833Y36683D02*
X55667Y36850D01*
X55334D01*
X55167Y36683D01*
Y36017D01*
X55334Y35850D01*
X55667D01*
X55833Y36017D01*
X56167Y36683D02*
X56333Y36850D01*
X56666D01*
X56833Y36683D01*
Y36517D01*
X56666Y36350D01*
X56500D01*
X56666D01*
X56833Y36183D01*
Y36017D01*
X56666Y35850D01*
X56333D01*
X56167Y36017D01*
X30833Y24333D02*
X30667Y24500D01*
X30334D01*
X30167Y24333D01*
Y23667D01*
X30334Y23500D01*
X30667D01*
X30833Y23667D01*
X31833Y23500D02*
X31167D01*
X31833Y24167D01*
Y24333D01*
X31666Y24500D01*
X31333D01*
X31167Y24333D01*
X21000Y36333D02*
X20833Y36500D01*
X20500D01*
X20334Y36333D01*
Y35667D01*
X20500Y35500D01*
X20833D01*
X21000Y35667D01*
X21333Y35500D02*
X21666D01*
X21500D01*
Y36500D01*
X21333Y36333D01*
X60000Y0D02*
Y38000D01*
X0D02*
X60000D01*
X0Y0D02*
X60000D01*
X0D02*
Y38000D01*
M02*
