M48
;Layer_Color=9474304
;FILE_FORMAT=4:3
METRIC
;TYPE=PLATED
T1F00S00C0.400
T2F00S00C1.000
T3F00S00C1.020
T4F00S00C1.100
%
T01
X0083993Y0076718
X0083448Y0079340
X0073493Y0075996
X0064975Y0077603
X0062688Y0077581
X0060357
X0060146Y0072465
X0062455Y0072481
X0064846Y0072465
X0057978Y0072791
X0043438Y0077259
X0043423Y0079761
X0043408Y0082263
Y0084795
X0047777Y0087724
X0060281Y0090852
X0062637Y0090834
X0064984Y0090763
X0069543Y0092074
X0073569Y0093770
X0076175Y0094036
X0078439Y0093122
X0076189Y0081516
X0065002Y0082386
X0062663
X0060359Y0082328
X0083722Y0085919
X0085136Y0089069
X0085125Y0091748
T02
X0049566Y0077176
X0057186
Y0079716
Y0082256
Y0084796
X0049566
Y0082256
Y0079716
T03
X0081862Y0073066
X0079322
X0076782
X0054540Y0091000
X0052000
X0049460
T04
X0070231Y0078706
X0077897
Y0081246
Y0083786
Y0086326
X0070231
Y0083786
Y0081246
M30
