G04*
G04 #@! TF.GenerationSoftware,Altium Limited,Altium Designer,20.2.7 (254)*
G04*
G04 Layer_Color=128*
%FSLAX43Y43*%
%MOMM*%
G71*
G04*
G04 #@! TF.SameCoordinates,DF3CF367-A293-4906-87DF-23C10940DAFD*
G04*
G04*
G04 #@! TF.FilePolarity,Positive*
G04*
G01*
G75*
%ADD10C,0.254*%
%ADD42C,0.051*%
D10*
X44000Y18750D02*
Y25000D01*
Y0D02*
Y6250D01*
X0Y0D02*
Y25000D01*
X44000D01*
Y6250D02*
Y18750D01*
X0Y0D02*
X44000D01*
D42*
X27681Y8706D02*
X28781D01*
X28231Y8156D02*
Y9256D01*
X27681Y11246D02*
X28781D01*
X28231Y10696D02*
Y11796D01*
X27681Y16326D02*
X28781D01*
X28231Y15776D02*
Y16876D01*
X27681Y13786D02*
X28781D01*
X28231Y13236D02*
Y14336D01*
X12030Y21000D02*
X13050D01*
X12540Y20490D02*
Y21510D01*
X9490Y21000D02*
X10510D01*
X10000Y20490D02*
Y21510D01*
X6950Y21000D02*
X7970D01*
X7460Y20490D02*
Y21510D01*
X39352Y3066D02*
X40372D01*
X39862Y2556D02*
Y3576D01*
X36812Y3066D02*
X37832D01*
X37322Y2556D02*
Y3576D01*
X34272Y3066D02*
X35292D01*
X34782Y2556D02*
Y3576D01*
X35347Y13786D02*
X36447D01*
X35897Y13236D02*
Y14336D01*
X35347Y16326D02*
X36447D01*
X35897Y15776D02*
Y16876D01*
X35347Y11246D02*
X36447D01*
X35897Y10696D02*
Y11796D01*
X35347Y8706D02*
X36447D01*
X35897Y8156D02*
Y9256D01*
X7066Y7176D02*
X8066D01*
X7566Y6676D02*
Y7676D01*
X7066Y9716D02*
X8066D01*
X7566Y9216D02*
Y10216D01*
X7066Y12256D02*
X8066D01*
X7566Y11756D02*
Y12756D01*
X7066Y14796D02*
X8066D01*
X7566Y14296D02*
Y15296D01*
X14686Y14796D02*
X15686D01*
X15186Y14296D02*
Y15296D01*
X14686Y12256D02*
X15686D01*
X15186Y11756D02*
Y12756D01*
X14686Y9716D02*
X15686D01*
X15186Y9216D02*
Y10216D01*
X14686Y7176D02*
X15686D01*
X15186Y6676D02*
Y7676D01*
X33975Y24036D02*
X34375D01*
X34175Y23836D02*
Y24236D01*
X42925Y21748D02*
X43325D01*
X43125Y21548D02*
Y21948D01*
X42936Y19069D02*
X43336D01*
X43136Y18869D02*
Y19269D01*
X41522Y15919D02*
X41922D01*
X41722Y15719D02*
Y16119D01*
X18159Y12328D02*
X18559D01*
X18359Y12128D02*
Y12528D01*
X20463Y12386D02*
X20863D01*
X20663Y12186D02*
Y12586D01*
X22802Y12386D02*
X23202D01*
X23002Y12186D02*
Y12586D01*
X31369Y23770D02*
X31769D01*
X31569Y23570D02*
Y23970D01*
X22775Y7603D02*
X23175D01*
X22975Y7403D02*
Y7803D01*
X20488Y7581D02*
X20888D01*
X20688Y7381D02*
Y7781D01*
X18157Y7581D02*
X18557D01*
X18357Y7381D02*
Y7781D01*
X36239Y23122D02*
X36639D01*
X36439Y22922D02*
Y23322D01*
X41793Y6718D02*
X42193D01*
X41993Y6518D02*
Y6918D01*
X31293Y5997D02*
X31693D01*
X31493Y5797D02*
Y6196D01*
X22784Y20763D02*
X23184D01*
X22984Y20563D02*
Y20963D01*
X20437Y20834D02*
X20837D01*
X20637Y20634D02*
Y21034D01*
X18081Y20852D02*
X18481D01*
X18281Y20652D02*
Y21052D01*
X33990Y11516D02*
X34389D01*
X34189Y11316D02*
Y11716D01*
X27343Y22074D02*
X27743D01*
X27543Y21874D02*
Y22274D01*
X41248Y9340D02*
X41648D01*
X41448Y9140D02*
Y9540D01*
X5577Y17724D02*
X5977D01*
X5777Y17524D02*
Y17924D01*
X1238Y7259D02*
X1638D01*
X1438Y7059D02*
Y7459D01*
X1223Y9761D02*
X1623D01*
X1423Y9561D02*
Y9961D01*
X1208Y12263D02*
X1608D01*
X1408Y12063D02*
Y12463D01*
X1208Y14795D02*
X1608D01*
X1408Y14595D02*
Y14995D01*
X22646Y2465D02*
X23046D01*
X22846Y2265D02*
Y2665D01*
X20255Y2481D02*
X20655D01*
X20455Y2281D02*
Y2681D01*
X17946Y2465D02*
X18346D01*
X18146Y2265D02*
Y2665D01*
X15778Y2791D02*
X16178D01*
X15978Y2591D02*
Y2991D01*
M02*
