G04*
G04 #@! TF.GenerationSoftware,Altium Limited,Altium Designer,20.2.7 (254)*
G04*
G04 Layer_Color=8388736*
%FSLAX43Y43*%
%MOMM*%
G71*
G04*
G04 #@! TF.SameCoordinates,DF3CF367-A293-4906-87DF-23C10940DAFD*
G04*
G04*
G04 #@! TF.FilePolarity,Negative*
G04*
G01*
G75*
%ADD10C,0.254*%
%ADD14R,0.900X0.950*%
%ADD16R,0.950X0.900*%
%ADD22R,1.200X1.200*%
%ADD23R,1.703X1.753*%
%ADD24R,1.113X1.423*%
%ADD25R,1.603X1.303*%
%ADD26R,1.303X1.603*%
%ADD27R,1.753X1.703*%
%ADD28R,1.653X1.503*%
%ADD29R,1.503X1.653*%
%ADD30C,1.803*%
G04:AMPARAMS|DCode=31|XSize=1.803mm|YSize=1.803mm|CornerRadius=0.502mm|HoleSize=0mm|Usage=FLASHONLY|Rotation=270.000|XOffset=0mm|YOffset=0mm|HoleType=Round|Shape=RoundedRectangle|*
%AMROUNDEDRECTD31*
21,1,1.803,0.800,0,0,270.0*
21,1,0.800,1.803,0,0,270.0*
1,1,1.003,-0.400,-0.400*
1,1,1.003,-0.400,0.400*
1,1,1.003,0.400,0.400*
1,1,1.003,0.400,-0.400*
%
%ADD31ROUNDEDRECTD31*%
%ADD32R,1.753X1.753*%
%ADD33C,1.753*%
%ADD34C,1.550*%
%ADD35R,1.550X1.550*%
%ADD36C,0.903*%
D10*
X44000Y18750D02*
Y25000D01*
Y0D02*
Y6250D01*
X0Y0D02*
Y25000D01*
X44000D01*
Y6250D02*
Y18750D01*
X0Y0D02*
X44000D01*
D14*
X35756Y5934D02*
D03*
X32606D02*
D03*
D16*
X34187Y19663D02*
D03*
Y22813D02*
D03*
D22*
X9219Y17696D02*
D03*
X7119D02*
D03*
D23*
X38635Y6686D02*
D03*
X40485D02*
D03*
X41632Y19055D02*
D03*
X39782D02*
D03*
D24*
X38711Y21714D02*
D03*
X41981D02*
D03*
D25*
X29004Y20125D02*
D03*
Y21875D02*
D03*
X36492Y20125D02*
D03*
Y21875D02*
D03*
X25256Y5890D02*
D03*
Y4140D02*
D03*
X25282Y8702D02*
D03*
Y10452D02*
D03*
X25344Y13646D02*
D03*
Y15396D02*
D03*
Y17634D02*
D03*
Y19384D02*
D03*
D26*
X38458Y9301D02*
D03*
X40208D02*
D03*
X38458Y15962D02*
D03*
X40208D02*
D03*
X38458Y11534D02*
D03*
X40208D02*
D03*
X38458Y13757D02*
D03*
X40208D02*
D03*
X11124Y17796D02*
D03*
X12874D02*
D03*
D27*
X31558Y22184D02*
D03*
Y20334D02*
D03*
D28*
X22990Y8752D02*
D03*
Y10402D02*
D03*
X18132Y5483D02*
D03*
Y3832D02*
D03*
X20489Y5483D02*
D03*
Y3833D02*
D03*
X22847Y5483D02*
D03*
Y3832D02*
D03*
X18348Y10417D02*
D03*
Y8767D02*
D03*
X20684Y10417D02*
D03*
Y8767D02*
D03*
X18348Y15323D02*
D03*
Y13673D02*
D03*
X20682Y15346D02*
D03*
Y13696D02*
D03*
X22990Y15346D02*
D03*
Y13696D02*
D03*
X18298Y17677D02*
D03*
Y19327D02*
D03*
X20685Y17677D02*
D03*
Y19327D02*
D03*
X22990Y17650D02*
D03*
Y19300D02*
D03*
D29*
X4482Y7216D02*
D03*
X2832Y12283D02*
D03*
X4482D02*
D03*
X2832Y9749D02*
D03*
X4482D02*
D03*
X2832Y7216D02*
D03*
X15923Y4250D02*
D03*
X14273D02*
D03*
X4482Y14779D02*
D03*
X2832D02*
D03*
D30*
X28231Y8706D02*
D03*
Y11246D02*
D03*
Y13786D02*
D03*
X35897D02*
D03*
Y11246D02*
D03*
Y8706D02*
D03*
D31*
X28231Y16326D02*
D03*
X35897D02*
D03*
D32*
X12540Y21000D02*
D03*
X39862Y3066D02*
D03*
D33*
X10000Y21000D02*
D03*
X7460D02*
D03*
X37322Y3066D02*
D03*
X34782D02*
D03*
D34*
X7566Y7176D02*
D03*
Y9716D02*
D03*
Y12256D02*
D03*
X15186Y14796D02*
D03*
Y12256D02*
D03*
Y9716D02*
D03*
Y7176D02*
D03*
D35*
X7566Y14796D02*
D03*
D36*
X34175Y24036D02*
D03*
X43125Y21748D02*
D03*
X43136Y19069D02*
D03*
X41722Y15919D02*
D03*
X18359Y12328D02*
D03*
X20663Y12386D02*
D03*
X23002D02*
D03*
X31569Y23770D02*
D03*
X22975Y7603D02*
D03*
X20688Y7581D02*
D03*
X18357D02*
D03*
X36439Y23122D02*
D03*
X41993Y6718D02*
D03*
X31493Y5997D02*
D03*
X22984Y20763D02*
D03*
X20637Y20834D02*
D03*
X18281Y20852D02*
D03*
X34189Y11516D02*
D03*
X27543Y22074D02*
D03*
X41448Y9340D02*
D03*
X5777Y17724D02*
D03*
X1438Y7259D02*
D03*
X1423Y9761D02*
D03*
X1408Y12263D02*
D03*
Y14795D02*
D03*
X22846Y2465D02*
D03*
X20455Y2481D02*
D03*
X18146Y2465D02*
D03*
X15978Y2791D02*
D03*
M02*
