G04*
G04 #@! TF.GenerationSoftware,Altium Limited,Altium Designer,20.2.7 (254)*
G04*
G04 Layer_Color=16711935*
%FSLAX43Y43*%
%MOMM*%
G71*
G04*
G04 #@! TF.SameCoordinates,DF3CF367-A293-4906-87DF-23C10940DAFD*
G04*
G04*
G04 #@! TF.FilePolarity,Negative*
G04*
G01*
G75*
%ADD10C,0.254*%
%ADD30C,1.803*%
G04:AMPARAMS|DCode=31|XSize=1.803mm|YSize=1.803mm|CornerRadius=0.502mm|HoleSize=0mm|Usage=FLASHONLY|Rotation=270.000|XOffset=0mm|YOffset=0mm|HoleType=Round|Shape=RoundedRectangle|*
%AMROUNDEDRECTD31*
21,1,1.803,0.800,0,0,270.0*
21,1,0.800,1.803,0,0,270.0*
1,1,1.003,-0.400,-0.400*
1,1,1.003,-0.400,0.400*
1,1,1.003,0.400,0.400*
1,1,1.003,0.400,-0.400*
%
%ADD31ROUNDEDRECTD31*%
%ADD32R,1.753X1.753*%
%ADD33C,1.753*%
%ADD34C,1.550*%
%ADD35R,1.550X1.550*%
%ADD36C,0.903*%
D10*
X44000Y18750D02*
Y25000D01*
Y0D02*
Y6250D01*
X0Y0D02*
Y25000D01*
X44000D01*
Y6250D02*
Y18750D01*
X0Y0D02*
X44000D01*
D30*
X28231Y8706D02*
D03*
Y11246D02*
D03*
Y13786D02*
D03*
X35897D02*
D03*
Y11246D02*
D03*
Y8706D02*
D03*
D31*
X28231Y16326D02*
D03*
X35897D02*
D03*
D32*
X12540Y21000D02*
D03*
X39862Y3066D02*
D03*
D33*
X10000Y21000D02*
D03*
X7460D02*
D03*
X37322Y3066D02*
D03*
X34782D02*
D03*
D34*
X7566Y7176D02*
D03*
Y9716D02*
D03*
Y12256D02*
D03*
X15186Y14796D02*
D03*
Y12256D02*
D03*
Y9716D02*
D03*
Y7176D02*
D03*
D35*
X7566Y14796D02*
D03*
D36*
X34175Y24036D02*
D03*
X43125Y21748D02*
D03*
X43136Y19069D02*
D03*
X41722Y15919D02*
D03*
X18359Y12328D02*
D03*
X20663Y12386D02*
D03*
X23002D02*
D03*
X31569Y23770D02*
D03*
X22975Y7603D02*
D03*
X20688Y7581D02*
D03*
X18357D02*
D03*
X36439Y23122D02*
D03*
X41993Y6718D02*
D03*
X31493Y5997D02*
D03*
X22984Y20763D02*
D03*
X20637Y20834D02*
D03*
X18281Y20852D02*
D03*
X34189Y11516D02*
D03*
X27543Y22074D02*
D03*
X41448Y9340D02*
D03*
X5777Y17724D02*
D03*
X1438Y7259D02*
D03*
X1423Y9761D02*
D03*
X1408Y12263D02*
D03*
Y14795D02*
D03*
X22846Y2465D02*
D03*
X20455Y2481D02*
D03*
X18146Y2465D02*
D03*
X15978Y2791D02*
D03*
M02*
