G04*
G04 #@! TF.GenerationSoftware,Altium Limited,Altium Designer,20.2.7 (254)*
G04*
G04 Layer_Physical_Order=1*
G04 Layer_Color=255*
%FSLAX43Y43*%
%MOMM*%
G71*
G04*
G04 #@! TF.SameCoordinates,DF3CF367-A293-4906-87DF-23C10940DAFD*
G04*
G04*
G04 #@! TF.FilePolarity,Positive*
G04*
G01*
G75*
%ADD10C,0.254*%
%ADD13R,1.500X1.550*%
%ADD14R,0.900X0.950*%
%ADD15R,0.910X1.220*%
%ADD16R,0.950X0.900*%
%ADD17R,1.400X1.100*%
%ADD18R,1.100X1.400*%
%ADD19R,1.550X1.500*%
%ADD20R,1.450X1.300*%
%ADD21R,1.300X1.450*%
%ADD22R,1.200X1.200*%
%ADD34C,1.550*%
%ADD35R,1.550X1.550*%
%ADD37C,0.508*%
%ADD38C,1.600*%
G04:AMPARAMS|DCode=39|XSize=1.6mm|YSize=1.6mm|CornerRadius=0.4mm|HoleSize=0mm|Usage=FLASHONLY|Rotation=270.000|XOffset=0mm|YOffset=0mm|HoleType=Round|Shape=RoundedRectangle|*
%AMROUNDEDRECTD39*
21,1,1.600,0.800,0,0,270.0*
21,1,0.800,1.600,0,0,270.0*
1,1,0.800,-0.400,-0.400*
1,1,0.800,-0.400,0.400*
1,1,0.800,0.400,0.400*
1,1,0.800,0.400,-0.400*
%
%ADD39ROUNDEDRECTD39*%
%ADD40R,1.550X1.550*%
%ADD41C,0.700*%
G36*
X44000Y-0D02*
X-0Y-0D01*
Y25000D01*
X44000Y25000D01*
Y-0D01*
D02*
G37*
%LPC*%
G36*
X34175Y24652D02*
X33939Y24605D01*
X33739Y24472D01*
X33606Y24272D01*
X33559Y24036D01*
X33606Y23801D01*
X33675Y23697D01*
Y23517D01*
X33458D01*
Y22109D01*
X34916D01*
Y23517D01*
X34711D01*
Y23752D01*
X34744Y23801D01*
X34791Y24036D01*
X34744Y24272D01*
X34610Y24472D01*
X34411Y24605D01*
X34175Y24652D01*
D02*
G37*
G36*
X29958Y22679D02*
X29131D01*
Y22002D01*
X29958D01*
Y22679D01*
D02*
G37*
G36*
X42690Y22578D02*
X41272D01*
Y20850D01*
X42690D01*
Y21213D01*
X42839D01*
X42890Y21179D01*
X43125Y21132D01*
X43361Y21179D01*
X43561Y21312D01*
X43694Y21512D01*
X43741Y21748D01*
X43694Y21984D01*
X43561Y22183D01*
X43361Y22317D01*
X43125Y22364D01*
X42890Y22317D01*
X42817Y22268D01*
X42690Y22313D01*
Y22578D01*
D02*
G37*
G36*
X36439Y23738D02*
X36203Y23691D01*
X36003Y23557D01*
X35870Y23358D01*
X35823Y23122D01*
X35870Y22886D01*
X35921Y22810D01*
Y22679D01*
X35538D01*
Y21071D01*
X37446D01*
Y22679D01*
X36957D01*
Y22810D01*
X37008Y22886D01*
X37054Y23122D01*
X37008Y23358D01*
X36874Y23557D01*
X36674Y23691D01*
X36439Y23738D01*
D02*
G37*
G36*
X29958Y21748D02*
X29131D01*
Y21071D01*
X29958D01*
Y21748D01*
D02*
G37*
G36*
X27543Y22690D02*
X27308Y22643D01*
X27108Y22509D01*
X27003Y22353D01*
X26977Y22348D01*
X26851Y22263D01*
X25069Y20481D01*
X24985Y20355D01*
X24956Y20207D01*
Y20188D01*
X24390D01*
Y18580D01*
X26298D01*
Y20188D01*
X26041D01*
X25992Y20305D01*
X27238Y21551D01*
X27308Y21505D01*
X27543Y21458D01*
X27779Y21505D01*
X27923Y21601D01*
X28050Y21533D01*
Y21071D01*
X28877D01*
Y21875D01*
Y22679D01*
X28050D01*
Y22615D01*
X27923Y22547D01*
X27779Y22643D01*
X27543Y22690D01*
D02*
G37*
G36*
X31569Y24385D02*
X31334Y24339D01*
X31134Y24205D01*
X31000Y24005D01*
X30953Y23770D01*
X31000Y23534D01*
X31051Y23458D01*
Y23188D01*
X30529D01*
Y21181D01*
Y20462D01*
X32587D01*
Y21181D01*
Y23188D01*
X32087D01*
Y23458D01*
X32138Y23534D01*
X32185Y23770D01*
X32138Y24005D01*
X32005Y24205D01*
X31805Y24339D01*
X31569Y24385D01*
D02*
G37*
G36*
X37446Y20929D02*
X36619D01*
Y20252D01*
X37446D01*
Y20929D01*
D02*
G37*
G36*
X36365D02*
X35538D01*
Y20252D01*
X36365D01*
Y20929D01*
D02*
G37*
G36*
X13569Y22029D02*
X11511D01*
Y19971D01*
X13569D01*
Y22029D01*
D02*
G37*
G36*
X10000Y22038D02*
X9731Y22003D01*
X9481Y21899D01*
X9266Y21734D01*
X9101Y21519D01*
X8997Y21269D01*
X8962Y21000D01*
X8997Y20731D01*
X9101Y20481D01*
X9266Y20266D01*
X9481Y20101D01*
X9731Y19997D01*
X10000Y19962D01*
X10269Y19997D01*
X10519Y20101D01*
X10734Y20266D01*
X10899Y20481D01*
X11003Y20731D01*
X11038Y21000D01*
X11003Y21269D01*
X10899Y21519D01*
X10734Y21734D01*
X10519Y21899D01*
X10269Y22003D01*
X10000Y22038D01*
D02*
G37*
G36*
X7460D02*
X7191Y22003D01*
X6941Y21899D01*
X6726Y21734D01*
X6561Y21519D01*
X6457Y21269D01*
X6422Y21000D01*
X6457Y20731D01*
X6561Y20481D01*
X6726Y20266D01*
X6941Y20101D01*
X7191Y19997D01*
X7460Y19962D01*
X7729Y19997D01*
X7979Y20101D01*
X8194Y20266D01*
X8359Y20481D01*
X8463Y20731D01*
X8498Y21000D01*
X8463Y21269D01*
X8359Y21519D01*
X8194Y21734D01*
X7979Y21899D01*
X7729Y22003D01*
X7460Y22038D01*
D02*
G37*
G36*
X39420Y22578D02*
X38002D01*
Y21423D01*
X37994Y21386D01*
Y20388D01*
X37563Y19957D01*
X37464Y19998D01*
X35538D01*
Y19321D01*
X36248D01*
X36284Y19194D01*
X36189Y19130D01*
X30052Y12993D01*
X29112D01*
X29049Y13120D01*
X29152Y13254D01*
X29258Y13511D01*
X29294Y13786D01*
X29258Y14061D01*
X29152Y14317D01*
X28983Y14537D01*
X28763Y14706D01*
X28506Y14813D01*
X28231Y14849D01*
X27956Y14813D01*
X27700Y14706D01*
X27480Y14537D01*
X27311Y14317D01*
X27204Y14061D01*
X27168Y13786D01*
X27204Y13511D01*
X27210Y13497D01*
X25698Y11985D01*
X23595D01*
X23535Y12097D01*
X23570Y12150D01*
X23617Y12386D01*
X23570Y12621D01*
X23541Y12665D01*
X23597Y12792D01*
X23969D01*
Y13374D01*
X24086Y13423D01*
X24137Y13371D01*
X24263Y13287D01*
X24390Y13262D01*
Y12842D01*
X26298D01*
Y14450D01*
X24484D01*
Y14592D01*
X26298D01*
Y16200D01*
X25550D01*
X25525Y16327D01*
X25440Y16453D01*
X25221Y16672D01*
X25175Y16703D01*
X25214Y16830D01*
X26298D01*
Y18438D01*
X24390D01*
Y18023D01*
X23969D01*
Y18396D01*
Y20204D01*
X23505D01*
Y20455D01*
X23553Y20527D01*
X23600Y20763D01*
X23553Y20999D01*
X23419Y21198D01*
X23220Y21332D01*
X22984Y21379D01*
X22748Y21332D01*
X22549Y21198D01*
X22415Y20999D01*
X22368Y20763D01*
X22415Y20527D01*
X22469Y20447D01*
Y20204D01*
X22011D01*
Y18396D01*
Y18038D01*
X21664D01*
Y18423D01*
Y20231D01*
X21155D01*
Y20522D01*
X21206Y20598D01*
X21253Y20834D01*
X21206Y21070D01*
X21072Y21270D01*
X20873Y21403D01*
X20637Y21450D01*
X20401Y21403D01*
X20202Y21270D01*
X20068Y21070D01*
X20021Y20834D01*
X20068Y20598D01*
X20119Y20522D01*
Y20231D01*
X19706D01*
Y18423D01*
Y18066D01*
X19277D01*
Y18423D01*
Y20231D01*
X18799D01*
Y20540D01*
X18850Y20616D01*
X18897Y20852D01*
X18850Y21087D01*
X18717Y21287D01*
X18517Y21421D01*
X18281Y21468D01*
X18045Y21421D01*
X17846Y21287D01*
X17712Y21087D01*
X17665Y20852D01*
X17712Y20616D01*
X17763Y20540D01*
Y20231D01*
X17319D01*
Y18423D01*
Y18066D01*
X17092D01*
X16944Y18036D01*
X16817Y17952D01*
X16669Y17803D01*
X16584Y17677D01*
X16555Y17529D01*
Y16546D01*
X16584Y16398D01*
X16669Y16272D01*
X16817Y16123D01*
X16944Y16039D01*
X17092Y16009D01*
X17369D01*
Y15707D01*
X17242Y15681D01*
X17116Y15597D01*
X16967Y15448D01*
X16883Y15322D01*
X16854Y15174D01*
Y14473D01*
X15586Y13205D01*
X15455Y13259D01*
X15186Y13294D01*
X14918Y13259D01*
X14667Y13155D01*
X14453Y12990D01*
X14288Y12775D01*
X14184Y12525D01*
X14149Y12256D01*
X14184Y11988D01*
X14288Y11738D01*
X14381Y11616D01*
X14318Y11489D01*
X8883D01*
X8515Y11857D01*
X8569Y11988D01*
X8604Y12256D01*
X8569Y12525D01*
X8465Y12775D01*
X8300Y12990D01*
X8085Y13155D01*
X7835Y13259D01*
X7566Y13294D01*
X7298Y13259D01*
X7047Y13155D01*
X6833Y12990D01*
X6668Y12775D01*
X6614Y12645D01*
X5386D01*
Y13262D01*
X1928D01*
Y12791D01*
X1705D01*
X1643Y12832D01*
X1408Y12879D01*
X1172Y12832D01*
X972Y12699D01*
X839Y12499D01*
X792Y12263D01*
X839Y12028D01*
X972Y11828D01*
X1172Y11694D01*
X1408Y11647D01*
X1643Y11694D01*
X1734Y11755D01*
X1928D01*
Y11304D01*
X5386D01*
Y11868D01*
X6614D01*
X6668Y11738D01*
X6833Y11523D01*
X7047Y11358D01*
X7298Y11254D01*
X7566Y11219D01*
X7835Y11254D01*
X7966Y11308D01*
X8448Y10826D01*
X8574Y10742D01*
X8722Y10712D01*
X14585D01*
X14628Y10585D01*
X14453Y10450D01*
X14288Y10235D01*
X14184Y9985D01*
X14149Y9716D01*
X14184Y9448D01*
X14288Y9198D01*
X14453Y8983D01*
X14667Y8818D01*
X14902Y8720D01*
Y8709D01*
X14932Y8561D01*
X15016Y8435D01*
X15117Y8333D01*
X15072Y8199D01*
X14918Y8179D01*
X14667Y8075D01*
X14453Y7910D01*
X14288Y7695D01*
X14184Y7445D01*
X14149Y7176D01*
X14184Y6908D01*
X14238Y6777D01*
X13998Y6538D01*
X13914Y6412D01*
X13885Y6263D01*
Y5229D01*
X13369D01*
Y3271D01*
X15433D01*
Y3062D01*
X15409Y3026D01*
X15362Y2791D01*
X15409Y2555D01*
X15542Y2355D01*
X15701Y2249D01*
X15662Y2122D01*
X13170D01*
X8515Y6777D01*
X8569Y6908D01*
X8604Y7176D01*
X8569Y7445D01*
X8465Y7695D01*
X8300Y7910D01*
X8085Y8075D01*
X7835Y8179D01*
X7566Y8214D01*
X7298Y8179D01*
X7047Y8075D01*
X6833Y7910D01*
X6668Y7695D01*
X6614Y7565D01*
X5386D01*
Y8195D01*
X1928D01*
Y7756D01*
X1782D01*
X1673Y7828D01*
X1438Y7875D01*
X1202Y7828D01*
X1002Y7695D01*
X869Y7495D01*
X822Y7259D01*
X869Y7024D01*
X1002Y6824D01*
X1202Y6690D01*
X1438Y6643D01*
X1673Y6690D01*
X1717Y6720D01*
X1928D01*
Y6237D01*
X5386D01*
Y6788D01*
X6614D01*
X6668Y6658D01*
X6833Y6443D01*
X7047Y6278D01*
X7298Y6174D01*
X7566Y6139D01*
X7835Y6174D01*
X7966Y6228D01*
X12734Y1459D01*
X12860Y1375D01*
X13009Y1346D01*
X24639D01*
X24788Y1375D01*
X24914Y1459D01*
X28506Y5052D01*
X28590Y5178D01*
X28620Y5326D01*
Y7726D01*
X28763Y7785D01*
X28983Y7954D01*
X29152Y8174D01*
X29258Y8431D01*
X29294Y8706D01*
X29258Y8981D01*
X29152Y9237D01*
X28983Y9457D01*
X28763Y9626D01*
X28506Y9733D01*
X28231Y9769D01*
X27956Y9733D01*
X27700Y9626D01*
X27480Y9457D01*
X27311Y9237D01*
X27204Y8981D01*
X27168Y8706D01*
X27204Y8431D01*
X27311Y8174D01*
X27480Y7954D01*
X27700Y7785D01*
X27843Y7726D01*
Y5487D01*
X26328Y3972D01*
X26210Y4021D01*
Y4944D01*
X24453D01*
Y5086D01*
X26210D01*
Y6694D01*
X24852D01*
X24523Y7023D01*
X24397Y7107D01*
X24248Y7136D01*
X23542D01*
X23474Y7263D01*
X23544Y7368D01*
X23590Y7603D01*
X23567Y7721D01*
X23671Y7848D01*
X23969D01*
Y9261D01*
X24086Y9310D01*
X24150Y9246D01*
X24225Y9195D01*
X24327Y9094D01*
X24328Y9087D01*
Y7898D01*
X26236D01*
Y9506D01*
X25121D01*
X25109Y9521D01*
X25170Y9648D01*
X26236D01*
Y10706D01*
X27087Y11557D01*
X27116Y11548D01*
X27200Y11491D01*
X27168Y11246D01*
X27204Y10971D01*
X27311Y10714D01*
X27480Y10494D01*
X27700Y10325D01*
X27956Y10219D01*
X28231Y10183D01*
X28506Y10219D01*
X28763Y10325D01*
X28983Y10494D01*
X29152Y10714D01*
X29258Y10971D01*
X29294Y11246D01*
X29258Y11521D01*
X29152Y11777D01*
X28983Y11997D01*
X28863Y12089D01*
X28906Y12216D01*
X30213D01*
X30361Y12246D01*
X30487Y12330D01*
X34720Y16563D01*
X34837Y16514D01*
Y15926D01*
X34860Y15755D01*
X34926Y15596D01*
X35031Y15459D01*
X35167Y15354D01*
X35326Y15289D01*
X35497Y15266D01*
X36297D01*
X36468Y15289D01*
X36627Y15354D01*
X36763Y15459D01*
X36868Y15596D01*
X36934Y15755D01*
X36957Y15926D01*
Y16726D01*
X36934Y16896D01*
X36868Y17056D01*
X36763Y17192D01*
X36627Y17297D01*
X36468Y17363D01*
X36297Y17385D01*
X35709D01*
X35660Y17503D01*
X36625Y18467D01*
X37012D01*
X37160Y18497D01*
X37286Y18581D01*
X38651Y19946D01*
X38678Y19944D01*
X38778Y19904D01*
Y18576D01*
X38606Y18404D01*
X38522Y18278D01*
X38493Y18129D01*
Y16916D01*
X37654D01*
Y15008D01*
X38713D01*
X38892Y14829D01*
X38843Y14711D01*
X37654D01*
Y14174D01*
X36877D01*
X36818Y14317D01*
X36649Y14537D01*
X36429Y14706D01*
X36172Y14813D01*
X35897Y14849D01*
X35622Y14813D01*
X35365Y14706D01*
X35145Y14537D01*
X34976Y14317D01*
X34870Y14061D01*
X34834Y13786D01*
X34870Y13511D01*
X34976Y13254D01*
X35145Y13034D01*
X35365Y12865D01*
X35622Y12759D01*
X35897Y12723D01*
X36172Y12759D01*
X36429Y12865D01*
X36649Y13034D01*
X36818Y13254D01*
X36877Y13397D01*
X37654D01*
Y12803D01*
X39262D01*
Y14148D01*
X39389Y14216D01*
X39397Y14210D01*
Y14180D01*
X39404Y14143D01*
Y12803D01*
X40463D01*
X40661Y12605D01*
X40613Y12488D01*
X39404D01*
Y11231D01*
X39389Y11221D01*
X39262Y11289D01*
Y12488D01*
X37654D01*
Y11634D01*
X36877D01*
X36818Y11777D01*
X36649Y11997D01*
X36429Y12166D01*
X36172Y12273D01*
X35897Y12309D01*
X35622Y12273D01*
X35365Y12166D01*
X35145Y11997D01*
X34976Y11777D01*
X34913Y11625D01*
X34781Y11638D01*
X34758Y11751D01*
X34625Y11951D01*
X34425Y12085D01*
X34189Y12132D01*
X33954Y12085D01*
X33754Y11951D01*
X33621Y11751D01*
X33574Y11516D01*
X33621Y11280D01*
X33754Y11080D01*
X33801Y11049D01*
Y7525D01*
X33831Y7376D01*
X33915Y7250D01*
X35052Y6113D01*
Y5205D01*
X36460D01*
Y6113D01*
X36644Y6298D01*
X37631D01*
Y5657D01*
X38247D01*
Y4540D01*
X37721Y4015D01*
X37591Y4069D01*
X37322Y4104D01*
X37054Y4069D01*
X36803Y3965D01*
X36588Y3800D01*
X36424Y3585D01*
X36320Y3335D01*
X36284Y3066D01*
X36320Y2798D01*
X36424Y2547D01*
X36588Y2332D01*
X36803Y2167D01*
X37054Y2064D01*
X37322Y2028D01*
X37591Y2064D01*
X37841Y2167D01*
X38056Y2332D01*
X38221Y2547D01*
X38325Y2798D01*
X38360Y3066D01*
X38325Y3335D01*
X38271Y3465D01*
X38716Y3911D01*
X38833Y3862D01*
Y2037D01*
X40891D01*
Y3546D01*
X42999Y5653D01*
X43083Y5779D01*
X43113Y5928D01*
Y11091D01*
X43083Y11240D01*
X42999Y11366D01*
X41012Y13353D01*
Y14711D01*
X40092D01*
X40060Y14759D01*
X39929Y14890D01*
X39977Y15008D01*
X41012D01*
Y15422D01*
X41378D01*
X41486Y15350D01*
X41722Y15303D01*
X41957Y15350D01*
X42157Y15483D01*
X42291Y15683D01*
X42337Y15919D01*
X42291Y16155D01*
X42157Y16354D01*
X41957Y16488D01*
X41722Y16535D01*
X41486Y16488D01*
X41442Y16458D01*
X41012D01*
Y16916D01*
X39404D01*
Y15717D01*
X39277Y15649D01*
X39262Y15659D01*
Y16347D01*
X39270Y16385D01*
Y17968D01*
X39328Y18026D01*
X42636D01*
Y18552D01*
X42824D01*
X42901Y18501D01*
X43136Y18454D01*
X43372Y18501D01*
X43572Y18634D01*
X43705Y18834D01*
X43752Y19069D01*
X43705Y19305D01*
X43572Y19505D01*
X43372Y19638D01*
X43136Y19685D01*
X42901Y19638D01*
X42824Y19587D01*
X42636D01*
Y20084D01*
X40031D01*
Y20854D01*
X40002Y21002D01*
X39918Y21128D01*
X39420Y21626D01*
Y22578D01*
D02*
G37*
G36*
X34916Y20367D02*
X34314D01*
Y19790D01*
X34916D01*
Y20367D01*
D02*
G37*
G36*
X34060D02*
X33458D01*
Y19790D01*
X34060D01*
Y20367D01*
D02*
G37*
G36*
X32587Y20208D02*
X31685D01*
Y19330D01*
X32587D01*
Y20208D01*
D02*
G37*
G36*
X31431D02*
X30529D01*
Y19330D01*
X31431D01*
Y20208D01*
D02*
G37*
G36*
X34916Y19536D02*
X34314D01*
Y18959D01*
X34916D01*
Y19536D01*
D02*
G37*
G36*
X34060D02*
X33458D01*
Y18959D01*
X34060D01*
Y19536D01*
D02*
G37*
G36*
X7973Y18550D02*
X6265D01*
Y18228D01*
X6110D01*
X6013Y18293D01*
X5777Y18340D01*
X5541Y18293D01*
X5342Y18160D01*
X5208Y17960D01*
X5161Y17724D01*
X5208Y17489D01*
X5342Y17289D01*
X5541Y17155D01*
X5777Y17108D01*
X6013Y17155D01*
X6068Y17192D01*
X6265D01*
Y16842D01*
X7973D01*
Y18550D01*
D02*
G37*
G36*
X11928Y18750D02*
X10320D01*
Y18084D01*
X10073D01*
Y18550D01*
X8365D01*
Y16842D01*
X10073D01*
Y17307D01*
X10320D01*
Y16842D01*
X11928D01*
Y18750D01*
D02*
G37*
G36*
X13170Y18760D02*
X13120Y18750D01*
X13001D01*
Y17923D01*
X13678D01*
Y18192D01*
X13688Y18242D01*
X13678Y18292D01*
Y18750D01*
X13220D01*
X13170Y18760D01*
D02*
G37*
G36*
X12747Y18750D02*
X12070D01*
Y17923D01*
X12747D01*
Y18750D01*
D02*
G37*
G36*
X13678Y17669D02*
X13001D01*
Y16842D01*
X13678D01*
Y17669D01*
D02*
G37*
G36*
X12747D02*
X12070D01*
Y17550D01*
X12060Y17500D01*
X12070Y17450D01*
Y16842D01*
X12747D01*
Y17669D01*
D02*
G37*
G36*
X4355Y15758D02*
X1928D01*
Y15305D01*
X1731D01*
X1643Y15364D01*
X1408Y15411D01*
X1172Y15364D01*
X972Y15231D01*
X839Y15031D01*
X792Y14795D01*
X839Y14559D01*
X972Y14360D01*
X1172Y14226D01*
X1408Y14179D01*
X1643Y14226D01*
X1708Y14269D01*
X1928D01*
Y13800D01*
X4355D01*
Y14779D01*
Y15758D01*
D02*
G37*
G36*
X29958Y20929D02*
X28050D01*
Y20028D01*
X27907Y19885D01*
X27795Y19717D01*
X27755Y19519D01*
Y17375D01*
X27661Y17363D01*
X27501Y17297D01*
X27365Y17192D01*
X27260Y17056D01*
X27194Y16896D01*
X27172Y16726D01*
Y15926D01*
X27194Y15755D01*
X27260Y15596D01*
X27365Y15459D01*
X27501Y15354D01*
X27661Y15289D01*
X27831Y15266D01*
X28631D01*
X28802Y15289D01*
X28961Y15354D01*
X29098Y15459D01*
X29203Y15596D01*
X29268Y15755D01*
X29291Y15926D01*
Y16726D01*
X29268Y16896D01*
X29203Y17056D01*
X29098Y17192D01*
X28961Y17297D01*
X28802Y17363D01*
X28791Y17364D01*
Y19304D01*
X28808Y19321D01*
X29958D01*
Y20929D01*
D02*
G37*
G36*
X8595Y15825D02*
X7693D01*
Y14923D01*
X8595D01*
Y15825D01*
D02*
G37*
G36*
X7439D02*
X6537D01*
Y14923D01*
X7439D01*
Y15825D01*
D02*
G37*
G36*
X5386Y15758D02*
X4609D01*
Y14906D01*
X5386D01*
Y15758D01*
D02*
G37*
G36*
Y14652D02*
X4609D01*
Y13800D01*
X5386D01*
Y14652D01*
D02*
G37*
G36*
X8595Y14669D02*
X7693D01*
Y13767D01*
X8595D01*
Y14669D01*
D02*
G37*
G36*
X7439D02*
X6537D01*
Y13767D01*
X7439D01*
Y14669D01*
D02*
G37*
G36*
X15186Y15834D02*
X14918Y15799D01*
X14667Y15695D01*
X14453Y15530D01*
X14288Y15315D01*
X14184Y15065D01*
X14149Y14796D01*
X14184Y14528D01*
X14288Y14278D01*
X14453Y14063D01*
X14667Y13898D01*
X14918Y13794D01*
X15186Y13759D01*
X15455Y13794D01*
X15705Y13898D01*
X15920Y14063D01*
X16085Y14278D01*
X16189Y14528D01*
X16224Y14796D01*
X16189Y15065D01*
X16085Y15315D01*
X15920Y15530D01*
X15705Y15695D01*
X15455Y15799D01*
X15186Y15834D01*
D02*
G37*
G36*
X7566Y10754D02*
X7298Y10719D01*
X7047Y10615D01*
X6833Y10450D01*
X6668Y10235D01*
X6614Y10105D01*
X5386D01*
Y10728D01*
X1928D01*
Y10273D01*
X1744D01*
X1658Y10330D01*
X1423Y10377D01*
X1187Y10330D01*
X987Y10197D01*
X854Y9997D01*
X807Y9761D01*
X854Y9526D01*
X987Y9326D01*
X1187Y9192D01*
X1423Y9145D01*
X1658Y9192D01*
X1725Y9237D01*
X1928D01*
Y8770D01*
X5386D01*
Y9328D01*
X6614D01*
X6668Y9198D01*
X6833Y8983D01*
X7047Y8818D01*
X7298Y8714D01*
X7566Y8679D01*
X7835Y8714D01*
X8085Y8818D01*
X8300Y8983D01*
X8465Y9198D01*
X8569Y9448D01*
X8604Y9716D01*
X8569Y9985D01*
X8465Y10235D01*
X8300Y10450D01*
X8085Y10615D01*
X7835Y10719D01*
X7566Y10754D01*
D02*
G37*
G36*
X33310Y6663D02*
X31902D01*
Y6602D01*
X31775Y6534D01*
X31728Y6565D01*
X31493Y6612D01*
X31257Y6565D01*
X31057Y6432D01*
X30924Y6232D01*
X30877Y5997D01*
X30924Y5761D01*
X31057Y5561D01*
X31257Y5428D01*
X31493Y5381D01*
X31669Y5416D01*
X31902D01*
Y5205D01*
X33310D01*
Y6663D01*
D02*
G37*
G36*
X34782Y4104D02*
X34514Y4069D01*
X34263Y3965D01*
X34048Y3800D01*
X33883Y3585D01*
X33780Y3335D01*
X33744Y3066D01*
X33780Y2798D01*
X33883Y2547D01*
X34048Y2332D01*
X34263Y2167D01*
X34514Y2064D01*
X34782Y2028D01*
X35051Y2064D01*
X35301Y2167D01*
X35516Y2332D01*
X35681Y2547D01*
X35785Y2798D01*
X35820Y3066D01*
X35785Y3335D01*
X35681Y3585D01*
X35516Y3800D01*
X35301Y3965D01*
X35051Y4069D01*
X34782Y4104D01*
D02*
G37*
%LPD*%
G36*
X22011Y14442D02*
Y12792D01*
X22421D01*
X22462Y12665D01*
X22433Y12621D01*
X22386Y12386D01*
X22433Y12150D01*
X22468Y12097D01*
X22408Y11985D01*
X21256D01*
X21196Y12097D01*
X21232Y12150D01*
X21279Y12386D01*
X21232Y12621D01*
X21203Y12665D01*
X21239Y12792D01*
X21661D01*
Y14442D01*
Y14958D01*
X22011D01*
Y14442D01*
D02*
G37*
G36*
X19703Y14442D02*
Y12792D01*
X20063D01*
X20123Y12665D01*
X20094Y12621D01*
X20047Y12386D01*
X20094Y12150D01*
X20129Y12097D01*
X20069Y11985D01*
X18992D01*
X18932Y12112D01*
X18975Y12328D01*
X18928Y12564D01*
X18876Y12642D01*
X18902Y12769D01*
X19327D01*
Y14419D01*
Y14958D01*
X19703D01*
Y14442D01*
D02*
G37*
G36*
X17369Y13724D02*
Y12769D01*
X17836D01*
Y12632D01*
X17790Y12564D01*
X17743Y12328D01*
X17786Y12112D01*
X17726Y11985D01*
X17615D01*
X17466Y11956D01*
X17340Y11872D01*
X16957Y11489D01*
X16055D01*
X15992Y11616D01*
X16085Y11738D01*
X16189Y11988D01*
X16224Y12256D01*
X16189Y12525D01*
X16135Y12656D01*
X17252Y13772D01*
X17369Y13724D01*
D02*
G37*
G36*
X42336Y10930D02*
Y7351D01*
X42209Y7291D01*
X41993Y7334D01*
X41757Y7287D01*
X41681Y7236D01*
X41489D01*
Y7715D01*
X38847D01*
Y8347D01*
X39262D01*
Y9687D01*
X39270Y9724D01*
Y9782D01*
X39277Y9788D01*
X39404Y9720D01*
Y8347D01*
X41012D01*
Y8803D01*
X41164D01*
X41212Y8771D01*
X41448Y8724D01*
X41683Y8771D01*
X41883Y8904D01*
X42017Y9104D01*
X42064Y9340D01*
X42017Y9575D01*
X41883Y9775D01*
X41683Y9908D01*
X41448Y9955D01*
X41212Y9908D01*
X41139Y9860D01*
X41012Y9907D01*
Y10255D01*
X39795D01*
X39747Y10373D01*
X39953Y10580D01*
X41012D01*
Y12088D01*
X41129Y12137D01*
X42336Y10930D01*
D02*
G37*
G36*
X19705Y9512D02*
Y7863D01*
X20009D01*
X20103Y7735D01*
X20073Y7581D01*
X20119Y7345D01*
X20174Y7263D01*
X20106Y7136D01*
X18939D01*
X18872Y7263D01*
X18926Y7345D01*
X18973Y7581D01*
X18942Y7735D01*
X19036Y7863D01*
X19327D01*
Y9512D01*
Y10013D01*
X19705D01*
Y9512D01*
D02*
G37*
G36*
X34843Y11178D02*
X34870Y10971D01*
X34976Y10714D01*
X35145Y10494D01*
X35365Y10325D01*
X35622Y10219D01*
X35897Y10183D01*
X36172Y10219D01*
X36429Y10325D01*
X36649Y10494D01*
X36818Y10714D01*
X36877Y10857D01*
X37654D01*
Y10580D01*
X38689D01*
X38737Y10462D01*
X38606Y10331D01*
X38556Y10255D01*
X37654D01*
Y8347D01*
X38070D01*
Y7715D01*
X37631D01*
Y7074D01*
X36483D01*
X36335Y7045D01*
X36209Y6961D01*
X35911Y6663D01*
X35601D01*
X34578Y7686D01*
Y11049D01*
X34625Y11080D01*
X34711Y11209D01*
X34843Y11178D01*
D02*
G37*
G36*
X16612Y6839D02*
Y6539D01*
X16641Y6390D01*
X16725Y6264D01*
X17153Y5837D01*
Y4578D01*
Y2929D01*
X17621D01*
Y2766D01*
X17577Y2701D01*
X17530Y2465D01*
X17573Y2249D01*
X17513Y2122D01*
X16293D01*
X16255Y2249D01*
X16413Y2355D01*
X16547Y2555D01*
X16594Y2791D01*
X16547Y3026D01*
X16469Y3144D01*
Y3271D01*
X16827D01*
Y5229D01*
X14662D01*
Y6102D01*
X14787Y6228D01*
X14918Y6174D01*
X15186Y6139D01*
X15455Y6174D01*
X15705Y6278D01*
X15920Y6443D01*
X16085Y6658D01*
X16189Y6908D01*
X16209Y7062D01*
X16343Y7107D01*
X16612Y6839D01*
D02*
G37*
G36*
X41757Y6149D02*
X41993Y6102D01*
X42094Y6122D01*
X42236Y6022D01*
X42240Y5993D01*
X40342Y4095D01*
X39056D01*
X38989Y4222D01*
X38994Y4230D01*
X39024Y4379D01*
Y5657D01*
X41489D01*
Y6200D01*
X41681D01*
X41757Y6149D01*
D02*
G37*
G36*
X24049Y3865D02*
X24175Y3781D01*
X24302Y3756D01*
Y3336D01*
X25526D01*
X25574Y3219D01*
X24478Y2122D01*
X23479D01*
X23419Y2249D01*
X23462Y2465D01*
X23415Y2701D01*
X23364Y2776D01*
Y2929D01*
X23826D01*
Y3923D01*
X23943Y3971D01*
X24049Y3865D01*
D02*
G37*
G36*
X21868Y4578D02*
Y2929D01*
X22328D01*
Y2778D01*
X22277Y2701D01*
X22230Y2465D01*
X22273Y2249D01*
X22213Y2122D01*
X21091D01*
X21022Y2227D01*
X21025Y2249D01*
X21071Y2481D01*
X21024Y2717D01*
X20990Y2767D01*
Y2929D01*
X21468D01*
Y4579D01*
Y5094D01*
X21868D01*
Y4578D01*
D02*
G37*
G36*
X19510Y4579D02*
Y2929D01*
X19907D01*
X19943Y2802D01*
X19886Y2717D01*
X19839Y2481D01*
X19885Y2249D01*
X19888Y2227D01*
X19819Y2122D01*
X18779D01*
X18719Y2249D01*
X18762Y2465D01*
X18715Y2701D01*
X18657Y2788D01*
Y2929D01*
X19111D01*
Y4578D01*
Y5094D01*
X19510D01*
Y4579D01*
D02*
G37*
%LPC*%
G36*
X35897Y9769D02*
X35622Y9733D01*
X35365Y9626D01*
X35145Y9457D01*
X34976Y9237D01*
X34870Y8981D01*
X34834Y8706D01*
X34870Y8431D01*
X34976Y8174D01*
X35145Y7954D01*
X35365Y7785D01*
X35622Y7679D01*
X35897Y7643D01*
X36172Y7679D01*
X36429Y7785D01*
X36649Y7954D01*
X36818Y8174D01*
X36924Y8431D01*
X36960Y8706D01*
X36924Y8981D01*
X36818Y9237D01*
X36649Y9457D01*
X36429Y9626D01*
X36172Y9733D01*
X35897Y9769D01*
D02*
G37*
%LPD*%
D10*
Y11246D02*
X38170D01*
X38394Y11469D01*
X35897Y13786D02*
X38430D01*
X38458Y13757D01*
X30213Y12605D02*
X36464Y18856D01*
X37012D02*
X38383Y20227D01*
X36464Y18856D02*
X37012D01*
X38711Y21714D02*
X38884Y21541D01*
X38956D01*
X39643Y19195D02*
X39782Y19055D01*
X39643Y19195D02*
Y20854D01*
X38956Y21541D02*
X39643Y20854D01*
X38383Y21386D02*
X38711Y21714D01*
X38383Y20227D02*
Y21386D01*
X27585Y12605D02*
X30213D01*
X25432Y10452D02*
X27585Y12605D01*
X25282Y10452D02*
X25432D01*
X39782Y19030D02*
Y19055D01*
X38881Y18129D02*
X39782Y19030D01*
X38881Y16385D02*
Y18129D01*
X38458Y15962D02*
X38881Y16385D01*
X25859Y11597D02*
X28048Y13786D01*
X17615Y11597D02*
X25859D01*
X17118Y11100D02*
X17615Y11597D01*
X24424Y9521D02*
X24450D01*
X24709Y9125D02*
Y9261D01*
X24450Y9521D02*
X24709Y9261D01*
X22990Y10402D02*
X23543D01*
X24424Y9521D01*
X24709Y9125D02*
X25132Y8702D01*
X25282D01*
X22990Y15346D02*
X23947D01*
X24096Y13962D02*
Y15197D01*
X23947Y15346D02*
X24096Y15197D01*
X20685Y15346D02*
X22990D01*
X22990Y15346D01*
X17242Y15174D02*
X17391Y15323D01*
X17242Y14312D02*
Y15174D01*
X17391Y15323D02*
X18348D01*
X15186Y12256D02*
Y12256D01*
X17242Y14312D01*
X18372Y15346D02*
X20682D01*
X17092Y17677D02*
X18298D01*
X17092Y16398D02*
X24947D01*
X16943Y16546D02*
X17092Y16398D01*
X16943Y16546D02*
Y17529D01*
X17092Y17677D01*
X22990Y17650D02*
X23005Y17634D01*
X25344D01*
X18298Y17677D02*
X20685D01*
X20713Y17650D02*
X22990D01*
X20685Y17677D02*
X20713Y17650D01*
X25166Y15574D02*
X25344Y15396D01*
X25166Y15574D02*
Y16178D01*
X24947Y16398D02*
X25166Y16178D01*
X18127Y6748D02*
X24248D01*
X25106Y5890D01*
X17000Y7875D02*
X18127Y6748D01*
X27458Y21989D02*
X27543Y22074D01*
X25344Y19384D02*
Y20207D01*
X27126Y21989D01*
X27458D01*
X39862Y3066D02*
X42724Y5928D01*
Y11091D01*
X40208Y13607D02*
Y13757D01*
Y13607D02*
X42724Y11091D01*
X37322Y3066D02*
X38635Y4379D01*
Y6686D01*
X35756Y5959D02*
X36066Y6269D01*
X36483Y6686D01*
X28231Y5326D02*
Y8706D01*
X24639Y1734D02*
X28231Y5326D01*
X13009Y1734D02*
X24639D01*
X7566Y7176D02*
X13009Y1734D01*
X28048Y13786D02*
X28231D01*
X8722Y11100D02*
X17118D01*
X7566Y12256D02*
X8722Y11100D01*
X36483Y6686D02*
X38635D01*
X35756Y5934D02*
Y5959D01*
X38458Y6863D02*
Y9301D01*
Y6863D02*
X38635Y6686D01*
X34189Y7525D02*
Y11516D01*
Y7525D02*
X35756Y5959D01*
X17000Y7875D02*
Y10268D01*
X17149Y10417D01*
X18348D01*
X22990Y10402D02*
Y10417D01*
X20684D02*
X22990D01*
X38458Y9301D02*
X38881Y9724D01*
Y10057D01*
X38458Y15812D02*
Y15962D01*
X40208Y11384D02*
Y11534D01*
X39785Y14180D02*
X40208Y13757D01*
X39785Y14180D02*
Y14485D01*
X38881Y10057D02*
X40208Y11384D01*
X38458Y15812D02*
X39785Y14485D01*
X25106Y5890D02*
X25256D01*
X22847Y5483D02*
X22847Y5483D01*
X18140Y5483D02*
X22847D01*
X18140Y5483D02*
X18140Y5483D01*
X22847Y5483D02*
X23804D01*
X24064Y5223D01*
Y4400D02*
Y5223D01*
Y4400D02*
X24324Y4140D01*
X25256D01*
X17000Y6539D02*
X18057Y5483D01*
X15291Y8709D02*
Y9612D01*
X17000Y6539D02*
Y7000D01*
X15186Y9716D02*
X15291Y9612D01*
Y8709D02*
X17000Y7000D01*
X18057Y5483D02*
X18132D01*
X18348Y10417D02*
X18363Y10402D01*
X20669D01*
X20684Y10417D01*
X4509Y12256D02*
X7566D01*
X14273Y6263D02*
X15186Y7176D01*
X14273Y4250D02*
Y6263D01*
X9219Y17696D02*
X11024D01*
X11074Y17746D01*
X4482Y7216D02*
X4522Y7176D01*
X7566D01*
X4482Y9749D02*
X4514Y9716D01*
X7566D01*
X4482Y12283D02*
X4509Y12256D01*
X24096Y13962D02*
X24412Y13646D01*
X25344D01*
X44000Y18750D02*
Y25000D01*
Y0D02*
Y6250D01*
X0Y0D02*
Y25000D01*
X44000D01*
Y6250D02*
Y18750D01*
X0Y0D02*
X44000D01*
D13*
X38635Y6686D02*
D03*
X40485D02*
D03*
X41632Y19055D02*
D03*
X39782D02*
D03*
D14*
X35756Y5934D02*
D03*
X32606D02*
D03*
D15*
X38711Y21714D02*
D03*
X41981D02*
D03*
D16*
X34187Y19663D02*
D03*
Y22813D02*
D03*
D17*
X29004Y20125D02*
D03*
Y21875D02*
D03*
X36492Y20125D02*
D03*
Y21875D02*
D03*
X25256Y5890D02*
D03*
Y4140D02*
D03*
X25282Y8702D02*
D03*
Y10452D02*
D03*
X25344Y13646D02*
D03*
Y15396D02*
D03*
Y17634D02*
D03*
Y19384D02*
D03*
D18*
X38458Y9301D02*
D03*
X40208D02*
D03*
X38458Y15962D02*
D03*
X40208D02*
D03*
X38458Y11534D02*
D03*
X40208D02*
D03*
X38458Y13757D02*
D03*
X40208D02*
D03*
X11124Y17796D02*
D03*
X12874D02*
D03*
D19*
X31558Y22184D02*
D03*
Y20334D02*
D03*
D20*
X22990Y8752D02*
D03*
Y10402D02*
D03*
X18132Y5483D02*
D03*
Y3832D02*
D03*
X20489Y5483D02*
D03*
Y3833D02*
D03*
X22847Y5483D02*
D03*
Y3832D02*
D03*
X18348Y10417D02*
D03*
Y8767D02*
D03*
X20684Y10417D02*
D03*
Y8767D02*
D03*
X18348Y15323D02*
D03*
Y13673D02*
D03*
X20682Y15346D02*
D03*
Y13696D02*
D03*
X22990Y15346D02*
D03*
Y13696D02*
D03*
X18298Y17677D02*
D03*
Y19327D02*
D03*
X20685Y17677D02*
D03*
Y19327D02*
D03*
X22990Y17650D02*
D03*
Y19300D02*
D03*
D21*
X4482Y7216D02*
D03*
X2832Y12283D02*
D03*
X4482D02*
D03*
X2832Y9749D02*
D03*
X4482D02*
D03*
X2832Y7216D02*
D03*
X15923Y4250D02*
D03*
X14273D02*
D03*
X4482Y14779D02*
D03*
X2832D02*
D03*
D22*
X9219Y17696D02*
D03*
X7119D02*
D03*
D34*
X10000Y21000D02*
D03*
X7460D02*
D03*
X37322Y3066D02*
D03*
X34782D02*
D03*
X7566Y7176D02*
D03*
Y9716D02*
D03*
Y12256D02*
D03*
X15186Y14796D02*
D03*
Y12256D02*
D03*
Y9716D02*
D03*
Y7176D02*
D03*
D35*
X7566Y14796D02*
D03*
D37*
X34175Y24036D02*
X34193Y24018D01*
Y22819D02*
Y24018D01*
X31569Y22196D02*
Y23770D01*
X31558Y22184D02*
X31569Y22196D01*
X34187Y22813D02*
X34193Y22819D01*
X28879Y20125D02*
X29004D01*
X28273Y19519D02*
X28879Y20125D01*
X28273Y16368D02*
Y19519D01*
X28231Y16326D02*
X28273Y16368D01*
X43108Y21731D02*
X43125Y21748D01*
X41998Y21731D02*
X43108D01*
X41981Y21714D02*
X41998Y21731D01*
X41810Y19069D02*
X43136D01*
X41714Y18974D02*
X41810Y19069D01*
X41632Y19055D02*
X41714Y18974D01*
X41700Y15940D02*
X41722Y15919D01*
X40229Y15940D02*
X41700D01*
X40208Y15962D02*
X40229Y15940D01*
X22996Y12392D02*
X23002Y12386D01*
X22996Y12392D02*
Y13690D01*
X22990Y13696D02*
X22996Y13690D01*
X20663Y12386D02*
X20672Y12395D01*
Y13686D01*
X20682Y13696D01*
X18353Y12333D02*
X18359Y12328D01*
X18353Y12333D02*
Y13667D01*
X18348Y13673D02*
X18353Y13667D01*
X22975Y7603D02*
X22982Y7611D01*
Y8744D01*
X22990Y8752D01*
X20686Y7583D02*
X20688Y7581D01*
X20686Y7583D02*
Y8764D01*
X20684Y8767D02*
X20686Y8764D01*
X18348Y8767D02*
X18353Y8762D01*
Y7585D02*
Y8762D01*
Y7585D02*
X18357Y7581D01*
X36439Y21928D02*
X36492Y21875D01*
X36439Y21928D02*
Y23122D01*
X40517Y6718D02*
X41993D01*
X40517Y6718D02*
X40517Y6718D01*
X40485Y6686D02*
X40517Y6718D01*
X31608Y5934D02*
X32606D01*
X31545Y5997D02*
X31608Y5934D01*
X31493Y5997D02*
X31545D01*
X22984Y20763D02*
X22987Y20760D01*
Y19302D02*
Y20760D01*
Y19302D02*
X22990Y19300D01*
X20637Y19411D02*
Y20834D01*
Y19411D02*
X20664Y19385D01*
X20646Y19367D02*
X20664Y19385D01*
X18281Y19486D02*
Y20852D01*
X18210Y19415D02*
X18281Y19486D01*
X18210Y19415D02*
X18298Y19327D01*
X20646Y19367D02*
X20685Y19327D01*
X38329Y11404D02*
X38458Y11534D01*
X40208Y9301D02*
X40227Y9320D01*
X40208Y9246D02*
Y9301D01*
Y9246D02*
X40219Y9235D01*
X41429Y9320D02*
X41448Y9340D01*
X40227Y9320D02*
X41429D01*
X7105Y17710D02*
X7119Y17696D01*
X5791Y17710D02*
X7105D01*
X5777Y17724D02*
X5791Y17710D01*
X2811Y7238D02*
X2832Y7216D01*
X1459Y7238D02*
X2811D01*
X1438Y7259D02*
X1459Y7238D01*
X2826Y9755D02*
X2832Y9749D01*
X1429Y9755D02*
X2826D01*
X1423Y9761D02*
X1429Y9755D01*
X2822Y12273D02*
X2832Y12283D01*
X1417Y12273D02*
X2822D01*
X1408Y12263D02*
X1417Y12273D01*
X2824Y14787D02*
X2832Y14779D01*
X1416Y14787D02*
X2824D01*
X1408Y14795D02*
X1416Y14787D01*
X22846Y3832D02*
X22847Y3832D01*
X22846Y2466D02*
Y3832D01*
X22846Y2465D02*
X22846Y2466D01*
X20472Y3815D02*
X20489Y3833D01*
X20472Y2498D02*
Y3815D01*
X20455Y2481D02*
X20472Y2498D01*
X18132Y3832D02*
X18139Y3825D01*
Y2472D02*
Y3825D01*
Y2472D02*
X18146Y2465D01*
X15923Y4250D02*
X15951Y4223D01*
Y2818D02*
Y4223D01*
Y2818D02*
X15978Y2791D01*
X14273Y4250D02*
X14298Y4274D01*
X7550Y9733D02*
X7566Y9716D01*
X2820Y7204D02*
X2832Y7216D01*
X2795Y14742D02*
X2832Y14779D01*
X2783Y12332D02*
X2832Y12283D01*
X12874Y17796D02*
Y17946D01*
X13170Y18242D01*
X12578Y17500D02*
X12874Y17796D01*
X9219Y17696D02*
X9269Y17746D01*
X11074D02*
X11124Y17796D01*
D38*
X28231Y8706D02*
D03*
Y11246D02*
D03*
Y13786D02*
D03*
X35897D02*
D03*
Y11246D02*
D03*
Y8706D02*
D03*
D39*
X28231Y16326D02*
D03*
X35897D02*
D03*
D40*
X12540Y21000D02*
D03*
X39862Y3066D02*
D03*
D41*
X34175Y24036D02*
D03*
X43125Y21748D02*
D03*
X43136Y19069D02*
D03*
X41722Y15919D02*
D03*
X18359Y12328D02*
D03*
X20663Y12386D02*
D03*
X23002D02*
D03*
X31569Y23770D02*
D03*
X22975Y7603D02*
D03*
X20688Y7581D02*
D03*
X18357D02*
D03*
X36439Y23122D02*
D03*
X41993Y6718D02*
D03*
X31493Y5997D02*
D03*
X22984Y20763D02*
D03*
X20637Y20834D02*
D03*
X18281Y20852D02*
D03*
X34189Y11516D02*
D03*
X27543Y22074D02*
D03*
X41448Y9340D02*
D03*
X5777Y17724D02*
D03*
X1438Y7259D02*
D03*
X1423Y9761D02*
D03*
X1408Y12263D02*
D03*
Y14795D02*
D03*
X22846Y2465D02*
D03*
X20455Y2481D02*
D03*
X18146Y2465D02*
D03*
X15978Y2791D02*
D03*
M02*
