G04*
G04 #@! TF.GenerationSoftware,Altium Limited,Altium Designer,20.2.7 (254)*
G04*
G04 Layer_Color=65535*
%FSLAX43Y43*%
%MOMM*%
G71*
G04*
G04 #@! TF.SameCoordinates,DF3CF367-A293-4906-87DF-23C10940DAFD*
G04*
G04*
G04 #@! TF.FilePolarity,Positive*
G04*
G01*
G75*
%ADD10C,0.254*%
%ADD11C,0.250*%
%ADD12C,0.200*%
D10*
X27306Y18557D02*
X27203Y18771D01*
X26972Y18823D01*
X26787Y18676D01*
Y18439D01*
X26972Y18292D01*
X27203Y18344D01*
X27306Y18557D01*
X5782Y16420D02*
X5659Y16632D01*
X5414D01*
X5292Y16420D01*
X5414Y16208D01*
X5659D01*
X5782Y16420D01*
X44000Y18750D02*
Y25000D01*
Y0D02*
Y6250D01*
X0Y0D02*
Y25000D01*
X44000D01*
Y6250D02*
Y18750D01*
X0Y0D02*
X44000D01*
D11*
X14585Y21000D02*
X14398Y21108D01*
Y20892D01*
X14585Y21000D01*
X41907Y3066D02*
X41720Y3175D01*
Y2958D01*
X41907Y3066D01*
X37006Y5984D02*
X36818Y6092D01*
Y5875D01*
X37006Y5984D01*
X38836Y22874D02*
X38648Y22982D01*
Y22765D01*
X38836Y22874D01*
X34362Y18538D02*
X34175Y18646D01*
Y18430D01*
X34362Y18538D01*
X6011Y14781D02*
X5824Y14890D01*
Y14673D01*
X6011Y14781D01*
X6044Y17696D02*
X5857Y17804D01*
Y17587D01*
X6044Y17696D01*
D12*
X6190Y19755D02*
X13810D01*
X6190Y22245D02*
X13810D01*
Y19755D02*
Y22245D01*
X6190Y19755D02*
Y22245D01*
X33512Y1821D02*
X41132D01*
X33512Y4311D02*
X41132D01*
Y1821D02*
Y4311D01*
X33512Y1821D02*
Y4311D01*
X33431Y5084D02*
X34931D01*
X33431Y6784D02*
X34931D01*
X39566Y20914D02*
Y22514D01*
X41126D01*
X39566Y20914D02*
X41126D01*
Y22514D01*
X33337Y20488D02*
Y21988D01*
X35037Y20488D02*
Y21988D01*
X6276Y16166D02*
X16476D01*
X6276Y5806D02*
Y16166D01*
Y5806D02*
X16476D01*
Y16166D01*
X7169Y16721D02*
X9169D01*
X7169Y18671D02*
X9169D01*
X39172Y1400D02*
Y733D01*
X39505Y400D01*
X39838Y733D01*
Y1400D01*
X40171Y400D02*
X40505D01*
X40338D01*
Y1067D01*
X40171D01*
X41005Y400D02*
Y1067D01*
X41504D01*
X41671Y900D01*
Y400D01*
X36096Y1379D02*
X36763D01*
X36430D01*
Y379D01*
X37096D02*
X37429D01*
X37263D01*
Y1045D01*
X37096D01*
X37929Y379D02*
Y1045D01*
X38429D01*
X38596Y879D01*
Y379D01*
X33603Y1254D02*
X33436Y1421D01*
X33103D01*
X32936Y1254D01*
Y588D01*
X33103Y421D01*
X33436D01*
X33603Y588D01*
Y921D01*
X33269D01*
X33936Y421D02*
Y1421D01*
X34602Y421D01*
Y1421D01*
X34935D02*
Y421D01*
X35435D01*
X35602Y588D01*
Y1254D01*
X35435Y1421D01*
X34935D01*
X7772Y23876D02*
X8438D01*
X8105D01*
Y22877D01*
X8938Y23543D02*
X9271D01*
X9438Y23376D01*
Y22877D01*
X8938D01*
X8771Y23043D01*
X8938Y23210D01*
X9438D01*
X10437Y23876D02*
Y22877D01*
X9938D01*
X9771Y23043D01*
Y23376D01*
X9938Y23543D01*
X10437D01*
X11437D02*
X10937D01*
X10771Y23376D01*
Y23043D01*
X10937Y22877D01*
X11437D01*
X12069Y23876D02*
Y23210D01*
X12402Y22877D01*
X12736Y23210D01*
Y23876D01*
X13236Y23543D02*
X13569D01*
X13735Y23376D01*
Y22877D01*
X13236D01*
X13069Y23043D01*
X13236Y23210D01*
X13735D01*
X14735Y23876D02*
Y22877D01*
X14235D01*
X14069Y23043D01*
Y23376D01*
X14235Y23543D01*
X14735D01*
X15735D02*
X15235D01*
X15068Y23376D01*
Y23043D01*
X15235Y22877D01*
X15735D01*
X5176Y23728D02*
X5009Y23894D01*
X4676D01*
X4509Y23728D01*
Y23061D01*
X4676Y22895D01*
X5009D01*
X5176Y23061D01*
Y23395D01*
X4842D01*
X5509Y22895D02*
Y23894D01*
X6175Y22895D01*
Y23894D01*
X6509D02*
Y22895D01*
X7008D01*
X7175Y23061D01*
Y23728D01*
X7008Y23894D01*
X6509D01*
M02*
