M48
;Layer_Color=9474304
;FILE_FORMAT=4:3
METRIC,TZ
;TYPE=PLATED
T1F00S00C0.400
T2F00S00C1.000
T3F00S00C1.020
T4F00S00C1.100
%
T01
X41993Y6718
X41448Y9340
X31493Y5997
X22975Y7603
X20688Y7581
X18357
X18146Y2465
X20455Y2481
X22846Y2465
X15978Y2791
X1438Y7259
X1423Y9761
X1408Y12263
Y14795
X5777Y17724
X18281Y20852
X20637Y20834
X22984Y20763
X27543Y22074
X31569Y23770
X34175Y24036
X36439Y23122
X34189Y11516
X23002Y12386
X20663
X18359Y12328
X41722Y15919
X43136Y19069
X43125Y21748
T02
X7566Y7176
X15186
Y9716
Y12256
Y14796
X7566
Y12256
Y9716
T03
X39862Y3066
X37322
X34782
X12540Y21000
X10000
X7460
T04
X28231Y8706
X35897
Y11246
Y13786
Y16326
X28231
Y13786
Y11246
M30
