G04*
G04 #@! TF.GenerationSoftware,Altium Limited,Altium Designer,20.2.7 (254)*
G04*
G04 Layer_Physical_Order=2*
G04 Layer_Color=16711680*
%FSAX25Y25*%
%MOIN*%
G70*
G04*
G04 #@! TF.SameCoordinates,1B070C9D-936C-4A0F-866C-AF898DE0267E*
G04*
G04*
G04 #@! TF.FilePolarity,Positive*
G04*
G01*
G75*
%ADD15C,0.01000*%
%ADD67C,0.03150*%
%ADD68R,0.05906X0.05906*%
%ADD69C,0.05906*%
%ADD70C,0.02362*%
%ADD71C,0.04724*%
%ADD72R,0.04724X0.04724*%
%ADD73C,0.06496*%
%ADD74R,0.06791X0.06791*%
%ADD75C,0.06791*%
%ADD76C,0.05000*%
G36*
X0206693Y0226378D02*
Y0000000D01*
X0000000D01*
Y0226418D01*
X0000354Y0226771D01*
X0206693Y0226378D01*
D02*
G37*
%LPC*%
G36*
X0074910Y0223641D02*
Y0220677D01*
X0077874D01*
X0077819Y0221091D01*
X0077467Y0221942D01*
X0076906Y0222673D01*
X0076174Y0223234D01*
X0075323Y0223587D01*
X0074910Y0223641D01*
D02*
G37*
G36*
X0073909D02*
X0073496Y0223587D01*
X0072644Y0223234D01*
X0071913Y0222673D01*
X0071352Y0221942D01*
X0070999Y0221091D01*
X0070945Y0220677D01*
X0073909D01*
Y0223641D01*
D02*
G37*
G36*
X0077874Y0219677D02*
X0074910D01*
Y0216713D01*
X0075323Y0216767D01*
X0076174Y0217120D01*
X0076906Y0217681D01*
X0077467Y0218412D01*
X0077819Y0219264D01*
X0077874Y0219677D01*
D02*
G37*
G36*
X0073909D02*
X0070945D01*
X0070999Y0219264D01*
X0071352Y0218412D01*
X0071913Y0217681D01*
X0072644Y0217120D01*
X0073496Y0216767D01*
X0073909Y0216713D01*
Y0219677D01*
D02*
G37*
G36*
X0061130Y0192834D02*
Y0189870D01*
X0064094D01*
X0064040Y0190284D01*
X0063687Y0191135D01*
X0063126Y0191866D01*
X0062395Y0192427D01*
X0061544Y0192780D01*
X0061130Y0192834D01*
D02*
G37*
G36*
X0060130D02*
X0059716Y0192780D01*
X0058865Y0192427D01*
X0058134Y0191866D01*
X0057573Y0191135D01*
X0057220Y0190284D01*
X0057165Y0189870D01*
X0060130D01*
Y0192834D01*
D02*
G37*
G36*
X0017724Y0192736D02*
Y0189772D01*
X0020689D01*
X0020634Y0190185D01*
X0020282Y0191037D01*
X0019721Y0191768D01*
X0018990Y0192329D01*
X0018138Y0192682D01*
X0017724Y0192736D01*
D02*
G37*
G36*
X0016724D02*
X0016311Y0192682D01*
X0015459Y0192329D01*
X0014728Y0191768D01*
X0014167Y0191037D01*
X0013814Y0190185D01*
X0013760Y0189772D01*
X0016724D01*
Y0192736D01*
D02*
G37*
G36*
X0184924Y0196787D02*
X0183871Y0196648D01*
X0182889Y0196241D01*
X0182046Y0195595D01*
X0181399Y0194752D01*
X0180993Y0193770D01*
X0180854Y0192717D01*
X0180993Y0191663D01*
X0181399Y0190681D01*
X0182046Y0189838D01*
X0182889Y0189192D01*
X0183871Y0188785D01*
X0184924Y0188646D01*
X0185978Y0188785D01*
X0186959Y0189192D01*
X0187802Y0189838D01*
X0188449Y0190681D01*
X0188856Y0191663D01*
X0188995Y0192717D01*
X0188856Y0193770D01*
X0188449Y0194752D01*
X0187802Y0195595D01*
X0186959Y0196241D01*
X0185978Y0196648D01*
X0184924Y0196787D01*
D02*
G37*
G36*
X0064094Y0188870D02*
X0061130D01*
Y0185906D01*
X0061544Y0185960D01*
X0062395Y0186313D01*
X0063126Y0186874D01*
X0063687Y0187605D01*
X0064040Y0188456D01*
X0064094Y0188870D01*
D02*
G37*
G36*
X0060130D02*
X0057165D01*
X0057220Y0188456D01*
X0057573Y0187605D01*
X0058134Y0186874D01*
X0058865Y0186313D01*
X0059716Y0185960D01*
X0060130Y0185906D01*
Y0188870D01*
D02*
G37*
G36*
X0020689Y0188772D02*
X0017724D01*
Y0185807D01*
X0018138Y0185862D01*
X0018990Y0186214D01*
X0019721Y0186775D01*
X0020282Y0187506D01*
X0020634Y0188358D01*
X0020689Y0188772D01*
D02*
G37*
G36*
X0016724D02*
X0013760D01*
X0013814Y0188358D01*
X0014167Y0187506D01*
X0014728Y0186775D01*
X0015459Y0186214D01*
X0016311Y0185862D01*
X0016724Y0185807D01*
Y0188772D01*
D02*
G37*
G36*
X0089870Y0187716D02*
Y0184752D01*
X0092835D01*
X0092780Y0185166D01*
X0092427Y0186017D01*
X0091866Y0186748D01*
X0091135Y0187309D01*
X0090284Y0187662D01*
X0089870Y0187716D01*
D02*
G37*
G36*
X0088870D02*
X0088456Y0187662D01*
X0087605Y0187309D01*
X0086874Y0186748D01*
X0086313Y0186017D01*
X0085960Y0185166D01*
X0085906Y0184752D01*
X0088870D01*
Y0187716D01*
D02*
G37*
G36*
X0104844Y0186929D02*
Y0183965D01*
X0107809D01*
X0107754Y0184378D01*
X0107402Y0185230D01*
X0106841Y0185961D01*
X0106110Y0186522D01*
X0105258Y0186874D01*
X0104844Y0186929D01*
D02*
G37*
G36*
X0103844D02*
X0103431Y0186874D01*
X0102579Y0186522D01*
X0101848Y0185961D01*
X0101287Y0185230D01*
X0100935Y0184378D01*
X0100880Y0183965D01*
X0103844D01*
Y0186929D01*
D02*
G37*
G36*
X0138689Y0184567D02*
Y0181602D01*
X0141653D01*
X0141599Y0182016D01*
X0141246Y0182868D01*
X0140685Y0183599D01*
X0139954Y0184160D01*
X0139103Y0184512D01*
X0138689Y0184567D01*
D02*
G37*
G36*
X0137689D02*
X0137275Y0184512D01*
X0136424Y0184160D01*
X0135693Y0183599D01*
X0135132Y0182868D01*
X0134779Y0182016D01*
X0134725Y0181602D01*
X0137689D01*
Y0184567D01*
D02*
G37*
G36*
X0092835Y0183752D02*
X0089870D01*
Y0180788D01*
X0090284Y0180842D01*
X0091135Y0181195D01*
X0091866Y0181756D01*
X0092427Y0182487D01*
X0092780Y0183338D01*
X0092835Y0183752D01*
D02*
G37*
G36*
X0088870D02*
X0085906D01*
X0085960Y0183338D01*
X0086313Y0182487D01*
X0086874Y0181756D01*
X0087605Y0181195D01*
X0088456Y0180842D01*
X0088870Y0180788D01*
Y0183752D01*
D02*
G37*
G36*
X0107809Y0182965D02*
X0104844D01*
Y0180000D01*
X0105258Y0180055D01*
X0106110Y0180407D01*
X0106841Y0180968D01*
X0107402Y0181700D01*
X0107754Y0182551D01*
X0107809Y0182965D01*
D02*
G37*
G36*
X0103844D02*
X0100880D01*
X0100935Y0182551D01*
X0101287Y0181700D01*
X0101848Y0180968D01*
X0102579Y0180407D01*
X0103431Y0180055D01*
X0103844Y0180000D01*
Y0182965D01*
D02*
G37*
G36*
X0141653Y0180602D02*
X0138689D01*
Y0177638D01*
X0139103Y0177692D01*
X0139954Y0178045D01*
X0140685Y0178606D01*
X0141246Y0179337D01*
X0141599Y0180189D01*
X0141653Y0180602D01*
D02*
G37*
G36*
X0137689D02*
X0134725D01*
X0134779Y0180189D01*
X0135132Y0179337D01*
X0135693Y0178606D01*
X0136424Y0178045D01*
X0137275Y0177692D01*
X0137689Y0177638D01*
Y0180602D01*
D02*
G37*
G36*
X0185424Y0177250D02*
Y0173531D01*
X0189143D01*
X0189063Y0174141D01*
X0188635Y0175174D01*
X0187954Y0176061D01*
X0187067Y0176742D01*
X0186033Y0177170D01*
X0185424Y0177250D01*
D02*
G37*
G36*
X0184424D02*
X0183815Y0177170D01*
X0182782Y0176742D01*
X0181895Y0176061D01*
X0181214Y0175174D01*
X0180786Y0174141D01*
X0180705Y0173531D01*
X0184424D01*
Y0177250D01*
D02*
G37*
G36*
Y0172531D02*
X0180705D01*
X0180786Y0171923D01*
X0181214Y0170889D01*
X0181895Y0170002D01*
X0182782Y0169321D01*
X0183815Y0168893D01*
X0184424Y0168813D01*
Y0172531D01*
D02*
G37*
G36*
X0189143D02*
X0185424D01*
Y0168813D01*
X0186033Y0168893D01*
X0187067Y0169321D01*
X0187954Y0170002D01*
X0188635Y0170889D01*
X0189063Y0171923D01*
X0189143Y0172531D01*
D02*
G37*
G36*
X0070087Y0165669D02*
Y0162705D01*
X0073051D01*
X0072996Y0163118D01*
X0072644Y0163970D01*
X0072083Y0164701D01*
X0071352Y0165262D01*
X0070500Y0165615D01*
X0070087Y0165669D01*
D02*
G37*
G36*
X0069087D02*
X0068673Y0165615D01*
X0067822Y0165262D01*
X0067090Y0164701D01*
X0066529Y0163970D01*
X0066177Y0163118D01*
X0066122Y0162705D01*
X0069087D01*
Y0165669D01*
D02*
G37*
G36*
X0073051Y0161705D02*
X0070087D01*
Y0158740D01*
X0070500Y0158795D01*
X0071352Y0159148D01*
X0072083Y0159708D01*
X0072644Y0160440D01*
X0072996Y0161291D01*
X0073051Y0161705D01*
D02*
G37*
G36*
X0069087D02*
X0066122D01*
X0066177Y0161291D01*
X0066529Y0160440D01*
X0067090Y0159708D01*
X0067822Y0159148D01*
X0068673Y0158795D01*
X0069087Y0158740D01*
Y0161705D01*
D02*
G37*
G36*
X0068169Y0157482D02*
Y0154518D01*
X0071134D01*
X0071079Y0154931D01*
X0070726Y0155783D01*
X0070165Y0156514D01*
X0069434Y0157075D01*
X0068583Y0157428D01*
X0068169Y0157482D01*
D02*
G37*
G36*
X0067169D02*
X0066755Y0157428D01*
X0065904Y0157075D01*
X0065173Y0156514D01*
X0064612Y0155783D01*
X0064259Y0154931D01*
X0064205Y0154518D01*
X0067169D01*
Y0157482D01*
D02*
G37*
G36*
X0071134Y0153518D02*
X0068169D01*
Y0150553D01*
X0068583Y0150608D01*
X0069434Y0150961D01*
X0070165Y0151522D01*
X0070726Y0152253D01*
X0071079Y0153104D01*
X0071134Y0153518D01*
D02*
G37*
G36*
X0067169D02*
X0064205D01*
X0064259Y0153104D01*
X0064612Y0152253D01*
X0065173Y0151522D01*
X0065904Y0150961D01*
X0066755Y0150608D01*
X0067169Y0150553D01*
Y0153518D01*
D02*
G37*
G36*
X0064280Y0145197D02*
Y0142232D01*
X0067244D01*
X0067189Y0142646D01*
X0066837Y0143497D01*
X0066276Y0144228D01*
X0065545Y0144790D01*
X0064693Y0145142D01*
X0064280Y0145197D01*
D02*
G37*
G36*
X0063279D02*
X0062866Y0145142D01*
X0062014Y0144790D01*
X0061283Y0144228D01*
X0060722Y0143497D01*
X0060370Y0142646D01*
X0060315Y0142232D01*
X0063279D01*
Y0145197D01*
D02*
G37*
G36*
X0067244Y0141232D02*
X0064280D01*
Y0138268D01*
X0064693Y0138322D01*
X0065545Y0138675D01*
X0066276Y0139236D01*
X0066837Y0139967D01*
X0067189Y0140819D01*
X0067244Y0141232D01*
D02*
G37*
G36*
X0063279D02*
X0060315D01*
X0060370Y0140819D01*
X0060722Y0139967D01*
X0061283Y0139236D01*
X0062014Y0138675D01*
X0062866Y0138322D01*
X0063279Y0138268D01*
Y0141232D01*
D02*
G37*
G36*
X0182644Y0146070D02*
X0181552Y0145926D01*
X0180534Y0145504D01*
X0179660Y0144834D01*
X0178990Y0143960D01*
X0178568Y0142942D01*
X0178425Y0141850D01*
X0178568Y0140758D01*
X0178990Y0139741D01*
X0179660Y0138867D01*
X0180534Y0138197D01*
X0181552Y0137775D01*
X0182644Y0137631D01*
X0183736Y0137775D01*
X0184753Y0138197D01*
X0185627Y0138867D01*
X0186298Y0139741D01*
X0186719Y0140758D01*
X0186863Y0141850D01*
X0186719Y0142942D01*
X0186298Y0143960D01*
X0185627Y0144834D01*
X0184753Y0145504D01*
X0183736Y0145926D01*
X0182644Y0146070D01*
D02*
G37*
G36*
Y0136070D02*
X0181552Y0135926D01*
X0180534Y0135504D01*
X0179660Y0134834D01*
X0178990Y0133960D01*
X0178568Y0132942D01*
X0178425Y0131850D01*
X0178568Y0130758D01*
X0178990Y0129741D01*
X0179660Y0128867D01*
X0180534Y0128197D01*
X0181552Y0127775D01*
X0182644Y0127631D01*
X0183736Y0127775D01*
X0184753Y0128197D01*
X0185627Y0128867D01*
X0186298Y0129741D01*
X0186719Y0130758D01*
X0186863Y0131850D01*
X0186719Y0132942D01*
X0186298Y0133960D01*
X0185627Y0134834D01*
X0184753Y0135504D01*
X0183736Y0135926D01*
X0182644Y0136070D01*
D02*
G37*
G36*
X0183144Y0126218D02*
Y0122350D01*
X0187011D01*
X0186926Y0122998D01*
X0186483Y0124067D01*
X0185779Y0124985D01*
X0184861Y0125690D01*
X0183791Y0126133D01*
X0183144Y0126218D01*
D02*
G37*
G36*
X0182144D02*
X0181496Y0126133D01*
X0180427Y0125690D01*
X0179509Y0124985D01*
X0178804Y0124067D01*
X0178361Y0122998D01*
X0178276Y0122350D01*
X0182144D01*
Y0126218D01*
D02*
G37*
G36*
X0091844Y0125023D02*
Y0121602D01*
X0095266D01*
X0095196Y0122134D01*
X0094797Y0123096D01*
X0094164Y0123922D01*
X0093338Y0124555D01*
X0092376Y0124953D01*
X0091844Y0125023D01*
D02*
G37*
G36*
X0090845D02*
X0090313Y0124953D01*
X0089351Y0124555D01*
X0088525Y0123922D01*
X0087892Y0123096D01*
X0087493Y0122134D01*
X0087423Y0121602D01*
X0090845D01*
Y0125023D01*
D02*
G37*
G36*
X0098568Y0136857D02*
X0074691D01*
X0073769Y0136674D01*
X0072988Y0136152D01*
X0061678Y0124843D01*
X0057604D01*
Y0117362D01*
X0065085D01*
Y0121436D01*
X0075688Y0132040D01*
X0097571D01*
X0109169Y0120443D01*
X0109950Y0119921D01*
X0110872Y0119737D01*
X0130711D01*
X0131315Y0119274D01*
X0132114Y0118943D01*
X0132972Y0118830D01*
X0133831Y0118943D01*
X0134630Y0119274D01*
X0135317Y0119801D01*
X0135844Y0120488D01*
X0136175Y0121288D01*
X0136288Y0122146D01*
X0136175Y0123004D01*
X0135844Y0123803D01*
X0135317Y0124490D01*
X0134630Y0125017D01*
X0133831Y0125348D01*
X0132972Y0125461D01*
X0132114Y0125348D01*
X0131315Y0125017D01*
X0130711Y0124554D01*
X0111869D01*
X0100272Y0136152D01*
X0099490Y0136674D01*
X0098568Y0136857D01*
D02*
G37*
G36*
X0187011Y0121350D02*
X0183144D01*
Y0117483D01*
X0183791Y0117568D01*
X0184861Y0118011D01*
X0185779Y0118715D01*
X0186483Y0119634D01*
X0186926Y0120703D01*
X0187011Y0121350D01*
D02*
G37*
G36*
X0182144D02*
X0178276D01*
X0178361Y0120703D01*
X0178804Y0119634D01*
X0179509Y0118715D01*
X0180427Y0118011D01*
X0181496Y0117568D01*
X0182144Y0117483D01*
Y0121350D01*
D02*
G37*
G36*
X0095266Y0120602D02*
X0091844D01*
Y0117181D01*
X0092376Y0117251D01*
X0093338Y0117650D01*
X0094164Y0118283D01*
X0094797Y0119109D01*
X0095196Y0120071D01*
X0095266Y0120602D01*
D02*
G37*
G36*
X0090845D02*
X0087423D01*
X0087493Y0120071D01*
X0087892Y0119109D01*
X0088525Y0118283D01*
X0089351Y0117650D01*
X0090313Y0117251D01*
X0090845Y0117181D01*
Y0120602D01*
D02*
G37*
G36*
X0129339Y0113307D02*
Y0110343D01*
X0132303D01*
X0132248Y0110756D01*
X0131896Y0111608D01*
X0131335Y0112339D01*
X0130604Y0112900D01*
X0129752Y0113252D01*
X0129339Y0113307D01*
D02*
G37*
G36*
X0128339D02*
X0127925Y0113252D01*
X0127074Y0112900D01*
X0126342Y0112339D01*
X0125781Y0111608D01*
X0125429Y0110756D01*
X0125374Y0110343D01*
X0128339D01*
Y0113307D01*
D02*
G37*
G36*
X0182644Y0116070D02*
X0181552Y0115926D01*
X0180534Y0115504D01*
X0179660Y0114834D01*
X0178990Y0113960D01*
X0178568Y0112942D01*
X0178425Y0111850D01*
X0178568Y0110758D01*
X0178990Y0109741D01*
X0179660Y0108867D01*
X0180534Y0108196D01*
X0181552Y0107775D01*
X0182644Y0107631D01*
X0183736Y0107775D01*
X0184753Y0108196D01*
X0185627Y0108867D01*
X0186298Y0109741D01*
X0186719Y0110758D01*
X0186863Y0111850D01*
X0186719Y0112942D01*
X0186298Y0113960D01*
X0185627Y0114834D01*
X0184753Y0115504D01*
X0183736Y0115926D01*
X0182644Y0116070D01*
D02*
G37*
G36*
X0091344Y0114875D02*
X0090368Y0114746D01*
X0089458Y0114369D01*
X0088677Y0113770D01*
X0088077Y0112989D01*
X0087701Y0112079D01*
X0087572Y0111102D01*
X0087701Y0110126D01*
X0088077Y0109216D01*
X0088677Y0108435D01*
X0089458Y0107835D01*
X0090368Y0107458D01*
X0091344Y0107330D01*
X0092321Y0107458D01*
X0093231Y0107835D01*
X0094012Y0108435D01*
X0094612Y0109216D01*
X0094988Y0110126D01*
X0095117Y0111102D01*
X0094988Y0112079D01*
X0094612Y0112989D01*
X0094012Y0113770D01*
X0093231Y0114369D01*
X0092321Y0114746D01*
X0091344Y0114875D01*
D02*
G37*
G36*
X0061344D02*
X0060368Y0114746D01*
X0059458Y0114369D01*
X0058677Y0113770D01*
X0058077Y0112989D01*
X0057701Y0112079D01*
X0057572Y0111102D01*
X0057701Y0110126D01*
X0058077Y0109216D01*
X0058677Y0108435D01*
X0059458Y0107835D01*
X0060368Y0107458D01*
X0061344Y0107330D01*
X0062321Y0107458D01*
X0063231Y0107835D01*
X0064012Y0108435D01*
X0064612Y0109216D01*
X0064988Y0110126D01*
X0065117Y0111102D01*
X0064988Y0112079D01*
X0064612Y0112989D01*
X0064012Y0113770D01*
X0063231Y0114369D01*
X0062321Y0114746D01*
X0061344Y0114875D01*
D02*
G37*
G36*
X0132303Y0109343D02*
X0129339D01*
Y0106378D01*
X0129752Y0106433D01*
X0130604Y0106785D01*
X0131335Y0107346D01*
X0131896Y0108077D01*
X0132248Y0108929D01*
X0132303Y0109343D01*
D02*
G37*
G36*
X0128339D02*
X0125374D01*
X0125429Y0108929D01*
X0125781Y0108077D01*
X0126342Y0107346D01*
X0127074Y0106785D01*
X0127925Y0106433D01*
X0128339Y0106378D01*
Y0109343D01*
D02*
G37*
G36*
X0027272Y0107795D02*
Y0104831D01*
X0030236D01*
X0030182Y0105244D01*
X0029829Y0106096D01*
X0029268Y0106827D01*
X0028537Y0107388D01*
X0027685Y0107741D01*
X0027272Y0107795D01*
D02*
G37*
G36*
X0026272D02*
X0025858Y0107741D01*
X0025006Y0107388D01*
X0024275Y0106827D01*
X0023714Y0106096D01*
X0023362Y0105244D01*
X0023307Y0104831D01*
X0026272D01*
Y0107795D01*
D02*
G37*
G36*
X0112992Y0105579D02*
X0112134Y0105467D01*
X0111334Y0105135D01*
X0110647Y0104608D01*
X0110121Y0103922D01*
X0109800Y0103147D01*
X0094490D01*
X0094012Y0103770D01*
X0093231Y0104369D01*
X0092321Y0104746D01*
X0091344Y0104875D01*
X0090368Y0104746D01*
X0089458Y0104369D01*
X0088677Y0103770D01*
X0088077Y0102989D01*
X0087701Y0102079D01*
X0087572Y0101102D01*
X0087701Y0100126D01*
X0088077Y0099216D01*
X0088677Y0098435D01*
X0089458Y0097835D01*
X0090368Y0097458D01*
X0091344Y0097330D01*
X0092321Y0097458D01*
X0093231Y0097835D01*
X0094012Y0098435D01*
X0094612Y0099216D01*
X0094988Y0100126D01*
X0095041Y0100522D01*
X0102138D01*
X0102385Y0100022D01*
X0102061Y0099600D01*
X0101708Y0098748D01*
X0101654Y0098335D01*
X0108582D01*
X0108528Y0098748D01*
X0108175Y0099600D01*
X0107851Y0100022D01*
X0108098Y0100522D01*
X0110185D01*
X0110647Y0099919D01*
X0111334Y0099392D01*
X0112134Y0099061D01*
X0112992Y0098948D01*
X0113850Y0099061D01*
X0114650Y0099392D01*
X0115337Y0099919D01*
X0115864Y0100606D01*
X0116195Y0101406D01*
X0116308Y0102264D01*
X0116195Y0103122D01*
X0115864Y0103922D01*
X0115337Y0104608D01*
X0114650Y0105135D01*
X0113850Y0105467D01*
X0112992Y0105579D01*
D02*
G37*
G36*
X0030236Y0103831D02*
X0027272D01*
Y0100866D01*
X0027685Y0100921D01*
X0028537Y0101274D01*
X0029268Y0101834D01*
X0029829Y0102566D01*
X0030182Y0103417D01*
X0030236Y0103831D01*
D02*
G37*
G36*
X0026272D02*
X0023307D01*
X0023362Y0103417D01*
X0023714Y0102566D01*
X0024275Y0101834D01*
X0025006Y0101274D01*
X0025858Y0100921D01*
X0026272Y0100866D01*
Y0103831D01*
D02*
G37*
G36*
X0061344Y0104875D02*
X0060368Y0104746D01*
X0059458Y0104369D01*
X0058677Y0103770D01*
X0058077Y0102989D01*
X0057701Y0102079D01*
X0057572Y0101102D01*
X0057701Y0100126D01*
X0058077Y0099216D01*
X0058677Y0098435D01*
X0059458Y0097835D01*
X0060368Y0097458D01*
X0061344Y0097330D01*
X0062321Y0097458D01*
X0063231Y0097835D01*
X0064012Y0098435D01*
X0064612Y0099216D01*
X0064988Y0100126D01*
X0065117Y0101102D01*
X0064988Y0102079D01*
X0064612Y0102989D01*
X0064012Y0103770D01*
X0063231Y0104369D01*
X0062321Y0104746D01*
X0061344Y0104875D01*
D02*
G37*
G36*
X0108582Y0097335D02*
X0105618D01*
Y0094370D01*
X0106032Y0094425D01*
X0106883Y0094777D01*
X0107614Y0095338D01*
X0108175Y0096070D01*
X0108528Y0096921D01*
X0108582Y0097335D01*
D02*
G37*
G36*
X0104618D02*
X0101654D01*
X0101708Y0096921D01*
X0102061Y0096070D01*
X0102622Y0095338D01*
X0103353Y0094777D01*
X0104204Y0094425D01*
X0104618Y0094370D01*
Y0097335D01*
D02*
G37*
G36*
X0136819Y0096575D02*
Y0093610D01*
X0139783D01*
X0139729Y0094024D01*
X0139376Y0094875D01*
X0138815Y0095606D01*
X0138084Y0096167D01*
X0137233Y0096520D01*
X0136819Y0096575D01*
D02*
G37*
G36*
X0135819D02*
X0135405Y0096520D01*
X0134554Y0096167D01*
X0133823Y0095606D01*
X0133262Y0094875D01*
X0132909Y0094024D01*
X0132854Y0093610D01*
X0135819D01*
Y0096575D01*
D02*
G37*
G36*
X0139783Y0092610D02*
X0136819D01*
Y0089646D01*
X0137233Y0089700D01*
X0138084Y0090053D01*
X0138815Y0090614D01*
X0139376Y0091345D01*
X0139729Y0092197D01*
X0139783Y0092610D01*
D02*
G37*
G36*
X0135819D02*
X0132854D01*
X0132909Y0092197D01*
X0133262Y0091345D01*
X0133823Y0090614D01*
X0134554Y0090053D01*
X0135405Y0089700D01*
X0135819Y0089646D01*
Y0092610D01*
D02*
G37*
G36*
X0186827Y0106034D02*
X0178461D01*
Y0101073D01*
X0165371Y0087983D01*
X0094165D01*
X0094135Y0088072D01*
X0094049Y0088483D01*
X0094612Y0089216D01*
X0094988Y0090126D01*
X0095117Y0091102D01*
X0094988Y0092079D01*
X0094612Y0092989D01*
X0094012Y0093770D01*
X0093231Y0094369D01*
X0092321Y0094746D01*
X0091344Y0094875D01*
X0090368Y0094746D01*
X0089458Y0094369D01*
X0088677Y0093770D01*
X0088077Y0092989D01*
X0087701Y0092079D01*
X0087572Y0091102D01*
X0087701Y0090126D01*
X0088077Y0089216D01*
X0088640Y0088483D01*
X0088554Y0088072D01*
X0088524Y0087983D01*
X0075757D01*
X0072692Y0091049D01*
X0072593Y0091803D01*
X0072261Y0092603D01*
X0071734Y0093290D01*
X0071048Y0093816D01*
X0070248Y0094148D01*
X0069390Y0094261D01*
X0068532Y0094148D01*
X0067732Y0093816D01*
X0067045Y0093290D01*
X0066518Y0092603D01*
X0066187Y0091803D01*
X0066074Y0090945D01*
X0066187Y0090087D01*
X0066518Y0089287D01*
X0067045Y0088600D01*
X0067732Y0088073D01*
X0068532Y0087742D01*
X0069286Y0087643D01*
X0073057Y0083872D01*
X0073838Y0083350D01*
X0074760Y0083166D01*
X0166368D01*
X0167290Y0083350D01*
X0168071Y0083872D01*
X0181867Y0097667D01*
X0186827D01*
Y0106034D01*
D02*
G37*
G36*
X0061344Y0094875D02*
X0060368Y0094746D01*
X0059458Y0094369D01*
X0058677Y0093770D01*
X0058077Y0092989D01*
X0057701Y0092079D01*
X0057572Y0091102D01*
X0057701Y0090126D01*
X0058077Y0089216D01*
X0058677Y0088435D01*
X0059458Y0087835D01*
X0060368Y0087458D01*
X0061344Y0087330D01*
X0062321Y0087458D01*
X0063231Y0087835D01*
X0064012Y0088435D01*
X0064612Y0089216D01*
X0064988Y0090126D01*
X0065117Y0091102D01*
X0064988Y0092079D01*
X0064612Y0092989D01*
X0064012Y0093770D01*
X0063231Y0094369D01*
X0062321Y0094746D01*
X0061344Y0094875D01*
D02*
G37*
G36*
X0010146Y0085846D02*
Y0082882D01*
X0013110D01*
X0013056Y0083296D01*
X0012703Y0084147D01*
X0012142Y0084878D01*
X0011411Y0085439D01*
X0010559Y0085792D01*
X0010146Y0085846D01*
D02*
G37*
G36*
X0009146D02*
X0008732Y0085792D01*
X0007881Y0085439D01*
X0007149Y0084878D01*
X0006588Y0084147D01*
X0006236Y0083296D01*
X0006181Y0082882D01*
X0009146D01*
Y0085846D01*
D02*
G37*
G36*
X0013110Y0081882D02*
X0010146D01*
Y0078917D01*
X0010559Y0078972D01*
X0011411Y0079325D01*
X0012142Y0079886D01*
X0012703Y0080617D01*
X0013056Y0081468D01*
X0013110Y0081882D01*
D02*
G37*
G36*
X0009146D02*
X0006181D01*
X0006236Y0081468D01*
X0006588Y0080617D01*
X0007149Y0079886D01*
X0007881Y0079325D01*
X0008732Y0078972D01*
X0009146Y0078917D01*
Y0081882D01*
D02*
G37*
G36*
X0133546Y0067662D02*
Y0064698D01*
X0136511D01*
X0136456Y0065111D01*
X0136104Y0065963D01*
X0135543Y0066694D01*
X0134811Y0067255D01*
X0133960Y0067608D01*
X0133546Y0067662D01*
D02*
G37*
G36*
X0132546D02*
X0132133Y0067608D01*
X0131281Y0067255D01*
X0130550Y0066694D01*
X0129989Y0065963D01*
X0129637Y0065111D01*
X0129582Y0064698D01*
X0132546D01*
Y0067662D01*
D02*
G37*
G36*
X0136511Y0063698D02*
X0133546D01*
Y0060733D01*
X0133960Y0060788D01*
X0134811Y0061141D01*
X0135543Y0061702D01*
X0136104Y0062433D01*
X0136456Y0063284D01*
X0136511Y0063698D01*
D02*
G37*
G36*
X0132546D02*
X0129582D01*
X0129637Y0063284D01*
X0129989Y0062433D01*
X0130550Y0061702D01*
X0131281Y0061141D01*
X0132133Y0060788D01*
X0132546Y0060733D01*
Y0063698D01*
D02*
G37*
G36*
X0071465Y0061043D02*
Y0058079D01*
X0074429D01*
X0074375Y0058492D01*
X0074022Y0059344D01*
X0073461Y0060075D01*
X0072730Y0060636D01*
X0071878Y0060989D01*
X0071465Y0061043D01*
D02*
G37*
G36*
X0070465D02*
X0070051Y0060989D01*
X0069200Y0060636D01*
X0068468Y0060075D01*
X0067907Y0059344D01*
X0067555Y0058492D01*
X0067500Y0058079D01*
X0070465D01*
Y0061043D01*
D02*
G37*
G36*
X0074429Y0057079D02*
X0071465D01*
Y0054114D01*
X0071878Y0054169D01*
X0072730Y0054522D01*
X0073461Y0055082D01*
X0074022Y0055814D01*
X0074375Y0056665D01*
X0074429Y0057079D01*
D02*
G37*
G36*
X0070465D02*
X0067500D01*
X0067555Y0056665D01*
X0067907Y0055814D01*
X0068468Y0055082D01*
X0069200Y0054522D01*
X0070051Y0054169D01*
X0070465Y0054114D01*
Y0057079D01*
D02*
G37*
G36*
X0102862Y0046870D02*
Y0043905D01*
X0105827D01*
X0105772Y0044319D01*
X0105419Y0045171D01*
X0104858Y0045902D01*
X0104127Y0046463D01*
X0103276Y0046815D01*
X0102862Y0046870D01*
D02*
G37*
G36*
X0101862D02*
X0101449Y0046815D01*
X0100597Y0046463D01*
X0099866Y0045902D01*
X0099305Y0045171D01*
X0098952Y0044319D01*
X0098898Y0043905D01*
X0101862D01*
Y0046870D01*
D02*
G37*
G36*
X0105827Y0042906D02*
X0102862D01*
Y0039941D01*
X0103276Y0039996D01*
X0104127Y0040348D01*
X0104858Y0040909D01*
X0105419Y0041640D01*
X0105772Y0042492D01*
X0105827Y0042906D01*
D02*
G37*
G36*
X0101862D02*
X0098898D01*
X0098952Y0042492D01*
X0099305Y0041640D01*
X0099866Y0040909D01*
X0100597Y0040348D01*
X0101449Y0039996D01*
X0101862Y0039941D01*
Y0042906D01*
D02*
G37*
G36*
X0039862Y0126839D02*
X0039004Y0126726D01*
X0038204Y0126395D01*
X0037518Y0125868D01*
X0036991Y0125181D01*
X0036659Y0124382D01*
X0036546Y0123524D01*
X0036659Y0122665D01*
X0036991Y0121866D01*
X0037454Y0121262D01*
Y0105217D01*
X0037637Y0104295D01*
X0038159Y0103514D01*
X0039415Y0102258D01*
X0039514Y0101504D01*
X0039779Y0100863D01*
X0038553Y0099636D01*
X0038031Y0098855D01*
X0037847Y0097933D01*
Y0065847D01*
X0038031Y0064925D01*
X0038553Y0064143D01*
X0061880Y0040817D01*
X0062661Y0040295D01*
X0063583Y0040111D01*
X0087384D01*
X0087987Y0039648D01*
X0088787Y0039317D01*
X0089645Y0039204D01*
X0090503Y0039317D01*
X0091303Y0039648D01*
X0091990Y0040175D01*
X0092517Y0040862D01*
X0092848Y0041662D01*
X0092961Y0042520D01*
X0092848Y0043378D01*
X0092517Y0044178D01*
X0091990Y0044864D01*
X0091303Y0045391D01*
X0090503Y0045722D01*
X0089645Y0045836D01*
X0088787Y0045722D01*
X0087987Y0045391D01*
X0087384Y0044928D01*
X0064580D01*
X0042664Y0066844D01*
Y0096935D01*
X0044420Y0098691D01*
X0044942Y0099472D01*
X0045048Y0100008D01*
X0045061Y0100018D01*
X0045588Y0100704D01*
X0045919Y0101504D01*
X0046032Y0102362D01*
X0045919Y0103220D01*
X0045588Y0104020D01*
X0045061Y0104707D01*
X0044374Y0105234D01*
X0043575Y0105565D01*
X0042821Y0105664D01*
X0042271Y0106214D01*
Y0121262D01*
X0042734Y0121866D01*
X0043065Y0122665D01*
X0043178Y0123524D01*
X0043065Y0124382D01*
X0042734Y0125181D01*
X0042207Y0125868D01*
X0041520Y0126395D01*
X0040720Y0126726D01*
X0039862Y0126839D01*
D02*
G37*
G36*
X0047739Y0043317D02*
X0046917Y0043209D01*
X0046151Y0042892D01*
X0045493Y0042387D01*
X0044988Y0041729D01*
X0044671Y0040963D01*
X0044562Y0040141D01*
X0044671Y0039318D01*
X0044988Y0038552D01*
X0045493Y0037894D01*
X0046151Y0037390D01*
X0046917Y0037072D01*
X0047739Y0036964D01*
X0048561Y0037072D01*
X0049327Y0037390D01*
X0049986Y0037894D01*
X0050490Y0038552D01*
X0050808Y0039318D01*
X0050916Y0040141D01*
X0050808Y0040963D01*
X0050490Y0041729D01*
X0049986Y0042387D01*
X0049327Y0042892D01*
X0048561Y0043209D01*
X0047739Y0043317D01*
D02*
G37*
G36*
X0060731Y0028526D02*
X0054432D01*
Y0022227D01*
X0060731D01*
Y0028526D01*
D02*
G37*
G36*
X0037897Y0028554D02*
X0037074Y0028446D01*
X0036308Y0028128D01*
X0035650Y0027623D01*
X0035146Y0026965D01*
X0034828Y0026199D01*
X0034720Y0025377D01*
X0034828Y0024555D01*
X0035146Y0023789D01*
X0035650Y0023131D01*
X0036308Y0022626D01*
X0037074Y0022308D01*
X0037897Y0022200D01*
X0038719Y0022308D01*
X0039485Y0022626D01*
X0040143Y0023131D01*
X0040648Y0023789D01*
X0040965Y0024555D01*
X0041073Y0025377D01*
X0040965Y0026199D01*
X0040648Y0026965D01*
X0040143Y0027623D01*
X0039485Y0028128D01*
X0038719Y0028446D01*
X0037897Y0028554D01*
D02*
G37*
G36*
X0047739Y0013790D02*
X0046917Y0013682D01*
X0046151Y0013364D01*
X0045493Y0012859D01*
X0044988Y0012202D01*
X0044671Y0011435D01*
X0044562Y0010613D01*
X0044671Y0009791D01*
X0044988Y0009025D01*
X0045493Y0008367D01*
X0046151Y0007862D01*
X0046917Y0007545D01*
X0047739Y0007436D01*
X0048561Y0007545D01*
X0049327Y0007862D01*
X0049986Y0008367D01*
X0050490Y0009025D01*
X0050808Y0009791D01*
X0050916Y0010613D01*
X0050808Y0011435D01*
X0050490Y0012202D01*
X0049986Y0012859D01*
X0049327Y0013364D01*
X0048561Y0013682D01*
X0047739Y0013790D01*
D02*
G37*
%LPD*%
D15*
X0091344Y0101102D02*
X0092077Y0101835D01*
X0112563D02*
X0112992Y0102264D01*
X0092077Y0101835D02*
X0112563D01*
D67*
X0042717Y0100394D02*
Y0102362D01*
X0039862Y0105217D02*
X0042717Y0102362D01*
X0074691Y0134449D02*
X0098568D01*
X0040256Y0097933D02*
X0042717Y0100394D01*
X0040256Y0065847D02*
X0063583Y0042520D01*
X0040256Y0065847D02*
Y0097933D01*
X0039862Y0105217D02*
Y0123524D01*
X0110872Y0122146D02*
X0132972D01*
X0069390Y0090945D02*
X0074760Y0085575D01*
X0061344Y0121102D02*
X0074691Y0134449D01*
X0166368Y0085575D02*
X0182644Y0101850D01*
X0098568Y0134449D02*
X0110872Y0122146D01*
X0063583Y0042520D02*
X0089645D01*
X0074760Y0085575D02*
X0166368D01*
D68*
X0061344Y0121102D02*
D03*
D69*
Y0111102D02*
D03*
Y0101102D02*
D03*
Y0091102D02*
D03*
X0091344Y0121102D02*
D03*
Y0111102D02*
D03*
Y0101102D02*
D03*
Y0091102D02*
D03*
D70*
X0047739Y0040141D02*
D03*
Y0010613D02*
D03*
D71*
X0037897Y0025377D02*
D03*
D72*
X0057582D02*
D03*
D73*
X0184924Y0173031D02*
D03*
Y0192717D02*
D03*
D74*
X0182644Y0101850D02*
D03*
D75*
Y0111850D02*
D03*
Y0121850D02*
D03*
Y0131850D02*
D03*
Y0141850D02*
D03*
D76*
X0133046Y0064198D02*
D03*
X0060630Y0189370D02*
D03*
X0069587Y0162205D02*
D03*
X0069390Y0090945D02*
D03*
X0132972Y0122146D02*
D03*
X0026772Y0104331D02*
D03*
X0089370Y0184252D02*
D03*
X0009646Y0082382D02*
D03*
X0017224Y0189272D02*
D03*
X0042717Y0102362D02*
D03*
X0063779Y0141732D02*
D03*
X0089645Y0042520D02*
D03*
X0074410Y0220177D02*
D03*
X0112992Y0102264D02*
D03*
X0128839Y0109843D02*
D03*
X0105118Y0097835D02*
D03*
X0136319Y0093110D02*
D03*
X0138189Y0181102D02*
D03*
X0104344Y0183465D02*
D03*
X0070965Y0057579D02*
D03*
X0102362Y0043406D02*
D03*
X0067669Y0154018D02*
D03*
X0039862Y0123524D02*
D03*
M02*
