G04*
G04 #@! TF.GenerationSoftware,Altium Limited,Altium Designer,20.2.7 (254)*
G04*
G04 Layer_Color=16711935*
%FSAX25Y25*%
%MOIN*%
G70*
G04*
G04 #@! TF.SameCoordinates,1B070C9D-936C-4A0F-866C-AF898DE0267E*
G04*
G04*
G04 #@! TF.FilePolarity,Positive*
G04*
G01*
G75*
%ADD10C,0.00394*%
%ADD11C,0.00787*%
%ADD15C,0.01000*%
D10*
X0067880Y0121850D02*
G03*
X0067880Y0121850I-0001969J0000000D01*
G01*
X0022936Y0025377D02*
G03*
X0072542Y0025377I0024803J0000000D01*
G01*
D02*
G03*
X0022936Y0025377I-0024803J0000000D01*
G01*
X0019061Y0070079D02*
Y0075197D01*
X0007644D02*
X0019061D01*
X0007644Y0070079D02*
Y0075197D01*
Y0070079D02*
X0019061D01*
X0042818Y0140847D02*
Y0145768D01*
X0034944D02*
X0042818D01*
X0034944Y0140847D02*
Y0145768D01*
Y0140847D02*
X0042818D01*
X0062368Y0086811D02*
Y0125394D01*
X0090321Y0086811D02*
Y0125394D01*
X0062368D02*
X0090321D01*
X0062368Y0086811D02*
X0090321D01*
X0087520Y0049682D02*
Y0067399D01*
Y0049682D02*
X0107205D01*
Y0067399D01*
X0087520D02*
X0107205D01*
X0116437Y0180725D02*
Y0185647D01*
X0108563D02*
X0116437D01*
X0108563Y0180725D02*
Y0185647D01*
Y0180725D02*
X0116437D01*
X0121457Y0077559D02*
X0126378D01*
X0121457Y0069685D02*
Y0077559D01*
Y0069685D02*
X0126378D01*
Y0077559D01*
X0027165Y0073917D02*
Y0078839D01*
Y0073917D02*
X0035039D01*
Y0078839D01*
X0027165D02*
X0035039D01*
X0027050Y0064846D02*
X0034924D01*
X0027050D02*
Y0069767D01*
X0034924D01*
Y0064846D02*
Y0069767D01*
X0050754Y0107579D02*
Y0112500D01*
X0042880D02*
X0050754D01*
X0042880Y0107579D02*
Y0112500D01*
Y0107579D02*
X0050754D01*
X0081398Y0176985D02*
X0086319D01*
Y0184859D01*
X0081398D02*
X0086319D01*
X0081398Y0176985D02*
Y0184859D01*
X0110141Y0170768D02*
Y0175689D01*
Y0170768D02*
X0118015D01*
Y0175689D01*
X0110141D02*
X0118015D01*
X0125295Y0043110D02*
X0161122D01*
Y0029331D02*
Y0043110D01*
X0125295Y0029331D02*
X0161122D01*
X0125295D02*
Y0043110D01*
X0123228Y0083465D02*
Y0088386D01*
Y0083465D02*
X0131102D01*
Y0088386D01*
X0123228D02*
X0131102D01*
X0035630Y0176575D02*
X0049409D01*
X0035630D02*
Y0202165D01*
X0049409D01*
Y0176575D02*
Y0202165D01*
X0040354Y0176575D02*
X0049409Y0185630D01*
X0065173Y0182425D02*
X0068126Y0179472D01*
X0065173D02*
X0075772D01*
Y0199268D01*
X0065173D02*
X0075772D01*
X0065173Y0179472D02*
Y0199268D01*
X0177033Y0096653D02*
X0188254D01*
X0177033D02*
Y0147047D01*
X0188254D01*
Y0096653D02*
Y0147047D01*
X0031741Y0105315D02*
Y0110827D01*
X0034891D01*
Y0105315D02*
Y0110827D01*
X0031741Y0105315D02*
X0034891D01*
X0047835Y0090748D02*
X0052756D01*
Y0098622D01*
X0047835D02*
X0052756D01*
X0047835Y0090748D02*
Y0098622D01*
X0048031Y0170472D02*
X0060728D01*
X0043799Y0166240D02*
X0048031Y0170472D01*
X0043799Y0157776D02*
Y0166240D01*
Y0157776D02*
X0048031Y0153543D01*
X0060728D01*
Y0170472D01*
X0080118Y0137877D02*
Y0163861D01*
X0099606D01*
X0106102Y0157365D01*
Y0144373D02*
Y0157365D01*
X0099606Y0137877D02*
X0106102Y0144373D01*
X0080118Y0137877D02*
X0099606D01*
X0118307Y0110039D02*
X0123228D01*
X0118307Y0102165D02*
Y0110039D01*
Y0102165D02*
X0123228D01*
Y0110039D01*
X0102657Y0110728D02*
X0107579D01*
X0102657Y0102854D02*
Y0110728D01*
Y0102854D02*
X0107579D01*
Y0110728D01*
X0124590Y0190256D02*
Y0195177D01*
X0116716D02*
X0124590D01*
X0116716Y0190256D02*
Y0195177D01*
Y0190256D02*
X0124590D01*
X0076279Y0064961D02*
X0081201D01*
X0076279Y0057087D02*
Y0064961D01*
Y0057087D02*
X0081201D01*
Y0064961D01*
X0133018Y0196525D02*
X0136069Y0199572D01*
X0133018Y0189320D02*
Y0199572D01*
Y0189320D02*
X0153530D01*
Y0199572D01*
X0133018D02*
X0153530D01*
X0085596Y0190093D02*
X0101246D01*
X0106463Y0195309D01*
Y0205742D01*
X0101246Y0210959D02*
X0106463Y0205742D01*
X0085596Y0210959D02*
X0101246D01*
X0085596Y0190093D02*
Y0210959D01*
D11*
X0051968Y0140157D02*
X0057480D01*
X0051968D02*
Y0143307D01*
X0057480D01*
Y0140157D02*
Y0143307D01*
X0162483Y0201969D02*
X0201853D01*
X0162483Y0166142D02*
Y0201969D01*
Y0166142D02*
X0201853D01*
Y0201969D01*
X0132677Y0179331D02*
Y0182480D01*
X0127165D02*
X0132677D01*
X0127165Y0179331D02*
Y0182480D01*
Y0179331D02*
X0132677D01*
D15*
X0141304Y0078543D02*
X0160989D01*
X0141304Y0058858D02*
Y0078543D01*
Y0058858D02*
X0160989D01*
Y0078543D01*
M02*
