G04*
G04 #@! TF.GenerationSoftware,Altium Limited,Altium Designer,20.2.7 (254)*
G04*
G04 Layer_Color=32768*
%FSAX25Y25*%
%MOIN*%
G70*
G04*
G04 #@! TF.SameCoordinates,1B070C9D-936C-4A0F-866C-AF898DE0267E*
G04*
G04*
G04 #@! TF.FilePolarity,Positive*
G04*
G01*
G75*
%ADD10C,0.00394*%
%ADD77C,0.00197*%
D10*
X0022998Y0063386D02*
Y0081890D01*
X0003707D02*
X0022998D01*
X0003707Y0063386D02*
Y0081890D01*
Y0063386D02*
X0022998D01*
X0074376Y0106102D02*
X0078313D01*
X0076345Y0104134D02*
Y0108071D01*
X0046870Y0136221D02*
X0065945D01*
Y0147244D01*
X0046870D02*
X0065945D01*
X0046870Y0136221D02*
Y0147244D01*
X0076479Y-0003363D02*
Y0054117D01*
X0018999D02*
X0076479D01*
X0018999Y-0003363D02*
Y0054117D01*
Y-0003363D02*
X0076479D01*
X0083583Y0043816D02*
Y0073265D01*
Y0043816D02*
X0111142D01*
Y0073265D01*
X0083583D02*
X0111142D01*
X0134072Y0080512D02*
X0166501D01*
X0134072Y0056890D02*
Y0080512D01*
Y0056890D02*
X0166501D01*
Y0080512D01*
X0121358Y0055118D02*
X0165059D01*
Y0017323D02*
Y0055118D01*
X0121358Y0017323D02*
X0165059D01*
X0121358D02*
Y0055118D01*
X0158546Y0210827D02*
X0205790D01*
X0158546Y0162205D02*
Y0210827D01*
Y0162205D02*
X0205790D01*
Y0210827D01*
X0027804Y0100216D02*
Y0115925D01*
Y0100216D02*
X0038828D01*
Y0115925D01*
X0027804D02*
X0038828D01*
X0122067Y0175394D02*
Y0186417D01*
X0141142D01*
Y0175394D02*
Y0186417D01*
X0122067Y0175394D02*
X0141142D01*
D77*
X0045574Y0139370D02*
Y0147244D01*
X0032188D02*
X0045574D01*
X0032188Y0139370D02*
Y0147244D01*
Y0139370D02*
X0045574D01*
X0118110Y0179840D02*
Y0186532D01*
X0106890D02*
X0118110D01*
X0106890Y0179840D02*
Y0186532D01*
Y0179840D02*
X0118110D01*
X0119980Y0080315D02*
X0127854D01*
X0119980Y0066929D02*
Y0080315D01*
Y0066929D02*
X0127854D01*
Y0080315D01*
X0024409Y0072441D02*
Y0080315D01*
Y0072441D02*
X0037795D01*
Y0080315D01*
X0024409D02*
X0037795D01*
X0024294Y0063369D02*
X0037680D01*
X0024294D02*
Y0071243D01*
X0037680D01*
Y0063369D02*
Y0071243D01*
X0053510Y0106102D02*
Y0113976D01*
X0040124D02*
X0053510D01*
X0040124Y0106102D02*
Y0113976D01*
Y0106102D02*
X0053510D01*
X0080512Y0175312D02*
X0087205D01*
Y0186532D01*
X0080512D02*
X0087205D01*
X0080512Y0175312D02*
Y0186532D01*
X0107385Y0169291D02*
Y0177165D01*
Y0169291D02*
X0120771D01*
Y0177165D01*
X0107385D02*
X0120771D01*
X0121555Y0082579D02*
Y0089272D01*
Y0082579D02*
X0132776D01*
Y0089272D01*
X0121555D02*
X0132776D01*
X0025689Y0175197D02*
X0059350D01*
X0025689D02*
Y0203543D01*
X0059350D01*
Y0175197D02*
Y0203543D01*
X0063787Y0175886D02*
X0077157D01*
Y0202854D01*
X0063787D02*
X0077157D01*
X0063787Y0175886D02*
Y0202854D01*
X0176049Y0095669D02*
X0189238D01*
X0176049D02*
Y0148031D01*
X0189238D01*
Y0095669D02*
Y0148031D01*
X0046358Y0087992D02*
X0054232D01*
Y0101378D01*
X0046358D02*
X0054232D01*
X0046358Y0087992D02*
Y0101378D01*
X0038681Y0172835D02*
X0065847D01*
Y0151181D02*
Y0172835D01*
X0038681Y0151181D02*
X0065847D01*
X0038681D02*
Y0172835D01*
X0113583Y0135515D02*
Y0166223D01*
X0072638D02*
X0113583D01*
X0072638Y0135515D02*
Y0166223D01*
Y0135515D02*
X0113583D01*
X0116831Y0112795D02*
X0124705D01*
X0116831Y0099410D02*
Y0112795D01*
Y0099410D02*
X0124705D01*
Y0112795D01*
X0101181Y0113484D02*
X0109055D01*
X0101181Y0100098D02*
Y0113484D01*
Y0100098D02*
X0109055D01*
Y0113484D01*
X0127345Y0188779D02*
Y0196653D01*
X0113960D02*
X0127345D01*
X0113960Y0188779D02*
Y0196653D01*
Y0188779D02*
X0127345D01*
X0075394Y0066634D02*
X0082087D01*
X0075394Y0055413D02*
Y0066634D01*
Y0055413D02*
X0082087D01*
Y0066634D01*
X0129297Y0187714D02*
Y0201178D01*
Y0187714D02*
X0157250D01*
Y0201178D01*
X0129297D02*
X0157250D01*
X0079297Y0187730D02*
X0112762D01*
X0079297D02*
Y0213321D01*
X0112762D01*
Y0187730D02*
Y0213321D01*
M02*
