M48
;Layer_Color=9474304
;FILE_FORMAT=4:4
METRIC
;TYPE=PLATED
T1F00S00C0.7000
T2F00S00C0.7112
T3F00S00C0.9000
T4F00S00C1.1000
T5F00S00C1.1500
;TYPE=NON_PLATED
T6F00S00C1.2000
%
T01
X00096257Y00064458
X00146257
T02
X00024500Y00209250
X00068000Y00265000
X00108500Y00260000
X00176250Y00231000
X00180250Y00146250
X00227699Y00108000
X00260000Y00110250
X00337938Y00163062
X00346250Y00236500
X00327250Y00279000
X00287000Y00259750
X00267000Y00248500
X00337750Y00310250
X00351000Y00460000
X00265035Y00466000
X00227000Y00468000
X00154000Y00481000
X00176750Y00412000
X00171880Y00391205
X00162000Y00360000
X00101250Y00313750
X00043750Y00480750
X00189000Y00559250
T03
X00155815Y00231400
Y00256800
Y00282200
X00232015
Y00256800
Y00231400
Y00307600
X00155815
T04
X00469707Y00439500
Y00489500
T05
X00463915Y00258700
Y00284100
Y00309500
Y00334900
Y00360300
T06
X00121257Y00026957
Y00101958
M30
