M48
;Layer_Color=9474304
;FILE_FORMAT=2:4
INCH,TZ
;TYPE=PLATED
T1F00S00C0.0236
T2F00S00C0.0315
T3F00S00C0.0354
T4F00S00C0.0394
T5F00S00C0.0433
T6F00S00C0.0453
T7F00S00C0.1102
%
T01
X34009Y3443
X35896Y3861
X35904Y7578
X36045Y9532
X35224Y9355
X36025Y11309
X35709Y12263
X35433Y12992
X37815Y13506
X38222Y12028
X38759Y16068
X36997Y17783
X33919Y16238
X34034Y14963
X34012Y11941
X34375Y11219
X34958Y11022
X33109Y10856
X34562Y9265
X34059Y8019
X34908Y7453
X34895Y3962
X29381Y5381
X26488Y4876
X27795Y7700
X27686Y10356
X26745Y10149
X29098Y10747
X29094Y9295
X28733Y11959
X29134Y12992
X28885Y13834
X27540Y14601
X27530Y12615
X24459Y12208
X23621Y9713
X22667Y9604
X19960Y16672
X19902Y17540
X26444Y16402
X31890Y13780
Y12992
X32310Y8367
X11840Y14054
X10775Y16363
X8759Y18861
X7945Y18374
X4876Y18506
X4838Y19258
X4853Y16842
X4908Y14542
X12456Y22550
X12560Y23578
X14113Y34368
X15833Y33403
X16876Y33611
X19665Y31429
X21654Y31351
X23514Y31881
X24893Y28558
X29892Y21338
X30925Y21552
X26162Y35582
X23534Y35595
T02
X9960Y26465
Y29457
T03
X10229Y18351
Y19351
X13229
Y18351
Y20351
Y21351
X10229
Y20351
T04
X29811Y12049
X30811
X31811
X32811
Y15049
X31811
X30811
X29811
T05
X37385Y4270
Y5270
Y6270
Y7270
Y8270
Y9270
Y10270
Y11270
X2940Y31185
Y33153
T06
X21654Y4331
X22654
X23654
X24654
X24835Y19291
X25795
X23835
X22835
X29890
X30890
X31890
X32890
X33890
X3150Y18535
Y17535
Y16535
Y15535
Y14535
T07
X2756Y1575
X36614
Y37795
X2756
M30
