G04*
G04 #@! TF.GenerationSoftware,Altium Limited,Altium Designer,20.2.7 (254)*
G04*
G04 Layer_Physical_Order=2*
G04 Layer_Color=36540*
%FSLAX25Y25*%
%MOIN*%
G70*
G04*
G04 #@! TF.SameCoordinates,6A7C296C-3D1D-46A6-B2F7-2068CE29E54D*
G04*
G04*
G04 #@! TF.FilePolarity,Positive*
G04*
G01*
G75*
%ADD14C,0.01000*%
%ADD15C,0.00050*%
%ADD72C,0.06102*%
%ADD86C,0.06791*%
%ADD91C,0.06496*%
%ADD94C,0.03937*%
G36*
X389764Y163386D02*
X389264Y163139D01*
X389089Y163273D01*
X388367Y163572D01*
X388092Y163608D01*
Y160680D01*
Y157752D01*
X388367Y157788D01*
X389089Y158087D01*
X389264Y158221D01*
X389764Y157974D01*
X389764Y27559D01*
X212598Y27559D01*
Y40396D01*
X213098Y40566D01*
X213400Y40172D01*
X214319Y39467D01*
X215388Y39025D01*
X216035Y38939D01*
Y43307D01*
Y47675D01*
X215388Y47590D01*
X214319Y47147D01*
X213400Y46442D01*
X213098Y46049D01*
X212598Y46218D01*
Y196850D01*
X225435D01*
X225605Y196350D01*
X225211Y196048D01*
X224507Y195130D01*
X224064Y194061D01*
X223979Y193413D01*
X232714D01*
X232629Y194061D01*
X232186Y195130D01*
X231482Y196048D01*
X231088Y196350D01*
X231258Y196850D01*
X235435D01*
X235605Y196350D01*
X235211Y196048D01*
X234507Y195130D01*
X234064Y194061D01*
X233979Y193413D01*
X242714D01*
X242629Y194061D01*
X242186Y195130D01*
X241481Y196048D01*
X241088Y196350D01*
X241258Y196850D01*
X245435D01*
X245605Y196350D01*
X245211Y196048D01*
X244507Y195130D01*
X244064Y194061D01*
X243913Y192913D01*
X244064Y191766D01*
X244507Y190697D01*
X245211Y189778D01*
X246130Y189074D01*
X247199Y188631D01*
X248346Y188480D01*
X249494Y188631D01*
X250563Y189074D01*
X251482Y189778D01*
X252186Y190697D01*
X252629Y191766D01*
X252780Y192913D01*
X252629Y194061D01*
X252186Y195130D01*
X251482Y196048D01*
X251088Y196350D01*
X251258Y196850D01*
X255042D01*
X255211Y196350D01*
X254818Y196048D01*
X254113Y195130D01*
X253670Y194061D01*
X253519Y192913D01*
X253670Y191766D01*
X254113Y190697D01*
X254818Y189778D01*
X255736Y189074D01*
X256805Y188631D01*
X257953Y188480D01*
X259100Y188631D01*
X260170Y189074D01*
X261088Y189778D01*
X261792Y190697D01*
X262235Y191766D01*
X262386Y192913D01*
X262235Y194061D01*
X261792Y195130D01*
X261088Y196048D01*
X260694Y196350D01*
X260864Y196850D01*
X287402D01*
Y240158D01*
X389764D01*
X389764Y163386D01*
D02*
G37*
%LPC*%
G36*
X309751Y218447D02*
Y216018D01*
X312179D01*
X312143Y216293D01*
X311843Y217016D01*
X311368Y217636D01*
X310748Y218111D01*
X310026Y218410D01*
X309751Y218447D01*
D02*
G37*
G36*
X308751D02*
X308476Y218410D01*
X307753Y218111D01*
X307133Y217636D01*
X306658Y217016D01*
X306359Y216293D01*
X306322Y216018D01*
X308751D01*
Y218447D01*
D02*
G37*
G36*
X299416Y216308D02*
Y213880D01*
X301844D01*
X301808Y214155D01*
X301509Y214877D01*
X301033Y215497D01*
X300413Y215973D01*
X299691Y216272D01*
X299416Y216308D01*
D02*
G37*
G36*
X298416D02*
X298141Y216272D01*
X297419Y215973D01*
X296799Y215497D01*
X296323Y214877D01*
X296024Y214155D01*
X295987Y213880D01*
X298416D01*
Y216308D01*
D02*
G37*
G36*
X312179Y215018D02*
X309751D01*
Y212590D01*
X310026Y212626D01*
X310748Y212926D01*
X311368Y213401D01*
X311843Y214021D01*
X312143Y214743D01*
X312179Y215018D01*
D02*
G37*
G36*
X308751D02*
X306322D01*
X306359Y214743D01*
X306658Y214021D01*
X307133Y213401D01*
X307753Y212926D01*
X308476Y212626D01*
X308751Y212590D01*
Y215018D01*
D02*
G37*
G36*
X301844Y212880D02*
X299416D01*
Y210452D01*
X299691Y210488D01*
X300413Y210787D01*
X301033Y211263D01*
X301509Y211883D01*
X301808Y212605D01*
X301844Y212880D01*
D02*
G37*
G36*
X298416D02*
X295987D01*
X296024Y212605D01*
X296323Y211883D01*
X296799Y211263D01*
X297419Y210787D01*
X298141Y210488D01*
X298416Y210452D01*
Y212880D01*
D02*
G37*
G36*
X319398Y197281D02*
Y193413D01*
X323265D01*
X323180Y194061D01*
X322737Y195130D01*
X322033Y196048D01*
X321114Y196753D01*
X320045Y197196D01*
X319398Y197281D01*
D02*
G37*
G36*
X318398D02*
X317750Y197196D01*
X316681Y196753D01*
X315763Y196048D01*
X315058Y195130D01*
X314615Y194061D01*
X314530Y193413D01*
X318398D01*
Y197281D01*
D02*
G37*
G36*
X323265Y192413D02*
X319398D01*
Y188546D01*
X320045Y188631D01*
X321114Y189074D01*
X322033Y189778D01*
X322737Y190697D01*
X323180Y191766D01*
X323265Y192413D01*
D02*
G37*
G36*
X242714Y192413D02*
X238846D01*
Y188546D01*
X239494Y188631D01*
X240563Y189074D01*
X241481Y189778D01*
X242186Y190697D01*
X242629Y191766D01*
X242714Y192413D01*
D02*
G37*
G36*
X237846D02*
X233979D01*
X234064Y191766D01*
X234507Y190697D01*
X235211Y189778D01*
X236130Y189074D01*
X237199Y188631D01*
X237846Y188546D01*
Y192413D01*
D02*
G37*
G36*
X232714D02*
X228847D01*
Y188546D01*
X229494Y188631D01*
X230563Y189074D01*
X231482Y189778D01*
X232186Y190697D01*
X232629Y191766D01*
X232714Y192413D01*
D02*
G37*
G36*
X227847D02*
X223979D01*
X224064Y191766D01*
X224507Y190697D01*
X225211Y189778D01*
X226130Y189074D01*
X227199Y188631D01*
X227847Y188546D01*
Y192413D01*
D02*
G37*
G36*
X318398Y192413D02*
X314530D01*
X314615Y191766D01*
X315058Y190697D01*
X315763Y189778D01*
X316681Y189074D01*
X317750Y188631D01*
X318398Y188546D01*
Y192413D01*
D02*
G37*
G36*
X343293Y197309D02*
X334502D01*
Y188518D01*
X343293D01*
Y197309D01*
D02*
G37*
G36*
X328898Y197347D02*
X327750Y197196D01*
X326681Y196753D01*
X325763Y196048D01*
X325058Y195130D01*
X324615Y194061D01*
X324464Y192913D01*
X324615Y191766D01*
X325058Y190697D01*
X325763Y189778D01*
X326681Y189074D01*
X327750Y188631D01*
X328898Y188480D01*
X330045Y188631D01*
X331114Y189074D01*
X332033Y189778D01*
X332737Y190697D01*
X333180Y191766D01*
X333331Y192913D01*
X333180Y194061D01*
X332737Y195130D01*
X332033Y196048D01*
X331114Y196753D01*
X330045Y197196D01*
X328898Y197347D01*
D02*
G37*
G36*
X308898D02*
X307750Y197196D01*
X306681Y196753D01*
X305763Y196048D01*
X305058Y195130D01*
X304615Y194061D01*
X304464Y192913D01*
X304615Y191766D01*
X305058Y190697D01*
X305763Y189778D01*
X306681Y189074D01*
X307750Y188631D01*
X308898Y188480D01*
X310045Y188631D01*
X311114Y189074D01*
X312033Y189778D01*
X312737Y190697D01*
X313180Y191766D01*
X313331Y192913D01*
X313180Y194061D01*
X312737Y195130D01*
X312033Y196048D01*
X311114Y196753D01*
X310045Y197196D01*
X308898Y197347D01*
D02*
G37*
G36*
X298898D02*
X297750Y197196D01*
X296681Y196753D01*
X295763Y196048D01*
X295058Y195130D01*
X294615Y194061D01*
X294464Y192913D01*
X294615Y191766D01*
X295058Y190697D01*
X295763Y189778D01*
X296681Y189074D01*
X297750Y188631D01*
X298898Y188480D01*
X300045Y188631D01*
X301114Y189074D01*
X302033Y189778D01*
X302737Y190697D01*
X303180Y191766D01*
X303331Y192913D01*
X303180Y194061D01*
X302737Y195130D01*
X302033Y196048D01*
X301114Y196753D01*
X300045Y197196D01*
X298898Y197347D01*
D02*
G37*
G36*
X370468Y180754D02*
Y178326D01*
X372896D01*
X372860Y178601D01*
X372561Y179323D01*
X372085Y179943D01*
X371465Y180419D01*
X370743Y180718D01*
X370468Y180754D01*
D02*
G37*
G36*
X369468D02*
X369193Y180718D01*
X368471Y180419D01*
X367851Y179943D01*
X367375Y179323D01*
X367076Y178601D01*
X367039Y178326D01*
X369468D01*
Y180754D01*
D02*
G37*
G36*
X372896Y177326D02*
X370468D01*
Y174897D01*
X370743Y174934D01*
X371465Y175233D01*
X372085Y175708D01*
X372561Y176329D01*
X372860Y177051D01*
X372896Y177326D01*
D02*
G37*
G36*
X369468D02*
X367039D01*
X367076Y177051D01*
X367375Y176329D01*
X367851Y175708D01*
X368471Y175233D01*
X369193Y174934D01*
X369468Y174897D01*
Y177326D01*
D02*
G37*
G36*
X264936Y166951D02*
Y164522D01*
X267365D01*
X267329Y164797D01*
X267030Y165519D01*
X266554Y166140D01*
X265934Y166615D01*
X265212Y166914D01*
X264936Y166951D01*
D02*
G37*
G36*
X263936D02*
X263662Y166914D01*
X262940Y166615D01*
X262319Y166140D01*
X261843Y165519D01*
X261544Y164797D01*
X261508Y164522D01*
X263936D01*
Y166951D01*
D02*
G37*
G36*
X339694Y165305D02*
Y162877D01*
X342122D01*
X342086Y163152D01*
X341787Y163874D01*
X341311Y164494D01*
X340691Y164970D01*
X339969Y165269D01*
X339694Y165305D01*
D02*
G37*
G36*
X338694D02*
X338419Y165269D01*
X337697Y164970D01*
X337077Y164494D01*
X336601Y163874D01*
X336302Y163152D01*
X336266Y162877D01*
X338694D01*
Y165305D01*
D02*
G37*
G36*
X387092Y163608D02*
X386817Y163572D01*
X386095Y163273D01*
X385475Y162797D01*
X384999Y162177D01*
X384700Y161455D01*
X384664Y161180D01*
X387092D01*
Y163608D01*
D02*
G37*
G36*
X267365Y163522D02*
X264936D01*
Y161094D01*
X265212Y161130D01*
X265934Y161429D01*
X266554Y161905D01*
X267030Y162525D01*
X267329Y163248D01*
X267365Y163522D01*
D02*
G37*
G36*
X263936D02*
X261508D01*
X261544Y163248D01*
X261843Y162525D01*
X262319Y161905D01*
X262940Y161429D01*
X263662Y161130D01*
X263936Y161094D01*
Y163522D01*
D02*
G37*
G36*
X342122Y161877D02*
X339694D01*
Y159448D01*
X339969Y159485D01*
X340691Y159784D01*
X341311Y160259D01*
X341787Y160880D01*
X342086Y161602D01*
X342122Y161877D01*
D02*
G37*
G36*
X338694D02*
X336266D01*
X336302Y161602D01*
X336601Y160880D01*
X337077Y160259D01*
X337697Y159784D01*
X338419Y159485D01*
X338694Y159448D01*
Y161877D01*
D02*
G37*
G36*
X387092Y160180D02*
X384664D01*
X384700Y159905D01*
X384999Y159183D01*
X385475Y158563D01*
X386095Y158087D01*
X386817Y157788D01*
X387092Y157752D01*
Y160180D01*
D02*
G37*
G36*
X340841Y152560D02*
Y150131D01*
X343269D01*
X343233Y150406D01*
X342934Y151128D01*
X342458Y151749D01*
X341838Y152224D01*
X341116Y152524D01*
X340841Y152560D01*
D02*
G37*
G36*
X339841D02*
X339566Y152524D01*
X338844Y152224D01*
X338224Y151749D01*
X337748Y151128D01*
X337449Y150406D01*
X337413Y150131D01*
X339841D01*
Y152560D01*
D02*
G37*
G36*
X343269Y149131D02*
X340841D01*
Y146703D01*
X341116Y146739D01*
X341838Y147038D01*
X342458Y147514D01*
X342934Y148134D01*
X343233Y148856D01*
X343269Y149131D01*
D02*
G37*
G36*
X339841D02*
X337413D01*
X337449Y148856D01*
X337748Y148134D01*
X338224Y147514D01*
X338844Y147038D01*
X339566Y146739D01*
X339841Y146703D01*
Y149131D01*
D02*
G37*
G36*
X275895Y148936D02*
Y146508D01*
X278324D01*
X278287Y146783D01*
X277988Y147505D01*
X277512Y148125D01*
X276892Y148601D01*
X276170Y148900D01*
X275895Y148936D01*
D02*
G37*
G36*
X274895D02*
X274620Y148900D01*
X273898Y148601D01*
X273278Y148125D01*
X272802Y147505D01*
X272503Y146783D01*
X272467Y146508D01*
X274895D01*
Y148936D01*
D02*
G37*
G36*
X332158Y154541D02*
X324056D01*
Y146439D01*
X332158D01*
Y154541D01*
D02*
G37*
G36*
X318107Y154576D02*
X317049Y154437D01*
X316064Y154029D01*
X315218Y153379D01*
X314568Y152533D01*
X314160Y151548D01*
X314021Y150490D01*
X314160Y149432D01*
X314568Y148447D01*
X315218Y147601D01*
X316064Y146951D01*
X317049Y146543D01*
X318107Y146404D01*
X319164Y146543D01*
X320150Y146951D01*
X320996Y147601D01*
X321646Y148447D01*
X322054Y149432D01*
X322193Y150490D01*
X322054Y151548D01*
X321646Y152533D01*
X320996Y153379D01*
X320150Y154029D01*
X319164Y154437D01*
X318107Y154576D01*
D02*
G37*
G36*
X308107D02*
X307049Y154437D01*
X306064Y154029D01*
X305218Y153379D01*
X304568Y152533D01*
X304160Y151548D01*
X304021Y150490D01*
X304160Y149432D01*
X304568Y148447D01*
X305218Y147601D01*
X306064Y146951D01*
X307049Y146543D01*
X308107Y146404D01*
X309165Y146543D01*
X310150Y146951D01*
X310996Y147601D01*
X311646Y148447D01*
X312054Y149432D01*
X312193Y150490D01*
X312054Y151548D01*
X311646Y152533D01*
X310996Y153379D01*
X310150Y154029D01*
X309165Y154437D01*
X308107Y154576D01*
D02*
G37*
G36*
X298107D02*
X297049Y154437D01*
X296064Y154029D01*
X295218Y153379D01*
X294568Y152533D01*
X294160Y151548D01*
X294021Y150490D01*
X294160Y149432D01*
X294568Y148447D01*
X295218Y147601D01*
X296064Y146951D01*
X297049Y146543D01*
X298107Y146404D01*
X299165Y146543D01*
X300150Y146951D01*
X300996Y147601D01*
X301646Y148447D01*
X302054Y149432D01*
X302193Y150490D01*
X302054Y151548D01*
X301646Y152533D01*
X300996Y153379D01*
X300150Y154029D01*
X299165Y154437D01*
X298107Y154576D01*
D02*
G37*
G36*
X278324Y145508D02*
X275895D01*
Y143080D01*
X276170Y143116D01*
X276892Y143415D01*
X277512Y143891D01*
X277988Y144511D01*
X278287Y145233D01*
X278324Y145508D01*
D02*
G37*
G36*
X274895D02*
X272467D01*
X272503Y145233D01*
X272802Y144511D01*
X273278Y143891D01*
X273898Y143415D01*
X274620Y143116D01*
X274895Y143080D01*
Y145508D01*
D02*
G37*
G36*
X378652Y137993D02*
Y135565D01*
X381080D01*
X381044Y135839D01*
X380745Y136562D01*
X380269Y137182D01*
X379649Y137658D01*
X378927Y137957D01*
X378652Y137993D01*
D02*
G37*
G36*
X377652D02*
X377377Y137957D01*
X376655Y137658D01*
X376035Y137182D01*
X375559Y136562D01*
X375260Y135839D01*
X375224Y135565D01*
X377652D01*
Y137993D01*
D02*
G37*
G36*
X288853Y141338D02*
X288078Y141236D01*
X287356Y140937D01*
X286736Y140462D01*
X286261Y139841D01*
X285961Y139119D01*
X285859Y138344D01*
X285961Y137569D01*
X286261Y136847D01*
X286736Y136227D01*
X287356Y135751D01*
X288078Y135452D01*
X288853Y135350D01*
X289628Y135452D01*
X290351Y135751D01*
X290971Y136227D01*
X291446Y136847D01*
X291745Y137569D01*
X291848Y138344D01*
X291745Y139119D01*
X291446Y139841D01*
X290971Y140462D01*
X290351Y140937D01*
X289628Y141236D01*
X288853Y141338D01*
D02*
G37*
G36*
X318898Y140789D02*
X318123Y140687D01*
X317401Y140388D01*
X316780Y139912D01*
X316305Y139292D01*
X316005Y138570D01*
X315903Y137795D01*
X316005Y137020D01*
X316305Y136298D01*
X316780Y135678D01*
X317401Y135202D01*
X318123Y134903D01*
X318898Y134801D01*
X319673Y134903D01*
X320395Y135202D01*
X321015Y135678D01*
X321491Y136298D01*
X321790Y137020D01*
X321892Y137795D01*
X321790Y138570D01*
X321491Y139292D01*
X321015Y139912D01*
X320395Y140388D01*
X319673Y140687D01*
X318898Y140789D01*
D02*
G37*
G36*
X381080Y134565D02*
X378652D01*
Y132136D01*
X378927Y132173D01*
X379649Y132472D01*
X380269Y132947D01*
X380745Y133568D01*
X381044Y134290D01*
X381080Y134565D01*
D02*
G37*
G36*
X377652D02*
X375224D01*
X375260Y134290D01*
X375559Y133568D01*
X376035Y132947D01*
X376655Y132472D01*
X377377Y132173D01*
X377652Y132136D01*
Y134565D01*
D02*
G37*
G36*
X354331Y132915D02*
X353556Y132813D01*
X352834Y132514D01*
X352214Y132038D01*
X351738Y131418D01*
X351439Y130696D01*
X351337Y129921D01*
X351439Y129146D01*
X351738Y128424D01*
X352214Y127804D01*
X352834Y127328D01*
X353556Y127029D01*
X354331Y126927D01*
X355106Y127029D01*
X355828Y127328D01*
X356448Y127804D01*
X356924Y128424D01*
X357223Y129146D01*
X357325Y129921D01*
X357223Y130696D01*
X356924Y131418D01*
X356448Y132038D01*
X355828Y132514D01*
X355106Y132813D01*
X354331Y132915D01*
D02*
G37*
G36*
X318898Y132915D02*
X318123Y132813D01*
X317401Y132514D01*
X316780Y132038D01*
X316305Y131418D01*
X316005Y130696D01*
X315903Y129921D01*
X316005Y129146D01*
X316305Y128424D01*
X316780Y127804D01*
X317401Y127328D01*
X318123Y127029D01*
X318898Y126927D01*
X319673Y127029D01*
X320395Y127328D01*
X321015Y127804D01*
X321491Y128424D01*
X321790Y129146D01*
X321892Y129921D01*
X321790Y130696D01*
X321491Y131418D01*
X321015Y132038D01*
X320395Y132514D01*
X319673Y132813D01*
X318898Y132915D01*
D02*
G37*
G36*
X291339D02*
X290564Y132813D01*
X289842Y132514D01*
X289221Y132038D01*
X288746Y131418D01*
X288446Y130696D01*
X288345Y129921D01*
X288446Y129146D01*
X288746Y128424D01*
X289221Y127804D01*
X289842Y127328D01*
X290564Y127029D01*
X291339Y126927D01*
X292113Y127029D01*
X292836Y127328D01*
X293456Y127804D01*
X293932Y128424D01*
X294231Y129146D01*
X294333Y129921D01*
X294231Y130696D01*
X293932Y131418D01*
X293456Y132038D01*
X292836Y132514D01*
X292113Y132813D01*
X291339Y132915D01*
D02*
G37*
G36*
X275802Y129081D02*
Y126653D01*
X278230D01*
X278194Y126928D01*
X277895Y127650D01*
X277419Y128270D01*
X276799Y128746D01*
X276077Y129045D01*
X275802Y129081D01*
D02*
G37*
G36*
X274802D02*
X274527Y129045D01*
X273805Y128746D01*
X273185Y128270D01*
X272709Y127650D01*
X272410Y126928D01*
X272374Y126653D01*
X274802D01*
Y129081D01*
D02*
G37*
G36*
X278230Y125653D02*
X275802D01*
Y123225D01*
X276077Y123261D01*
X276799Y123560D01*
X277419Y124036D01*
X277895Y124656D01*
X278194Y125378D01*
X278230Y125653D01*
D02*
G37*
G36*
X274802D02*
X272374D01*
X272410Y125378D01*
X272709Y124656D01*
X273185Y124036D01*
X273805Y123560D01*
X274527Y123261D01*
X274802Y123225D01*
Y125653D01*
D02*
G37*
G36*
X328607Y124510D02*
Y120990D01*
X332127D01*
X332054Y121548D01*
X331646Y122533D01*
X330996Y123379D01*
X330150Y124029D01*
X329165Y124437D01*
X328607Y124510D01*
D02*
G37*
G36*
X327607D02*
X327049Y124437D01*
X326064Y124029D01*
X325218Y123379D01*
X324568Y122533D01*
X324160Y121548D01*
X324087Y120990D01*
X327607D01*
Y124510D01*
D02*
G37*
G36*
X340624Y122340D02*
Y119911D01*
X343052D01*
X343016Y120186D01*
X342717Y120908D01*
X342241Y121529D01*
X341621Y122004D01*
X340899Y122303D01*
X340624Y122340D01*
D02*
G37*
G36*
X339624D02*
X339349Y122303D01*
X338627Y122004D01*
X338007Y121529D01*
X337531Y120908D01*
X337232Y120186D01*
X337196Y119911D01*
X339624D01*
Y122340D01*
D02*
G37*
G36*
X357091Y125624D02*
X356316Y125522D01*
X355594Y125223D01*
X354974Y124747D01*
X354498Y124127D01*
X354199Y123405D01*
X354097Y122629D01*
X354199Y121855D01*
X354498Y121133D01*
X354974Y120512D01*
X355594Y120037D01*
X356316Y119737D01*
X357091Y119635D01*
X357866Y119737D01*
X358588Y120037D01*
X359208Y120512D01*
X359684Y121133D01*
X359983Y121855D01*
X360085Y122629D01*
X359983Y123405D01*
X359684Y124127D01*
X359208Y124747D01*
X358588Y125223D01*
X357866Y125522D01*
X357091Y125624D01*
D02*
G37*
G36*
X244593Y125070D02*
X243818Y124968D01*
X243095Y124669D01*
X242475Y124193D01*
X242000Y123573D01*
X241701Y122850D01*
X241599Y122075D01*
X241701Y121300D01*
X242000Y120578D01*
X242475Y119958D01*
X243095Y119483D01*
X243818Y119183D01*
X244593Y119081D01*
X245368Y119183D01*
X246090Y119483D01*
X246710Y119958D01*
X247186Y120578D01*
X247485Y121300D01*
X247587Y122075D01*
X247485Y122850D01*
X247186Y123573D01*
X246710Y124193D01*
X246090Y124669D01*
X245368Y124968D01*
X244593Y125070D01*
D02*
G37*
G36*
X382224Y123274D02*
X381449Y123172D01*
X380727Y122873D01*
X380106Y122397D01*
X379631Y121777D01*
X379331Y121055D01*
X379229Y120280D01*
X379331Y119505D01*
X379631Y118783D01*
X380106Y118163D01*
X380727Y117687D01*
X381449Y117388D01*
X382224Y117286D01*
X382998Y117388D01*
X383721Y117687D01*
X384341Y118163D01*
X384817Y118783D01*
X385116Y119505D01*
X385218Y120280D01*
X385116Y121055D01*
X384817Y121777D01*
X384341Y122397D01*
X383721Y122873D01*
X382998Y123172D01*
X382224Y123274D01*
D02*
G37*
G36*
X287329Y122583D02*
X286554Y122481D01*
X285831Y122182D01*
X285211Y121706D01*
X284736Y121086D01*
X284436Y120364D01*
X284334Y119589D01*
X284436Y118814D01*
X284736Y118092D01*
X285211Y117472D01*
X285831Y116996D01*
X286554Y116697D01*
X287329Y116595D01*
X288104Y116697D01*
X288826Y116996D01*
X289446Y117472D01*
X289921Y118092D01*
X290221Y118814D01*
X290323Y119589D01*
X290221Y120364D01*
X289921Y121086D01*
X289446Y121706D01*
X288826Y122182D01*
X288104Y122481D01*
X287329Y122583D01*
D02*
G37*
G36*
X343052Y118911D02*
X340624D01*
Y116483D01*
X340899Y116519D01*
X341621Y116818D01*
X342241Y117294D01*
X342717Y117914D01*
X343016Y118637D01*
X343052Y118911D01*
D02*
G37*
G36*
X339624D02*
X337196D01*
X337232Y118637D01*
X337531Y117914D01*
X338007Y117294D01*
X338627Y116818D01*
X339349Y116519D01*
X339624Y116483D01*
Y118911D01*
D02*
G37*
G36*
X332127Y119990D02*
X328607D01*
Y116470D01*
X329165Y116543D01*
X330150Y116951D01*
X330996Y117601D01*
X331646Y118447D01*
X332054Y119432D01*
X332127Y119990D01*
D02*
G37*
G36*
X327607D02*
X324087D01*
X324160Y119432D01*
X324568Y118447D01*
X325218Y117601D01*
X326064Y116951D01*
X327049Y116543D01*
X327607Y116470D01*
Y119990D01*
D02*
G37*
G36*
X318107Y124576D02*
X317049Y124437D01*
X316064Y124029D01*
X315218Y123379D01*
X314568Y122533D01*
X314160Y121548D01*
X314021Y120490D01*
X314160Y119432D01*
X314568Y118447D01*
X315218Y117601D01*
X316064Y116951D01*
X317049Y116543D01*
X318107Y116404D01*
X319164Y116543D01*
X320150Y116951D01*
X320996Y117601D01*
X321646Y118447D01*
X322054Y119432D01*
X322193Y120490D01*
X322054Y121548D01*
X321646Y122533D01*
X320996Y123379D01*
X320150Y124029D01*
X319164Y124437D01*
X318107Y124576D01*
D02*
G37*
G36*
X308107D02*
X307049Y124437D01*
X306064Y124029D01*
X305218Y123379D01*
X304568Y122533D01*
X304160Y121548D01*
X304021Y120490D01*
X304160Y119432D01*
X304568Y118447D01*
X305218Y117601D01*
X306064Y116951D01*
X307049Y116543D01*
X308107Y116404D01*
X309165Y116543D01*
X310150Y116951D01*
X310996Y117601D01*
X311646Y118447D01*
X312054Y119432D01*
X312193Y120490D01*
X312054Y121548D01*
X311646Y122533D01*
X310996Y123379D01*
X310150Y124029D01*
X309165Y124437D01*
X308107Y124576D01*
D02*
G37*
G36*
X298107D02*
X297049Y124437D01*
X296064Y124029D01*
X295218Y123379D01*
X294568Y122533D01*
X294160Y121548D01*
X294021Y120490D01*
X294160Y119432D01*
X294568Y118447D01*
X295218Y117601D01*
X296064Y116951D01*
X297049Y116543D01*
X298107Y116404D01*
X299165Y116543D01*
X300150Y116951D01*
X300996Y117601D01*
X301646Y118447D01*
X302054Y119432D01*
X302193Y120490D01*
X302054Y121548D01*
X301646Y122533D01*
X300996Y123379D01*
X300150Y124029D01*
X299165Y124437D01*
X298107Y124576D01*
D02*
G37*
G36*
X360252Y116081D02*
X359477Y115979D01*
X358755Y115680D01*
X358135Y115204D01*
X357659Y114584D01*
X357360Y113862D01*
X357258Y113087D01*
X357360Y112312D01*
X357659Y111590D01*
X358135Y110970D01*
X358755Y110494D01*
X359477Y110195D01*
X360252Y110093D01*
X361027Y110195D01*
X361749Y110494D01*
X362369Y110970D01*
X362845Y111590D01*
X363144Y112312D01*
X363246Y113087D01*
X363144Y113862D01*
X362845Y114584D01*
X362369Y115204D01*
X361749Y115680D01*
X361027Y115979D01*
X360252Y116081D01*
D02*
G37*
G36*
X331593Y111484D02*
Y109055D01*
X334022D01*
X333985Y109330D01*
X333686Y110052D01*
X333211Y110672D01*
X332591Y111148D01*
X331868Y111447D01*
X331593Y111484D01*
D02*
G37*
G36*
X330593D02*
X330318Y111447D01*
X329596Y111148D01*
X328976Y110672D01*
X328500Y110052D01*
X328201Y109330D01*
X328165Y109055D01*
X330593D01*
Y111484D01*
D02*
G37*
G36*
X378098Y116948D02*
X369601D01*
Y108452D01*
X378098D01*
Y116948D01*
D02*
G37*
G36*
X291476Y110394D02*
Y107966D01*
X293905D01*
X293868Y108241D01*
X293569Y108963D01*
X293093Y109583D01*
X292473Y110059D01*
X291751Y110358D01*
X291476Y110394D01*
D02*
G37*
G36*
X290476D02*
X290201Y110358D01*
X289479Y110059D01*
X288859Y109583D01*
X288383Y108963D01*
X288084Y108241D01*
X288048Y107966D01*
X290476D01*
Y110394D01*
D02*
G37*
G36*
X343748Y115180D02*
X342973Y115077D01*
X342251Y114778D01*
X341631Y114303D01*
X341155Y113682D01*
X340856Y112960D01*
X340754Y112185D01*
X340856Y111410D01*
X341155Y110688D01*
X341631Y110068D01*
X342251Y109592D01*
X342973Y109293D01*
X343748Y109191D01*
X344523Y109293D01*
X345245Y109592D01*
X345865Y110068D01*
X346100Y110374D01*
X346498Y110251D01*
X346589Y110190D01*
X346686Y109449D01*
X346986Y108727D01*
X347461Y108107D01*
X348081Y107631D01*
X348803Y107332D01*
X349578Y107230D01*
X350353Y107332D01*
X351076Y107631D01*
X351696Y108107D01*
X352171Y108727D01*
X352471Y109449D01*
X352573Y110224D01*
X352471Y110999D01*
X352171Y111721D01*
X351696Y112341D01*
X351076Y112817D01*
X350353Y113116D01*
X349578Y113218D01*
X348803Y113116D01*
X348081Y112817D01*
X347461Y112341D01*
X347227Y112035D01*
X346829Y112159D01*
X346738Y112219D01*
X346640Y112960D01*
X346341Y113682D01*
X345865Y114303D01*
X345245Y114778D01*
X344523Y115077D01*
X343748Y115180D01*
D02*
G37*
G36*
X334022Y108055D02*
X331593D01*
Y105627D01*
X331868Y105663D01*
X332591Y105962D01*
X333211Y106438D01*
X333686Y107058D01*
X333985Y107780D01*
X334022Y108055D01*
D02*
G37*
G36*
X330593D02*
X328165D01*
X328201Y107780D01*
X328500Y107058D01*
X328976Y106438D01*
X329596Y105962D01*
X330318Y105663D01*
X330593Y105627D01*
Y108055D01*
D02*
G37*
G36*
X293905Y106966D02*
X291476D01*
Y104538D01*
X291751Y104574D01*
X292473Y104873D01*
X293093Y105349D01*
X293569Y105969D01*
X293868Y106691D01*
X293905Y106966D01*
D02*
G37*
G36*
X290476D02*
X288048D01*
X288084Y106691D01*
X288383Y105969D01*
X288859Y105349D01*
X289479Y104873D01*
X290201Y104574D01*
X290476Y104538D01*
Y106966D01*
D02*
G37*
G36*
X277361Y106483D02*
Y104055D01*
X279789D01*
X279753Y104330D01*
X279453Y105052D01*
X278978Y105672D01*
X278358Y106148D01*
X277635Y106447D01*
X277361Y106483D01*
D02*
G37*
G36*
X276361D02*
X276085Y106447D01*
X275363Y106148D01*
X274743Y105672D01*
X274268Y105052D01*
X273968Y104330D01*
X273932Y104055D01*
X276361D01*
Y106483D01*
D02*
G37*
G36*
X267954Y104414D02*
Y101986D01*
X270382D01*
X270346Y102261D01*
X270047Y102983D01*
X269571Y103603D01*
X268951Y104079D01*
X268229Y104378D01*
X267954Y104414D01*
D02*
G37*
G36*
X266954D02*
X266679Y104378D01*
X265957Y104079D01*
X265337Y103603D01*
X264861Y102983D01*
X264562Y102261D01*
X264526Y101986D01*
X266954D01*
Y104414D01*
D02*
G37*
G36*
X279789Y103055D02*
X277361D01*
Y100627D01*
X277635Y100663D01*
X278358Y100962D01*
X278978Y101438D01*
X279453Y102058D01*
X279753Y102780D01*
X279789Y103055D01*
D02*
G37*
G36*
X276361D02*
X273932D01*
X273968Y102780D01*
X274268Y102058D01*
X274743Y101438D01*
X275363Y100962D01*
X276085Y100663D01*
X276361Y100627D01*
Y103055D01*
D02*
G37*
G36*
X270382Y100986D02*
X267954D01*
Y98557D01*
X268229Y98594D01*
X268951Y98893D01*
X269571Y99369D01*
X270047Y99989D01*
X270346Y100711D01*
X270382Y100986D01*
D02*
G37*
G36*
X266954D02*
X264526D01*
X264562Y100711D01*
X264861Y99989D01*
X265337Y99369D01*
X265957Y98893D01*
X266679Y98594D01*
X266954Y98557D01*
Y100986D01*
D02*
G37*
G36*
X373849Y106984D02*
X372741Y106839D01*
X371707Y106410D01*
X370820Y105729D01*
X370139Y104842D01*
X369711Y103809D01*
X369565Y102700D01*
X369711Y101591D01*
X370139Y100557D01*
X370820Y99670D01*
X371707Y98989D01*
X372741Y98561D01*
X373849Y98415D01*
X374958Y98561D01*
X375992Y98989D01*
X376879Y99670D01*
X377560Y100557D01*
X377988Y101591D01*
X378134Y102700D01*
X377988Y103809D01*
X377560Y104842D01*
X376879Y105729D01*
X375992Y106410D01*
X374958Y106839D01*
X373849Y106984D01*
D02*
G37*
G36*
X236709Y100057D02*
Y97629D01*
X239137D01*
X239101Y97904D01*
X238802Y98626D01*
X238326Y99246D01*
X237706Y99721D01*
X236984Y100021D01*
X236709Y100057D01*
D02*
G37*
G36*
X235709D02*
X235434Y100021D01*
X234712Y99721D01*
X234092Y99246D01*
X233616Y98626D01*
X233317Y97904D01*
X233281Y97629D01*
X235709D01*
Y100057D01*
D02*
G37*
G36*
X227174Y98966D02*
Y96538D01*
X229602D01*
X229566Y96813D01*
X229267Y97535D01*
X228791Y98155D01*
X228171Y98631D01*
X227449Y98930D01*
X227174Y98966D01*
D02*
G37*
G36*
X226174D02*
X225899Y98930D01*
X225177Y98631D01*
X224556Y98155D01*
X224081Y97535D01*
X223781Y96813D01*
X223745Y96538D01*
X226174D01*
Y98966D01*
D02*
G37*
G36*
X360955Y98253D02*
Y95825D01*
X363383D01*
X363347Y96100D01*
X363048Y96822D01*
X362572Y97442D01*
X361952Y97918D01*
X361230Y98217D01*
X360955Y98253D01*
D02*
G37*
G36*
X359955D02*
X359680Y98217D01*
X358958Y97918D01*
X358338Y97442D01*
X357862Y96822D01*
X357563Y96100D01*
X357527Y95825D01*
X359955D01*
Y98253D01*
D02*
G37*
G36*
X239137Y96629D02*
X236709D01*
Y94200D01*
X236984Y94236D01*
X237706Y94536D01*
X238326Y95011D01*
X238802Y95631D01*
X239101Y96354D01*
X239137Y96629D01*
D02*
G37*
G36*
X235709D02*
X233281D01*
X233317Y96354D01*
X233616Y95631D01*
X234092Y95011D01*
X234712Y94536D01*
X235434Y94236D01*
X235709Y94200D01*
Y96629D01*
D02*
G37*
G36*
X352737Y96482D02*
Y94054D01*
X355165D01*
X355129Y94329D01*
X354830Y95051D01*
X354354Y95671D01*
X353734Y96147D01*
X353012Y96446D01*
X352737Y96482D01*
D02*
G37*
G36*
X351737D02*
X351462Y96446D01*
X350740Y96147D01*
X350119Y95671D01*
X349644Y95051D01*
X349345Y94329D01*
X349308Y94054D01*
X351737D01*
Y96482D01*
D02*
G37*
G36*
X346120Y95580D02*
Y93151D01*
X348548D01*
X348512Y93426D01*
X348213Y94148D01*
X347737Y94769D01*
X347117Y95244D01*
X346395Y95543D01*
X346120Y95580D01*
D02*
G37*
G36*
X345120D02*
X344845Y95543D01*
X344123Y95244D01*
X343503Y94769D01*
X343027Y94148D01*
X342728Y93426D01*
X342691Y93151D01*
X345120D01*
Y95580D01*
D02*
G37*
G36*
X229602Y95538D02*
X227174D01*
Y93110D01*
X227449Y93146D01*
X228171Y93445D01*
X228791Y93921D01*
X229267Y94541D01*
X229566Y95263D01*
X229602Y95538D01*
D02*
G37*
G36*
X226174D02*
X223745D01*
X223781Y95263D01*
X224081Y94541D01*
X224556Y93921D01*
X225177Y93445D01*
X225899Y93146D01*
X226174Y93110D01*
Y95538D01*
D02*
G37*
G36*
X363383Y94825D02*
X360955D01*
Y92396D01*
X361230Y92433D01*
X361952Y92732D01*
X362572Y93208D01*
X363048Y93828D01*
X363347Y94550D01*
X363383Y94825D01*
D02*
G37*
G36*
X359955D02*
X357527D01*
X357563Y94550D01*
X357862Y93828D01*
X358338Y93208D01*
X358958Y92732D01*
X359680Y92433D01*
X359955Y92396D01*
Y94825D01*
D02*
G37*
G36*
X355165Y93054D02*
X352737D01*
Y90625D01*
X353012Y90662D01*
X353734Y90961D01*
X354354Y91436D01*
X354830Y92057D01*
X355129Y92779D01*
X355165Y93054D01*
D02*
G37*
G36*
X351737D02*
X349308D01*
X349345Y92779D01*
X349644Y92057D01*
X350119Y91436D01*
X350740Y90961D01*
X351462Y90662D01*
X351737Y90625D01*
Y93054D01*
D02*
G37*
G36*
X290935Y95949D02*
X290160Y95847D01*
X289438Y95548D01*
X288818Y95072D01*
X288342Y94452D01*
X288043Y93730D01*
X287941Y92955D01*
X288043Y92180D01*
X288342Y91458D01*
X288818Y90838D01*
X289438Y90362D01*
X290160Y90062D01*
X290935Y89960D01*
X291710Y90062D01*
X292432Y90362D01*
X293053Y90838D01*
X293529Y91458D01*
X293828Y92180D01*
X293930Y92955D01*
X293828Y93730D01*
X293529Y94452D01*
X293053Y95072D01*
X292432Y95548D01*
X291710Y95847D01*
X290935Y95949D01*
D02*
G37*
G36*
X348548Y92151D02*
X346120D01*
Y89723D01*
X346395Y89759D01*
X347117Y90058D01*
X347737Y90534D01*
X348213Y91154D01*
X348512Y91876D01*
X348548Y92151D01*
D02*
G37*
G36*
X345120D02*
X342691D01*
X342728Y91876D01*
X343027Y91154D01*
X343503Y90534D01*
X344123Y90058D01*
X344845Y89759D01*
X345120Y89723D01*
Y92151D01*
D02*
G37*
G36*
X373849Y96984D02*
X372741Y96838D01*
X371707Y96411D01*
X370820Y95730D01*
X370139Y94842D01*
X369711Y93809D01*
X369565Y92700D01*
X369711Y91591D01*
X370139Y90557D01*
X370820Y89670D01*
X371707Y88989D01*
X372741Y88561D01*
X373849Y88415D01*
X374958Y88561D01*
X375992Y88989D01*
X376879Y89670D01*
X377560Y90557D01*
X377988Y91591D01*
X378134Y92700D01*
X377988Y93809D01*
X377560Y94842D01*
X376879Y95730D01*
X375992Y96411D01*
X374958Y96838D01*
X373849Y96984D01*
D02*
G37*
G36*
X341094Y83115D02*
Y80687D01*
X343523D01*
X343486Y80962D01*
X343187Y81684D01*
X342711Y82304D01*
X342091Y82780D01*
X341369Y83079D01*
X341094Y83115D01*
D02*
G37*
G36*
X340094D02*
X339819Y83079D01*
X339097Y82780D01*
X338477Y82304D01*
X338001Y81684D01*
X337702Y80962D01*
X337666Y80687D01*
X340094D01*
Y83115D01*
D02*
G37*
G36*
X323103Y86668D02*
X322328Y86566D01*
X321606Y86267D01*
X320986Y85791D01*
X320510Y85171D01*
X320211Y84449D01*
X320109Y83674D01*
X320211Y82899D01*
X320510Y82177D01*
X320986Y81557D01*
X321606Y81081D01*
X322328Y80782D01*
X323103Y80680D01*
X323878Y80782D01*
X324600Y81081D01*
X325220Y81557D01*
X325696Y82177D01*
X325995Y82899D01*
X326097Y83674D01*
X325995Y84449D01*
X325696Y85171D01*
X325220Y85791D01*
X324600Y86267D01*
X323878Y86566D01*
X323103Y86668D01*
D02*
G37*
G36*
X373849Y86984D02*
X372741Y86839D01*
X371707Y86410D01*
X370820Y85729D01*
X370139Y84842D01*
X369711Y83809D01*
X369565Y82700D01*
X369711Y81591D01*
X370139Y80557D01*
X370820Y79670D01*
X371707Y78989D01*
X372741Y78561D01*
X373849Y78415D01*
X374958Y78561D01*
X375992Y78989D01*
X376879Y79670D01*
X377560Y80557D01*
X377988Y81591D01*
X378134Y82700D01*
X377988Y83809D01*
X377560Y84842D01*
X376879Y85729D01*
X375992Y86410D01*
X374958Y86839D01*
X373849Y86984D01*
D02*
G37*
G36*
X278452Y79930D02*
Y77502D01*
X280880D01*
X280844Y77777D01*
X280545Y78499D01*
X280069Y79119D01*
X279449Y79595D01*
X278727Y79894D01*
X278452Y79930D01*
D02*
G37*
G36*
X277452D02*
X277177Y79894D01*
X276455Y79595D01*
X275835Y79119D01*
X275359Y78499D01*
X275060Y77777D01*
X275024Y77502D01*
X277452D01*
Y79930D01*
D02*
G37*
G36*
X343523Y79687D02*
X341094D01*
Y77259D01*
X341369Y77295D01*
X342091Y77594D01*
X342711Y78070D01*
X343187Y78690D01*
X343486Y79412D01*
X343523Y79687D01*
D02*
G37*
G36*
X340094D02*
X337666D01*
X337702Y79412D01*
X338001Y78690D01*
X338477Y78070D01*
X339097Y77594D01*
X339819Y77295D01*
X340094Y77259D01*
Y79687D01*
D02*
G37*
G36*
X359543Y78707D02*
Y76279D01*
X361971D01*
X361935Y76553D01*
X361636Y77276D01*
X361160Y77896D01*
X360540Y78371D01*
X359818Y78671D01*
X359543Y78707D01*
D02*
G37*
G36*
X358543D02*
X358268Y78671D01*
X357546Y78371D01*
X356926Y77896D01*
X356450Y77276D01*
X356151Y76553D01*
X356114Y76279D01*
X358543D01*
Y78707D01*
D02*
G37*
G36*
X349576Y77461D02*
Y75033D01*
X352004D01*
X351968Y75308D01*
X351669Y76030D01*
X351193Y76650D01*
X350573Y77126D01*
X349851Y77425D01*
X349576Y77461D01*
D02*
G37*
G36*
X348576D02*
X348301Y77425D01*
X347579Y77126D01*
X346959Y76650D01*
X346483Y76030D01*
X346184Y75308D01*
X346147Y75033D01*
X348576D01*
Y77461D01*
D02*
G37*
G36*
X280880Y76502D02*
X278452D01*
Y74074D01*
X278727Y74110D01*
X279449Y74409D01*
X280069Y74885D01*
X280545Y75505D01*
X280844Y76227D01*
X280880Y76502D01*
D02*
G37*
G36*
X277452D02*
X275024D01*
X275060Y76227D01*
X275359Y75505D01*
X275835Y74885D01*
X276455Y74409D01*
X277177Y74110D01*
X277452Y74074D01*
Y76502D01*
D02*
G37*
G36*
X361971Y75279D02*
X359543D01*
Y72850D01*
X359818Y72886D01*
X360540Y73185D01*
X361160Y73661D01*
X361636Y74281D01*
X361935Y75003D01*
X361971Y75279D01*
D02*
G37*
G36*
X358543D02*
X356114D01*
X356151Y75003D01*
X356450Y74281D01*
X356926Y73661D01*
X357546Y73185D01*
X358268Y72886D01*
X358543Y72850D01*
Y75279D01*
D02*
G37*
G36*
X352004Y74033D02*
X349576D01*
Y71604D01*
X349851Y71640D01*
X350573Y71940D01*
X351193Y72415D01*
X351669Y73036D01*
X351968Y73758D01*
X352004Y74033D01*
D02*
G37*
G36*
X348576D02*
X346147D01*
X346184Y73758D01*
X346483Y73036D01*
X346959Y72415D01*
X347579Y71940D01*
X348301Y71640D01*
X348576Y71604D01*
Y74033D01*
D02*
G37*
G36*
X373849Y76985D02*
X372741Y76838D01*
X371707Y76411D01*
X370820Y75730D01*
X370139Y74842D01*
X369711Y73809D01*
X369565Y72700D01*
X369711Y71591D01*
X370139Y70557D01*
X370820Y69670D01*
X371707Y68989D01*
X372741Y68561D01*
X373849Y68415D01*
X374958Y68561D01*
X375992Y68989D01*
X376879Y69670D01*
X377560Y70557D01*
X377988Y71591D01*
X378134Y72700D01*
X377988Y73809D01*
X377560Y74842D01*
X376879Y75730D01*
X375992Y76411D01*
X374958Y76838D01*
X373849Y76985D01*
D02*
G37*
G36*
Y66984D02*
X372741Y66839D01*
X371707Y66410D01*
X370820Y65729D01*
X370139Y64842D01*
X369711Y63809D01*
X369565Y62700D01*
X369711Y61591D01*
X370139Y60557D01*
X370820Y59670D01*
X371707Y58989D01*
X372741Y58561D01*
X373849Y58415D01*
X374958Y58561D01*
X375992Y58989D01*
X376879Y59670D01*
X377560Y60557D01*
X377988Y61591D01*
X378134Y62700D01*
X377988Y63809D01*
X377560Y64842D01*
X376879Y65729D01*
X375992Y66410D01*
X374958Y66839D01*
X373849Y66984D01*
D02*
G37*
G36*
X293806Y56809D02*
X293031Y56707D01*
X292309Y56408D01*
X291688Y55932D01*
X291213Y55312D01*
X290914Y54590D01*
X290812Y53815D01*
X290914Y53040D01*
X291213Y52318D01*
X291688Y51697D01*
X292309Y51222D01*
X293031Y50923D01*
X293806Y50821D01*
X294581Y50923D01*
X295303Y51222D01*
X295923Y51697D01*
X296399Y52318D01*
X296698Y53040D01*
X296800Y53815D01*
X296698Y54590D01*
X296399Y55312D01*
X295923Y55932D01*
X295303Y56408D01*
X294581Y56707D01*
X293806Y56809D01*
D02*
G37*
G36*
X265375Y51685D02*
Y49257D01*
X267803D01*
X267767Y49532D01*
X267468Y50254D01*
X266992Y50874D01*
X266372Y51350D01*
X265650Y51649D01*
X265375Y51685D01*
D02*
G37*
G36*
X264375D02*
X264100Y51649D01*
X263378Y51350D01*
X262758Y50874D01*
X262282Y50254D01*
X261983Y49532D01*
X261947Y49257D01*
X264375D01*
Y51685D01*
D02*
G37*
G36*
X373849Y56985D02*
X372741Y56839D01*
X371707Y56410D01*
X370820Y55730D01*
X370139Y54842D01*
X369711Y53809D01*
X369565Y52700D01*
X369711Y51591D01*
X370139Y50558D01*
X370820Y49670D01*
X371707Y48989D01*
X372741Y48561D01*
X373849Y48415D01*
X374958Y48561D01*
X375992Y48989D01*
X376879Y49670D01*
X377560Y50558D01*
X377988Y51591D01*
X378134Y52700D01*
X377988Y53809D01*
X377560Y54842D01*
X376879Y55730D01*
X375992Y56410D01*
X374958Y56839D01*
X373849Y56985D01*
D02*
G37*
G36*
X267803Y48257D02*
X265375D01*
Y45828D01*
X265650Y45865D01*
X266372Y46164D01*
X266992Y46639D01*
X267468Y47260D01*
X267767Y47982D01*
X267803Y48257D01*
D02*
G37*
G36*
X264375D02*
X261947D01*
X261983Y47982D01*
X262282Y47260D01*
X262758Y46639D01*
X263378Y46164D01*
X264100Y45865D01*
X264375Y45828D01*
Y48257D01*
D02*
G37*
G36*
X227035Y47675D02*
Y43807D01*
X230903D01*
X230818Y44455D01*
X230375Y45524D01*
X229671Y46442D01*
X228752Y47147D01*
X227683Y47590D01*
X227035Y47675D01*
D02*
G37*
G36*
X226035D02*
X225388Y47590D01*
X224319Y47147D01*
X223400Y46442D01*
X222696Y45524D01*
X222253Y44455D01*
X222168Y43807D01*
X226035D01*
Y47675D01*
D02*
G37*
G36*
X217035D02*
Y43807D01*
X220903D01*
X220818Y44455D01*
X220375Y45524D01*
X219671Y46442D01*
X218752Y47147D01*
X217683Y47590D01*
X217035Y47675D01*
D02*
G37*
G36*
X374349Y46919D02*
Y43200D01*
X378068D01*
X377988Y43809D01*
X377560Y44842D01*
X376879Y45730D01*
X375992Y46410D01*
X374958Y46839D01*
X374349Y46919D01*
D02*
G37*
G36*
X373349D02*
X372741Y46839D01*
X371707Y46410D01*
X370820Y45730D01*
X370139Y44842D01*
X369711Y43809D01*
X369631Y43200D01*
X373349D01*
Y46919D01*
D02*
G37*
G36*
X349455Y42548D02*
Y40120D01*
X351883D01*
X351847Y40395D01*
X351548Y41117D01*
X351072Y41737D01*
X350452Y42213D01*
X349730Y42512D01*
X349455Y42548D01*
D02*
G37*
G36*
X348455D02*
X348180Y42512D01*
X347458Y42213D01*
X346838Y41737D01*
X346362Y41117D01*
X346063Y40395D01*
X346027Y40120D01*
X348455D01*
Y42548D01*
D02*
G37*
G36*
X359462Y41535D02*
Y39107D01*
X361890D01*
X361854Y39382D01*
X361555Y40104D01*
X361079Y40724D01*
X360459Y41199D01*
X359737Y41499D01*
X359462Y41535D01*
D02*
G37*
G36*
X358462D02*
X358187Y41499D01*
X357465Y41199D01*
X356845Y40724D01*
X356369Y40104D01*
X356070Y39382D01*
X356033Y39107D01*
X358462D01*
Y41535D01*
D02*
G37*
G36*
X230903Y42807D02*
X227035D01*
Y38939D01*
X227683Y39025D01*
X228752Y39467D01*
X229671Y40172D01*
X230375Y41090D01*
X230818Y42160D01*
X230903Y42807D01*
D02*
G37*
G36*
X226035D02*
X222168D01*
X222253Y42160D01*
X222696Y41090D01*
X223400Y40172D01*
X224319Y39467D01*
X225388Y39025D01*
X226035Y38939D01*
Y42807D01*
D02*
G37*
G36*
X220903D02*
X217035D01*
Y38939D01*
X217683Y39025D01*
X218752Y39467D01*
X219671Y40172D01*
X220375Y41090D01*
X220818Y42160D01*
X220903Y42807D01*
D02*
G37*
G36*
X246535Y47741D02*
X245388Y47590D01*
X244319Y47147D01*
X243400Y46442D01*
X242696Y45524D01*
X242253Y44455D01*
X242102Y43307D01*
X242253Y42160D01*
X242696Y41090D01*
X243400Y40172D01*
X244319Y39467D01*
X245388Y39025D01*
X246535Y38873D01*
X247683Y39025D01*
X248752Y39467D01*
X249671Y40172D01*
X250375Y41090D01*
X250818Y42160D01*
X250969Y43307D01*
X250818Y44455D01*
X250375Y45524D01*
X249671Y46442D01*
X248752Y47147D01*
X247683Y47590D01*
X246535Y47741D01*
D02*
G37*
G36*
X236535D02*
X235388Y47590D01*
X234319Y47147D01*
X233400Y46442D01*
X232696Y45524D01*
X232253Y44455D01*
X232102Y43307D01*
X232253Y42160D01*
X232696Y41090D01*
X233400Y40172D01*
X234319Y39467D01*
X235388Y39025D01*
X236535Y38873D01*
X237683Y39025D01*
X238752Y39467D01*
X239670Y40172D01*
X240375Y41090D01*
X240818Y42160D01*
X240969Y43307D01*
X240818Y44455D01*
X240375Y45524D01*
X239670Y46442D01*
X238752Y47147D01*
X237683Y47590D01*
X236535Y47741D01*
D02*
G37*
G36*
X378068Y42200D02*
X374349D01*
Y38481D01*
X374958Y38561D01*
X375992Y38989D01*
X376879Y39670D01*
X377560Y40558D01*
X377988Y41591D01*
X378068Y42200D01*
D02*
G37*
G36*
X373349D02*
X369631D01*
X369711Y41591D01*
X370139Y40558D01*
X370820Y39670D01*
X371707Y38989D01*
X372741Y38561D01*
X373349Y38481D01*
Y42200D01*
D02*
G37*
G36*
X351883Y39120D02*
X349455D01*
Y36692D01*
X349730Y36728D01*
X350452Y37027D01*
X351072Y37503D01*
X351548Y38123D01*
X351847Y38845D01*
X351883Y39120D01*
D02*
G37*
G36*
X348455D02*
X346027D01*
X346063Y38845D01*
X346362Y38123D01*
X346838Y37503D01*
X347458Y37027D01*
X348180Y36728D01*
X348455Y36692D01*
Y39120D01*
D02*
G37*
G36*
X361890Y38107D02*
X359462D01*
Y35678D01*
X359737Y35714D01*
X360459Y36013D01*
X361079Y36489D01*
X361555Y37110D01*
X361854Y37832D01*
X361890Y38107D01*
D02*
G37*
G36*
X358462D02*
X356033D01*
X356070Y37832D01*
X356369Y37110D01*
X356845Y36489D01*
X357465Y36013D01*
X358187Y35714D01*
X358462Y35678D01*
Y38107D01*
D02*
G37*
G36*
X340588Y37355D02*
Y34927D01*
X343016D01*
X342980Y35201D01*
X342681Y35923D01*
X342205Y36544D01*
X341585Y37020D01*
X340863Y37319D01*
X340588Y37355D01*
D02*
G37*
G36*
X339588D02*
X339313Y37319D01*
X338591Y37020D01*
X337971Y36544D01*
X337495Y35923D01*
X337196Y35201D01*
X337160Y34927D01*
X339588D01*
Y37355D01*
D02*
G37*
G36*
X343016Y33926D02*
X340588D01*
Y31498D01*
X340863Y31534D01*
X341585Y31833D01*
X342205Y32309D01*
X342681Y32929D01*
X342980Y33652D01*
X343016Y33926D01*
D02*
G37*
G36*
X339588D02*
X337160D01*
X337196Y33652D01*
X337495Y32929D01*
X337971Y32309D01*
X338591Y31833D01*
X339313Y31534D01*
X339588Y31498D01*
Y33926D01*
D02*
G37*
%LPD*%
D14*
X393701Y0D02*
Y393701D01*
X0Y0D02*
X393701D01*
Y393701D01*
X0D02*
X393701D01*
X0Y0D02*
Y393701D01*
D15*
X-36371Y-118085D02*
G03*
X-36045Y-109630I-19940810J772725D01*
G01*
D72*
X328107Y120490D02*
D03*
D86*
X216535Y43307D02*
D03*
X226535D02*
D03*
X238347Y192913D02*
D03*
X228346D02*
D03*
X318898D02*
D03*
D91*
X373849Y42700D02*
D03*
D94*
X275302Y126153D02*
D03*
X226674Y96038D02*
D03*
X345620Y92651D02*
D03*
X352237Y93554D02*
D03*
X277952Y77002D02*
D03*
X387592Y160680D02*
D03*
X359043Y75779D02*
D03*
X349076Y74533D02*
D03*
X340594Y80187D02*
D03*
X358962Y38607D02*
D03*
X348955Y39620D02*
D03*
X340088Y34427D02*
D03*
X378152Y135065D02*
D03*
X340341Y149631D02*
D03*
X369968Y177826D02*
D03*
X309251Y215518D02*
D03*
X298916Y213380D02*
D03*
X264437Y164022D02*
D03*
X275395Y146008D02*
D03*
X339194Y162377D02*
D03*
X340124Y119411D02*
D03*
X331093Y108555D02*
D03*
X290976Y107466D02*
D03*
X276860Y103555D02*
D03*
X267454Y101486D02*
D03*
X360455Y95325D02*
D03*
X264875Y48757D02*
D03*
X236209Y97129D02*
D03*
M02*
